<svg width="147" height="41" viewBox="0 0 147 41" fill="none" xmlns="http://www.w3.org/2000/svg">
    <path d="M13.4616 20.795C13.4086 20.6555 13.314 20.5354 13.1903 20.4511C13.0667 20.3667 12.92 20.3222 12.7702 20.3233H7.8177C7.69713 20.3216 7.57799 20.3495 7.47085 20.4046C7.36371 20.4596 7.27188 20.5402 7.20349 20.639C7.1351 20.7378 7.09228 20.8519 7.07881 20.9712C7.06534 21.0904 7.08164 21.2111 7.12627 21.3226L13.2515 37.2189C13.3044 37.3585 13.3991 37.4785 13.5227 37.5628C13.6464 37.6472 13.793 37.6918 13.9429 37.6906H18.8905C19.0108 37.6922 19.1296 37.6642 19.2364 37.6093C19.3433 37.5544 19.4349 37.4741 19.5033 37.3756C19.5716 37.2771 19.6145 37.1634 19.6282 37.0445C19.6419 36.9256 19.626 36.8051 19.5819 36.6937L13.4616 20.795Z" fill="#EBEBEB"/>
    <path d="M6.94328 20.8728C6.9837 20.7147 7.07618 20.5747 7.20594 20.4751C7.33571 20.3755 7.49528 20.3221 7.65915 20.3233H12.6605C12.7742 20.3218 12.8867 20.3467 12.9891 20.396C13.0915 20.4453 13.1809 20.5176 13.2504 20.6073C13.3198 20.6969 13.3674 20.8014 13.3892 20.9125C13.4111 21.0235 13.4067 21.1381 13.3763 21.2472L9.19107 37.1411C9.15065 37.2992 9.05817 37.4392 8.9284 37.5388C8.79864 37.6384 8.63907 37.6918 8.4752 37.6906H3.47387C3.36015 37.6921 3.24764 37.6672 3.14525 37.6179C3.04286 37.5686 2.95341 37.4963 2.88396 37.4066C2.81451 37.317 2.76697 37.2125 2.74511 37.1015C2.72325 36.9904 2.72766 36.8758 2.758 36.7667L6.94328 20.8728Z" fill="white"/>
    <path d="M17.5912 20.8728C17.6317 20.7147 17.7241 20.5747 17.8539 20.4751C17.9837 20.3755 18.1432 20.3221 18.3071 20.3233H23.2987C23.4124 20.3218 23.5249 20.3467 23.6273 20.396C23.7297 20.4453 23.8191 20.5176 23.8886 20.6073C23.958 20.6969 24.0056 20.8014 24.0274 20.9125C24.0493 21.0235 24.0449 21.1381 24.0145 21.2472L19.8293 37.1411C19.7888 37.2992 19.6964 37.4392 19.5666 37.5388C19.4368 37.6384 19.2773 37.6918 19.1134 37.6906H14.1096C13.9959 37.6921 13.8834 37.6672 13.781 37.6179C13.6786 37.5686 13.5891 37.4963 13.5197 37.4066C13.4503 37.317 13.4027 37.2125 13.3809 37.1015C13.359 36.9904 13.3634 36.8758 13.3937 36.7667L17.5912 20.8728Z" fill="white"/>
    <path d="M23.8924 37.8348H26.5116C26.7169 37.835 26.9166 37.7683 27.0803 37.6449C27.2439 37.5216 27.3625 37.3483 27.418 37.1516L28.9548 31.6956H34.4863C34.6916 31.6955 34.8912 31.6284 35.0545 31.5045C35.2178 31.3807 35.3358 31.2069 35.3903 31.0099L36.0988 28.5008C36.1383 28.3608 36.1445 28.2136 36.1168 28.0708C36.0892 27.928 36.0285 27.7936 35.9396 27.6782C35.8507 27.5628 35.736 27.4697 35.6046 27.4061C35.4732 27.3425 35.3287 27.3102 35.1826 27.3118H30.1911L30.9094 24.7808H36.5582C36.7635 24.7809 36.9632 24.7143 37.1269 24.5909C37.2905 24.4675 37.4092 24.2943 37.4646 24.0976L38.1732 21.5884C38.2115 21.4495 38.2171 21.3037 38.1896 21.1623C38.162 21.0209 38.1021 20.8877 38.0144 20.7731C37.9267 20.6585 37.8136 20.5657 37.6839 20.5017C37.5542 20.4377 37.4114 20.4044 37.2667 20.4043H28.2829C28.0777 20.4045 27.8782 20.4714 27.7146 20.5947C27.551 20.718 27.4323 20.891 27.3765 21.0875L22.9786 36.6483C22.9397 36.7879 22.9338 36.9347 22.9615 37.077C22.9893 37.2192 23.0498 37.3531 23.1384 37.4682C23.227 37.5832 23.3412 37.6762 23.472 37.7398C23.6029 37.8034 23.7468 37.836 23.8924 37.8348Z" fill="white"/>
    <path d="M53.2362 20.4043H41.9704C41.7652 20.4045 41.5656 20.4714 41.402 20.5947C41.2385 20.718 41.1198 20.891 41.0639 21.0875L40.3578 23.5967C40.3195 23.7356 40.3139 23.8814 40.3414 24.0228C40.3689 24.1642 40.4289 24.2974 40.5166 24.412C40.6043 24.5265 40.7174 24.6194 40.8471 24.6834C40.9768 24.7474 41.1195 24.7807 41.2643 24.7808H44.3452L40.998 36.6459C40.9582 36.7849 40.9515 36.9312 40.9783 37.0733C41.0051 37.2153 41.0646 37.3493 41.1522 37.4645C41.2399 37.5798 41.3532 37.6732 41.4833 37.7375C41.6134 37.8017 41.7567 37.8351 41.902 37.8348H44.5236C44.7289 37.835 44.9286 37.7683 45.0923 37.6449C45.2559 37.5216 45.3745 37.3483 45.43 37.1516L48.919 24.7808H52.5301C52.7353 24.7805 52.9348 24.7137 53.0984 24.5904C53.262 24.4671 53.3807 24.2941 53.4365 24.0976L54.1426 21.5884C54.1815 21.4495 54.1875 21.3035 54.1602 21.1619C54.1328 21.0203 54.0729 20.8869 53.9851 20.7722C53.8973 20.6575 53.784 20.5645 53.654 20.5007C53.5241 20.4369 53.3811 20.4039 53.2362 20.4043Z" fill="white"/>
    <path d="M54.1492 37.8348H56.7684C56.9738 37.8354 57.1737 37.7689 57.3375 37.6455C57.5012 37.522 57.6198 37.3485 57.6748 37.1516L62.0727 21.5908C62.1117 21.4512 62.1175 21.3045 62.0898 21.1622C62.0621 21.0199 62.0015 20.886 61.9129 20.771C61.8244 20.6559 61.7101 20.5629 61.5793 20.4993C61.4485 20.4357 61.3045 20.4032 61.1589 20.4043H58.5398C58.3344 20.4042 58.1347 20.4708 57.9711 20.5942C57.8074 20.7176 57.6888 20.8908 57.6333 21.0875L53.2355 36.6483C53.1965 36.788 53.1906 36.9347 53.2184 37.077C53.2461 37.2192 53.3066 37.3532 53.3952 37.4682C53.4838 37.5832 53.598 37.6762 53.7289 37.7398C53.8597 37.8035 54.0036 37.836 54.1492 37.8348Z" fill="white"/>
    <path d="M75.6382 31.7337C75.1163 32.3724 74.4554 32.8848 73.7054 33.2323C72.9555 33.5798 72.136 33.7532 71.3088 33.7395C70.0408 33.7395 69.1294 33.3335 68.6041 32.5384C68.0568 31.685 67.9713 30.5666 68.3598 29.2147C68.7052 27.8673 69.4759 26.6656 70.5587 25.7865C71.6009 24.9407 72.9082 24.4855 74.2529 24.5003C75.8264 24.5003 76.811 25.0838 77.2654 26.2801C77.2825 26.3264 77.3093 26.3687 77.3439 26.404C77.3786 26.4393 77.4203 26.467 77.4665 26.4851C77.5126 26.5033 77.5621 26.5115 77.6117 26.5093C77.6612 26.507 77.7098 26.4944 77.7541 26.4722L81.4556 24.6413C81.5389 24.6012 81.6044 24.5318 81.6396 24.4466C81.6747 24.3614 81.6771 24.2662 81.6462 24.1794C80.7055 21.5049 78.3722 20.0703 75.0494 20.0703C72.4916 20.0638 70.0098 20.9354 68.0226 22.5382C65.9857 24.1145 64.5214 26.3093 63.852 28.7893C63.1533 31.3787 63.4464 33.6082 64.7218 35.4148C66.0119 37.2431 68.0202 38.1695 70.6882 38.1695C73.8351 38.1695 76.8892 36.7326 79.0685 34.2258C79.1008 34.1886 79.1248 34.1451 79.1392 34.0981C79.1535 34.0511 79.1579 34.0016 79.1519 33.9529C79.1459 33.9041 79.1297 33.8571 79.1045 33.815C79.0792 33.7728 79.0453 33.7363 79.005 33.7079L76.0976 31.6753C76.0259 31.6258 75.9384 31.6045 75.8518 31.6152C75.7652 31.626 75.6857 31.6682 75.6285 31.7337H75.6382Z" fill="white"/>
    <path d="M90.5422 20.8492L80.8377 36.41C80.7492 36.5519 80.7005 36.7148 80.6965 36.8818C80.6926 37.0488 80.7337 37.2138 80.8155 37.3596C80.8972 37.5055 81.0167 37.6269 81.1615 37.7113C81.3063 37.7957 81.4712 37.84 81.6391 37.8397H84.4537C84.6144 37.84 84.7724 37.7993 84.9128 37.7214C85.0531 37.6434 85.1709 37.531 85.2551 37.3947L86.6013 35.2065H92.3038L92.3405 36.9206C92.3462 37.1651 92.4478 37.3976 92.6236 37.5684C92.7994 37.7393 93.0354 37.8349 93.2811 37.8348H96.2838C96.4122 37.835 96.5393 37.8091 96.6573 37.7586C96.7752 37.7081 96.8815 37.6341 96.9697 37.5412C97.0578 37.4482 97.1259 37.3383 97.1697 37.2182C97.2135 37.0981 97.2322 36.9704 97.2245 36.8428L96.2985 21.282C96.2836 21.0444 96.1783 20.8214 96.004 20.6584C95.8297 20.4953 95.5995 20.4045 95.3603 20.4043H91.3436C91.1831 20.4047 91.0252 20.4457 90.885 20.5235C90.7448 20.6014 90.6269 20.7135 90.5422 20.8492ZM92.2354 30.92H89.2131L92.145 26.1496L92.2354 30.92Z" fill="white"/>
    <path d="M108.537 20.4043H105.917C105.712 20.4045 105.513 20.4714 105.349 20.5947C105.185 20.718 105.067 20.891 105.011 21.0875L100.613 36.6483C100.574 36.7875 100.568 36.9339 100.595 37.0759C100.622 37.2179 100.682 37.3518 100.769 37.467C100.857 37.5821 100.971 37.6755 101.101 37.7397C101.231 37.804 101.374 37.8374 101.52 37.8372H110.142C110.347 37.8382 110.547 37.7718 110.711 37.6484C110.875 37.5249 110.993 37.3512 111.048 37.154L111.757 34.6449C111.796 34.5057 111.802 34.3593 111.775 34.2173C111.748 34.0752 111.688 33.9414 111.6 33.8262C111.513 33.711 111.399 33.6177 111.269 33.5534C111.139 33.4892 110.996 33.4558 110.85 33.4559H106.096L109.443 21.5981C109.483 21.4586 109.49 21.3117 109.463 21.169C109.437 21.0264 109.377 20.8918 109.289 20.7761C109.201 20.6603 109.087 20.5664 108.957 20.5019C108.826 20.4374 108.682 20.404 108.537 20.4043Z" fill="white"/>
    <path d="M122.462 20.4043H119.843C119.638 20.4045 119.438 20.4714 119.275 20.5947C119.111 20.718 118.993 20.891 118.937 21.0875L114.539 36.6483C114.5 36.7875 114.493 36.9339 114.52 37.0759C114.548 37.2179 114.607 37.3518 114.695 37.467C114.783 37.5821 114.896 37.6755 115.027 37.7397C115.157 37.804 115.3 37.8374 115.445 37.8372H124.068C124.273 37.8378 124.473 37.7713 124.637 37.6479C124.8 37.5244 124.919 37.351 124.974 37.154L125.68 34.6449C125.719 34.5057 125.726 34.3593 125.699 34.2173C125.671 34.0752 125.612 33.9414 125.524 33.8262C125.436 33.711 125.323 33.6177 125.192 33.5534C125.062 33.4892 124.919 33.4558 124.774 33.4559H120.022L123.369 21.5981C123.409 21.4586 123.416 21.3117 123.389 21.169C123.363 21.0264 123.303 20.8918 123.215 20.7761C123.127 20.6603 123.013 20.5664 122.883 20.5019C122.752 20.4374 122.608 20.404 122.462 20.4043Z" fill="white"/>
    <path d="M139.333 20.7569L135.424 25.6196L134.329 21.1337C134.282 20.9272 134.166 20.7427 134.001 20.6102C133.835 20.4777 133.628 20.4051 133.416 20.4043H130.508C130.362 20.4041 130.218 20.4379 130.087 20.5028C129.956 20.5678 129.842 20.6622 129.755 20.7785C129.667 20.8948 129.608 21.0299 129.582 21.173C129.555 21.3162 129.563 21.4634 129.604 21.603L132.111 30.1468L130.276 36.6459C130.237 36.7851 130.231 36.9314 130.258 37.0735C130.285 37.2155 130.345 37.3494 130.432 37.4645C130.52 37.5797 130.634 37.6731 130.764 37.7373C130.894 37.8016 131.037 37.835 131.183 37.8348H133.804C134.009 37.8354 134.208 37.7692 134.371 37.6462C134.535 37.5232 134.653 37.3503 134.708 37.1541L136.636 30.3462L143.814 21.9555C143.933 21.8197 144.01 21.6525 144.036 21.474C144.062 21.2956 144.035 21.1135 143.96 20.9497C143.884 20.7859 143.763 20.6473 143.61 20.5505C143.457 20.4538 143.279 20.403 143.098 20.4043H140.069C139.927 20.4045 139.788 20.4363 139.661 20.4973C139.533 20.5583 139.421 20.647 139.333 20.7569Z" fill="white"/>
    <path d="M0.84 12V3.36H4.176C4.26 3.36 4.354 3.364 4.458 3.372C4.566 3.376 4.674 3.388 4.782 3.408C5.234 3.476 5.616 3.634 5.928 3.882C6.244 4.126 6.482 4.434 6.642 4.806C6.806 5.178 6.888 5.59 6.888 6.042C6.888 6.49 6.806 6.9 6.642 7.272C6.478 7.644 6.238 7.954 5.922 8.202C5.61 8.446 5.23 8.602 4.782 8.67C4.674 8.686 4.566 8.698 4.458 8.706C4.354 8.714 4.26 8.718 4.176 8.718H1.722V12H0.84ZM1.722 7.878H4.152C4.224 7.878 4.308 7.874 4.404 7.866C4.5 7.858 4.594 7.844 4.686 7.824C4.982 7.76 5.224 7.638 5.412 7.458C5.604 7.278 5.746 7.064 5.838 6.816C5.934 6.568 5.982 6.31 5.982 6.042C5.982 5.774 5.934 5.516 5.838 5.268C5.746 5.016 5.604 4.8 5.412 4.62C5.224 4.44 4.982 4.318 4.686 4.254C4.594 4.234 4.5 4.222 4.404 4.218C4.308 4.21 4.224 4.206 4.152 4.206H1.722V7.878ZM10.753 12.18C10.109 12.18 9.55903 12.034 9.10303 11.742C8.64703 11.45 8.29703 11.046 8.05303 10.53C7.80903 10.014 7.68703 9.422 7.68703 8.754C7.68703 8.074 7.81103 7.478 8.05903 6.966C8.30703 6.454 8.65903 6.056 9.11503 5.772C9.57503 5.484 10.121 5.34 10.753 5.34C11.401 5.34 11.953 5.486 12.409 5.778C12.869 6.066 13.219 6.468 13.459 6.984C13.703 7.496 13.825 8.086 13.825 8.754C13.825 9.434 13.703 10.032 13.459 10.548C13.215 11.06 12.863 11.46 12.403 11.748C11.943 12.036 11.393 12.18 10.753 12.18ZM10.753 11.334C11.473 11.334 12.009 11.096 12.361 10.62C12.713 10.14 12.889 9.518 12.889 8.754C12.889 7.97 12.711 7.346 12.355 6.882C12.003 6.418 11.469 6.186 10.753 6.186C10.269 6.186 9.86903 6.296 9.55303 6.516C9.24103 6.732 9.00703 7.034 8.85103 7.422C8.69903 7.806 8.62303 8.25 8.62303 8.754C8.62303 9.534 8.80303 10.16 9.16303 10.632C9.52303 11.1 10.053 11.334 10.753 11.334ZM16.2942 12L14.3142 5.514L15.1962 5.52L16.7322 10.554L18.2742 5.52H19.0782L20.6202 10.554L22.1682 5.52H23.0442L21.0642 12H20.2962L18.6762 6.84L17.0622 12H16.2942ZM26.6328 12.18C26.0008 12.18 25.4528 12.04 24.9888 11.76C24.5288 11.48 24.1708 11.086 23.9148 10.578C23.6588 10.07 23.5308 9.474 23.5308 8.79C23.5308 8.082 23.6568 7.47 23.9088 6.954C24.1608 6.438 24.5148 6.04 24.9708 5.76C25.4308 5.48 25.9728 5.34 26.5968 5.34C27.2368 5.34 27.7828 5.488 28.2348 5.784C28.6868 6.076 29.0288 6.496 29.2608 7.044C29.4928 7.592 29.5988 8.246 29.5788 9.006H28.6788V8.694C28.6628 7.854 28.4808 7.22 28.1328 6.792C27.7888 6.364 27.2848 6.15 26.6208 6.15C25.9248 6.15 25.3908 6.376 25.0188 6.828C24.6508 7.28 24.4668 7.924 24.4668 8.76C24.4668 9.576 24.6508 10.21 25.0188 10.662C25.3908 11.11 25.9168 11.334 26.5968 11.334C27.0608 11.334 27.4648 11.228 27.8088 11.016C28.1568 10.8 28.4308 10.49 28.6308 10.086L29.4528 10.404C29.1968 10.968 28.8188 11.406 28.3188 11.718C27.8228 12.026 27.2608 12.18 26.6328 12.18ZM24.1548 9.006V8.268H29.1048V9.006H24.1548ZM30.9103 12V5.52H31.7023V7.08L31.5463 6.876C31.6183 6.684 31.7123 6.508 31.8283 6.348C31.9443 6.184 32.0703 6.05 32.2063 5.946C32.3743 5.798 32.5703 5.686 32.7943 5.61C33.0183 5.53 33.2443 5.484 33.4723 5.472C33.7003 5.456 33.9083 5.472 34.0963 5.52V6.348C33.8603 6.288 33.6023 6.274 33.3223 6.306C33.0423 6.338 32.7843 6.45 32.5483 6.642C32.3323 6.81 32.1703 7.012 32.0623 7.248C31.9543 7.48 31.8823 7.728 31.8463 7.992C31.8103 8.252 31.7923 8.51 31.7923 8.766V12H30.9103ZM37.8593 12.18C37.2273 12.18 36.6793 12.04 36.2153 11.76C35.7553 11.48 35.3973 11.086 35.1413 10.578C34.8853 10.07 34.7573 9.474 34.7573 8.79C34.7573 8.082 34.8833 7.47 35.1353 6.954C35.3873 6.438 35.7413 6.04 36.1973 5.76C36.6573 5.48 37.1993 5.34 37.8233 5.34C38.4633 5.34 39.0093 5.488 39.4613 5.784C39.9133 6.076 40.2553 6.496 40.4873 7.044C40.7193 7.592 40.8253 8.246 40.8053 9.006H39.9053V8.694C39.8893 7.854 39.7073 7.22 39.3593 6.792C39.0153 6.364 38.5113 6.15 37.8473 6.15C37.1513 6.15 36.6173 6.376 36.2453 6.828C35.8773 7.28 35.6933 7.924 35.6933 8.76C35.6933 9.576 35.8773 10.21 36.2453 10.662C36.6173 11.11 37.1433 11.334 37.8233 11.334C38.2873 11.334 38.6913 11.228 39.0353 11.016C39.3833 10.8 39.6573 10.49 39.8573 10.086L40.6793 10.404C40.4233 10.968 40.0453 11.406 39.5453 11.718C39.0493 12.026 38.4873 12.18 37.8593 12.18ZM35.3813 9.006V8.268H40.3313V9.006H35.3813ZM44.6509 12.18C44.0469 12.18 43.5309 12.03 43.1029 11.73C42.6749 11.426 42.3469 11.016 42.1189 10.5C41.8909 9.984 41.7769 9.402 41.7769 8.754C41.7769 8.11 41.8889 7.53 42.1129 7.014C42.3409 6.498 42.6669 6.09 43.0909 5.79C43.5149 5.49 44.0229 5.34 44.6149 5.34C45.2229 5.34 45.7349 5.488 46.1509 5.784C46.5669 6.08 46.8809 6.486 47.0929 7.002C47.3089 7.514 47.4169 8.098 47.4169 8.754C47.4169 9.398 47.3109 9.98 47.0989 10.5C46.8869 11.016 46.5749 11.426 46.1629 11.73C45.7509 12.03 45.2469 12.18 44.6509 12.18ZM44.7409 11.358C45.2009 11.358 45.5809 11.246 45.8809 11.022C46.1809 10.798 46.4049 10.49 46.5529 10.098C46.7009 9.702 46.7749 9.254 46.7749 8.754C46.7749 8.246 46.7009 7.798 46.5529 7.41C46.4049 7.018 46.1809 6.712 45.8809 6.492C45.5849 6.272 45.2109 6.162 44.7589 6.162C44.2949 6.162 43.9109 6.276 43.6069 6.504C43.3029 6.732 43.0769 7.042 42.9289 7.434C42.7849 7.826 42.7129 8.266 42.7129 8.754C42.7129 9.246 42.7869 9.69 42.9349 10.086C43.0869 10.478 43.3129 10.788 43.6129 11.016C43.9129 11.244 44.2889 11.358 44.7409 11.358ZM46.7749 12V7.122H46.6789V3.36H47.5669V12H46.7749ZM51.6525 12V3.36H54.9885C55.4725 3.36 55.8945 3.46 56.2545 3.66C56.6145 3.86 56.8945 4.13 57.0945 4.47C57.2945 4.806 57.3945 5.178 57.3945 5.586C57.3945 6.05 57.2705 6.464 57.0225 6.828C56.7745 7.188 56.4425 7.438 56.0265 7.578L56.0145 7.284C56.5745 7.444 57.0145 7.724 57.3345 8.124C57.6545 8.524 57.8145 9.008 57.8145 9.576C57.8145 10.076 57.7085 10.508 57.4965 10.872C57.2845 11.232 56.9865 11.51 56.6025 11.706C56.2185 11.902 55.7725 12 55.2645 12H51.6525ZM52.5405 11.154H55.0485C55.4005 11.154 55.7165 11.092 55.9965 10.968C56.2765 10.84 56.4965 10.66 56.6565 10.428C56.8205 10.196 56.9025 9.916 56.9025 9.588C56.9025 9.268 56.8285 8.98 56.6805 8.724C56.5325 8.468 56.3305 8.264 56.0745 8.112C55.8225 7.956 55.5345 7.878 55.2105 7.878H52.5405V11.154ZM52.5405 7.044H54.9825C55.2585 7.044 55.5105 6.982 55.7385 6.858C55.9665 6.73 56.1465 6.556 56.2785 6.336C56.4145 6.116 56.4825 5.862 56.4825 5.574C56.4825 5.166 56.3405 4.834 56.0565 4.578C55.7765 4.322 55.4185 4.194 54.9825 4.194H52.5405V7.044ZM59.9359 14.88L61.1899 11.478L61.2079 12.486L58.3699 5.52H59.3059L61.6339 11.346H61.2499L63.3979 5.52H64.2979L60.8179 14.88H59.9359Z" fill="white"/>
</svg>