<svg width="359" height="41" viewBox="0 0 359 41" fill="none" xmlns="http://www.w3.org/2000/svg">
    <path d="M58.1444 19.1054C59.588 17.4155 60.9829 15.7823 62.3758 14.1511C63.6651 12.641 64.9506 11.127 66.2497 9.62667C66.4802 9.35903 66.7479 9.10311 67.0448 8.91557C67.8458 8.4135 68.7034 8.7124 69.0101 9.60713C69.1332 9.96854 69.1761 10.371 69.1781 10.7558C69.1879 17.478 69.1898 24.2003 69.1722 30.9225C69.1722 31.3581 69.055 31.8309 68.8616 32.2196C68.6526 32.6397 68.1779 32.7412 67.7188 32.7412C66.0426 32.7452 64.3665 32.7608 62.6903 32.7393C61.6764 32.7256 61.1978 32.2177 61.1841 31.1608C61.1646 29.6312 61.1782 28.1015 61.1763 26.5699C61.1763 26.398 61.1763 26.2261 61.0591 26.0132C60.8813 26.2339 60.7035 26.4547 60.5238 26.6735C60.0608 27.24 59.6193 27.828 59.125 28.3653C58.4491 29.0998 57.7458 29.0998 57.0738 28.3555C56.5073 27.7284 55.9974 27.0505 55.4621 26.3961C55.3527 26.2613 55.2414 26.1284 55.0577 25.9057C55.0441 26.1714 55.0284 26.3238 55.0284 26.4781C55.0284 28.0078 55.0323 29.5374 55.0245 31.069C55.0187 32.2509 54.542 32.7393 53.3679 32.7471C51.805 32.7588 50.2422 32.7588 48.6793 32.7471C47.5092 32.7373 47.0227 32.2489 47.0208 31.067C47.0149 24.2471 47.0129 17.4273 47.0305 10.6074C47.0305 10.1854 47.1458 9.7263 47.3333 9.34926C47.6674 8.67528 48.443 8.47602 49.0876 8.87259C49.4276 9.08162 49.7343 9.36684 49.996 9.66965C52.5845 12.6586 55.1613 15.6593 57.7419 18.656C57.8572 18.7889 57.9744 18.9198 58.1385 19.1054H58.1444Z" fill="white"/>
    <path d="M171.818 17.1132V16.5485C171.818 14.537 171.816 12.5254 171.818 10.5139C171.82 9.16285 172.303 8.68191 173.652 8.67593C175.149 8.67194 176.646 8.67194 178.142 8.67593C179.495 8.67992 179.996 9.16484 179.996 10.4999C180 17.3168 180 24.1337 179.996 30.9506C179.996 32.2737 179.511 32.7466 178.18 32.7506C176.652 32.7566 175.121 32.7586 173.593 32.7506C172.297 32.7446 171.824 32.2677 171.82 30.9666C171.815 28.2067 171.82 25.4468 171.82 22.6869C171.82 22.4913 171.82 22.2978 171.82 22.0683H166.865V22.653C166.865 25.347 166.865 28.0391 166.865 30.7331C166.865 30.9825 166.865 31.234 166.84 31.4794C166.762 32.2098 166.311 32.7047 165.576 32.7187C163.714 32.7526 161.853 32.7506 159.991 32.7187C159.3 32.7067 158.897 32.2976 158.761 31.6211C158.714 31.3777 158.688 31.1262 158.688 30.8788C158.684 24.1118 158.684 17.3447 158.688 10.5777C158.688 10.3622 158.702 10.1447 158.737 9.93314C158.869 9.15686 159.28 8.71783 160.071 8.69987C161.882 8.66196 163.694 8.65797 165.506 8.69987C166.379 8.72183 166.84 9.26462 166.849 10.1826C166.873 12.3099 166.875 14.4392 166.855 16.5665C166.851 17.0234 166.975 17.1611 167.436 17.1512C168.715 17.1212 169.997 17.1412 171.276 17.1392C171.437 17.1392 171.599 17.1212 171.82 17.1093L171.818 17.1132Z" fill="white"/>
    <path d="M124.12 29.8605C124.12 30.2869 124.13 30.7012 124.12 31.1136C124.086 32.2332 123.606 32.7332 122.496 32.7432C120.755 32.7611 119.012 32.7591 117.269 32.7432C116.132 32.7332 115.635 32.2332 115.631 31.0837C115.62 28.4621 115.626 25.8404 115.626 23.2187C115.626 19.087 115.626 14.9553 115.626 10.8236C115.626 10.5905 115.624 10.3574 115.641 10.1263C115.707 9.28963 116.159 8.7398 116.986 8.74378C120.052 8.75773 123.13 8.47684 126.18 8.92706C130.441 9.55658 133.804 12.8317 134.684 17.0749C135.294 20.0074 134.647 22.6669 133.031 25.1292C132.844 25.4161 132.816 25.6193 132.993 25.9241C133.804 27.3325 134.593 28.7529 135.38 30.1753C136.272 31.7909 135.724 32.7352 133.884 32.7432C132.059 32.7531 130.234 32.7352 128.407 32.7512C127.614 32.7571 127.046 32.4364 126.658 31.7471C126.323 31.1554 125.931 30.5957 125.61 29.998C125.419 29.6414 125.21 29.5139 124.825 29.6633C124.612 29.747 124.383 29.7888 124.122 29.8586L124.12 29.8605ZM123.853 16.3618V23.0932C125.048 23.0195 125.979 22.5394 126.566 21.5413C127.284 20.3241 127.234 19.0531 126.537 17.8479C125.963 16.8538 125.032 16.4056 123.853 16.3618Z" fill="white"/>
    <path d="M71.9587 20.7218C71.9587 17.3961 71.9587 14.0703 71.9587 10.7445C71.9587 10.4949 71.9587 10.2434 71.9886 9.99785C72.0844 9.19735 72.5096 8.78012 73.3122 8.69029C73.5258 8.66634 73.7434 8.67033 73.9589 8.67033C78.2489 8.67033 82.5409 8.67033 86.8309 8.67033C87.0625 8.67033 87.3001 8.66434 87.5276 8.69828C88.3062 8.81207 88.7673 9.27919 88.7913 10.0677C88.8232 11.2136 88.8272 12.3634 88.7913 13.5093C88.7653 14.3797 88.2423 14.8728 87.336 14.8827C85.1421 14.9067 82.9462 14.9087 80.7503 14.8887C80.2832 14.8847 80.0795 14.9885 80.1334 15.4856C80.1734 15.8629 80.1694 16.2522 80.1334 16.6315C80.0935 17.0647 80.2752 17.1545 80.6744 17.1505C82.7366 17.1325 84.7987 17.1405 86.8609 17.1425C88.3681 17.1425 88.8073 17.5897 88.8112 19.1148C88.8112 19.564 88.8192 20.0132 88.8053 20.4623C88.7773 21.4665 88.3162 21.9655 87.3061 22.0154C86.5095 22.0554 85.711 22.0314 84.9125 22.0334C83.4832 22.0334 82.0518 22.0454 80.6225 22.0274C80.2612 22.0234 80.1254 22.1133 80.1334 22.4985C80.1574 23.6783 80.1574 24.8601 80.1334 26.0399C80.1254 26.4372 80.2492 26.547 80.6425 26.545C82.7386 26.527 84.8327 26.535 86.9288 26.537C88.3501 26.539 88.8092 27.0001 88.8112 28.4195C88.8132 29.3338 88.8212 30.2481 88.8053 31.1624C88.7873 32.2164 88.2902 32.7434 87.2402 32.7454C82.6667 32.7594 78.0932 32.7594 73.5198 32.7454C72.4418 32.7414 71.9707 32.2144 71.9627 31.0506C71.9487 28.9046 71.9587 26.7606 71.9567 24.6146C71.9567 23.317 71.9567 22.0194 71.9567 20.7238L71.9587 20.7218Z" fill="white"/>
    <path d="M11.8711 32.086C8.92828 32.0573 6.23406 31.2872 3.96815 29.3379C1.7271 27.4097 0.558776 24.9025 0.13619 22.015C-0.611463 16.9088 1.75961 11.9917 6.25509 9.538C9.86906 7.56584 13.5806 7.49896 17.3016 9.28766C18.4202 9.82465 18.6267 10.4687 18.0722 11.5713C17.4431 12.823 16.8025 14.0671 16.1486 15.3054C15.6572 16.238 15.1084 16.4348 14.1427 15.9991C12.81 15.3952 11.4848 15.2385 10.1521 15.9685C8.50952 16.8686 7.63758 18.7624 7.90528 20.8129C8.13856 22.5921 9.45221 24.1381 11.1101 24.5279C12.1656 24.7764 13.1962 24.633 14.1963 24.2241C15.7088 23.6087 16.183 23.8323 16.7069 25.3955C17.1257 26.6472 17.554 27.8951 17.946 29.1564C18.2118 30.0144 17.9537 30.5629 17.1429 30.947C15.4736 31.7344 13.7125 32.1051 11.8673 32.0841L11.8711 32.086Z" fill="white"/>
    <mask id="path-6-inside-1_574_2" fill="white">
        <path fill-rule="evenodd" clip-rule="evenodd" d="M32.7988 32.086C39.45 32.086 44.8418 26.6941 44.8418 20.043C44.8418 13.3918 39.45 8 32.7988 8C26.1477 8 20.7559 13.3918 20.7559 20.043C20.7559 26.6941 26.1477 32.086 32.7988 32.086ZM32.7985 28.741C37.6021 28.741 41.4962 24.8469 41.4962 20.0433C41.4962 15.2397 37.6021 11.3456 32.7985 11.3456C27.9949 11.3456 24.1008 15.2397 24.1008 20.0433C24.1008 24.8469 27.9949 28.741 32.7985 28.741Z"/>
    </mask>
    <path fill-rule="evenodd" clip-rule="evenodd" d="M32.7988 32.086C39.45 32.086 44.8418 26.6941 44.8418 20.043C44.8418 13.3918 39.45 8 32.7988 8C26.1477 8 20.7559 13.3918 20.7559 20.043C20.7559 26.6941 26.1477 32.086 32.7988 32.086ZM32.7985 28.741C37.6021 28.741 41.4962 24.8469 41.4962 20.0433C41.4962 15.2397 37.6021 11.3456 32.7985 11.3456C27.9949 11.3456 24.1008 15.2397 24.1008 20.0433C24.1008 24.8469 27.9949 28.741 32.7985 28.741Z" fill="white"/>
    <path d="M12.8418 20.043C12.8418 9.02104 21.7769 0.0859756 32.7988 0.0859756V64.086C57.1231 64.086 76.8418 44.3673 76.8418 20.043H12.8418ZM32.7988 40C21.7769 40 12.8418 31.0649 12.8418 20.043H76.8418C76.8418 -4.28128 57.1231 -24 32.7988 -24V40ZM52.7559 20.043C52.7559 31.0649 43.8208 40 32.7988 40V-24C8.47458 -24 -11.2441 -4.28128 -11.2441 20.043H52.7559ZM32.7988 0.0859756C43.8208 0.0859756 52.7559 9.02103 52.7559 20.043H-11.2441C-11.2441 44.3673 8.47458 64.086 32.7988 64.086V0.0859756ZM9.49619 20.0433C9.49619 7.17379 19.929 -3.259 32.7985 -3.259V60.741C55.2752 60.741 73.4962 42.52 73.4962 20.0433H9.49619ZM32.7985 43.3456C19.929 43.3456 9.49619 32.9128 9.49619 20.0433H73.4962C73.4962 -2.43345 55.2752 -20.6544 32.7985 -20.6544V43.3456ZM56.1008 20.0433C56.1008 32.9128 45.668 43.3456 32.7985 43.3456V-20.6544C10.3217 -20.6544 -7.89924 -2.43344 -7.89924 20.0433H56.1008ZM32.7985 -3.259C45.668 -3.259 56.1008 7.17379 56.1008 20.0433H-7.89924C-7.89924 42.52 10.3217 60.741 32.7985 60.741V-3.259Z" fill="white" mask="url(#path-6-inside-1_574_2)"/>
    <path d="M30.5059 11.3438C31.7728 11.4183 34.5746 12.0347 35.29 12.2136C36.1843 12.4372 37.8406 13.0905 38.0642 14.8791C38.2878 16.6677 38.5113 18.0092 39.1821 18.9034C39.8528 19.7977 40.2999 21.5863 36.4992 20.9156C34.793 20.4891 30.8488 19.859 27.3838 22.7131C27.0437 22.9933 26.6322 23.2286 26.4249 23.6175C26.2391 23.9661 26.2885 24.4141 26.4384 25.1635C26.6173 26.0578 26.3639 26.1323 26.2148 26.0578" stroke="white" stroke-width="0.6"/>
    <path d="M24.1025 15.6951C24.9968 15.3225 28.4959 14.0312 29.5691 13.3158C30.9105 12.4215 34.0405 12.1979 35.1584 14.2101C36.2763 16.2223 36.4998 18.6816 34.9348 19.1287C33.817 19.3523 32.0284 17.3401 27.7805 19.7994C25.9919 20.9173 25.0976 22.0352 25.3212 22.9295C25.5001 23.6449 25.3957 24.4199 25.3212 24.718" stroke="white" stroke-width="0.6"/>
    <path d="M41.1951 16.2192C40.748 16.3682 39.8984 16.9346 40.0773 18.0078C40.3009 19.3492 42.0894 22.0321 39.4066 23.15C37.8415 23.5971 38.0651 22.2557 34.2644 22.4792C31.1344 22.4792 28.8986 22.7028 28.4515 25.1621C28.2279 26.5035 28.2279 27.1743 27.7808 27.3978M30.2401 28.7393C29.5693 27.7705 28.7645 25.6093 30.9108 24.715C32.2522 24.156 34.0408 24.0442 35.1587 24.0442C36.9473 24.0442 37.3944 25.1621 38.7358 25.1621C39.809 25.1621 40.3754 25.1621 40.5244 25.1621M25.9922 16.8899C26.7416 16.1405 28.4644 14.7631 30.1607 14.3365C30.795 14.1769 31.4663 14.2676 32.0537 14.5554C32.4023 14.7262 32.6626 14.8778 32.923 14.8778C33.3701 14.8778 34.9351 16.2192 33.3701 17.1135C31.8051 18.0078 31.358 17.3371 29.793 18.0078C28.228 18.6785 27.1101 19.5728 26.2158 19.3492C25.3215 19.1256 24.8744 18.2313 25.9922 16.8899ZM31.5815 15.772C31.4937 15.6842 31.0789 15.6647 30.5912 15.6763C29.6182 15.6996 28.081 16.0587 28.4564 16.9566C28.5209 17.1109 28.6712 17.1893 28.8986 17.1135C29.5693 16.8899 29.5693 17.1135 30.4636 17.1135C31.3579 17.1135 31.8051 15.9956 31.5815 15.772Z" stroke="white" stroke-width="0.6"/>
    <path d="M36.0528 27.1755C35.1585 27.5332 33.4444 27.9207 32.6992 28.0698C31.1342 28.4246 30.9106 27.1755 31.3577 26.7285C31.8049 26.2815 31.8049 26.5048 32.4756 25.834C33.1463 25.1633 33.817 25.1633 36.0528 25.6105C38.9592 25.834 37.1706 26.7283 36.0528 27.1755Z" stroke="white" stroke-width="0.6"/>
    <path d="M109.194 32.7537C108.511 32.7537 107.827 32.7458 107.144 32.7556C106.353 32.7673 105.794 32.4275 105.519 31.6814C105.399 31.3591 105.228 31.2439 104.876 31.2478C103.087 31.2654 101.296 31.2634 99.505 31.2478C99.1945 31.2459 99.0324 31.3416 98.9367 31.6365C98.6808 32.4197 98.1163 32.7615 97.3019 32.7556C95.9836 32.7458 94.6652 32.7556 93.3469 32.7478C93.0734 32.7478 92.7883 32.7302 92.5266 32.656C91.7512 32.4372 91.3977 31.7849 91.6789 30.9666C91.9699 30.1228 92.343 29.3064 92.6984 28.4881C95.3625 22.3417 98.0304 16.1972 100.702 10.0527C100.837 9.74219 100.999 9.42969 101.212 9.16993C101.761 8.50001 102.698 8.50392 103.247 9.17774C103.448 9.42578 103.607 9.7207 103.735 10.0176C106.692 16.8163 109.644 23.619 112.593 30.4216C112.663 30.5857 112.726 30.7537 112.774 30.9255C113.061 31.9275 112.575 32.6638 111.534 32.7244C110.757 32.7693 109.974 32.7341 109.192 32.7341V32.7537H109.194ZM100.655 27.5389H103.808C103.278 26.2772 102.775 25.0819 102.228 23.7772C101.675 25.1014 101.177 26.2947 100.657 27.5389H100.655Z" fill="white"/>
    <path d="M143.157 14.8985C142.305 14.8985 141.513 14.8985 140.718 14.8985C138.928 14.8985 138.573 14.5392 138.573 12.7312C138.573 11.9329 138.557 11.1346 138.579 10.3383C138.611 9.16884 139.11 8.6779 140.285 8.67591C144.923 8.66793 149.561 8.66793 154.197 8.67591C155.387 8.67591 155.898 9.19678 155.912 10.3822C155.924 11.3122 155.922 12.2442 155.912 13.1742C155.9 14.4015 155.413 14.8805 154.171 14.8965C153.407 14.9065 152.641 14.9244 151.878 14.8885C151.431 14.8665 151.323 15.0142 151.325 15.4493C151.341 20.219 151.335 24.9907 151.335 29.7604C151.335 30.2433 151.345 30.7243 151.327 31.2072C151.29 32.2091 150.803 32.724 149.811 32.7379C148.098 32.7619 146.386 32.7619 144.676 32.7379C143.68 32.724 143.187 32.2191 143.167 31.2072C143.141 29.8282 143.155 28.4472 143.155 27.0682C143.155 23.2285 143.155 19.3888 143.155 15.5491C143.155 15.3535 143.155 15.1599 143.155 14.8985H143.157Z" fill="white"/>
    <path d="M225.462 20.796C225.409 20.6564 225.314 20.5364 225.19 20.4521C225.067 20.3677 224.92 20.3231 224.77 20.3243H219.818C219.697 20.3226 219.578 20.3505 219.471 20.4055C219.364 20.4606 219.272 20.5411 219.203 20.64C219.135 20.7388 219.092 20.8529 219.079 20.9721C219.065 21.0914 219.082 21.2121 219.126 21.3236L225.251 37.2199C225.304 37.3594 225.399 37.4795 225.523 37.5638C225.646 37.6482 225.793 37.6928 225.943 37.6916H230.89C231.011 37.6931 231.13 37.6652 231.236 37.6103C231.343 37.5554 231.435 37.4751 231.503 37.3766C231.572 37.2781 231.614 37.1644 231.628 37.0454C231.642 36.9265 231.626 36.8061 231.582 36.6947L225.462 20.796Z" fill="#EBEBEB"/>
    <path d="M218.943 20.8738C218.984 20.7157 219.076 20.5757 219.206 20.4761C219.336 20.3765 219.495 20.323 219.659 20.3243H224.66C224.774 20.3228 224.887 20.3477 224.989 20.397C225.091 20.4463 225.181 20.5186 225.25 20.6082C225.32 20.6979 225.367 20.8024 225.389 20.9134C225.411 21.0245 225.407 21.1391 225.376 21.2482L221.191 37.1421C221.151 37.3001 221.058 37.4402 220.928 37.5398C220.799 37.6394 220.639 37.6928 220.475 37.6916H215.474C215.36 37.693 215.248 37.6681 215.145 37.6189C215.043 37.5696 214.953 37.4973 214.884 37.4076C214.815 37.318 214.767 37.2135 214.745 37.1024C214.723 36.9914 214.728 36.8767 214.758 36.7677L218.943 20.8738Z" fill="white"/>
    <path d="M229.591 20.8738C229.632 20.7157 229.724 20.5757 229.854 20.4761C229.984 20.3765 230.143 20.323 230.307 20.3243H235.299C235.412 20.3228 235.525 20.3477 235.627 20.397C235.73 20.4463 235.819 20.5186 235.889 20.6082C235.958 20.6979 236.006 20.8024 236.027 20.9134C236.049 21.0245 236.045 21.1391 236.015 21.2482L231.829 37.1421C231.789 37.3001 231.696 37.4402 231.567 37.5398C231.437 37.6394 231.277 37.6928 231.113 37.6916H226.11C225.996 37.693 225.883 37.6681 225.781 37.6189C225.679 37.5696 225.589 37.4973 225.52 37.4076C225.45 37.318 225.403 37.2135 225.381 37.1024C225.359 36.9914 225.363 36.8767 225.394 36.7677L229.591 20.8738Z" fill="white"/>
    <path d="M235.892 37.8348H238.512C238.717 37.835 238.917 37.7683 239.08 37.6449C239.244 37.5216 239.363 37.3483 239.418 37.1516L240.955 31.6956H246.486C246.692 31.6955 246.891 31.6284 247.055 31.5045C247.218 31.3807 247.336 31.2069 247.39 31.0099L248.099 28.5008C248.138 28.3608 248.144 28.2136 248.117 28.0708C248.089 27.928 248.029 27.7936 247.94 27.6782C247.851 27.5628 247.736 27.4697 247.605 27.4061C247.473 27.3425 247.329 27.3102 247.183 27.3118H242.191L242.909 24.7808H248.558C248.763 24.7809 248.963 24.7143 249.127 24.5909C249.291 24.4675 249.409 24.2943 249.465 24.0976L250.173 21.5884C250.212 21.4495 250.217 21.3037 250.19 21.1623C250.162 21.0209 250.102 20.8877 250.014 20.7731C249.927 20.6585 249.814 20.5657 249.684 20.5017C249.554 20.4377 249.411 20.4044 249.267 20.4043H240.283C240.078 20.4045 239.878 20.4714 239.715 20.5947C239.551 20.718 239.432 20.891 239.376 21.0875L234.979 36.6483C234.94 36.7879 234.934 36.9347 234.962 37.077C234.989 37.2192 235.05 37.3531 235.138 37.4682C235.227 37.5832 235.341 37.6762 235.472 37.7398C235.603 37.8034 235.747 37.836 235.892 37.8348V37.8348Z" fill="white"/>
    <path d="M265.236 20.4043H253.97C253.765 20.4045 253.566 20.4714 253.402 20.5947C253.238 20.718 253.12 20.891 253.064 21.0875L252.358 23.5967C252.319 23.7356 252.314 23.8814 252.341 24.0228C252.369 24.1642 252.429 24.2974 252.517 24.412C252.604 24.5265 252.717 24.6194 252.847 24.6834C252.977 24.7474 253.12 24.7807 253.264 24.7808H256.345L252.998 36.6459C252.958 36.7849 252.952 36.9312 252.978 37.0733C253.005 37.2153 253.065 37.3493 253.152 37.4645C253.24 37.5798 253.353 37.6732 253.483 37.7375C253.613 37.8017 253.757 37.8351 253.902 37.8348H256.524C256.729 37.835 256.929 37.7683 257.092 37.6449C257.256 37.5216 257.375 37.3483 257.43 37.1516L260.919 24.7808H264.53C264.735 24.7805 264.935 24.7137 265.098 24.5904C265.262 24.4671 265.381 24.2941 265.437 24.0976L266.143 21.5884C266.181 21.4495 266.187 21.3035 266.16 21.1619C266.133 21.0203 266.073 20.8869 265.985 20.7722C265.897 20.6575 265.784 20.5645 265.654 20.5007C265.524 20.4369 265.381 20.4039 265.236 20.4043V20.4043Z" fill="white"/>
    <path d="M266.149 37.8348H268.768C268.974 37.8354 269.174 37.7689 269.337 37.6455C269.501 37.522 269.62 37.3485 269.675 37.1516L274.073 21.5908C274.112 21.4512 274.118 21.3045 274.09 21.1622C274.062 21.0199 274.002 20.886 273.913 20.771C273.824 20.6559 273.71 20.5629 273.579 20.4993C273.448 20.4357 273.305 20.4032 273.159 20.4043H270.54C270.334 20.4042 270.135 20.4708 269.971 20.5942C269.807 20.7176 269.689 20.8908 269.633 21.0875L265.235 36.6483C265.197 36.788 265.191 36.9347 265.218 37.077C265.246 37.2192 265.307 37.3532 265.395 37.4682C265.484 37.5832 265.598 37.6762 265.729 37.7398C265.86 37.8035 266.004 37.836 266.149 37.8348V37.8348Z" fill="white"/>
    <path d="M287.638 31.7337C287.116 32.3724 286.455 32.8848 285.705 33.2323C284.955 33.5798 284.136 33.7532 283.309 33.7395C282.041 33.7395 281.129 33.3335 280.604 32.5384C280.057 31.685 279.971 30.5666 280.36 29.2147C280.705 27.8673 281.476 26.6656 282.559 25.7865C283.601 24.9407 284.908 24.4855 286.253 24.5003C287.826 24.5003 288.811 25.0838 289.265 26.2801C289.283 26.3264 289.309 26.3687 289.344 26.404C289.379 26.4393 289.42 26.467 289.466 26.4851C289.513 26.5033 289.562 26.5115 289.612 26.5093C289.661 26.507 289.71 26.4944 289.754 26.4722L293.456 24.6413C293.539 24.6012 293.604 24.5318 293.64 24.4466C293.675 24.3614 293.677 24.2662 293.646 24.1794V24.1794C292.706 21.5049 290.372 20.0703 287.049 20.0703C284.492 20.0638 282.01 20.9354 280.023 22.5382C277.986 24.1145 276.521 26.3093 275.852 28.7893C275.153 31.3787 275.446 33.6082 276.722 35.4148C278.012 37.2431 280.02 38.1695 282.688 38.1695C285.835 38.1695 288.889 36.7326 291.069 34.2258C291.101 34.1886 291.125 34.1451 291.139 34.0981C291.154 34.0511 291.158 34.0016 291.152 33.9529C291.146 33.9041 291.13 33.8571 291.104 33.815C291.079 33.7728 291.045 33.7363 291.005 33.7079L288.098 31.6753C288.026 31.6258 287.938 31.6045 287.852 31.6152C287.765 31.626 287.686 31.6682 287.628 31.7337H287.638Z" fill="white"/>
    <path d="M302.542 20.8492L292.838 36.41C292.749 36.5519 292.7 36.7148 292.697 36.8818C292.693 37.0488 292.734 37.2138 292.815 37.3596C292.897 37.5055 293.017 37.6269 293.162 37.7113C293.306 37.7957 293.471 37.84 293.639 37.8397H296.454C296.614 37.84 296.772 37.7993 296.913 37.7214C297.053 37.6434 297.171 37.531 297.255 37.3947L298.601 35.2065H304.304L304.34 36.9206C304.346 37.1651 304.448 37.3976 304.624 37.5684C304.799 37.7393 305.035 37.8349 305.281 37.8348H308.284C308.412 37.835 308.539 37.8091 308.657 37.7586C308.775 37.7081 308.882 37.6341 308.97 37.5412C309.058 37.4482 309.126 37.3383 309.17 37.2182C309.214 37.0981 309.232 36.9704 309.224 36.8428L308.299 21.282C308.284 21.0444 308.178 20.8214 308.004 20.6584C307.83 20.4953 307.6 20.4045 307.36 20.4043H303.344C303.183 20.4047 303.025 20.4457 302.885 20.5235C302.745 20.6014 302.627 20.7135 302.542 20.8492V20.8492ZM304.235 30.92H301.213L304.145 26.1496L304.235 30.92Z" fill="white"/>
    <path d="M320.537 20.4043H317.917C317.712 20.4045 317.513 20.4714 317.349 20.5947C317.185 20.718 317.067 20.891 317.011 21.0875L312.613 36.6483C312.574 36.7875 312.568 36.9339 312.595 37.0759C312.622 37.2179 312.682 37.3518 312.769 37.467C312.857 37.5821 312.971 37.6755 313.101 37.7397C313.231 37.804 313.374 37.8374 313.52 37.8372H322.142C322.347 37.8382 322.547 37.7718 322.711 37.6484C322.875 37.5249 322.993 37.3512 323.048 37.154L323.757 34.6449C323.796 34.5057 323.802 34.3593 323.775 34.2173C323.748 34.0752 323.688 33.9414 323.6 33.8262C323.513 33.711 323.399 33.6177 323.269 33.5534C323.139 33.4892 322.996 33.4558 322.85 33.4559H318.096L321.443 21.5981C321.483 21.4586 321.49 21.3117 321.463 21.169C321.437 21.0264 321.377 20.8918 321.289 20.7761C321.201 20.6603 321.087 20.5664 320.957 20.5019C320.826 20.4374 320.682 20.404 320.537 20.4043V20.4043Z" fill="white"/>
    <path d="M334.462 20.4043H331.843C331.638 20.4045 331.438 20.4714 331.275 20.5947C331.111 20.718 330.993 20.891 330.937 21.0875L326.539 36.6483C326.5 36.7875 326.493 36.9339 326.52 37.0759C326.548 37.2179 326.607 37.3518 326.695 37.467C326.783 37.5821 326.896 37.6755 327.027 37.7397C327.157 37.804 327.3 37.8374 327.445 37.8372H336.068C336.273 37.8378 336.473 37.7713 336.637 37.6479C336.8 37.5244 336.919 37.351 336.974 37.154L337.68 34.6449C337.719 34.5057 337.726 34.3593 337.699 34.2173C337.671 34.0752 337.612 33.9414 337.524 33.8262C337.436 33.711 337.323 33.6177 337.192 33.5534C337.062 33.4892 336.919 33.4558 336.774 33.4559H332.022L335.369 21.5981C335.409 21.4586 335.416 21.3117 335.389 21.169C335.363 21.0264 335.303 20.8918 335.215 20.7761C335.127 20.6603 335.013 20.5664 334.883 20.5019C334.752 20.4374 334.608 20.404 334.462 20.4043V20.4043Z" fill="white"/>
    <path d="M351.333 20.7569L347.424 25.6196L346.329 21.1337C346.282 20.9272 346.166 20.7427 346.001 20.6102C345.835 20.4777 345.628 20.4051 345.416 20.4043H342.508C342.362 20.4041 342.218 20.4379 342.087 20.5028C341.956 20.5678 341.842 20.6622 341.755 20.7785C341.667 20.8948 341.608 21.0299 341.582 21.173C341.555 21.3162 341.563 21.4634 341.604 21.603L344.111 30.1468L342.276 36.6459C342.237 36.7851 342.231 36.9315 342.258 37.0735C342.285 37.2155 342.345 37.3494 342.432 37.4645C342.52 37.5797 342.634 37.6731 342.764 37.7373C342.894 37.8016 343.037 37.835 343.183 37.8348H345.804C346.009 37.8354 346.208 37.7692 346.371 37.6462C346.535 37.5232 346.653 37.3503 346.708 37.1541L348.636 30.3462L355.814 21.9555C355.933 21.8197 356.01 21.6525 356.036 21.474C356.062 21.2956 356.035 21.1135 355.96 20.9497C355.884 20.7859 355.763 20.6473 355.61 20.5505C355.457 20.4538 355.279 20.403 355.098 20.4043H352.069C351.927 20.4045 351.788 20.4363 351.661 20.4973C351.533 20.5583 351.421 20.647 351.333 20.7569V20.7569Z" fill="white"/>
    <path d="M212.84 12V3.36H216.176C216.26 3.36 216.354 3.364 216.458 3.372C216.566 3.376 216.674 3.388 216.782 3.408C217.234 3.476 217.616 3.634 217.928 3.882C218.244 4.126 218.482 4.434 218.642 4.806C218.806 5.178 218.888 5.59 218.888 6.042C218.888 6.49 218.806 6.9 218.642 7.272C218.478 7.644 218.238 7.954 217.922 8.202C217.61 8.446 217.23 8.602 216.782 8.67C216.674 8.686 216.566 8.698 216.458 8.706C216.354 8.714 216.26 8.718 216.176 8.718H213.722V12H212.84ZM213.722 7.878H216.152C216.224 7.878 216.308 7.874 216.404 7.866C216.5 7.858 216.594 7.844 216.686 7.824C216.982 7.76 217.224 7.638 217.412 7.458C217.604 7.278 217.746 7.064 217.838 6.816C217.934 6.568 217.982 6.31 217.982 6.042C217.982 5.774 217.934 5.516 217.838 5.268C217.746 5.016 217.604 4.8 217.412 4.62C217.224 4.44 216.982 4.318 216.686 4.254C216.594 4.234 216.5 4.222 216.404 4.218C216.308 4.21 216.224 4.206 216.152 4.206H213.722V7.878ZM222.753 12.18C222.109 12.18 221.559 12.034 221.103 11.742C220.647 11.45 220.297 11.046 220.053 10.53C219.809 10.014 219.687 9.422 219.687 8.754C219.687 8.074 219.811 7.478 220.059 6.966C220.307 6.454 220.659 6.056 221.115 5.772C221.575 5.484 222.121 5.34 222.753 5.34C223.401 5.34 223.953 5.486 224.409 5.778C224.869 6.066 225.219 6.468 225.459 6.984C225.703 7.496 225.825 8.086 225.825 8.754C225.825 9.434 225.703 10.032 225.459 10.548C225.215 11.06 224.863 11.46 224.403 11.748C223.943 12.036 223.393 12.18 222.753 12.18ZM222.753 11.334C223.473 11.334 224.009 11.096 224.361 10.62C224.713 10.14 224.889 9.518 224.889 8.754C224.889 7.97 224.711 7.346 224.355 6.882C224.003 6.418 223.469 6.186 222.753 6.186C222.269 6.186 221.869 6.296 221.553 6.516C221.241 6.732 221.007 7.034 220.851 7.422C220.699 7.806 220.623 8.25 220.623 8.754C220.623 9.534 220.803 10.16 221.163 10.632C221.523 11.1 222.053 11.334 222.753 11.334ZM228.294 12L226.314 5.514L227.196 5.52L228.732 10.554L230.274 5.52H231.078L232.62 10.554L234.168 5.52H235.044L233.064 12H232.296L230.676 6.84L229.062 12H228.294ZM238.633 12.18C238.001 12.18 237.453 12.04 236.989 11.76C236.529 11.48 236.171 11.086 235.915 10.578C235.659 10.07 235.531 9.474 235.531 8.79C235.531 8.082 235.657 7.47 235.909 6.954C236.161 6.438 236.515 6.04 236.971 5.76C237.431 5.48 237.973 5.34 238.597 5.34C239.237 5.34 239.783 5.488 240.235 5.784C240.687 6.076 241.029 6.496 241.261 7.044C241.493 7.592 241.599 8.246 241.579 9.006H240.679V8.694C240.663 7.854 240.481 7.22 240.133 6.792C239.789 6.364 239.285 6.15 238.621 6.15C237.925 6.15 237.391 6.376 237.019 6.828C236.651 7.28 236.467 7.924 236.467 8.76C236.467 9.576 236.651 10.21 237.019 10.662C237.391 11.11 237.917 11.334 238.597 11.334C239.061 11.334 239.465 11.228 239.809 11.016C240.157 10.8 240.431 10.49 240.631 10.086L241.453 10.404C241.197 10.968 240.819 11.406 240.319 11.718C239.823 12.026 239.261 12.18 238.633 12.18ZM236.155 9.006V8.268H241.105V9.006H236.155ZM242.91 12V5.52H243.702V7.08L243.546 6.876C243.618 6.684 243.712 6.508 243.828 6.348C243.944 6.184 244.07 6.05 244.206 5.946C244.374 5.798 244.57 5.686 244.794 5.61C245.018 5.53 245.244 5.484 245.472 5.472C245.7 5.456 245.908 5.472 246.096 5.52V6.348C245.86 6.288 245.602 6.274 245.322 6.306C245.042 6.338 244.784 6.45 244.548 6.642C244.332 6.81 244.17 7.012 244.062 7.248C243.954 7.48 243.882 7.728 243.846 7.992C243.81 8.252 243.792 8.51 243.792 8.766V12H242.91ZM249.859 12.18C249.227 12.18 248.679 12.04 248.215 11.76C247.755 11.48 247.397 11.086 247.141 10.578C246.885 10.07 246.757 9.474 246.757 8.79C246.757 8.082 246.883 7.47 247.135 6.954C247.387 6.438 247.741 6.04 248.197 5.76C248.657 5.48 249.199 5.34 249.823 5.34C250.463 5.34 251.009 5.488 251.461 5.784C251.913 6.076 252.255 6.496 252.487 7.044C252.719 7.592 252.825 8.246 252.805 9.006H251.905V8.694C251.889 7.854 251.707 7.22 251.359 6.792C251.015 6.364 250.511 6.15 249.847 6.15C249.151 6.15 248.617 6.376 248.245 6.828C247.877 7.28 247.693 7.924 247.693 8.76C247.693 9.576 247.877 10.21 248.245 10.662C248.617 11.11 249.143 11.334 249.823 11.334C250.287 11.334 250.691 11.228 251.035 11.016C251.383 10.8 251.657 10.49 251.857 10.086L252.679 10.404C252.423 10.968 252.045 11.406 251.545 11.718C251.049 12.026 250.487 12.18 249.859 12.18ZM247.381 9.006V8.268H252.331V9.006H247.381ZM256.651 12.18C256.047 12.18 255.531 12.03 255.103 11.73C254.675 11.426 254.347 11.016 254.119 10.5C253.891 9.984 253.777 9.402 253.777 8.754C253.777 8.11 253.889 7.53 254.113 7.014C254.341 6.498 254.667 6.09 255.091 5.79C255.515 5.49 256.023 5.34 256.615 5.34C257.223 5.34 257.735 5.488 258.151 5.784C258.567 6.08 258.881 6.486 259.093 7.002C259.309 7.514 259.417 8.098 259.417 8.754C259.417 9.398 259.311 9.98 259.099 10.5C258.887 11.016 258.575 11.426 258.163 11.73C257.751 12.03 257.247 12.18 256.651 12.18ZM256.741 11.358C257.201 11.358 257.581 11.246 257.881 11.022C258.181 10.798 258.405 10.49 258.553 10.098C258.701 9.702 258.775 9.254 258.775 8.754C258.775 8.246 258.701 7.798 258.553 7.41C258.405 7.018 258.181 6.712 257.881 6.492C257.585 6.272 257.211 6.162 256.759 6.162C256.295 6.162 255.911 6.276 255.607 6.504C255.303 6.732 255.077 7.042 254.929 7.434C254.785 7.826 254.713 8.266 254.713 8.754C254.713 9.246 254.787 9.69 254.935 10.086C255.087 10.478 255.313 10.788 255.613 11.016C255.913 11.244 256.289 11.358 256.741 11.358ZM258.775 12V7.122H258.679V3.36H259.567V12H258.775ZM263.653 12V3.36H266.989C267.473 3.36 267.895 3.46 268.255 3.66C268.615 3.86 268.895 4.13 269.095 4.47C269.295 4.806 269.395 5.178 269.395 5.586C269.395 6.05 269.271 6.464 269.023 6.828C268.775 7.188 268.443 7.438 268.027 7.578L268.015 7.284C268.575 7.444 269.015 7.724 269.335 8.124C269.655 8.524 269.815 9.008 269.815 9.576C269.815 10.076 269.709 10.508 269.497 10.872C269.285 11.232 268.987 11.51 268.603 11.706C268.219 11.902 267.773 12 267.265 12H263.653ZM264.541 11.154H267.049C267.401 11.154 267.717 11.092 267.997 10.968C268.277 10.84 268.497 10.66 268.657 10.428C268.821 10.196 268.903 9.916 268.903 9.588C268.903 9.268 268.829 8.98 268.681 8.724C268.533 8.468 268.331 8.264 268.075 8.112C267.823 7.956 267.535 7.878 267.211 7.878H264.541V11.154ZM264.541 7.044H266.983C267.259 7.044 267.511 6.982 267.739 6.858C267.967 6.73 268.147 6.556 268.279 6.336C268.415 6.116 268.483 5.862 268.483 5.574C268.483 5.166 268.341 4.834 268.057 4.578C267.777 4.322 267.419 4.194 266.983 4.194H264.541V7.044ZM271.936 14.88L273.19 11.478L273.208 12.486L270.37 5.52H271.306L273.634 11.346H273.25L275.398 5.52H276.298L272.818 14.88H271.936Z" fill="white"/>
    <line x1="196.5" y1="6" x2="196.5" y2="34.1745" stroke="white" stroke-opacity="0.5"/>
</svg>
