<svg width="359" height="41" viewBox="0 0 359 41" fill="none" xmlns="http://www.w3.org/2000/svg">
<path d="M58.1444 23.1049C59.588 21.415 60.9829 19.7819 62.3758 18.1506C63.6651 16.6405 64.9506 15.1265 66.2497 13.6262C66.4802 13.3585 66.7479 13.1026 67.0448 12.9151C67.8458 12.413 68.7034 12.7119 69.0101 13.6066C69.1332 13.9681 69.1761 14.3705 69.1781 14.7553C69.1879 21.4776 69.1898 28.1998 69.1722 34.922C69.1722 35.3576 69.055 35.8304 68.8616 36.2192C68.6526 36.6392 68.1779 36.7408 67.7188 36.7408C66.0426 36.7447 64.3665 36.7603 62.6903 36.7388C61.6764 36.7251 61.1978 36.2172 61.1841 35.1603C61.1646 33.6307 61.1782 32.101 61.1763 30.5694C61.1763 30.3975 61.1763 30.2256 61.0591 30.0127C60.8813 30.2334 60.7035 30.4542 60.5238 30.673C60.0608 31.2395 59.6193 31.8275 59.125 32.3648C58.4491 33.0993 57.7458 33.0993 57.0738 32.355C56.5073 31.7279 55.9974 31.05 55.4621 30.3956C55.3527 30.2608 55.2414 30.1279 55.0577 29.9052C55.0441 30.1709 55.0284 30.3233 55.0284 30.4776C55.0284 32.0073 55.0323 33.5369 55.0245 35.0685C55.0187 36.2504 54.542 36.7388 53.3679 36.7466C51.805 36.7583 50.2422 36.7583 48.6793 36.7466C47.5092 36.7369 47.0227 36.2485 47.0208 35.0666C47.0149 28.2467 47.0129 21.4268 47.0305 14.6069C47.0305 14.1849 47.1458 13.7258 47.3333 13.3488C47.6674 12.6748 48.443 12.4755 49.0876 12.8721C49.4276 13.0811 49.7343 13.3664 49.996 13.6692C52.5845 16.6581 55.1613 19.6588 57.7419 22.6556C57.8572 22.7884 57.9744 22.9193 58.1385 23.1049H58.1444Z" fill="white"/>
<path d="M171.819 21.1128V20.548C171.819 18.5365 171.817 16.5249 171.819 14.5134C171.821 13.1624 172.304 12.6814 173.653 12.6754C175.149 12.6714 176.646 12.6714 178.143 12.6754C179.496 12.6794 179.997 13.1644 179.997 14.4994C180.001 21.3163 180.001 28.1332 179.997 34.9501C179.997 36.2732 179.512 36.7462 178.181 36.7501C176.652 36.7561 175.121 36.7581 173.593 36.7501C172.298 36.7442 171.825 36.2672 171.821 34.9661C171.815 32.2062 171.821 29.4463 171.821 26.6864C171.821 26.4909 171.821 26.2973 171.821 26.0678H166.866V26.6525C166.866 29.3465 166.866 32.0386 166.866 34.7326C166.866 34.9821 166.866 35.2335 166.84 35.479C166.762 36.2093 166.311 36.7042 165.577 36.7182C163.715 36.7521 161.853 36.7501 159.991 36.7182C159.3 36.7062 158.897 36.2971 158.762 35.6206C158.714 35.3772 158.688 35.1257 158.688 34.8783C158.684 28.1113 158.684 21.3442 158.688 14.5772C158.688 14.3617 158.702 14.1442 158.738 13.9327C158.869 13.1564 159.28 12.7173 160.071 12.6994C161.883 12.6615 163.695 12.6575 165.507 12.6994C166.379 12.7213 166.84 13.2641 166.85 14.1821C166.874 16.3094 166.876 18.4387 166.856 20.566C166.852 21.023 166.975 21.1607 167.436 21.1507C168.716 21.1207 169.997 21.1407 171.276 21.1387C171.438 21.1387 171.599 21.1207 171.821 21.1088L171.819 21.1128Z" fill="white"/>
<path d="M124.12 33.8601C124.12 34.2864 124.13 34.7007 124.12 35.1131C124.086 36.2327 123.606 36.7327 122.497 36.7427C120.756 36.7606 119.012 36.7586 117.269 36.7427C116.132 36.7327 115.636 36.2327 115.632 35.0832C115.62 32.4616 115.626 29.8399 115.626 27.2182C115.626 23.0865 115.626 18.9548 115.626 14.8231C115.626 14.59 115.624 14.3569 115.642 14.1258C115.707 13.2891 116.16 12.7393 116.986 12.7433C120.052 12.7572 123.13 12.4763 126.18 12.9266C130.441 13.5561 133.804 16.8312 134.685 21.0745C135.294 24.0069 134.647 26.6664 133.031 29.1287C132.844 29.4156 132.816 29.6188 132.993 29.9236C133.804 31.332 134.593 32.7524 135.38 34.1748C136.272 35.7905 135.725 36.7347 133.884 36.7427C132.059 36.7527 130.234 36.7347 128.407 36.7507C127.615 36.7566 127.047 36.4359 126.658 35.7466C126.324 35.155 125.931 34.5952 125.61 33.9975C125.419 33.6409 125.21 33.5134 124.825 33.6628C124.612 33.7465 124.383 33.7883 124.122 33.8581L124.12 33.8601ZM123.853 20.3613V27.0927C125.049 27.019 125.979 26.5389 126.567 25.5409C127.284 24.3237 127.234 23.0527 126.537 21.8474C125.963 20.8533 125.033 20.4051 123.853 20.3613Z" fill="white"/>
<path d="M71.9588 24.7214C71.9588 21.3956 71.9588 18.0698 71.9588 14.744C71.9588 14.4944 71.9588 14.2429 71.9887 13.9974C72.0846 13.1969 72.5098 12.7796 73.3123 12.6898C73.5259 12.6658 73.7435 12.6698 73.9591 12.6698C78.2491 12.6698 82.5411 12.6698 86.8311 12.6698C87.0626 12.6698 87.3002 12.6639 87.5278 12.6978C88.3063 12.8116 88.7674 13.2787 88.7914 14.0672C88.8233 15.2131 88.8273 16.363 88.7914 17.5088C88.7655 18.3792 88.2424 18.8723 87.3361 18.8823C85.1422 18.9062 82.9463 18.9082 80.7504 18.8882C80.2833 18.8842 80.0797 18.9881 80.1336 19.4851C80.1735 19.8624 80.1695 20.2517 80.1336 20.631C80.0936 21.0642 80.2753 21.154 80.6745 21.15C82.7367 21.1321 84.7988 21.14 86.861 21.142C88.3682 21.142 88.8074 21.5892 88.8114 23.1144C88.8114 23.5635 88.8194 24.0127 88.8054 24.4618C88.7774 25.466 88.3163 25.965 87.3062 26.0149C86.5097 26.0549 85.7112 26.0309 84.9126 26.0329C83.4833 26.0329 82.052 26.0449 80.6226 26.0269C80.2613 26.0229 80.1256 26.1128 80.1336 26.498C80.1575 27.6778 80.1575 28.8596 80.1336 30.0394C80.1256 30.4367 80.2493 30.5465 80.6426 30.5445C82.7387 30.5265 84.8328 30.5345 86.9289 30.5365C88.3502 30.5385 88.8094 30.9996 88.8114 32.419C88.8134 33.3333 88.8213 34.2476 88.8054 35.1619C88.7874 36.2159 88.2903 36.7429 87.2403 36.7449C82.6668 36.7589 78.0934 36.7589 73.5199 36.7449C72.4419 36.7409 71.9708 36.2139 71.9628 35.0501C71.9488 32.9041 71.9588 30.7601 71.9568 28.6141C71.9568 27.3165 71.9568 26.0189 71.9568 24.7234L71.9588 24.7214Z" fill="white"/>
<path d="M11.8711 36.086C8.92828 36.0573 6.23406 35.2872 3.96815 33.3379C1.7271 31.4097 0.558776 28.9025 0.13619 26.015C-0.611463 20.9088 1.75961 15.9917 6.25509 13.538C9.86906 11.5658 13.5806 11.499 17.3016 13.2877C18.4202 13.8247 18.6267 14.4687 18.0722 15.5713C17.4431 16.823 16.8025 18.0671 16.1486 19.3054C15.6572 20.238 15.1084 20.4348 14.1427 19.9991C12.81 19.3952 11.4848 19.2385 10.1521 19.9685C8.50952 20.8686 7.63758 22.7624 7.90528 24.8129C8.13856 26.5921 9.45221 28.1381 11.1101 28.5279C12.1656 28.7764 13.1962 28.633 14.1963 28.2241C15.7088 27.6087 16.183 27.8323 16.7069 29.3955C17.1257 30.6472 17.554 31.8951 17.946 33.1564C18.2118 34.0144 17.9537 34.5629 17.1429 34.947C15.4736 35.7344 13.7125 36.1051 11.8673 36.0841L11.8711 36.086Z" fill="white"/>
<mask id="path-6-inside-1_43_2" fill="white">
<path fillRule="evenodd" clipRule="evenodd" d="M32.7984 36.086C39.4495 36.086 44.8413 30.6941 44.8413 24.043C44.8413 17.3918 39.4495 12 32.7984 12C26.1472 12 20.7554 17.3918 20.7554 24.043C20.7554 30.6941 26.1472 36.086 32.7984 36.086ZM32.798 32.741C37.6016 32.741 41.4957 28.8469 41.4957 24.0433C41.4957 19.2397 37.6016 15.3456 32.798 15.3456C27.9944 15.3456 24.1003 19.2397 24.1003 24.0433C24.1003 28.8469 27.9944 32.741 32.798 32.741Z"/>
</mask>
<path fillRule="evenodd" clipRule="evenodd" d="M32.7984 36.086C39.4495 36.086 44.8413 30.6941 44.8413 24.043C44.8413 17.3918 39.4495 12 32.7984 12C26.1472 12 20.7554 17.3918 20.7554 24.043C20.7554 30.6941 26.1472 36.086 32.7984 36.086ZM32.798 32.741C37.6016 32.741 41.4957 28.8469 41.4957 24.0433C41.4957 19.2397 37.6016 15.3456 32.798 15.3456C27.9944 15.3456 24.1003 19.2397 24.1003 24.0433C24.1003 28.8469 27.9944 32.741 32.798 32.741Z" fill="white"/>
<path d="M12.8413 24.043C12.8413 13.021 21.7764 4.08598 32.7984 4.08598V68.086C57.1226 68.086 76.8413 48.3673 76.8413 24.043H12.8413ZM32.7984 44C21.7764 44 12.8413 35.0649 12.8413 24.043H76.8413C76.8413 -0.281281 57.1226 -20 32.7984 -20V44ZM52.7554 24.043C52.7554 35.0649 43.8203 44 32.7984 44V-20C8.47409 -20 -11.2446 -0.281282 -11.2446 24.043H52.7554ZM32.7984 4.08598C43.8203 4.08598 52.7554 13.021 52.7554 24.043H-11.2446C-11.2446 48.3673 8.47409 68.086 32.7984 68.086V4.08598ZM9.4957 24.0433C9.4957 11.1738 19.9285 0.740997 32.798 0.740997V64.741C55.2747 64.741 73.4957 46.52 73.4957 24.0433H9.4957ZM32.798 47.3456C19.9285 47.3456 9.4957 36.9128 9.4957 24.0433H73.4957C73.4957 1.56655 55.2747 -16.6544 32.798 -16.6544V47.3456ZM56.1003 24.0433C56.1003 36.9128 45.6675 47.3456 32.798 47.3456V-16.6544C10.3213 -16.6544 -7.89973 1.56656 -7.89973 24.0433H56.1003ZM32.798 0.740997C45.6675 0.740997 56.1003 11.1738 56.1003 24.0433H-7.89973C-7.89973 46.52 10.3212 64.741 32.798 64.741V0.740997Z" fill="white" mask="url(#path-6-inside-1_43_2)"/>
<path d="M30.5055 15.3433C31.7724 15.4178 34.5742 16.0342 35.2896 16.2131C36.1839 16.4367 37.8403 17.0901 38.0638 18.8786C38.2874 20.6672 38.511 22.0087 39.1817 22.903C39.8524 23.7972 40.2996 25.5858 36.4988 24.9151C34.7926 24.4886 30.8484 23.8586 27.3834 26.7127C27.0433 26.9928 26.6318 27.2282 26.4245 27.617C26.2388 27.9656 26.2882 28.4136 26.438 29.163C26.6169 30.0573 26.3635 30.1318 26.2145 30.0573" stroke="white" strokeWidth="0.6"/>
<path d="M24.1018 19.6941C24.9961 19.3215 28.4952 18.0303 29.5683 17.3148C30.9098 16.4205 34.0398 16.197 35.1577 18.2091C36.2755 20.2213 36.4991 22.6806 34.9341 23.1277C33.8162 23.3513 32.0277 21.3392 27.7798 23.7985C25.9912 24.9163 25.0969 26.0342 25.3205 26.9285C25.4993 27.6439 25.395 28.419 25.3205 28.7171" stroke="white" strokeWidth="0.6"/>
<path d="M41.194 20.2194C40.7469 20.3685 39.8973 20.9349 40.0762 22.008C40.2998 23.3495 42.0883 26.0323 39.4055 27.1502C37.8405 27.5973 38.064 26.2559 34.2633 26.4795C31.1333 26.4795 28.8975 26.7031 28.4504 29.1624C28.2268 30.5038 28.2268 31.1745 27.7797 31.3981M30.239 32.7395C29.5682 31.7707 28.7634 29.6095 30.9097 28.7152C32.2511 28.1563 34.0397 28.0445 35.1576 28.0445C36.9462 28.0445 37.3933 29.1624 38.7347 29.1624C39.8079 29.1624 40.3743 29.1624 40.5233 29.1624M25.9911 20.8902C26.7405 20.1408 28.4633 18.7634 30.1596 18.3367C30.7939 18.1772 31.4652 18.2679 32.0526 18.5556C32.4012 18.7264 32.6615 18.878 32.9219 18.878C33.369 18.878 34.9341 20.2194 33.369 21.1137C31.804 22.008 31.3569 21.3373 29.7919 22.008C28.2269 22.6787 27.109 23.573 26.2147 23.3495C25.3204 23.1259 24.8733 22.2316 25.9911 20.8902ZM31.5804 19.7723C31.4926 19.6845 31.0778 19.6649 30.5901 19.6766C29.6171 19.6999 28.0799 20.0589 28.4553 20.9569C28.5198 21.1111 28.6701 21.1895 28.8975 21.1137C29.5682 20.8902 29.5682 21.1137 30.4625 21.1137C31.3568 21.1137 31.804 19.9959 31.5804 19.7723Z" stroke="white" strokeWidth="0.6"/>
<path d="M36.052 31.1757C35.1577 31.5334 33.4437 31.921 32.6984 32.07C31.1334 32.4248 30.9099 31.1757 31.357 30.7287C31.8041 30.2817 31.8041 30.505 32.4749 29.8343C33.1456 29.1636 33.8163 29.1636 36.052 29.6107C38.9585 29.8343 37.1699 30.7286 36.052 31.1757Z" stroke="white" strokeWidth="0.6"/>
<path d="M109.194 36.7532C108.511 36.7532 107.827 36.7454 107.143 36.7551C106.352 36.7668 105.794 36.427 105.518 35.6809C105.399 35.3586 105.227 35.2434 104.876 35.2473C103.087 35.2649 101.296 35.2629 99.5048 35.2473C99.1942 35.2454 99.0321 35.3411 98.9364 35.636C98.6806 36.4192 98.1161 36.761 97.3017 36.7551C95.9833 36.7454 94.665 36.7551 93.3466 36.7473C93.0732 36.7473 92.788 36.7297 92.5263 36.6555C91.7509 36.4368 91.3974 35.7844 91.6787 34.9661C91.9697 34.1223 92.3427 33.3059 92.6982 32.4876C95.3622 26.3412 98.0302 20.1967 100.702 14.0522C100.837 13.7417 100.999 13.4292 101.212 13.1694C101.761 12.4995 102.698 12.5034 103.247 13.1773C103.448 13.4253 103.606 13.7202 103.735 14.0171C106.692 20.8158 109.643 27.6185 112.593 34.4212C112.663 34.5852 112.725 34.7532 112.774 34.9251C113.061 35.927 112.575 36.6633 111.534 36.7239C110.757 36.7688 109.973 36.7336 109.192 36.7336V36.7532H109.194ZM100.655 31.5384H103.807C103.278 30.2767 102.774 29.0814 102.227 27.7767C101.675 29.1009 101.177 30.2942 100.657 31.5384H100.655Z" fill="white"/>
<path d="M143.157 18.898C142.305 18.898 141.512 18.898 140.718 18.898C138.928 18.898 138.573 18.5388 138.573 16.7307C138.573 15.9324 138.557 15.1341 138.579 14.3378C138.611 13.1684 139.11 12.6774 140.285 12.6754C144.923 12.6674 149.561 12.6674 154.197 12.6754C155.386 12.6754 155.897 13.1963 155.911 14.3817C155.923 15.3117 155.921 16.2437 155.911 17.1737C155.899 18.4011 155.412 18.88 154.171 18.896C153.407 18.906 152.64 18.9239 151.878 18.888C151.431 18.866 151.323 19.0137 151.325 19.4488C151.341 24.2185 151.335 28.9902 151.335 33.7599C151.335 34.2428 151.345 34.7238 151.327 35.2068C151.289 36.2086 150.802 36.7235 149.81 36.7374C148.098 36.7614 146.386 36.7614 144.676 36.7374C143.68 36.7235 143.187 36.2186 143.167 35.2068C143.141 33.8277 143.155 32.4467 143.155 31.0677C143.155 27.228 143.155 23.3883 143.155 19.5486C143.155 19.353 143.155 19.1594 143.155 18.898H143.157Z" fill="white"/>
<path d="M225.462 20.795C225.409 20.6555 225.314 20.5354 225.19 20.4511C225.067 20.3667 224.92 20.3222 224.77 20.3233H219.818C219.697 20.3216 219.578 20.3495 219.471 20.4046C219.364 20.4596 219.272 20.5402 219.203 20.639C219.135 20.7378 219.092 20.8519 219.079 20.9712C219.065 21.0904 219.082 21.2111 219.126 21.3226L225.251 37.2189C225.304 37.3585 225.399 37.4785 225.523 37.5628C225.646 37.6472 225.793 37.6918 225.943 37.6906H230.89C231.011 37.6922 231.13 37.6642 231.236 37.6093C231.343 37.5544 231.435 37.4741 231.503 37.3756C231.572 37.2771 231.614 37.1634 231.628 37.0445C231.642 36.9256 231.626 36.8051 231.582 36.6937L225.462 20.795Z" fill="#EBEBEB"/>
<path d="M218.943 20.8728C218.984 20.7147 219.076 20.5747 219.206 20.4751C219.336 20.3755 219.495 20.3221 219.659 20.3233H224.66C224.774 20.3218 224.887 20.3467 224.989 20.396C225.091 20.4453 225.181 20.5176 225.25 20.6073C225.32 20.6969 225.367 20.8014 225.389 20.9125C225.411 21.0235 225.407 21.1381 225.376 21.2472L221.191 37.1411C221.151 37.2992 221.058 37.4392 220.928 37.5388C220.799 37.6384 220.639 37.6918 220.475 37.6906H215.474C215.36 37.6921 215.248 37.6672 215.145 37.6179C215.043 37.5686 214.953 37.4963 214.884 37.4066C214.815 37.317 214.767 37.2125 214.745 37.1015C214.723 36.9904 214.728 36.8758 214.758 36.7667L218.943 20.8728Z" fill="white"/>
<path d="M229.591 20.8728C229.632 20.7147 229.724 20.5747 229.854 20.4751C229.984 20.3755 230.143 20.3221 230.307 20.3233H235.299C235.412 20.3218 235.525 20.3467 235.627 20.396C235.73 20.4453 235.819 20.5176 235.889 20.6073C235.958 20.6969 236.006 20.8014 236.027 20.9125C236.049 21.0235 236.045 21.1381 236.015 21.2472L231.829 37.1411C231.789 37.2992 231.696 37.4392 231.567 37.5388C231.437 37.6384 231.277 37.6918 231.113 37.6906H226.11C225.996 37.6921 225.883 37.6672 225.781 37.6179C225.679 37.5686 225.589 37.4963 225.52 37.4066C225.45 37.317 225.403 37.2125 225.381 37.1015C225.359 36.9904 225.363 36.8758 225.394 36.7667L229.591 20.8728Z" fill="white"/>
<path d="M235.892 37.8348H238.512C238.717 37.835 238.917 37.7683 239.08 37.6449C239.244 37.5216 239.363 37.3483 239.418 37.1516L240.955 31.6956H246.486C246.692 31.6955 246.891 31.6284 247.055 31.5045C247.218 31.3807 247.336 31.2069 247.39 31.0099L248.099 28.5008C248.138 28.3608 248.144 28.2136 248.117 28.0708C248.089 27.928 248.029 27.7936 247.94 27.6782C247.851 27.5628 247.736 27.4697 247.605 27.4061C247.473 27.3425 247.329 27.3102 247.183 27.3118H242.191L242.909 24.7808H248.558C248.763 24.7809 248.963 24.7143 249.127 24.5909C249.291 24.4675 249.409 24.2943 249.465 24.0976L250.173 21.5884C250.212 21.4495 250.217 21.3037 250.19 21.1623C250.162 21.0209 250.102 20.8877 250.014 20.7731C249.927 20.6585 249.814 20.5657 249.684 20.5017C249.554 20.4377 249.411 20.4044 249.267 20.4043H240.283C240.078 20.4045 239.878 20.4714 239.715 20.5947C239.551 20.718 239.432 20.891 239.376 21.0875L234.979 36.6483C234.94 36.7879 234.934 36.9347 234.962 37.077C234.989 37.2192 235.05 37.3531 235.138 37.4682C235.227 37.5832 235.341 37.6762 235.472 37.7398C235.603 37.8034 235.747 37.836 235.892 37.8348Z" fill="white"/>
<path d="M265.236 20.4043H253.97C253.765 20.4045 253.566 20.4714 253.402 20.5947C253.238 20.718 253.12 20.891 253.064 21.0875L252.358 23.5967C252.319 23.7356 252.314 23.8814 252.341 24.0228C252.369 24.1642 252.429 24.2974 252.517 24.412C252.604 24.5265 252.717 24.6194 252.847 24.6834C252.977 24.7474 253.12 24.7807 253.264 24.7808H256.345L252.998 36.6459C252.958 36.7849 252.952 36.9312 252.978 37.0733C253.005 37.2153 253.065 37.3493 253.152 37.4645C253.24 37.5798 253.353 37.6732 253.483 37.7375C253.613 37.8017 253.757 37.8351 253.902 37.8348H256.524C256.729 37.835 256.929 37.7683 257.092 37.6449C257.256 37.5216 257.375 37.3483 257.43 37.1516L260.919 24.7808H264.53C264.735 24.7805 264.935 24.7137 265.098 24.5904C265.262 24.4671 265.381 24.2941 265.437 24.0976L266.143 21.5884C266.181 21.4495 266.187 21.3035 266.16 21.1619C266.133 21.0203 266.073 20.8869 265.985 20.7722C265.897 20.6575 265.784 20.5645 265.654 20.5007C265.524 20.4369 265.381 20.4039 265.236 20.4043Z" fill="white"/>
<path d="M266.149 37.8348H268.768C268.974 37.8354 269.174 37.7689 269.337 37.6455C269.501 37.522 269.62 37.3485 269.675 37.1516L274.073 21.5908C274.112 21.4512 274.118 21.3045 274.09 21.1622C274.062 21.0199 274.002 20.886 273.913 20.771C273.824 20.6559 273.71 20.5629 273.579 20.4993C273.448 20.4357 273.305 20.4032 273.159 20.4043H270.54C270.334 20.4042 270.135 20.4708 269.971 20.5942C269.807 20.7176 269.689 20.8908 269.633 21.0875L265.235 36.6483C265.197 36.788 265.191 36.9347 265.218 37.077C265.246 37.2192 265.307 37.3532 265.395 37.4682C265.484 37.5832 265.598 37.6762 265.729 37.7398C265.86 37.8035 266.004 37.836 266.149 37.8348Z" fill="white"/>
<path d="M287.638 31.7341C287.116 32.3729 286.455 32.8853 285.705 33.2328C284.955 33.5803 284.136 33.7537 283.309 33.74C282.041 33.74 281.129 33.334 280.604 32.5389C280.057 31.6855 279.971 30.5671 280.36 29.2152C280.705 27.8677 281.476 26.6661 282.559 25.787C283.601 24.9411 284.908 24.486 286.253 24.5008C287.826 24.5008 288.811 25.0843 289.265 26.2806C289.283 26.3269 289.309 26.3692 289.344 26.4045C289.379 26.4398 289.42 26.4675 289.466 26.4856C289.513 26.5038 289.562 26.512 289.612 26.5097C289.661 26.5075 289.71 26.4949 289.754 26.4726L293.456 24.6418C293.539 24.6016 293.604 24.5323 293.64 24.4471C293.675 24.3618 293.677 24.2667 293.646 24.1799C292.706 21.5053 290.372 20.0708 287.049 20.0708C284.492 20.0643 282.01 20.9359 280.023 22.5387C277.986 24.115 276.521 26.3098 275.852 28.7897C275.153 31.3792 275.446 33.6087 276.722 35.4152C278.012 37.2436 280.02 38.17 282.688 38.17C285.835 38.17 288.889 36.733 291.069 34.2263C291.101 34.1891 291.125 34.1456 291.139 34.0986C291.154 34.0516 291.158 34.0021 291.152 33.9534C291.146 33.9046 291.13 33.8576 291.104 33.8155C291.079 33.7733 291.045 33.7368 291.005 33.7084L288.098 31.6758C288.026 31.6263 287.938 31.6049 287.852 31.6157C287.765 31.6265 287.686 31.6686 287.628 31.7341H287.638Z" fill="white"/>
<path d="M302.542 20.8492L292.838 36.41C292.749 36.5519 292.7 36.7148 292.697 36.8818C292.693 37.0488 292.734 37.2138 292.815 37.3596C292.897 37.5055 293.017 37.6269 293.162 37.7113C293.306 37.7957 293.471 37.84 293.639 37.8397H296.454C296.614 37.84 296.772 37.7993 296.913 37.7214C297.053 37.6434 297.171 37.531 297.255 37.3947L298.601 35.2065H304.304L304.34 36.9206C304.346 37.1651 304.448 37.3976 304.624 37.5684C304.799 37.7393 305.035 37.8349 305.281 37.8348H308.284C308.412 37.835 308.539 37.8091 308.657 37.7586C308.775 37.7081 308.882 37.6341 308.97 37.5412C309.058 37.4482 309.126 37.3383 309.17 37.2182C309.214 37.0981 309.232 36.9704 309.224 36.8428L308.299 21.282C308.284 21.0444 308.178 20.8214 308.004 20.6584C307.83 20.4953 307.6 20.4045 307.36 20.4043H303.344C303.183 20.4047 303.025 20.4457 302.885 20.5235C302.745 20.6014 302.627 20.7135 302.542 20.8492ZM304.235 30.92H301.213L304.145 26.1496L304.235 30.92Z" fill="white"/>
<path d="M320.537 20.4043H317.917C317.712 20.4045 317.513 20.4714 317.349 20.5947C317.185 20.718 317.067 20.891 317.011 21.0875L312.613 36.6483C312.574 36.7875 312.568 36.9339 312.595 37.0759C312.622 37.2179 312.682 37.3518 312.769 37.467C312.857 37.5821 312.971 37.6755 313.101 37.7397C313.231 37.804 313.374 37.8374 313.52 37.8372H322.142C322.347 37.8382 322.547 37.7718 322.711 37.6484C322.875 37.5249 322.993 37.3512 323.048 37.154L323.757 34.6449C323.796 34.5057 323.802 34.3593 323.775 34.2173C323.748 34.0752 323.688 33.9414 323.6 33.8262C323.513 33.711 323.399 33.6177 323.269 33.5534C323.139 33.4892 322.996 33.4558 322.85 33.4559H318.096L321.443 21.5981C321.483 21.4586 321.49 21.3117 321.463 21.169C321.437 21.0264 321.377 20.8918 321.289 20.7761C321.201 20.6603 321.087 20.5664 320.957 20.5019C320.826 20.4374 320.682 20.404 320.537 20.4043Z" fill="white"/>
<path d="M334.462 20.4043H331.843C331.638 20.4045 331.438 20.4714 331.275 20.5947C331.111 20.718 330.993 20.891 330.937 21.0875L326.539 36.6483C326.5 36.7875 326.493 36.9339 326.52 37.0759C326.548 37.2179 326.607 37.3518 326.695 37.467C326.783 37.5821 326.896 37.6755 327.027 37.7397C327.157 37.804 327.3 37.8374 327.445 37.8372H336.068C336.273 37.8378 336.473 37.7713 336.637 37.6479C336.8 37.5244 336.919 37.351 336.974 37.154L337.68 34.6449C337.719 34.5057 337.726 34.3593 337.699 34.2173C337.671 34.0752 337.612 33.9414 337.524 33.8262C337.436 33.711 337.323 33.6177 337.192 33.5534C337.062 33.4892 336.919 33.4558 336.774 33.4559H332.022L335.369 21.5981C335.409 21.4586 335.416 21.3117 335.389 21.169C335.363 21.0264 335.303 20.8918 335.215 20.7761C335.127 20.6603 335.013 20.5664 334.883 20.5019C334.752 20.4374 334.608 20.404 334.462 20.4043Z" fill="white"/>
<path d="M351.333 20.7569L347.424 25.6196L346.329 21.1337C346.282 20.9272 346.166 20.7427 346.001 20.6102C345.835 20.4777 345.628 20.4051 345.416 20.4043H342.508C342.362 20.4041 342.218 20.4379 342.087 20.5028C341.956 20.5678 341.842 20.6622 341.755 20.7785C341.667 20.8948 341.608 21.0299 341.582 21.173C341.555 21.3162 341.563 21.4634 341.604 21.603L344.111 30.1468L342.276 36.6459C342.237 36.7851 342.231 36.9314 342.258 37.0735C342.285 37.2155 342.345 37.3494 342.432 37.4645C342.52 37.5797 342.634 37.6731 342.764 37.7373C342.894 37.8016 343.037 37.835 343.183 37.8348H345.804C346.009 37.8354 346.208 37.7692 346.371 37.6462C346.535 37.5232 346.653 37.3503 346.708 37.1541L348.636 30.3462L355.814 21.9555C355.933 21.8197 356.01 21.6525 356.036 21.474C356.062 21.2956 356.035 21.1135 355.96 20.9497C355.884 20.7859 355.763 20.6473 355.61 20.5505C355.457 20.4538 355.279 20.403 355.098 20.4043H352.069C351.927 20.4045 351.788 20.4363 351.661 20.4973C351.533 20.5583 351.421 20.647 351.333 20.7569Z" fill="white"/>
<path d="M212.84 12V3.36H216.176C216.26 3.36 216.354 3.364 216.458 3.372C216.566 3.376 216.674 3.388 216.782 3.408C217.234 3.476 217.616 3.634 217.928 3.882C218.244 4.126 218.482 4.434 218.642 4.806C218.806 5.178 218.888 5.59 218.888 6.042C218.888 6.49 218.806 6.9 218.642 7.272C218.478 7.644 218.238 7.954 217.922 8.202C217.61 8.446 217.23 8.602 216.782 8.67C216.674 8.686 216.566 8.698 216.458 8.706C216.354 8.714 216.26 8.718 216.176 8.718H213.722V12H212.84ZM213.722 7.878H216.152C216.224 7.878 216.308 7.874 216.404 7.866C216.5 7.858 216.594 7.844 216.686 7.824C216.982 7.76 217.224 7.638 217.412 7.458C217.604 7.278 217.746 7.064 217.838 6.816C217.934 6.568 217.982 6.31 217.982 6.042C217.982 5.774 217.934 5.516 217.838 5.268C217.746 5.016 217.604 4.8 217.412 4.62C217.224 4.44 216.982 4.318 216.686 4.254C216.594 4.234 216.5 4.222 216.404 4.218C216.308 4.21 216.224 4.206 216.152 4.206H213.722V7.878ZM222.753 12.18C222.109 12.18 221.559 12.034 221.103 11.742C220.647 11.45 220.297 11.046 220.053 10.53C219.809 10.014 219.687 9.422 219.687 8.754C219.687 8.074 219.811 7.478 220.059 6.966C220.307 6.454 220.659 6.056 221.115 5.772C221.575 5.484 222.121 5.34 222.753 5.34C223.401 5.34 223.953 5.486 224.409 5.778C224.869 6.066 225.219 6.468 225.459 6.984C225.703 7.496 225.825 8.086 225.825 8.754C225.825 9.434 225.703 10.032 225.459 10.548C225.215 11.06 224.863 11.46 224.403 11.748C223.943 12.036 223.393 12.18 222.753 12.18ZM222.753 11.334C223.473 11.334 224.009 11.096 224.361 10.62C224.713 10.14 224.889 9.518 224.889 8.754C224.889 7.97 224.711 7.346 224.355 6.882C224.003 6.418 223.469 6.186 222.753 6.186C222.269 6.186 221.869 6.296 221.553 6.516C221.241 6.732 221.007 7.034 220.851 7.422C220.699 7.806 220.623 8.25 220.623 8.754C220.623 9.534 220.803 10.16 221.163 10.632C221.523 11.1 222.053 11.334 222.753 11.334ZM228.294 12L226.314 5.514L227.196 5.52L228.732 10.554L230.274 5.52H231.078L232.62 10.554L234.168 5.52H235.044L233.064 12H232.296L230.676 6.84L229.062 12H228.294ZM238.633 12.18C238.001 12.18 237.453 12.04 236.989 11.76C236.529 11.48 236.171 11.086 235.915 10.578C235.659 10.07 235.531 9.474 235.531 8.79C235.531 8.082 235.657 7.47 235.909 6.954C236.161 6.438 236.515 6.04 236.971 5.76C237.431 5.48 237.973 5.34 238.597 5.34C239.237 5.34 239.783 5.488 240.235 5.784C240.687 6.076 241.029 6.496 241.261 7.044C241.493 7.592 241.599 8.246 241.579 9.006H240.679V8.694C240.663 7.854 240.481 7.22 240.133 6.792C239.789 6.364 239.285 6.15 238.621 6.15C237.925 6.15 237.391 6.376 237.019 6.828C236.651 7.28 236.467 7.924 236.467 8.76C236.467 9.576 236.651 10.21 237.019 10.662C237.391 11.11 237.917 11.334 238.597 11.334C239.061 11.334 239.465 11.228 239.809 11.016C240.157 10.8 240.431 10.49 240.631 10.086L241.453 10.404C241.197 10.968 240.819 11.406 240.319 11.718C239.823 12.026 239.261 12.18 238.633 12.18ZM236.155 9.006V8.268H241.105V9.006H236.155ZM242.91 12V5.52H243.702V7.08L243.546 6.876C243.618 6.684 243.712 6.508 243.828 6.348C243.944 6.184 244.07 6.05 244.206 5.946C244.374 5.798 244.57 5.686 244.794 5.61C245.018 5.53 245.244 5.484 245.472 5.472C245.7 5.456 245.908 5.472 246.096 5.52V6.348C245.86 6.288 245.602 6.274 245.322 6.306C245.042 6.338 244.784 6.45 244.548 6.642C244.332 6.81 244.17 7.012 244.062 7.248C243.954 7.48 243.882 7.728 243.846 7.992C243.81 8.252 243.792 8.51 243.792 8.766V12H242.91ZM249.859 12.18C249.227 12.18 248.679 12.04 248.215 11.76C247.755 11.48 247.397 11.086 247.141 10.578C246.885 10.07 246.757 9.474 246.757 8.79C246.757 8.082 246.883 7.47 247.135 6.954C247.387 6.438 247.741 6.04 248.197 5.76C248.657 5.48 249.199 5.34 249.823 5.34C250.463 5.34 251.009 5.488 251.461 5.784C251.913 6.076 252.255 6.496 252.487 7.044C252.719 7.592 252.825 8.246 252.805 9.006H251.905V8.694C251.889 7.854 251.707 7.22 251.359 6.792C251.015 6.364 250.511 6.15 249.847 6.15C249.151 6.15 248.617 6.376 248.245 6.828C247.877 7.28 247.693 7.924 247.693 8.76C247.693 9.576 247.877 10.21 248.245 10.662C248.617 11.11 249.143 11.334 249.823 11.334C250.287 11.334 250.691 11.228 251.035 11.016C251.383 10.8 251.657 10.49 251.857 10.086L252.679 10.404C252.423 10.968 252.045 11.406 251.545 11.718C251.049 12.026 250.487 12.18 249.859 12.18ZM247.381 9.006V8.268H252.331V9.006H247.381ZM256.651 12.18C256.047 12.18 255.531 12.03 255.103 11.73C254.675 11.426 254.347 11.016 254.119 10.5C253.891 9.984 253.777 9.402 253.777 8.754C253.777 8.11 253.889 7.53 254.113 7.014C254.341 6.498 254.667 6.09 255.091 5.79C255.515 5.49 256.023 5.34 256.615 5.34C257.223 5.34 257.735 5.488 258.151 5.784C258.567 6.08 258.881 6.486 259.093 7.002C259.309 7.514 259.417 8.098 259.417 8.754C259.417 9.398 259.311 9.98 259.099 10.5C258.887 11.016 258.575 11.426 258.163 11.73C257.751 12.03 257.247 12.18 256.651 12.18ZM256.741 11.358C257.201 11.358 257.581 11.246 257.881 11.022C258.181 10.798 258.405 10.49 258.553 10.098C258.701 9.702 258.775 9.254 258.775 8.754C258.775 8.246 258.701 7.798 258.553 7.41C258.405 7.018 258.181 6.712 257.881 6.492C257.585 6.272 257.211 6.162 256.759 6.162C256.295 6.162 255.911 6.276 255.607 6.504C255.303 6.732 255.077 7.042 254.929 7.434C254.785 7.826 254.713 8.266 254.713 8.754C254.713 9.246 254.787 9.69 254.935 10.086C255.087 10.478 255.313 10.788 255.613 11.016C255.913 11.244 256.289 11.358 256.741 11.358ZM258.775 12V7.122H258.679V3.36H259.567V12H258.775ZM263.653 12V3.36H266.989C267.473 3.36 267.895 3.46 268.255 3.66C268.615 3.86 268.895 4.13 269.095 4.47C269.295 4.806 269.395 5.178 269.395 5.586C269.395 6.05 269.271 6.464 269.023 6.828C268.775 7.188 268.443 7.438 268.027 7.578L268.015 7.284C268.575 7.444 269.015 7.724 269.335 8.124C269.655 8.524 269.815 9.008 269.815 9.576C269.815 10.076 269.709 10.508 269.497 10.872C269.285 11.232 268.987 11.51 268.603 11.706C268.219 11.902 267.773 12 267.265 12H263.653ZM264.541 11.154H267.049C267.401 11.154 267.717 11.092 267.997 10.968C268.277 10.84 268.497 10.66 268.657 10.428C268.821 10.196 268.903 9.916 268.903 9.588C268.903 9.268 268.829 8.98 268.681 8.724C268.533 8.468 268.331 8.264 268.075 8.112C267.823 7.956 267.535 7.878 267.211 7.878H264.541V11.154ZM264.541 7.044H266.983C267.259 7.044 267.511 6.982 267.739 6.858C267.967 6.73 268.147 6.556 268.279 6.336C268.415 6.116 268.483 5.862 268.483 5.574C268.483 5.166 268.341 4.834 268.057 4.578C267.777 4.322 267.419 4.194 266.983 4.194H264.541V7.044ZM271.936 14.88L273.19 11.478L273.208 12.486L270.37 5.52H271.306L273.634 11.346H273.25L275.398 5.52H276.298L272.818 14.88H271.936Z" fill="white"/>
<line x1="196.5" y1="10" x2="196.5" y2="38.1745" stroke="white" stroke-opacity="0.5"/>
</svg>
