<svg width="180" height="25" viewBox="0 0 180 25" fill="none" xmlns="http://www.w3.org/2000/svg">
    <path d="M58.1444 11.1054C59.588 9.41553 60.9829 7.78235 62.3758 6.15112C63.6651 4.64102 64.9506 3.127 66.2497 1.62667C66.4802 1.35903 66.7479 1.10311 67.0448 0.915569C67.8458 0.413503 68.7034 0.712398 69.0101 1.60713C69.1332 1.96854 69.1761 2.37097 69.1781 2.75583C69.1879 9.47804 69.1898 16.2003 69.1722 22.9225C69.1722 23.3581 69.055 23.8309 68.8616 24.2196C68.6526 24.6397 68.1779 24.7412 67.7188 24.7412C66.0426 24.7452 64.3665 24.7608 62.6903 24.7393C61.6764 24.7256 61.1978 24.2177 61.1841 23.1608C61.1646 21.6312 61.1782 20.1015 61.1763 18.5699C61.1763 18.398 61.1763 18.2261 61.0591 18.0132C60.8813 18.2339 60.7035 18.4547 60.5238 18.6735C60.0608 19.24 59.6193 19.828 59.125 20.3653C58.4491 21.0998 57.7458 21.0998 57.0738 20.3555C56.5073 19.7284 55.9974 19.0505 55.4621 18.3961C55.3527 18.2613 55.2414 18.1284 55.0577 17.9057C55.0441 18.1714 55.0284 18.3238 55.0284 18.4781C55.0284 20.0078 55.0323 21.5374 55.0245 23.069C55.0187 24.2509 54.542 24.7393 53.3679 24.7471C51.805 24.7588 50.2422 24.7588 48.6793 24.7471C47.5092 24.7373 47.0227 24.2489 47.0208 23.067C47.0149 16.2471 47.0129 9.42725 47.0305 2.60736C47.0305 2.18539 47.1458 1.7263 47.3333 1.34926C47.6674 0.675281 48.443 0.476017 49.0876 0.872591C49.4276 1.08162 49.7343 1.36684 49.996 1.66965C52.5845 4.6586 55.1613 7.65927 57.7419 10.656C57.8572 10.7889 57.9744 10.9198 58.1385 11.1054H58.1444Z" fill="white"/>
    <path d="M171.818 9.11325V8.5485C171.818 6.53695 171.816 4.52541 171.818 2.51386C171.82 1.16285 172.303 0.681914 173.652 0.675927C175.149 0.671936 176.646 0.671936 178.142 0.675927C179.496 0.679918 179.996 1.16484 179.996 2.49989C180 9.3168 180 16.1337 179.996 22.9506C179.996 24.2737 179.511 24.7466 178.18 24.7506C176.652 24.7566 175.121 24.7586 173.593 24.7506C172.297 24.7446 171.824 24.2677 171.82 22.9666C171.815 20.2067 171.82 17.4468 171.82 14.6869C171.82 14.4913 171.82 14.2978 171.82 14.0683H166.865V14.653C166.865 17.347 166.865 20.0391 166.865 22.7331C166.865 22.9825 166.865 23.234 166.84 23.4794C166.762 24.2098 166.311 24.7047 165.576 24.7187C163.714 24.7526 161.853 24.7506 159.991 24.7187C159.3 24.7067 158.897 24.2976 158.761 23.6211C158.714 23.3777 158.688 23.1262 158.688 22.8788C158.684 16.1118 158.684 9.34474 158.688 2.57772C158.688 2.36219 158.702 2.14468 158.737 1.93314C158.869 1.15686 159.28 0.717835 160.071 0.699874C161.882 0.661958 163.694 0.657967 165.506 0.699874C166.379 0.721826 166.84 1.26462 166.849 2.18259C166.873 4.30988 166.875 6.43917 166.855 8.56646C166.851 9.02345 166.975 9.16114 167.436 9.15117C168.715 9.12123 169.997 9.14119 171.276 9.13919C171.437 9.13919 171.599 9.12123 171.82 9.10926L171.818 9.11325Z" fill="white"/>
    <path d="M124.12 21.8605C124.12 22.2869 124.13 22.7012 124.12 23.1136C124.086 24.2332 123.606 24.7332 122.496 24.7432C120.755 24.7611 119.012 24.7591 117.269 24.7432C116.132 24.7332 115.635 24.2332 115.631 23.0837C115.62 20.4621 115.626 17.8404 115.626 15.2187C115.626 11.087 115.626 6.9553 115.626 2.82359C115.626 2.59051 115.624 2.35742 115.641 2.12633C115.707 1.28963 116.159 0.7398 116.986 0.743785C120.052 0.75773 123.13 0.476837 126.18 0.927062C130.441 1.55658 133.804 4.83167 134.684 9.07495C135.294 12.0074 134.647 14.6669 133.031 17.1292C132.844 17.4161 132.816 17.6193 132.993 17.9241C133.804 19.3325 134.593 20.7529 135.38 22.1753C136.272 23.7909 135.724 24.7352 133.884 24.7432C132.059 24.7531 130.234 24.7352 128.407 24.7512C127.614 24.7571 127.046 24.4364 126.658 23.7471C126.323 23.1554 125.931 22.5957 125.61 21.998C125.419 21.6414 125.21 21.5139 124.825 21.6633C124.612 21.747 124.383 21.7888 124.122 21.8586L124.12 21.8605ZM123.853 8.36176V15.0932C125.048 15.0195 125.979 14.5394 126.566 13.5413C127.284 12.3241 127.234 11.0531 126.537 9.8479C125.963 8.85382 125.032 8.40558 123.853 8.36176Z" fill="white"/>
    <path d="M71.9587 12.7218C71.9587 9.39605 71.9587 6.07026 71.9587 2.74446C71.9587 2.49493 71.9587 2.24339 71.9886 1.99785C72.0844 1.19735 72.5096 0.780125 73.3122 0.690292C73.5258 0.666337 73.7434 0.670329 73.9589 0.670329C78.2489 0.670329 82.5409 0.670329 86.8309 0.670329C87.0625 0.670329 87.3001 0.664341 87.5276 0.698277C88.3062 0.812065 88.7673 1.27919 88.7913 2.06772C88.8232 3.21358 88.8272 4.36344 88.7913 5.5093C88.7653 6.37968 88.2423 6.87276 87.336 6.88274C85.1421 6.9067 82.9462 6.90869 80.7503 6.88873C80.2832 6.88474 80.0795 6.98854 80.1334 7.48562C80.1734 7.86291 80.1694 8.25219 80.1334 8.63148C80.0935 9.06467 80.2752 9.1545 80.6744 9.15051C82.7366 9.13254 84.7987 9.14053 86.8609 9.14252C88.3681 9.14252 88.8073 9.58969 88.8112 11.1148C88.8112 11.564 88.8192 12.0132 88.8053 12.4623C88.7773 13.4665 88.3162 13.9655 87.3061 14.0154C86.5095 14.0554 85.711 14.0314 84.9125 14.0334C83.4832 14.0334 82.0518 14.0454 80.6225 14.0274C80.2612 14.0234 80.1254 14.1133 80.1334 14.4985C80.1574 15.6783 80.1574 16.8601 80.1334 18.0399C80.1254 18.4372 80.2492 18.547 80.6425 18.545C82.7386 18.527 84.8327 18.535 86.9288 18.537C88.3501 18.539 88.8092 19.0001 88.8112 20.4195C88.8132 21.3338 88.8212 22.2481 88.8053 23.1624C88.7873 24.2164 88.2902 24.7434 87.2402 24.7454C82.6667 24.7594 78.0932 24.7594 73.5198 24.7454C72.4418 24.7414 71.9707 24.2144 71.9627 23.0506C71.9487 20.9046 71.9587 18.7606 71.9567 16.6146C71.9567 15.317 71.9567 14.0194 71.9567 12.7238L71.9587 12.7218Z" fill="white"/>
    <path d="M11.8711 24.086C8.92828 24.0573 6.23406 23.2872 3.96815 21.3379C1.7271 19.4097 0.558776 16.9025 0.13619 14.015C-0.611463 8.90876 1.75961 3.99174 6.25509 1.538C9.86906 -0.434156 13.5806 -0.501041 17.3016 1.28766C18.4202 1.82465 18.6267 2.46866 18.0722 3.57131C17.4431 4.82302 16.8025 6.06709 16.1486 7.30542C15.6572 8.23799 15.1084 8.43483 14.1427 7.99912C12.81 7.39524 11.4848 7.23854 10.1521 7.96854C8.50952 8.86863 7.63758 10.7624 7.90528 12.8129C8.13856 14.5921 9.45221 16.1381 11.1101 16.5279C12.1656 16.7764 13.1962 16.633 14.1963 16.2241C15.7088 15.6087 16.183 15.8323 16.7069 17.3955C17.1257 18.6472 17.554 19.8951 17.946 21.1564C18.2118 22.0144 17.9537 22.5629 17.1429 22.947C15.4736 23.7344 13.7125 24.1051 11.8673 24.0841L11.8711 24.086Z" fill="white"/>
    <mask id="path-6-inside-1_432_9395" fill="white">
        <path fill-rule="evenodd" clip-rule="evenodd" d="M32.7988 24.086C39.45 24.086 44.8418 18.6941 44.8418 12.043C44.8418 5.39183 39.45 0 32.7988 0C26.1477 0 20.7559 5.39183 20.7559 12.043C20.7559 18.6941 26.1477 24.086 32.7988 24.086ZM32.7985 20.741C37.6021 20.741 41.4962 16.8469 41.4962 12.0433C41.4962 7.23967 37.6021 3.34557 32.7985 3.34557C27.9949 3.34557 24.1008 7.23967 24.1008 12.0433C24.1008 16.8469 27.9949 20.741 32.7985 20.741Z"/>
    </mask>
    <path fill-rule="evenodd" clip-rule="evenodd" d="M32.7988 24.086C39.45 24.086 44.8418 18.6941 44.8418 12.043C44.8418 5.39183 39.45 0 32.7988 0C26.1477 0 20.7559 5.39183 20.7559 12.043C20.7559 18.6941 26.1477 24.086 32.7988 24.086ZM32.7985 20.741C37.6021 20.741 41.4962 16.8469 41.4962 12.0433C41.4962 7.23967 37.6021 3.34557 32.7985 3.34557C27.9949 3.34557 24.1008 7.23967 24.1008 12.0433C24.1008 16.8469 27.9949 20.741 32.7985 20.741Z" fill="white"/>
    <path d="M12.8418 12.043C12.8418 1.02104 21.7769 -7.91402 32.7988 -7.91402V56.086C57.1231 56.086 76.8418 36.3673 76.8418 12.043H12.8418ZM32.7988 32C21.7769 32 12.8418 23.0649 12.8418 12.043H76.8418C76.8418 -12.2813 57.1231 -32 32.7988 -32V32ZM52.7559 12.043C52.7559 23.0649 43.8208 32 32.7988 32V-32C8.47458 -32 -11.2441 -12.2813 -11.2441 12.043H52.7559ZM32.7988 -7.91402C43.8208 -7.91402 52.7559 1.02103 52.7559 12.043H-11.2441C-11.2441 36.3673 8.47458 56.086 32.7988 56.086V-7.91402ZM9.49619 12.0433C9.49619 -0.826215 19.929 -11.259 32.7985 -11.259V52.741C55.2752 52.741 73.4962 34.52 73.4962 12.0433H9.49619ZM32.7985 35.3456C19.929 35.3456 9.49619 24.9128 9.49619 12.0433H73.4962C73.4962 -10.4334 55.2752 -28.6544 32.7985 -28.6544V35.3456ZM56.1008 12.0433C56.1008 24.9128 45.668 35.3456 32.7985 35.3456V-28.6544C10.3217 -28.6544 -7.89924 -10.4334 -7.89924 12.0433H56.1008ZM32.7985 -11.259C45.668 -11.259 56.1008 -0.826209 56.1008 12.0433H-7.89924C-7.89924 34.52 10.3217 52.741 32.7985 52.741V-11.259Z" fill="white" mask="url(#path-6-inside-1_432_9395)"/>
    <path d="M30.5059 3.34277C31.7728 3.4173 34.5746 4.03376 35.29 4.21262C36.1843 4.43619 37.8406 5.08957 38.0642 6.87815C38.2878 8.66674 38.5113 10.0082 39.1821 10.9025C39.8528 11.7968 40.2999 13.5853 36.4992 12.9146C34.793 12.4881 30.8488 11.8581 27.3838 14.7122C27.0437 14.9923 26.6322 15.2277 26.4249 15.6165C26.2391 15.9652 26.2885 16.4131 26.4384 17.1625C26.6173 18.0568 26.3639 18.1313 26.2148 18.0568" stroke="white" stroke-width="0.6"/>
    <path d="M24.1025 7.69313C24.9968 7.32051 28.4959 6.02928 29.5691 5.31385C30.9105 4.41956 34.0405 4.19598 35.1584 6.20814C36.2763 8.2203 36.4998 10.6796 34.9348 11.1268C33.817 11.3503 32.0284 9.33818 27.7805 11.7975C25.9919 12.9154 25.0976 14.0332 25.3212 14.9275C25.5001 15.6429 25.3957 16.418 25.3212 16.7161" stroke="white" stroke-width="0.6"/>
    <path d="M41.1951 8.21919C40.748 8.36824 39.8984 8.93462 40.0773 10.0078C40.3009 11.3492 42.0894 14.0321 39.4066 15.15C37.8415 15.5971 38.0651 14.2557 34.2644 14.4792C31.1344 14.4792 28.8986 14.7028 28.4515 17.1621C28.2279 18.5035 28.2279 19.1743 27.7808 19.3978M30.2401 20.7393C29.5693 19.7705 28.7645 17.6093 30.9108 16.715C32.2522 16.156 34.0408 16.0442 35.1587 16.0442C36.9473 16.0442 37.3944 17.1621 38.7358 17.1621C39.809 17.1621 40.3754 17.1621 40.5244 17.1621M25.9922 8.88991C26.7416 8.14051 28.4644 6.76313 30.1607 6.33648C30.795 6.17693 31.4663 6.26762 32.0537 6.55538C32.4023 6.72616 32.6626 6.87775 32.923 6.87775C33.3701 6.87775 34.9351 8.21919 33.3701 9.11348C31.8051 10.0078 31.358 9.33705 29.793 10.0078C28.228 10.6785 27.1101 11.5728 26.2158 11.3492C25.3215 11.1256 24.8744 10.2313 25.9922 8.88991ZM31.5815 7.77204C31.4937 7.68422 31.0789 7.66468 30.5912 7.67635C29.6182 7.69964 28.081 8.05867 28.4564 8.95665C28.5209 9.11086 28.6712 9.18929 28.8986 9.11348C29.5693 8.88991 29.5693 9.11348 30.4636 9.11348C31.3579 9.11348 31.8051 7.99562 31.5815 7.77204Z" stroke="white" stroke-width="0.6"/>
    <path d="M36.0528 19.1755C35.1585 19.5332 33.4444 19.9207 32.6992 20.0698C31.1342 20.4246 30.9106 19.1755 31.3577 18.7285C31.8049 18.2815 31.8049 18.5048 32.4756 17.834C33.1463 17.1633 33.817 17.1633 36.0528 17.6105C38.9592 17.834 37.1706 18.7283 36.0528 19.1755Z" stroke="white" stroke-width="0.6"/>
    <path d="M109.194 24.7537C108.511 24.7537 107.827 24.7458 107.144 24.7556C106.353 24.7673 105.794 24.4275 105.519 23.6814C105.399 23.3591 105.228 23.2439 104.876 23.2478C103.087 23.2654 101.296 23.2634 99.505 23.2478C99.1945 23.2459 99.0324 23.3416 98.9367 23.6365C98.6808 24.4197 98.1163 24.7615 97.3019 24.7556C95.9836 24.7458 94.6652 24.7556 93.3469 24.7478C93.0734 24.7478 92.7883 24.7302 92.5266 24.656C91.7512 24.4372 91.3977 23.7849 91.6789 22.9666C91.9699 22.1228 92.343 21.3064 92.6984 20.4881C95.3625 14.3417 98.0304 8.19719 100.702 2.05273C100.837 1.74219 100.999 1.42969 101.212 1.16993C101.761 0.500011 102.698 0.503918 103.247 1.17774C103.448 1.42578 103.607 1.7207 103.735 2.01757C106.692 8.81633 109.644 15.619 112.593 22.4216C112.663 22.5857 112.726 22.7537 112.774 22.9255C113.061 23.9275 112.575 24.6638 111.534 24.7244C110.757 24.7693 109.974 24.7341 109.192 24.7341V24.7537H109.194ZM100.655 19.5389H103.808C103.278 18.2772 102.775 17.0819 102.228 15.7772C101.675 17.1014 101.177 18.2947 100.657 19.5389H100.655Z" fill="white"/>
    <path d="M143.157 6.89847C142.305 6.89847 141.513 6.89847 140.718 6.89847C138.928 6.89847 138.573 6.53925 138.573 4.73115C138.573 3.93287 138.557 3.1346 138.579 2.33832C138.611 1.16884 139.11 0.677905 140.285 0.675909C144.923 0.667926 149.561 0.667926 154.197 0.675909C155.387 0.675909 155.898 1.19678 155.912 2.38222C155.924 3.31221 155.922 4.2442 155.912 5.17419C155.9 6.40154 155.413 6.88051 154.171 6.89647C153.407 6.90645 152.641 6.92441 151.878 6.88849C151.431 6.86654 151.323 7.01422 151.325 7.44928C151.341 12.219 151.335 16.9907 151.335 21.7604C151.335 22.2433 151.345 22.7243 151.327 23.2072C151.29 24.2091 150.803 24.724 149.811 24.7379C148.098 24.7619 146.386 24.7619 144.676 24.7379C143.68 24.724 143.187 24.2191 143.167 23.2072C143.141 21.8282 143.155 20.4472 143.155 19.0682C143.155 15.2285 143.155 11.3888 143.155 7.54906C143.155 7.35349 143.155 7.1599 143.155 6.89847H143.157Z" fill="white"/>
</svg>