<svg width="147" height="24" viewBox="0 0 147 24" fill="none" xmlns="http://www.w3.org/2000/svg">
    <path d="M13.4998 3.79403C13.4467 3.65448 13.3517 3.53445 13.2278 3.45011C13.1038 3.36577 12.9567 3.32117 12.8064 3.32234H7.84027C7.71936 3.32062 7.5999 3.34853 7.49246 3.40359C7.38502 3.45866 7.29293 3.53917 7.22436 3.63801C7.15578 3.73685 7.11284 3.85095 7.09933 3.97019C7.08582 4.08944 7.10217 4.21016 7.14692 4.32163L13.2891 20.2179C13.3422 20.3575 13.4371 20.4775 13.5611 20.5619C13.6851 20.6462 13.8321 20.6908 13.9824 20.6896H18.9437C19.0643 20.6912 19.1834 20.6633 19.2906 20.6083C19.3977 20.5534 19.4896 20.4731 19.5581 20.3746C19.6266 20.2761 19.6697 20.1624 19.6834 20.0435C19.6972 19.9246 19.6813 19.8041 19.637 19.6928L13.4998 3.79403Z"
          fill="#EBEBEB"/>
    <path d="M6.96372 3.87182C7.00425 3.71377 7.09698 3.57376 7.22711 3.47415C7.35723 3.37455 7.51724 3.32109 7.68157 3.32233H12.6967C12.8108 3.32087 12.9236 3.34576 13.0263 3.39505C13.1289 3.44433 13.2186 3.51665 13.2883 3.60629C13.3579 3.69592 13.4056 3.80041 13.4275 3.91148C13.4494 4.02255 13.445 4.13717 13.4146 4.24625L9.21772 20.1401C9.17719 20.2982 9.08445 20.4382 8.95433 20.5378C8.82421 20.6374 8.6642 20.6909 8.49987 20.6896H3.48472C3.37068 20.6911 3.25786 20.6662 3.15519 20.6169C3.05252 20.5676 2.96281 20.4953 2.89317 20.4057C2.82353 20.316 2.77586 20.2115 2.75394 20.1005C2.73202 19.9894 2.73644 19.8748 2.76687 19.7657L6.96372 3.87182Z"
          fill="white"/>
    <path d="M17.641 3.87182C17.6815 3.71377 17.7743 3.57376 17.9044 3.47415C18.0345 3.37455 18.1945 3.32109 18.3589 3.32233H23.3642C23.4783 3.32087 23.5911 3.34576 23.6937 3.39505C23.7964 3.44433 23.8861 3.51665 23.9558 3.60629C24.0254 3.69592 24.0731 3.80041 24.095 3.91148C24.1169 4.02255 24.1125 4.13717 24.0821 4.24625L19.8852 20.1401C19.8447 20.2982 19.7519 20.4382 19.6218 20.5378C19.4917 20.6374 19.3317 20.6909 19.1674 20.6896H14.1498C14.0357 20.6911 13.9229 20.6662 13.8202 20.6169C13.7176 20.5676 13.6278 20.4953 13.5582 20.4057C13.4886 20.316 13.4409 20.2115 13.419 20.1005C13.3971 19.9894 13.4015 19.8748 13.4319 19.7657L17.641 3.87182Z"
          fill="white"/>
    <path d="M23.9595 20.8348H26.5859C26.7918 20.835 26.992 20.7683 27.1562 20.6449C27.3203 20.5216 27.4392 20.3483 27.4948 20.1516L29.0359 14.6956H34.5827C34.7886 14.6955 34.9887 14.6284 35.1525 14.5045C35.3162 14.3807 35.4345 14.2069 35.4892 14.0099L36.1997 11.5008C36.2393 11.3608 36.2454 11.2136 36.2177 11.0708C36.19 10.928 36.1292 10.7936 36.04 10.6782C35.9508 10.5628 35.8358 10.4697 35.7041 10.4061C35.5723 10.3425 35.4274 10.3102 35.2809 10.3118H30.2756L30.9959 7.78077H36.6603C36.8662 7.78094 37.0664 7.71425 37.2305 7.59089C37.3947 7.46753 37.5136 7.29427 37.5692 7.09755L38.2797 4.58838C38.3182 4.44949 38.3238 4.30367 38.2962 4.16227C38.2686 4.02086 38.2085 3.88769 38.1205 3.77312C38.0326 3.65854 37.9191 3.56566 37.7891 3.50169C37.6591 3.43772 37.5159 3.40439 37.3708 3.4043H28.3621C28.1563 3.40453 27.9563 3.47137 27.7922 3.59467C27.6282 3.71797 27.5092 3.891 27.4532 4.08751L23.0432 19.6483C23.0041 19.7879 22.9982 19.9347 23.026 20.077C23.0538 20.2192 23.1145 20.3531 23.2034 20.4682C23.2922 20.5832 23.4067 20.6762 23.5379 20.7398C23.6691 20.8034 23.8135 20.836 23.9595 20.8348Z"
          fill="white"/>
    <path d="M53.3832 3.4043H42.0863C41.8805 3.40454 41.6804 3.47137 41.5164 3.59467C41.3523 3.71797 41.2333 3.891 41.1773 4.08752L40.4693 6.59669C40.4308 6.73558 40.4252 6.8814 40.4528 7.0228C40.4804 7.16421 40.5405 7.29738 40.6285 7.41195C40.7164 7.52653 40.8298 7.61941 40.9599 7.68338C41.0899 7.74735 41.2331 7.78068 41.3782 7.78077H44.4677L41.1112 19.6459C41.0713 19.7849 41.0646 19.9312 41.0914 20.0733C41.1183 20.2153 41.178 20.3493 41.2659 20.4645C41.3537 20.5798 41.4674 20.6732 41.5978 20.7375C41.7283 20.8017 41.872 20.8351 42.0177 20.8348H44.6465C44.8524 20.835 45.0527 20.7683 45.2168 20.6449C45.3809 20.5216 45.4998 20.3483 45.5555 20.1516L49.0541 7.78077H52.6752C52.8809 7.78054 53.081 7.7137 53.2451 7.5904C53.4091 7.4671 53.5281 7.29407 53.5841 7.09756L54.2922 4.58838C54.3311 4.44946 54.3372 4.30348 54.3098 4.16187C54.2824 4.02025 54.2223 3.88687 54.1342 3.77216C54.0462 3.65745 53.9325 3.56455 53.8022 3.50072C53.6719 3.4369 53.5285 3.4039 53.3832 3.4043Z"
          fill="white"/>
    <path d="M54.2993 20.8348H56.9257C57.1317 20.8354 57.3322 20.7689 57.4964 20.6455C57.6606 20.522 57.7794 20.3485 57.8347 20.1516L62.2447 4.59084C62.2838 4.4512 62.2896 4.30446 62.2618 4.16219C62.234 4.01992 62.1733 3.88599 62.0845 3.77096C61.9957 3.65594 61.8811 3.56295 61.7499 3.49933C61.6187 3.4357 61.4744 3.40318 61.3284 3.40433H58.702C58.4961 3.40416 58.2958 3.47085 58.1317 3.5942C57.9676 3.71756 57.8486 3.89082 57.793 4.08754L53.383 19.6483C53.344 19.788 53.3381 19.9347 53.3659 20.077C53.3937 20.2192 53.4544 20.3532 53.5432 20.4682C53.632 20.5832 53.7466 20.6762 53.8778 20.7398C54.009 20.8035 54.1533 20.836 54.2993 20.8348Z"
          fill="white"/>
    <path d="M75.8466 14.7336C75.3233 15.3724 74.6606 15.8848 73.9085 16.2323C73.1565 16.5798 72.3347 16.7532 71.5052 16.7395C70.2337 16.7395 69.3199 16.3335 68.7931 15.5384C68.2443 14.685 68.1586 13.5666 68.5481 12.2147C68.8944 10.8673 69.6673 9.6656 70.7531 8.78651C71.7981 7.94065 73.1091 7.48548 74.4575 7.50031C76.0353 7.50031 77.0226 8.08384 77.4783 9.28008C77.4955 9.32643 77.5223 9.36867 77.557 9.40401C77.5918 9.43935 77.6337 9.467 77.68 9.48514C77.7262 9.50328 77.7759 9.5115 77.8256 9.50926C77.8753 9.50702 77.9239 9.49438 77.9683 9.47216L81.6801 7.64133C81.7636 7.60115 81.8293 7.53181 81.8646 7.44658C81.8998 7.36135 81.9022 7.26622 81.8712 7.17937C80.928 4.50486 78.5882 3.07035 75.2562 3.07035C72.6913 3.06382 70.2026 3.93545 68.21 5.53819C66.1674 7.11454 64.6991 9.30933 64.0279 11.7893C63.3272 14.3787 63.6212 16.6082 64.9001 18.4147C66.1937 20.2431 68.2076 21.1695 70.883 21.1695C74.0386 21.1695 77.101 19.7326 79.2864 17.2258C79.3188 17.1886 79.3429 17.1451 79.3573 17.0981C79.3717 17.0511 79.376 17.0016 79.37 16.9529C79.364 16.9041 79.3478 16.8571 79.3225 16.815C79.2971 16.7728 79.2631 16.7363 79.2227 16.7079L76.3072 14.6753C76.2354 14.6258 76.1476 14.6045 76.0608 14.6152C75.974 14.626 75.8943 14.6682 75.8369 14.7336H75.8466Z"
          fill="white"/>
    <path d="M90.7931 3.84924L81.0617 19.41C80.973 19.5519 80.9241 19.7148 80.9202 19.8818C80.9163 20.0488 80.9574 20.2138 81.0394 20.3596C81.1214 20.5055 81.2412 20.6269 81.3864 20.7113C81.5317 20.7957 81.697 20.8401 81.8653 20.8397H84.6877C84.8488 20.84 85.0073 20.7993 85.148 20.7214C85.2888 20.6435 85.407 20.531 85.4913 20.3947L86.8412 18.2065H92.5595L92.5963 19.9206C92.602 20.1651 92.704 20.3976 92.8802 20.5684C93.0565 20.7393 93.2931 20.8349 93.5395 20.8348H96.5506C96.6793 20.835 96.8068 20.8091 96.9251 20.7586C97.0433 20.7081 97.1499 20.6341 97.2383 20.5412C97.3267 20.4482 97.3949 20.3383 97.4389 20.2182C97.4828 20.0981 97.5015 19.9704 97.4938 19.8428L96.5653 4.28202C96.5503 4.04443 96.4447 3.82141 96.2699 3.65836C96.0952 3.4953 95.8644 3.40445 95.6245 3.4043H91.5967C91.4357 3.40465 91.2774 3.44569 91.1369 3.52353C90.9963 3.60138 90.878 3.71347 90.7931 3.84924ZM92.4909 13.92H89.4603L92.4003 9.14963L92.4909 13.92Z"
          fill="white"/>
    <path d="M108.837 3.4043H106.21C106.005 3.40453 105.805 3.47137 105.641 3.59467C105.477 3.71797 105.357 3.891 105.302 4.08752L100.892 19.6483C100.852 19.7875 100.846 19.9339 100.873 20.0759C100.9 20.2179 100.96 20.3518 101.048 20.467C101.136 20.5821 101.25 20.6755 101.381 20.7397C101.511 20.804 101.655 20.8374 101.8 20.8372H110.447C110.653 20.8382 110.853 20.7718 111.018 20.6484C111.182 20.5249 111.301 20.3512 111.355 20.154L112.066 17.6449C112.105 17.5057 112.112 17.3593 112.084 17.2173C112.057 17.0752 111.997 16.9414 111.909 16.8262C111.821 16.711 111.707 16.6177 111.577 16.5534C111.446 16.4892 111.303 16.4558 111.157 16.4559H106.389L109.746 4.5981C109.786 4.45859 109.793 4.31171 109.766 4.16904C109.74 4.02637 109.68 3.89184 109.592 3.77605C109.503 3.66027 109.389 3.56642 109.258 3.5019C109.127 3.43738 108.983 3.40397 108.837 3.4043Z"
          fill="white"/>
    <path d="M122.802 3.4043H120.175C119.97 3.40453 119.769 3.47137 119.605 3.59467C119.441 3.71797 119.322 3.891 119.266 4.08752L114.856 19.6483C114.817 19.7875 114.811 19.9339 114.838 20.0759C114.865 20.2179 114.925 20.3518 115.013 20.467C115.101 20.5821 115.215 20.6755 115.345 20.7397C115.476 20.804 115.62 20.8374 115.765 20.8372H124.411C124.617 20.8378 124.818 20.7713 124.982 20.6479C125.146 20.5244 125.265 20.351 125.32 20.154L126.028 17.6449C126.068 17.5057 126.074 17.3593 126.047 17.2173C126.02 17.0752 125.96 16.9414 125.872 16.8262C125.784 16.711 125.67 16.6177 125.539 16.5534C125.409 16.4892 125.265 16.4558 125.119 16.4559H120.354L123.711 4.5981C123.751 4.45859 123.758 4.31171 123.731 4.16904C123.704 4.02637 123.645 3.89184 123.556 3.77605C123.468 3.66027 123.354 3.56642 123.223 3.5019C123.092 3.43738 122.948 3.40397 122.802 3.4043Z"
          fill="white"/>
    <path d="M139.719 3.75687L135.799 8.61962L134.701 4.13373C134.654 3.92723 134.538 3.74268 134.371 3.6102C134.205 3.47772 133.998 3.40515 133.785 3.40432H130.869C130.723 3.40415 130.578 3.43788 130.447 3.50283C130.316 3.56778 130.202 3.66217 130.114 3.77851C130.026 3.89485 129.966 4.02993 129.94 4.17305C129.914 4.31616 129.922 4.46337 129.963 4.60299L132.476 13.1468L130.636 19.6459C130.597 19.7851 130.591 19.9314 130.618 20.0735C130.645 20.2155 130.705 20.3494 130.793 20.4645C130.881 20.5797 130.995 20.6731 131.125 20.7373C131.256 20.8016 131.4 20.835 131.545 20.8348H134.174C134.38 20.8354 134.579 20.7692 134.743 20.6462C134.907 20.5232 135.025 20.3503 135.081 20.1541L137.014 13.3462L144.212 4.95554C144.331 4.81966 144.409 4.65246 144.434 4.47403C144.46 4.2956 144.434 4.11354 144.358 3.94971C144.282 3.78589 144.16 3.64727 144.007 3.55052C143.854 3.45377 143.676 3.40301 143.494 3.40432H140.456C140.314 3.40451 140.175 3.43629 140.047 3.49731C139.919 3.55833 139.807 3.64704 139.719 3.75687Z"
          fill="white"/>
</svg>
