<svg width="32" height="32" viewBox="0 0 32 32" fill="none" xmlns="http://www.w3.org/2000/svg">
<path d="M5.33301 19.6607C3.70236 18.5253 2.47664 16.8991 1.83424 15.0188C1.19184 13.1385 1.16629 11.1022 1.76131 9.20638C2.35634 7.31055 3.54088 5.65409 5.14252 4.4781C6.74417 3.30211 8.67933 2.66797 10.6663 2.66797C12.6534 2.66797 14.5885 3.30211 16.1902 4.4781C17.7918 5.65409 18.9763 7.31055 19.5714 9.20638C20.1664 11.1022 20.1408 13.1385 19.4984 15.0188C18.856 16.8991 17.6303 18.5253 15.9997 19.6607V28.0007C15.9997 28.3543 15.8592 28.6935 15.6091 28.9435C15.3591 29.1936 15.02 29.3341 14.6663 29.3341H6.66634C6.31272 29.3341 5.97358 29.1936 5.72353 28.9435C5.47348 28.6935 5.33301 28.3543 5.33301 28.0007V19.6607ZM10.6663 18.6674C12.4345 18.6674 14.1301 17.965 15.3804 16.7148C16.6306 15.4645 17.333 13.7688 17.333 12.0007C17.333 10.2326 16.6306 8.53692 15.3804 7.28667C14.1301 6.03643 12.4345 5.33405 10.6663 5.33405C8.89823 5.33405 7.20254 6.03643 5.9523 7.28667C4.70205 8.53692 3.99967 10.2326 3.99967 12.0007C3.99967 13.7688 4.70205 15.4645 5.9523 16.7148C7.20254 17.965 8.89823 18.6674 10.6663 18.6674ZM9.33301 24.0007V26.6674H11.9997V24.0007H9.33301ZM10.6663 16.0007C9.60548 16.0007 8.58806 15.5793 7.83791 14.8291C7.08777 14.079 6.66634 13.0616 6.66634 12.0007C6.66634 10.9399 7.08777 9.92244 7.83791 9.17229C8.58806 8.42215 9.60548 8.00072 10.6663 8.00072C11.7272 8.00072 12.7446 8.42215 13.4948 9.17229C14.2449 9.92244 14.6663 10.9399 14.6663 12.0007C14.6663 13.0616 14.2449 14.079 13.4948 14.8291C12.7446 15.5793 11.7272 16.0007 10.6663 16.0007ZM18.6663 22.6674V20.9447C19.9262 19.8204 20.9339 18.4422 21.6233 16.9007C22.3127 15.3592 22.6682 13.6893 22.6663 12.0007C22.6705 9.04817 21.582 6.1985 19.6103 4.00072H27.9997C28.3533 4.00072 28.6924 4.14119 28.9425 4.39124C29.1925 4.64129 29.333 4.98043 29.333 5.33405V21.3341C29.333 21.6877 29.1925 22.0268 28.9425 22.2769C28.6924 22.5269 28.3533 22.6674 27.9997 22.6674H18.6663ZM23.9997 9.33405V12.0007H26.6663V9.33405H23.9997Z" fill="#3F99FF"/>
</svg>
