<svg width="32" height="32" viewBox="0 0 32 32" fill="none" xmlns="http://www.w3.org/2000/svg">
<path d="M16.0003 29.3327C8.63633 29.3327 2.66699 23.3633 2.66699 15.9993C2.66699 8.63535 8.63633 2.66602 16.0003 2.66602C23.3643 2.66602 29.3337 8.63535 29.3337 15.9993C29.3337 23.3633 23.3643 29.3327 16.0003 29.3327ZM10.667 17.3327C10.667 18.7472 11.2289 20.1037 12.2291 21.1039C13.2293 22.1041 14.5858 22.666 16.0003 22.666C17.4148 22.666 18.7714 22.1041 19.7716 21.1039C20.7718 20.1037 21.3337 18.7472 21.3337 17.3327H10.667ZM10.667 14.666C11.1974 14.666 11.7061 14.4553 12.0812 14.0802C12.4563 13.7052 12.667 13.1964 12.667 12.666C12.667 12.1356 12.4563 11.6269 12.0812 11.2518C11.7061 10.8767 11.1974 10.666 10.667 10.666C10.1366 10.666 9.62785 10.8767 9.25278 11.2518C8.87771 11.6269 8.66699 12.1356 8.66699 12.666C8.66699 13.1964 8.87771 13.7052 9.25278 14.0802C9.62785 14.4553 10.1366 14.666 10.667 14.666ZM21.3337 14.666C21.8641 14.666 22.3728 14.4553 22.7479 14.0802C23.1229 13.7052 23.3337 13.1964 23.3337 12.666C23.3337 12.1356 23.1229 11.6269 22.7479 11.2518C22.3728 10.8767 21.8641 10.666 21.3337 10.666C20.8032 10.666 20.2945 10.8767 19.9194 11.2518C19.5444 11.6269 19.3337 12.1356 19.3337 12.666C19.3337 13.1964 19.5444 13.7052 19.9194 14.0802C20.2945 14.4553 20.8032 14.666 21.3337 14.666Z" fill="#3F99FF"/>
</svg>
