<svg width="32" height="32" viewBox="0 0 32 32" fill="none" xmlns="http://www.w3.org/2000/svg">
<path d="M22.5998 15.9328C23.7293 14.8043 24.5502 13.4047 24.984 11.8681C25.4178 10.3315 25.4498 8.70932 25.0772 7.15677L28.4038 5.73011C28.5053 5.68662 28.6159 5.669 28.7259 5.67883C28.8358 5.68866 28.9416 5.72563 29.0337 5.78643C29.1258 5.84723 29.2014 5.92995 29.2537 6.02717C29.306 6.12439 29.3333 6.23306 29.3332 6.34344V25.3328L19.9998 29.3328L11.9998 25.3328L3.59584 28.9341C3.49439 28.9776 3.38373 28.9952 3.27379 28.9854C3.16385 28.9755 3.05808 28.9386 2.96595 28.8778C2.87383 28.817 2.79824 28.7343 2.74598 28.637C2.69371 28.5398 2.66641 28.4311 2.6665 28.3208V9.33277L6.8385 7.54477C6.54496 9.04554 6.62505 10.5955 7.07171 12.058C7.51837 13.5205 8.3179 14.8507 9.39984 15.9314L15.9998 22.5328L22.5998 15.9328ZM20.7145 14.0474L15.9998 18.7594L11.2852 14.0461C10.353 13.1137 9.71823 11.9258 9.46114 10.6326C9.20405 9.33948 9.33617 7.99913 9.84081 6.78105C10.3454 5.56298 11.1999 4.52189 12.2962 3.78943C13.3925 3.05696 14.6814 2.66602 15.9998 2.66602C17.3183 2.66602 18.6072 3.05696 19.7035 3.78943C20.7997 4.52189 21.6542 5.56298 22.1589 6.78105C22.6635 7.99913 22.7956 9.33948 22.5385 10.6326C22.2814 11.9258 21.6467 13.1137 20.7145 14.0461V14.0474Z" fill="#3F99FF"/>
</svg>
