<svg width="32" height="32" viewBox="0 0 32 32" fill="none" xmlns="http://www.w3.org/2000/svg">
<path d="M2.6665 6.66602L11.9998 2.66602L19.9998 6.66602L28.4038 3.06468C28.5053 3.02119 28.6159 3.00357 28.7259 3.01341C28.8358 3.02324 28.9416 3.06021 29.0337 3.12101C29.1258 3.18181 29.2014 3.26453 29.2537 3.36175C29.306 3.45896 29.3333 3.56764 29.3332 3.67802V25.3327L19.9998 29.3327L11.9998 25.3327L3.59584 28.934C3.49439 28.9775 3.38373 28.9951 3.27379 28.9853C3.16385 28.9755 3.05808 28.9385 2.96595 28.8777C2.87383 28.8169 2.79824 28.7342 2.74598 28.637C2.69371 28.5397 2.66641 28.4311 2.6665 28.3207V6.66602ZM7.99984 14.666V17.3327H10.6665V14.666H7.99984ZM13.3332 14.666V17.3327H15.9998V14.666H13.3332ZM21.3332 14.586L19.6838 12.9353L18.2692 14.3487L19.9185 15.9993L18.2692 17.6487L19.6825 19.0634L21.3332 17.414L22.9825 19.0634L24.3972 17.65L22.7478 15.9993L24.3972 14.35L22.9838 12.9353L21.3332 14.5847V14.586Z" fill="#3F99FF"/>
</svg>
