<svg width="32" height="32" viewBox="0 0 32 32" fill="none" xmlns="http://www.w3.org/2000/svg">
<path d="M8.00033 11.9993H26.5843L27.251 9.33268H10.667V6.66602H28.9603C29.163 6.66602 29.363 6.71223 29.5451 6.80113C29.7273 6.89003 29.8868 7.01928 30.0114 7.17906C30.1361 7.33884 30.2227 7.52495 30.2647 7.72323C30.3067 7.92151 30.3029 8.12675 30.2537 8.32335L26.9203 21.6567C26.8481 21.945 26.6816 22.2009 26.4473 22.3838C26.2129 22.5667 25.9242 22.666 25.627 22.666H6.66699C6.31337 22.666 5.97423 22.5255 5.72418 22.2755C5.47413 22.0254 5.33366 21.6863 5.33366 21.3327V5.33268H2.66699V2.66602H6.66699C7.02061 2.66602 7.35975 2.80649 7.6098 3.05654C7.85985 3.30659 8.00033 3.64573 8.00033 3.99935V11.9993ZM8.00033 30.666C7.29308 30.666 6.6148 30.3851 6.11471 29.885C5.61461 29.3849 5.33366 28.7066 5.33366 27.9993C5.33366 27.2921 5.61461 26.6138 6.11471 26.1137C6.6148 25.6136 7.29308 25.3327 8.00033 25.3327C8.70757 25.3327 9.38585 25.6136 9.88594 26.1137C10.386 26.6138 10.667 27.2921 10.667 27.9993C10.667 28.7066 10.386 29.3849 9.88594 29.885C9.38585 30.3851 8.70757 30.666 8.00033 30.666ZM24.0003 30.666C23.2931 30.666 22.6148 30.3851 22.1147 29.885C21.6146 29.3849 21.3337 28.7066 21.3337 27.9993C21.3337 27.2921 21.6146 26.6138 22.1147 26.1137C22.6148 25.6136 23.2931 25.3327 24.0003 25.3327C24.7076 25.3327 25.3858 25.6136 25.8859 26.1137C26.386 26.6138 26.667 27.2921 26.667 27.9993C26.667 28.7066 26.386 29.3849 25.8859 29.885C25.3858 30.3851 24.7076 30.666 24.0003 30.666Z" fill="#3F99FF"/>
</svg>
