<svg width="65" height="34" viewBox="0 0 65 34" fill="none" xmlns="http://www.w3.org/2000/svg">
<path fill-rule="evenodd" clip-rule="evenodd" d="M29.2615 0.330382C27.2406 1.35433 25.9985 2.18818 24.9048 3.25531C24.2533 3.89103 23.9283 4.30904 23.5829 4.95545C23.0648 5.9251 22.885 6.84544 22.9943 7.96797C23.1246 9.30555 23.5224 10.2509 24.2864 11.0383C24.711 11.4758 25.1359 11.772 25.7396 12.0515C26.729 12.5096 27.546 12.6793 29.3609 12.8037L29.8071 12.8344L29.6042 13.1092C29.3575 13.4435 28.7046 14.0764 28.3389 14.3357C27.705 14.7852 27.1064 15.052 26.5821 15.1187C26.4674 15.1332 26.3796 15.1607 26.387 15.1796C26.3944 15.1985 26.6404 15.4075 26.9336 15.644C27.5416 16.1342 27.4739 16.1229 27.9987 15.8215C28.9259 15.2888 29.875 14.3157 30.5812 13.1734L30.8562 12.7286H32.0541C33.3608 12.7286 33.7731 12.7624 34.3986 12.9208C35.2315 13.1317 35.8666 13.5325 36.243 14.0849C36.621 14.6396 36.7894 15.2862 36.7928 16.1965C36.7951 16.7856 36.7458 17.1134 36.5796 17.6132C36.3136 18.4136 35.9996 18.8742 34.7411 20.31L34.6285 20.4385L33.9391 20.1407C31.1691 18.9441 28.689 18.3433 26.7785 18.4062C26.0575 18.43 25.6428 18.5259 25.0098 18.8153C23.3301 19.5832 21.9052 21.4233 21.2247 23.7031C21.1524 23.9452 20.9166 24.945 20.9166 25.0092C20.9166 25.0443 21.9111 25.8388 21.9551 25.8388C21.9811 25.8388 22.0003 25.7392 22.0003 25.6046C22.0003 24.8711 22.2012 23.9526 22.485 23.3882C22.7343 22.8924 23.2228 22.4078 23.6963 22.1864C24.3187 21.8955 24.589 21.848 25.6418 21.845C26.3838 21.8429 26.6489 21.8579 26.9423 21.9188C28.0166 22.1416 29.0028 22.5143 30.7717 23.3662C31.2398 23.5917 31.6493 23.7662 31.6815 23.7541C31.754 23.727 33.2611 22.5274 34.0518 21.8675C35.0767 21.012 36.8889 19.3929 37.5117 18.7762C38.8591 17.442 39.5314 16.2755 39.8027 14.8009C39.9178 14.1753 39.9076 12.9924 39.7829 12.496C39.3566 10.7994 38.1713 9.7872 35.9411 9.21547C35.4311 9.08471 34.3101 8.90349 33.7158 8.8557C33.5191 8.83988 33.3582 8.81777 33.3582 8.8066C33.3582 8.72972 34.7312 6.5933 35.3902 5.64488C36.901 3.47045 38.3366 1.74912 39.1372 1.15218L39.2589 1.06138L39.079 0.741535C38.98 0.565647 38.8645 0.380032 38.8222 0.329113L38.7453 0.236496L38.3223 0.656995C37.8976 1.07914 37.3888 1.65003 37.1214 2.00464C37.0425 2.10927 36.9584 2.19563 36.9345 2.19652C36.9106 2.1974 36.657 2.10136 36.3709 1.98303C35.1136 1.46285 33.6158 0.944151 32.2744 0.564294C31.5266 0.3525 30.0877 -0.00147556 29.9808 4.62733e-06C29.9428 0.000512119 29.6192 0.149207 29.2615 0.330382ZM20.8636 0.326787C20.5808 0.67776 20.1046 1.14271 19.8597 1.30675C19.5439 1.51842 19.3346 1.5638 18.6744 1.5638C17.2227 1.5638 15.7034 1.374 13.0918 0.866378C10.1293 0.290502 9.40718 0.198349 7.82476 0.194374C6.6888 0.191498 6.18958 0.239795 5.45743 0.423465C4.4843 0.667568 3.70807 1.08075 3.00653 1.72806C1.84842 2.79662 1.06066 4.32599 0.461379 6.66925C0.241419 7.52933 0.0234526 8.6138 0.00849669 8.9226L0 9.09727L0.258932 9.20105C0.401338 9.25814 0.538499 9.29713 0.563772 9.28766C0.589046 9.27823 0.684417 9.07325 0.775669 8.83214C1.20579 7.69629 1.82016 6.51494 2.4053 5.69872C2.79463 5.15562 3.58816 4.38296 4.06848 4.07923C4.7454 3.6512 5.46281 3.41691 6.34026 3.33723C6.80936 3.29464 8.24525 3.33203 9.09137 3.40883L9.38264 3.43526L8.78792 3.7738C7.44704 4.53707 6.54921 5.20937 5.50416 6.23285C3.91728 7.78692 2.98559 9.33854 2.49369 11.2462C2.28153 12.069 2.21568 12.6439 2.2172 13.659C2.22071 15.9716 2.77759 17.8803 3.95881 19.6287C6.13769 22.8539 10.2711 24.4375 14.7608 23.7674C17.4029 23.3731 19.5171 22.1121 21.1707 19.9443L21.3926 19.6533L21.3042 19.5002C21.2555 19.4161 21.1805 19.3019 21.1376 19.2465L21.0594 19.1459L20.7388 19.355C19.4023 20.2267 17.6399 20.78 15.6387 20.9563L15.3244 20.984V12.6906C15.3244 5.96219 15.3349 4.3973 15.3801 4.3973C15.4107 4.3973 15.6595 4.43942 15.9328 4.49093C16.3426 4.56811 16.582 4.58465 17.2968 4.58507C18.1271 4.58558 18.1788 4.58067 18.5163 4.47004C19.6241 4.10693 20.4736 3.07448 21.2381 1.16203C21.3497 0.882914 21.4606 0.608699 21.4845 0.552621C21.5226 0.46326 21.5052 0.428117 21.3433 0.267157C21.2417 0.166208 21.1363 0.083614 21.109 0.083614C21.0818 0.083614 20.9713 0.193063 20.8636 0.326787ZM54.0874 0.688502C51.6482 2.81316 50.3566 3.85585 48.7367 5.00789L48.2707 5.33933L48.2707 10.0595C48.2707 12.9542 48.2535 14.9596 48.2262 15.2449C48.1319 16.2315 47.8893 16.7784 47.2796 17.3787C46.7998 17.8512 46.8823 17.8867 46.4498 17.0212C45.8584 15.8375 45.4949 14.5991 45.2953 13.0881C45.1865 12.2645 45.1847 10.4659 45.2919 9.74711C45.6646 7.24873 46.5918 5.12432 47.9 3.77148L48.1868 3.4748L47.989 3.31668C47.7586 3.13246 47.7974 3.12425 47.1543 3.49333C45.9957 4.15831 44.7136 5.34779 43.781 6.62307C42.5159 8.35307 41.7379 10.253 41.4879 12.2229C41.4012 12.9056 41.4018 14.1911 41.4891 14.9278C41.8934 18.341 43.767 21.0791 46.7673 22.6416C49.1118 23.8627 52.0334 24.2174 54.99 23.6399C57.1791 23.2124 59.3584 22.2527 60.929 21.0246C62.7495 19.601 63.9264 17.7728 64.314 15.7659C64.4475 15.0751 64.4769 13.7901 64.3769 13.0234C64.159 11.3538 63.5247 10.0221 62.4447 8.96688C61.9219 8.45601 61.4059 8.09933 60.6906 7.75406C59.7459 7.29808 58.7425 7.03461 57.5701 6.93476C57.2606 6.90841 57.0001 6.87978 56.9912 6.87115C56.9824 6.86252 57.2942 6.49747 57.6841 6.05993C60.0277 3.42997 60.8193 2.49674 61.5904 1.45452L61.7495 1.23947L61.5061 1.0651L61.2626 0.89078L60.9856 1.18263C60.5735 1.61692 60.4874 1.65824 60.0062 1.65248C58.948 1.63988 57.3098 1.19435 54.9544 0.278618L54.6802 0.172044L54.0874 0.688502ZM27.7937 2.36817C29.8727 2.78373 32.1585 3.72424 34.1385 4.97888C34.4127 5.15261 34.6444 5.30148 34.6534 5.30964C34.6625 5.3178 34.4946 5.5869 34.2803 5.90759C34.066 6.22833 33.6028 6.93793 33.2509 7.48454C32.899 8.03115 32.5664 8.54681 32.5116 8.63046C32.4149 8.77818 32.4025 8.7833 32.0766 8.81019C31.2228 8.88061 29.5701 8.80973 28.698 8.66531C28.0691 8.56114 27.3469 8.33421 26.9788 8.12504C26.5671 7.89121 26.1686 7.4837 25.9544 7.07753C25.6882 6.57287 25.5953 6.15753 25.5676 5.34711C25.5471 4.7506 25.5553 4.62656 25.635 4.31893C25.7991 3.68596 26.1303 3.17086 26.6388 2.75784C26.8529 2.58399 27.3045 2.28676 27.3602 2.28313C27.3635 2.28292 27.5586 2.32119 27.7937 2.36817ZM52.8984 2.90134L52.9959 2.96135V12.5028V22.0442L52.7949 22.0173C52.4792 21.975 51.7185 21.7502 51.202 21.5464C50.3176 21.1974 49.3913 20.6133 48.5955 19.9028C48.0399 19.4068 47.0806 18.2531 47.1712 18.19C47.7862 17.7616 50.6773 15.9249 51.4449 15.4749L51.6929 15.3295L51.6942 9.44198L51.6954 3.55444L52.1614 3.17318C52.6477 2.77531 52.6763 2.76474 52.8984 2.90134ZM54.3212 3.53228C55.2226 3.90241 56.2353 4.2881 57.1576 4.61239C57.5748 4.75914 57.9225 4.88318 57.9302 4.88804C57.9622 4.90826 53.6642 9.97455 53.6245 9.96356C53.5639 9.94672 53.5425 3.25544 53.603 3.25544C53.6272 3.25544 53.9505 3.38003 54.3212 3.53228ZM10.0345 8.99644C10.0338 12.0145 10.0157 14.7597 9.99423 15.0969C9.94567 15.86 9.85585 16.3002 9.66945 16.6883C9.44233 17.1613 9.32013 17.2703 8.03288 18.1492L7.91588 18.2291L7.67715 17.9001C6.88708 16.8111 6.36723 15.3654 6.14844 13.6489C6.05983 12.9535 6.04635 11.277 6.12472 10.6987C6.41496 8.55683 7.28838 6.59055 8.73581 4.82021C9.10654 4.36681 9.93284 3.50919 9.999 3.50919C10.0192 3.50919 10.0351 5.97843 10.0345 8.99644ZM14.0378 4.12304C14.3043 4.18153 14.5663 4.23896 14.6199 4.25072L14.7175 4.27203V12.6288V20.9855L14.2515 20.9571C12.2891 20.8379 10.772 20.4077 9.5371 19.6204C9.18344 19.395 8.625 18.9586 8.43413 18.7586L8.32818 18.6476L8.43253 18.5745C8.58343 18.4687 11.6905 16.3931 12.6475 15.7587L13.4603 15.2199V9.61829C13.4603 5.66049 13.474 4.01668 13.5068 4.01668C13.5324 4.01668 13.7713 4.06455 14.0378 4.12304ZM57.3367 9.9079C57.5664 9.9666 57.8938 10.0718 58.0642 10.1416C59.0096 10.5292 59.8469 11.314 60.2647 12.2042C60.325 12.3328 60.3675 12.4437 60.3591 12.4506C60.3507 12.4575 59.7001 12.7441 58.9133 13.0874C58.1264 13.4307 56.6191 14.0899 55.5636 14.5523C54.5081 15.0147 53.6253 15.393 53.602 15.393C53.5747 15.393 53.5595 14.5447 53.5595 13.029V10.6651L53.9605 10.4125C54.8425 9.8569 55.1758 9.76483 56.2255 9.78674C56.7949 9.79862 56.994 9.82032 57.3367 9.9079ZM60.6625 13.3841C60.7628 13.8092 60.8857 14.6672 60.8857 14.9427V15.1224L58.8157 16.0271C57.6772 16.5247 56.0359 17.2421 55.1682 17.6214C54.3006 18.0007 53.5837 18.311 53.5751 18.311C53.5665 18.311 53.5595 17.7808 53.5595 17.1326V15.9542L55.3043 15.1999C56.264 14.785 57.8294 14.1077 58.783 13.6948C59.7366 13.2818 60.5294 12.9573 60.5447 12.9737C60.5601 12.9901 60.6131 13.1748 60.6625 13.3841ZM60.8696 16.1913C60.8022 17.3545 60.5063 18.5547 60.0887 19.3586C59.883 19.7547 59.4506 20.3386 59.1349 20.6466C58.3725 21.3903 57.348 21.8763 56.1605 22.0576C55.6438 22.1364 54.4394 22.1814 53.9383 22.1405L53.5585 22.1096L53.5698 20.4759L53.5811 18.8423L54.1881 18.5768C56.3003 17.6529 60.8272 15.696 60.8597 15.6928C60.8823 15.6906 60.8865 15.9001 60.8696 16.1913ZM16.5982 30.3391C16.1023 30.4565 15.7538 30.7847 15.6707 31.2125C15.5879 31.6381 15.7284 31.9986 16.0554 32.2C16.147 32.2564 16.3904 32.3606 16.5962 32.4315C17.2191 32.6459 17.2752 32.688 17.2752 32.9406C17.2752 33.0835 17.1644 33.1874 16.9512 33.2448C16.7206 33.307 16.4756 33.2528 16.2594 33.0917L16.0715 32.9519L15.8023 33.2453C15.5025 33.5719 15.5026 33.5844 15.8048 33.7706C16.3009 34.0761 17.1662 34.0765 17.6175 33.7715C17.9792 33.5268 18.1609 33.0649 18.0671 32.6284C17.9774 32.2114 17.7675 32.0332 17.1234 31.8277C16.9327 31.7668 16.7132 31.6793 16.6357 31.6332C16.5143 31.5609 16.4948 31.5258 16.4948 31.379C16.4948 31.2326 16.5147 31.1964 16.6357 31.1223C16.8289 31.004 17.2178 31.0257 17.4117 31.1655L17.548 31.2638L17.8005 30.9936C17.9394 30.845 18.0484 30.6952 18.0429 30.6606C18.0288 30.5725 17.6957 30.4022 17.4084 30.3362C17.1151 30.2688 16.8916 30.2696 16.5982 30.3391ZM45.1061 30.3058C44.4332 30.433 43.9782 30.7652 43.7044 31.3291C43.5741 31.5974 43.5672 31.637 43.5672 32.1191C43.5672 32.4987 43.5868 32.6815 43.6452 32.8446C43.8108 33.3076 44.2397 33.7298 44.716 33.8987C44.975 33.9905 45.6709 34.0242 46.0339 33.9626C46.1932 33.9355 46.4593 33.8642 46.6252 33.8043L46.9269 33.6952V32.7485V31.8019H46.2332H45.5396V32.1825V32.5631H45.8431H46.1465V32.8402V33.1172L45.984 33.1852C45.7298 33.2915 45.1735 33.2807 44.9478 33.1652C44.2181 32.7917 44.1701 31.6134 44.8671 31.1897C45.226 30.9716 45.85 30.994 46.1444 31.2356C46.2169 31.2951 46.294 31.3375 46.3157 31.3297C46.3965 31.3007 46.844 30.777 46.8281 30.73C46.8 30.6471 46.4318 30.4475 46.1856 30.3817C45.9405 30.3162 45.2922 30.2706 45.1061 30.3058ZM53.8904 30.3465C53.1665 30.5175 52.6753 31.0071 52.524 31.7088C52.2965 32.764 52.8868 33.7288 53.9009 33.9591C54.2205 34.0317 54.8614 33.9931 55.1513 33.8839C55.6783 33.6853 56.0773 33.2513 56.2263 32.7143C56.3452 32.2858 56.3025 31.6887 56.1269 31.3225C55.874 30.7953 55.4451 30.4601 54.8721 30.3416C54.5099 30.2668 54.2221 30.2682 53.8904 30.3465ZM0.541881 30.7229V31.0829H1.04041H1.53894V32.5013V33.9196L1.93993 33.9075L2.34092 33.8953L2.35233 32.4891L2.36377 31.0829H2.86347H3.36317L3.35056 30.734L3.33798 30.3851L1.93993 30.374L0.541881 30.3628V30.7229ZM4.63728 30.4152C4.62549 30.4453 4.62094 31.2405 4.62714 32.1825L4.6385 33.8953L5.03949 33.9075L5.44048 33.9196V33.1568V32.3939H6.17744H6.9144V33.1552V33.9164H7.3267H7.73901L7.72769 32.1508L7.71638 30.3851H7.32622H6.93607L6.92411 31.0301L6.91214 31.675H6.17744H5.44273L5.43077 31.0301L5.41881 30.3851L5.0388 30.3729C4.75906 30.3639 4.65311 30.3751 4.63728 30.4152ZM9.38537 32.1402V33.9164H10.6209H11.8563V33.5569V33.1975H11.011H10.1657V32.838V32.4785H10.9243H11.6829V32.1191V31.7596H10.9243H10.1657V31.4424V31.1252H10.9677H11.7696V30.7446V30.364H10.5775H9.38537V32.1402ZM19.5727 32.1402V33.9164H19.9629H20.353V33.1552V32.3939H21.1117H21.8703V33.1552V33.9164H22.2605H22.6506V32.1402V30.364H22.2605H21.8703V31.0195V31.675H21.1117H20.353V31.0195V30.364H19.9629H19.5727V32.1402ZM25.4373 30.4151C25.4017 30.4588 24.0925 33.4516 23.9467 33.8227L23.9088 33.9194L24.3515 33.9073L24.7943 33.8953L24.9109 33.5994C25.0996 33.1202 25.0344 33.1551 25.7397 33.1558C26.0792 33.1562 26.3778 33.1705 26.4032 33.1875C26.4286 33.2046 26.5138 33.3756 26.5924 33.5675L26.7353 33.9164H27.1842C27.561 33.9164 27.6293 33.9064 27.6088 33.8544C27.5954 33.8203 27.2493 33.0257 26.8396 32.0887L26.0949 30.3851L25.7884 30.3728C25.577 30.3644 25.4681 30.3775 25.4373 30.4151ZM28.9135 30.4152C28.9017 30.4453 28.8972 31.2405 28.9034 32.1825L28.9147 33.8953L30.031 33.9066L31.1473 33.9179V33.5577V33.1975H30.4326H29.7179L29.7065 31.7913L29.6951 30.3851L29.315 30.3729C29.0353 30.3639 28.9294 30.3751 28.9135 30.4152ZM32.4683 30.4152C32.4565 30.4453 32.4519 31.2405 32.4581 32.1825L32.4695 33.8953L32.8709 33.9075L33.2724 33.9196L33.2611 32.1524L33.2498 30.3851L32.8698 30.3729C32.59 30.3639 32.4841 30.3751 32.4683 30.4152ZM34.7743 30.3922C34.7584 30.4077 34.7454 30.5694 34.7454 30.7517V31.0829H35.5907C36.0556 31.0829 36.436 31.0918 36.436 31.1028C36.436 31.1137 36.0459 31.5843 35.569 32.1486L34.702 33.1746V33.5461V33.9176L36.1001 33.9064L37.4981 33.8953L37.5107 33.5464L37.5233 33.1975H36.6329C36.1431 33.1975 35.7424 33.1828 35.7424 33.1649C35.7424 33.1469 36.122 32.6759 36.5858 32.1182L37.4292 31.1041L37.4312 30.734L37.4331 30.364H36.1182C35.3949 30.364 34.7902 30.3767 34.7743 30.3922ZM38.9375 30.3907C38.9207 30.407 38.907 31.207 38.907 32.1684V33.9164H39.3193H39.7316L39.7203 32.1508L39.709 30.3851L39.3385 30.373C39.1347 30.3664 38.9542 30.3743 38.9375 30.3907ZM48.5308 32.1402V33.9164H48.921H49.3111V33.2186V32.5208H49.4967H49.6823L50.0494 33.2178L50.4166 33.9147L50.8826 33.9156C51.1389 33.916 51.3477 33.9022 51.3466 33.8847C51.3454 33.8672 51.1529 33.539 50.9188 33.1552L50.493 32.4574L50.6275 32.4004C51.0279 32.2305 51.2174 31.9262 51.2181 31.4516C51.2186 31.1294 51.1424 30.9105 50.967 30.7301C50.6873 30.4427 50.3242 30.3661 49.2353 30.3648L48.5308 30.364V32.1402ZM57.7381 30.4239C57.7244 30.4587 57.7199 31.0447 57.7281 31.726C57.7427 32.9579 57.7434 32.9662 57.8555 33.1994C58.0112 33.5231 58.2037 33.723 58.4935 33.8619C58.7178 33.9693 58.7826 33.9799 59.2167 33.9799C59.6389 33.9799 59.7209 33.9673 59.9322 33.8706C60.2351 33.732 60.4366 33.5354 60.5786 33.24C60.6905 33.0073 60.6906 33.0064 60.7032 31.6856L60.7158 30.364H60.3263H59.9369L59.9236 31.5798C59.9107 32.7618 59.9075 32.8 59.8111 32.9513C59.5388 33.3786 58.8866 33.3666 58.6417 32.9298C58.5769 32.8144 58.5635 32.6282 58.5448 31.5904L58.5231 30.3851L58.1431 30.3729C57.8376 30.363 57.7582 30.3731 57.7381 30.4239ZM62.3596 32.1402V33.9164H62.7498H63.1399V33.2462V32.576L63.6493 32.5507C64.6209 32.5023 64.9531 32.2542 64.9952 31.5452C65.0178 31.1646 64.9627 30.9671 64.7759 30.7596C64.4945 30.447 64.1397 30.3662 63.0424 30.3648L62.3596 30.364V32.1402ZM50.0236 31.0799C50.2817 31.1212 50.3949 31.2374 50.3949 31.4608C50.3949 31.5745 50.3644 31.6459 50.2846 31.7191C50.1868 31.8086 50.125 31.8221 49.7427 31.8371L49.3111 31.854V31.4755C49.3111 31.2674 49.3241 31.0843 49.34 31.0688C49.3786 31.0312 49.7577 31.0374 50.0236 31.0799ZM54.9084 31.1587C55.3074 31.3621 55.4956 31.7385 55.4575 32.2574C55.4259 32.6886 55.2386 32.9844 54.8817 33.1671C54.6297 33.296 54.1732 33.2921 53.8915 33.1587C53.2231 32.8422 53.1033 31.788 53.6795 31.2932C53.9087 31.0964 54.046 31.0497 54.4107 31.0444C54.6226 31.0414 54.7238 31.0647 54.9084 31.1587ZM63.7585 31.0789C64.0309 31.1226 64.1803 31.2586 64.1803 31.463C64.1803 31.6401 64.0651 31.7849 63.8865 31.832C63.8216 31.8491 63.6319 31.8636 63.465 31.8642L63.1616 31.8653L63.1489 31.5094C63.1419 31.3136 63.1462 31.128 63.1583 31.097C63.1833 31.0337 63.4303 31.0262 63.7585 31.0789ZM25.9695 32.0239L26.1531 32.4785H25.7461H25.3391L25.4505 32.1931C25.5117 32.0361 25.6026 31.8029 25.6524 31.675C25.7053 31.5391 25.7518 31.4687 25.7644 31.5058C25.7762 31.5407 25.8685 31.7738 25.9695 32.0239Z" fill="white"/>
</svg>
