<svg width="97" height="31" viewBox="0 0 97 31" fill="none" xmlns="http://www.w3.org/2000/svg">
<path fill-rule="evenodd" clip-rule="evenodd" d="M0.538174 0.0520333C0.342437 0.120142 0.158603 0.278084 0.0727413 0.451885L0 0.599084V11.998C0 23.1558 0.00139172 23.3995 0.0665448 23.5233C0.190934 23.7597 0.311983 23.8422 1.30515 24.3674C1.43914 24.4382 1.66624 24.5604 1.80981 24.6389C1.95337 24.7174 2.18047 24.8401 2.31446 24.9114C2.44846 24.9828 3.18456 25.3786 3.95025 25.7911C4.71594 26.2035 5.42855 26.587 5.53383 26.6433C5.63912 26.6995 5.96018 26.8723 6.24731 27.0272C6.85534 27.3552 8.57615 28.2824 9.37967 28.7149C9.68595 28.8798 10.6335 29.3902 11.4853 29.8491C13.805 31.0988 13.6189 31.0103 13.8868 30.9911C14.1018 30.9758 14.1666 30.9462 15.1919 30.3959C15.7853 30.0775 16.7799 29.544 17.402 29.2103C18.0241 28.8766 18.6114 28.5613 18.7071 28.5097C18.8029 28.4581 19.304 28.1896 19.8209 27.913C20.3377 27.6364 21.0816 27.2374 21.4741 27.0265C21.8665 26.8155 22.6065 26.4184 23.1186 26.1441C24.1028 25.6168 25.4305 24.9054 26.6424 24.2558C27.4187 23.8398 27.5697 23.731 27.6726 23.5134C27.7352 23.3814 27.7373 23.0099 27.738 11.994L27.7388 0.610918L27.6648 0.45683C27.5761 0.27174 27.3985 0.120688 27.1864 0.0498851C27.0474 0.00346763 25.5867 -0.0019212 13.8545 0.000466177C2.50801 0.00278534 0.659153 0.00994725 0.538174 0.0520333ZM26.1292 12.1619L26.1204 22.7231L26.016 22.7798C25.9585 22.811 25.6453 22.9792 25.3199 23.1537C24.9945 23.3282 24.3171 23.6916 23.8146 23.9611C23.3122 24.2307 22.4821 24.6761 21.97 24.9508C21.4579 25.2255 20.7962 25.5806 20.4995 25.7398C20.2028 25.899 19.8583 26.0831 19.7339 26.1487C19.6094 26.2143 19.4606 26.2947 19.4032 26.3271C19.3458 26.3596 19.197 26.44 19.0726 26.5057C18.8272 26.6354 16.7618 27.7424 15.5574 28.3898C15.1458 28.611 14.7073 28.8461 14.5829 28.9121C14.4584 28.9782 14.2495 29.0912 14.1186 29.1633C13.9877 29.2353 13.8683 29.2943 13.8532 29.2943C13.8237 29.2943 13.774 29.2685 13.0167 28.8595C12.7391 28.7096 12.4259 28.5409 12.3206 28.4847C11.7915 28.2019 8.00095 26.1618 5.62084 24.8788C5.33371 24.724 4.34702 24.1939 3.42819 23.7008C2.50937 23.2078 1.72234 22.7832 1.67929 22.7574L1.60098 22.7104V12.1556V1.60072H13.8695H26.1379L26.1292 12.1619ZM7.8309 4.73811V5.52284H14.9483H22.0657V8.57528V11.6277H22.8844H23.7031L23.6936 8.06953L23.6841 4.51135L23.5789 4.34457C23.521 4.25283 23.4061 4.13128 23.3235 4.07442L23.1735 3.97105L15.5022 3.96222L7.8309 3.95338V4.73811ZM83.634 13.8446V21.3136L86.8794 21.3131C88.7538 21.3127 90.2646 21.2983 90.4556 21.2789C93.9409 20.9255 96.5677 18.2893 96.9632 14.7484C97.012 14.3107 97.0123 13.3681 96.9637 12.9549C96.7824 11.4125 96.2111 10.0587 95.2603 8.91845C94.98 8.58237 94.3523 8.00142 94.0086 7.76002C93.0542 7.08982 92.077 6.68297 90.9707 6.49533C90.3835 6.3957 89.6771 6.37606 86.6706 6.37579L83.634 6.37548V13.8446ZM55.0947 13.8602V21.3136H56.5913H58.0878V18.7387V16.1637H59.2316H60.3753L60.6301 16.5986C60.7702 16.8378 61.1576 17.4938 61.491 18.0566C62.1991 19.2515 63.0404 20.6723 63.2632 21.0493L63.4195 21.3136H65.0345C65.9228 21.3136 66.6496 21.3036 66.6496 21.2913C66.6496 21.2791 66.4186 20.8843 66.1363 20.414C65.8539 19.9437 65.104 18.6917 64.4698 17.6317L63.3167 15.7045L63.5571 15.5767C64.889 14.8685 65.8243 13.6755 66.1449 12.2757C66.1787 12.1282 66.2112 11.7961 66.2216 11.4913C66.2418 10.9021 66.1924 10.4905 66.0398 9.97448C65.552 8.32498 64.1892 7.01438 62.5079 6.57807C61.9244 6.4266 62.108 6.43387 58.5142 6.41999L55.0947 6.40675V13.8602ZM70.4781 13.8616V21.3136H75.1596H79.8411L79.832 19.9068L79.8229 18.4999L76.6471 18.4912L73.4712 18.4825V16.8286V15.1747H76.3599H79.2487V13.7764V12.378H76.3599H73.4712V10.8094V9.24071L76.6471 9.23198L79.8229 9.22328L79.832 7.81643L79.8411 6.40958H75.1596H70.4781V13.8616ZM44.114 6.49686C43.4771 6.56541 43.0827 6.64382 42.5543 6.80702C39.9389 7.6147 38.0718 9.6732 37.5347 12.3413C37.0264 14.8659 37.7586 17.4359 39.478 19.1618C40.6555 20.3438 42.0587 21.0356 43.8182 21.3016C44.4322 21.3944 45.6382 21.3855 46.2287 21.2839C47.0165 21.1483 47.6189 20.9652 48.2557 20.668C49.4419 20.1142 50.4608 19.2539 51.1226 18.2474C51.2016 18.1272 51.2663 18.0175 51.2663 18.0035C51.2663 17.974 51.3032 17.9958 50.0133 17.2641C49.4678 16.9547 48.9716 16.672 48.9108 16.636L48.8002 16.5705L48.6416 16.8107C48.1844 17.5033 47.3702 18.095 46.4981 18.3685C45.9434 18.5425 45.7599 18.5663 44.9667 18.5673C44.3084 18.5681 44.175 18.5586 43.8572 18.4889C42.1037 18.1042 40.9431 17.0403 40.446 15.3623C40.2048 14.5478 40.2034 13.3367 40.4426 12.4618C40.8868 10.8377 42.1532 9.66723 43.8344 9.32693C45.1954 9.05146 46.5525 9.2802 47.5825 9.95866C47.8846 10.1577 48.4335 10.7051 48.634 11.0074L48.7995 11.2568L48.9279 11.1824C48.9984 11.1415 49.3616 10.9352 49.7349 10.7239C50.9815 10.0182 51.246 9.86262 51.2578 9.8279C51.2747 9.77818 50.916 9.2711 50.628 8.93772C50.2104 8.45417 49.5797 7.92151 49.0153 7.57575C47.5658 6.68754 45.8507 6.31 44.114 6.49686ZM4.55532 7.92318C4.3601 7.99153 4.2203 8.10472 4.11571 8.27907L4.01986 8.43886L4.00998 14.6972C4.00225 19.5735 4.00952 20.9894 4.04294 21.1087C4.13287 21.43 3.91778 21.301 8.64879 23.8714C8.76364 23.9339 9.81298 24.5061 10.9807 25.1432C13.5999 26.5722 13.5631 26.5529 13.718 26.5798C13.7879 26.5919 13.9179 26.5858 14.0071 26.5662C14.1079 26.5441 14.9142 26.123 16.1423 25.4513C17.2276 24.8577 18.5148 24.155 19.003 23.8897C22.8732 21.7868 23.3376 21.528 23.4635 21.4035C23.708 21.1616 23.7015 21.2477 23.7015 18.2379V15.5498H22.8836H22.0657L22.0647 17.9798L22.0636 20.4098L20.9945 20.9895C20.4064 21.3083 18.5585 22.3157 16.8879 23.2283L13.8505 24.8875L12.6766 24.2499C12.031 23.8992 10.1832 22.8928 8.57048 22.0134L5.63825 20.4145V14.9468V9.47907H11.7463H17.8544V8.67759V7.87612L11.2678 7.87762C5.97588 7.87881 4.65639 7.88778 4.55532 7.92318ZM61.7921 9.2655C62.5733 9.55437 63.0694 10.1831 63.2083 11.0601C63.3461 11.9301 62.8608 12.9124 62.0903 13.3228C61.6675 13.5481 61.448 13.5703 59.6279 13.571L58.0878 13.5717V11.3705V9.16916L59.8367 9.17918C61.5504 9.18897 61.5898 9.19071 61.7921 9.2655ZM90.56 9.28474C91.4548 9.46471 92.1652 9.82275 92.7628 10.395C93.4354 11.039 93.8661 11.874 94.0401 12.8709C94.1292 13.382 94.1363 14.2934 94.0547 14.7679C93.7096 16.776 92.4105 18.1042 90.4729 18.43C90.2187 18.4728 89.8272 18.4827 88.3934 18.4828L86.6271 18.4829V13.8673C86.6271 11.3287 86.6387 9.2403 86.653 9.22635C86.6672 9.2124 87.4934 9.20803 88.4889 9.21663C89.9337 9.22908 90.3516 9.24282 90.56 9.28474ZM8.03972 16.1741V18.7423L8.12972 18.9193C8.23873 19.1337 8.25742 19.1471 9.07576 19.5979C9.43435 19.7954 10.5108 20.3884 11.4679 20.9156C13.7887 22.1941 13.6107 22.1078 13.8887 22.0892C14.1146 22.0742 14.1418 22.0603 16.6904 20.6666C18.1059 19.8925 19.2683 19.2555 19.2735 19.251C19.2827 19.2432 18.5331 17.9088 18.503 17.8793C18.4949 17.8713 17.4646 18.4251 16.2133 19.1097C14.962 19.7944 13.9149 20.3633 13.8864 20.374C13.8564 20.3852 13.3297 20.1162 12.6338 19.7341C11.9734 19.3715 11.0299 18.8534 10.5371 18.5828L9.64112 18.0907L9.64091 15.8483L9.6407 13.6058H8.84021H8.03972V16.1741Z" fill="white"/>
</svg>
