<svg width="87" height="26" viewBox="0 0 87 26" fill="none" xmlns="http://www.w3.org/2000/svg">
<path fill-rule="evenodd" clip-rule="evenodd" d="M31.3682 14.9774V23.6814H33.261H35.1538V20.8124C35.1538 17.9933 35.1641 17.9296 35.7444 17.1497L36.3347 16.3559L38.2156 20.009L40.0962 23.6622L42.2519 23.6718C43.4376 23.6771 44.4076 23.6366 44.4076 23.5815C44.4076 23.4752 40.2829 15.9508 39.4648 14.5648L38.9796 13.7423L41.2985 10.4688C42.5741 8.66816 43.759 6.98778 43.9317 6.73424L44.2457 6.27344H41.96H39.6741L37.4666 9.84945L35.259 13.4257L35.2015 9.84945L35.1441 6.27344H33.2561H31.3682V14.9774ZM60.8121 7.73796C60.4072 7.84733 59.7212 8.02694 59.2873 8.13712L58.4986 8.3372V9.66062V10.9838H57.7625H57.0264V12.5198V14.0558H57.7417H58.457L58.531 17.5886C58.5981 20.8001 58.6498 21.2105 59.0991 22.0998C59.7683 23.4248 60.3515 23.6814 62.6944 23.6814H64.5977V22.1454V20.6094H63.7684C62.4401 20.6094 62.2843 20.2174 62.2843 16.8774V14.0558H63.5461H64.808V12.5198V10.9838H63.5461H62.2843V9.24303C62.2843 7.31587 62.3032 7.33512 60.8121 7.73796ZM69.8555 7.73796C69.4507 7.84733 68.7646 8.02694 68.3308 8.13712L67.5421 8.3372V9.66062V10.9838H66.806H66.0699V12.5198V14.0558H66.7795H67.4891L67.5867 17.5886C67.6952 21.5085 67.8725 22.2024 69.0019 23.1279C69.6316 23.6437 69.8124 23.6814 71.6594 23.6814H73.6412V22.1454V20.6094H72.8119C71.4836 20.6094 71.3277 20.2174 71.3277 16.8774V14.0558H72.5989H73.87L73.8082 12.571L73.7463 11.0862L72.537 11.0248L71.3277 10.9634V9.23279C71.3277 7.3171 71.3458 7.33553 69.8555 7.73796ZM48.0795 11.2638C46.0989 12.1618 44.8177 14.2926 44.6596 16.9505C44.4917 19.7753 45.4079 21.9103 47.2851 23.0697C48.2502 23.6657 48.3438 23.6814 50.9372 23.6814C52.401 23.6814 53.8967 23.5803 54.261 23.4566C55.0015 23.2053 55.0423 23.0134 54.6924 21.4245C54.505 20.5734 54.3962 20.4022 54.114 20.5142C53.923 20.5902 52.9571 20.7006 51.9677 20.7593C49.8972 20.8826 49.0446 20.5947 48.5123 19.5922C48.3369 19.2616 48.1932 18.943 48.1932 18.8836C48.1932 18.8244 49.8259 18.7507 51.8212 18.7199L55.4491 18.6638L55.4247 16.6158C55.3975 14.3278 55.1357 13.515 54.0318 12.2905C52.6368 10.7434 50.1668 10.3172 48.0795 11.2638ZM79.3184 10.9584C76.7345 11.7828 75.1922 13.8504 74.9634 16.7973C74.7458 19.5994 76.0221 22.2605 78.0721 23.2788C79.2202 23.8494 82.5656 23.8555 83.6921 23.2892C84.7891 22.7377 85.9473 21.5044 86.4974 20.3022C87.1662 18.8406 87.1681 15.8282 86.5014 14.3743C85.3887 11.9476 83.9539 10.9476 81.4474 10.8515C80.5664 10.8177 79.6082 10.8659 79.3184 10.9584ZM51.0112 13.6741C51.472 13.8785 52.1892 15.111 52.1892 15.6983C52.1892 15.8153 51.3555 15.899 50.1912 15.899C47.992 15.899 47.894 15.8278 48.5075 14.6725C49.0942 13.5678 49.9775 13.2155 51.0112 13.6741ZM81.7341 13.8496C82.8294 14.2549 83.4407 16.8765 82.9724 19.1576C82.7816 20.0864 81.819 21.019 81.0514 21.019C79.5973 21.019 78.8265 19.6737 78.853 17.1823C78.8713 15.4673 79.3346 14.3069 80.1609 13.9069C80.8017 13.5965 81.0284 13.5883 81.7341 13.8496Z" fill="white"/>
<path fill-rule="evenodd" clip-rule="evenodd" d="M19.0133 0.120697C19.0133 0.210496 18.9119 0.514059 18.7881 0.795214C18.4958 1.459 17.5821 2.38834 16.4847 3.13818C13.2477 5.35002 12.2667 6.1335 11.3969 7.2019C10.6014 8.17895 9.99407 9.40224 9.80978 10.3982L9.71973 10.8849L9.22384 10.5045C8.28699 9.78597 7.40413 9.48377 6.42067 9.54494C5.66693 9.59189 5.11199 9.8497 4.51361 10.4309C4.12037 10.8129 3.63574 11.439 3.63574 11.5649C3.63574 11.5934 3.79768 11.6028 3.99561 11.5859C4.55824 11.5378 4.88664 11.6416 5.23152 11.9765C5.62238 12.3561 5.80509 12.731 6.06033 13.6777C7.61077 19.4285 13.6377 21.9163 24.0468 21.1021C25.2645 21.0069 26.1283 20.888 25.7374 20.8695C25.3197 20.8497 23.1556 20.4273 22.184 20.1759C20.3114 19.6913 18.245 18.8734 16.8957 18.083C16.5288 17.868 16.2092 17.6374 16.1852 17.5703C16.1244 17.4001 16.29 16.7395 16.5342 16.1781C16.8434 15.4672 17.9452 14.3397 19.3304 13.3164C21.1348 11.9836 21.8627 11.0855 21.9868 10.0393L22.0323 9.65587L21.9191 9.97613C21.7717 10.3931 21.6696 10.5183 21.2788 10.7615C20.8094 11.0535 20.0426 11.275 18.3347 11.6119C16.4952 11.9746 15.5993 12.2411 14.7929 12.6653C14.0396 13.0614 14.0719 13.1188 14.0797 11.4024C14.0909 8.91567 14.6741 7.45962 16.8267 4.54472C17.9001 3.09106 18.3769 2.33348 18.6949 1.577C18.9236 1.03266 19.1417 0.0953073 19.0599 0.00746754C19.0343 -0.0200516 19.0134 0.0308972 19.0133 0.120697ZM5.56563 18.2506C5.4717 18.4052 5.20418 18.6663 4.97113 18.8308C4.73801 18.9954 4.28746 19.3126 3.97 19.5358C3.65246 19.7589 3.23164 20.1145 3.0349 20.326C2.68177 20.7055 2.28821 21.4119 2.28821 21.6661C2.28821 21.8407 2.23574 21.8322 1.7794 21.5833C1.1769 21.2548 0.652715 21.3189 0.207477 21.7755C-0.0643263 22.0541 -0.0687654 22.1764 0.192337 22.1927C0.494183 22.2114 0.675227 22.4363 0.857935 23.0196C1.39227 24.7248 2.76143 25.5835 5.28772 25.798C6.25065 25.8797 8.25513 25.8058 8.36816 25.6843C8.39567 25.6548 8.30752 25.6306 8.1723 25.6306C7.54506 25.6306 6.01269 25.1641 5.20505 24.7272L4.67381 24.4398L4.76139 24.162C4.90867 23.6946 5.11627 23.4492 5.86137 22.8614C6.53862 22.3271 6.8847 21.9104 6.88533 21.6286C6.88557 21.5409 6.85149 21.5556 6.77222 21.6773C6.6427 21.876 6.32167 21.9931 5.37904 22.1853C5.01481 22.2595 4.54579 22.3901 4.33677 22.4755L3.95684 22.6306L3.90881 22.3553C3.84119 21.9679 3.9918 21.1834 4.23285 20.6675C4.34533 20.4269 4.68118 19.8829 4.97922 19.4585C5.53464 18.6678 5.80446 18.18 5.76094 18.0456C5.74739 18.0038 5.65948 18.0961 5.56563 18.2506Z" fill="#44C0B2"/>
</svg>
