<svg width="111" height="18" viewBox="0 0 111 18" fill="none" xmlns="http://www.w3.org/2000/svg">
<path d="M94.2246 11.6627H95.5441C95.5979 11.6627 95.7057 11.6081 95.8673 11.4991C96.0017 11.4173 96.1361 11.3627 96.2977 11.3627C96.4326 11.3627 96.5937 11.4718 96.8091 11.6354C97.0246 11.799 97.1862 11.9081 97.3206 11.9081C97.5361 11.9081 97.7243 11.7445 97.8859 11.4446C98.0475 11.1446 98.2091 10.981 98.3707 10.981C98.5323 10.981 98.6401 11.0901 98.7206 11.3082C98.7745 11.4446 98.8283 11.6627 98.8555 12.0172C98.9094 12.3444 98.9627 12.5897 99.0166 12.6988C99.0977 12.917 99.2321 12.9988 99.3937 12.9988C99.5819 12.9988 99.7169 12.7806 99.7974 12.3989C99.8513 12.1535 99.9051 11.7445 99.9323 11.1173C99.959 10.4902 100.013 10.0812 100.067 9.86303C100.147 9.4813 100.282 9.29044 100.444 9.29044C100.605 9.29044 100.74 9.5631 100.848 10.1085C100.901 10.4357 100.955 11.0355 101.009 11.8808C101.063 12.7534 101.117 13.3533 101.144 13.6532C101.225 14.1985 101.332 14.4439 101.493 14.4712C101.628 14.4712 101.763 14.0894 101.844 13.3533C101.898 12.8624 101.978 12.0444 102.032 10.8992C102.113 9.67217 102.166 8.82692 102.22 8.41791C102.301 7.68168 102.409 7.29996 102.517 7.29996C102.651 7.29996 102.732 7.81804 102.813 8.79964C102.867 9.345 102.921 10.4357 102.974 12.1262C103.028 13.6804 103.109 14.7984 103.163 15.4255C103.243 16.4344 103.378 16.9252 103.54 16.9252C103.701 16.9252 103.809 16.2981 103.916 15.0438C103.97 14.2258 104.051 12.8624 104.105 10.9265C104.186 8.8542 104.24 7.46354 104.267 6.80916C104.347 5.55488 104.455 4.92773 104.563 4.92773C104.697 4.92773 104.805 5.41854 104.886 6.40015C104.94 6.97274 105.02 8.06341 105.101 9.67217C105.182 11.2537 105.262 12.3444 105.316 12.9442C105.424 13.9258 105.532 14.4439 105.666 14.4439C105.801 14.4439 105.909 14.1712 105.989 13.5986C106.043 13.2714 106.097 12.6443 106.178 11.7172C106.259 10.8174 106.313 10.1902 106.366 9.8358C106.447 9.26316 106.582 8.96322 106.716 8.96322C106.958 8.96322 107.147 9.50859 107.282 10.6265C107.363 11.2809 107.417 11.6627 107.443 11.799C107.524 12.1807 107.605 12.3716 107.685 12.3989C107.82 12.4534 107.955 12.3444 108.062 12.1262C108.224 11.8536 108.358 11.7172 108.44 11.6627H109.597" stroke="white" stroke-width="1.05333" stroke-linecap="round" stroke-linejoin="round"/>
<path d="M15.6949 5.63749L12.3297 16.926H10.4452L8.02222 8.60957L5.62622 16.926H3.74172L0.349609 5.63749H2.55717L4.60321 14.2539L7.10691 5.63749H8.91065L11.4413 14.2539L13.4873 5.63749H15.6949ZM23.9598 13.9539V11.4454H22.6137C19.7331 11.4454 18.3063 12.2361 18.3063 13.8176C18.3063 14.3902 18.5216 14.8264 18.9254 15.1537C19.3562 15.4536 19.9215 15.6172 20.6215 15.6172C21.2676 15.6172 21.9137 15.4809 22.506 15.1809C23.1252 14.881 23.6098 14.472 23.9598 13.9539ZM23.9598 15.7808C22.9367 16.7351 21.6445 17.1987 20.0561 17.1987C18.9524 17.1987 18.037 16.8988 17.3102 16.2989C16.5833 15.699 16.2333 14.9083 16.2333 13.9539C16.2333 11.309 18.4678 10.0002 22.9637 10.0002H23.9598C23.9598 9.18221 23.9059 8.60957 23.8252 8.25512C23.7444 7.87339 23.5021 7.57346 23.1252 7.32803C22.7483 7.08266 22.1291 6.97358 21.2945 6.97358C19.5177 6.97358 18.6293 7.60074 18.5486 8.88228H16.5833C16.7179 6.56457 18.3332 5.39209 21.4022 5.39209C22.829 5.39209 23.9598 5.69203 24.7405 6.26464C25.5481 6.83723 25.952 7.95518 25.952 9.64573V16.9533H23.9598V15.7808ZM37.5282 5.63749L33.3015 16.926H31.5247L27.298 5.63749H29.4518L32.4131 14.472L35.3745 5.63749H37.5282ZM43.6125 17.1987C41.9703 17.1987 40.6511 16.6806 39.655 15.6445C38.6589 14.6084 38.1743 13.1359 38.1743 11.2818C38.1743 9.42759 38.6589 7.98247 39.6281 6.9463C40.5973 5.88289 41.8625 5.36482 43.424 5.36482C45.0124 5.36482 46.2777 5.88289 47.2199 6.91902C48.1622 7.95518 48.6468 9.40036 48.6468 11.2818V11.7726H40.2473C40.328 13.0814 40.678 14.0357 41.2972 14.6901C41.9164 15.3172 42.6972 15.6445 43.6125 15.6445C44.3124 15.6445 44.9316 15.4536 45.497 15.0992C46.0623 14.7447 46.3584 14.2266 46.3854 13.5722H48.4314C48.2699 14.7447 47.7584 15.6445 46.8699 16.2716C45.9816 16.8988 44.9047 17.1987 43.6125 17.1987ZM46.5469 10.1911C46.3854 9.10042 46.0354 8.2824 45.4701 7.76432C44.9047 7.21896 44.2317 6.9463 43.3971 6.9463C42.6163 6.9463 41.9164 7.21896 41.3511 7.76432C40.7857 8.30963 40.4357 9.10042 40.2742 10.1911H46.5469ZM52.7927 7.21896V16.9533H50.8274V7.21896H49.1852V5.63749H50.8274V4.62862C50.8274 2.22912 51.8774 1.05664 53.9505 1.05664C54.5964 1.05664 55.0812 1.11117 55.4311 1.19298V2.93806C55.0273 2.85626 54.6503 2.829 54.2193 2.829C53.7351 2.829 53.3852 2.96533 53.1426 3.238C52.9003 3.51067 52.7927 3.97421 52.7927 4.65588V5.63749H54.9196V7.21896H52.7927ZM60.6001 5.39209C62.1884 5.39209 63.4535 5.91016 64.3959 6.9463C65.3383 7.98247 65.8225 9.42759 65.8225 11.309C65.8225 13.1905 65.3383 14.6356 64.3959 15.6717C63.4535 16.7079 62.1884 17.2259 60.6001 17.2259C59.0113 17.2259 57.7463 16.7079 56.8039 15.6717C55.862 14.6356 55.3772 13.1905 55.3772 11.309C55.3772 9.42759 55.862 7.98247 56.8039 6.9463C57.7463 5.88289 59.0113 5.39209 60.6001 5.39209ZM60.6001 15.6172C61.542 15.6172 62.3228 15.2627 62.9153 14.5265C63.5073 13.7903 63.8033 12.6997 63.8033 11.2818C63.8033 9.8366 63.5073 8.74592 62.9153 8.03698C62.3228 7.3008 61.5692 6.9463 60.6001 6.9463C59.6577 6.9463 58.8769 7.3008 58.2849 8.03698C57.6924 8.7732 57.3964 9.8366 57.3964 11.2818C57.3964 12.7269 57.6924 13.7903 58.2849 14.5265C58.9041 15.2627 59.6577 15.6172 60.6001 15.6172ZM73.4684 7.46438C73.1991 7.38259 72.7953 7.32803 72.2572 7.32803C71.2337 7.32803 70.3724 7.87339 69.6727 8.93679V16.926H67.6801V5.63749H69.6727V7.21896C70.5068 5.99197 71.4764 5.39209 72.5799 5.39209C72.8492 5.39209 73.1724 5.41936 73.4951 5.47389V7.46438H73.4684ZM89.5404 16.926H87.5484V9.61845C87.5484 8.69141 87.414 8.00969 87.1447 7.62797C86.8753 7.21896 86.4444 7.02809 85.7985 7.02809C84.8295 7.02809 83.8871 7.62797 82.9719 8.82771V16.926H81.0332V9.61845C81.0332 8.69141 80.8988 8.00969 80.6295 7.62797C80.3601 7.21896 79.9025 7.02809 79.2833 7.02809C78.3143 7.02809 77.3719 7.62797 76.4567 8.82771V16.926H74.4647V5.63749H76.4567V7.08266C77.3991 5.96469 78.4487 5.39209 79.5793 5.39209C81.222 5.39209 82.2449 6.07377 82.7025 7.4371C83.4561 6.53729 84.0753 5.99197 84.5868 5.74656C85.0983 5.50116 85.6103 5.39209 86.1217 5.39209C88.4097 5.39209 89.5404 6.78272 89.5404 9.56394V16.926Z" fill="white"/>
<path d="M15.6953 5.63673L15.9645 5.71853L16.0722 5.36405H15.7222V5.63673H15.6953ZM12.33 16.9253V17.1979H12.5185L12.5723 17.0071L12.33 16.9253ZM10.4455 16.9253L10.1763 17.0071L10.2302 17.1979H10.4186V16.9253H10.4455ZM8.02261 8.63612L8.29184 8.55428L8.02261 7.65446L7.75339 8.55428L8.02261 8.63612ZM5.62661 16.9253V17.1979H5.81504L5.86891 17.0071L5.62661 16.9253ZM3.71517 16.9253L3.44595 17.0071L3.4998 17.1979H3.68825V16.9253H3.71517ZM0.34998 5.63673V5.36405H0L0.107686 5.71853L0.34998 5.63673ZM2.55754 5.63673L2.82676 5.58219L2.77292 5.36405H2.55754V5.63673ZM4.60358 14.2531L4.33436 14.3076L4.57666 15.2892L4.87279 14.3076L4.60358 14.2531ZM7.13419 5.63673V5.36405H6.94576L6.89189 5.55492L7.13419 5.63673ZM8.93792 5.63673L9.20715 5.55492L9.15333 5.36405H8.96485V5.63673H8.93792ZM11.4686 14.2531L11.1994 14.3349L11.4955 15.3165L11.7378 14.3349L11.4686 14.2531ZM13.5146 5.63673V5.36405H13.2992L13.2454 5.58219L13.5146 5.63673ZM15.426 5.55492L12.0877 16.8707L12.5993 17.0343L15.9645 5.74579L15.426 5.55492ZM12.33 16.6526H10.4455V17.1979H12.33V16.6526ZM10.7148 16.8707L8.29184 8.55428L7.78032 8.71791L10.2033 17.0343L10.7148 16.8707ZM7.78032 8.55428L5.35739 16.8707L5.86891 17.0343L8.26491 8.71791L7.78032 8.55428ZM5.62661 16.6526H3.74209V17.1979H5.62661V16.6526ZM3.98438 16.8707L0.619195 5.55492L0.107686 5.71853L3.47287 17.0071L3.98438 16.8707ZM0.34998 5.9094H2.55754V5.36405H0.34998V5.9094ZM2.28833 5.69126L4.33436 14.3076L4.84587 14.1713L2.79983 5.55492L2.28833 5.69126ZM4.87279 14.3349L7.37648 5.71853L6.86496 5.55492L4.36129 14.1713L4.87279 14.3349ZM7.13419 5.9094H8.93792V5.36405H7.13419V5.9094ZM8.66875 5.71853L11.1994 14.3349L11.7109 14.1713L9.18021 5.55492L8.66875 5.71853ZM11.7109 14.3076L13.7569 5.69126L13.2454 5.55492L11.1994 14.1713L11.7109 14.3076ZM13.5146 5.9094H15.6953V5.36405H13.5146V5.9094ZM23.9602 13.9531L24.1755 14.1168L24.2293 14.035V13.9531H23.9602ZM23.9602 11.4719H24.2293V11.1992H23.9602V11.4719ZM18.9258 15.1802L18.7643 15.3983L18.9258 15.1802ZM23.9602 15.78H24.2293V15.1529L23.7717 15.5892L23.9602 15.78ZM17.3374 16.2981L17.1759 16.5163L17.3374 16.2981ZM23.9602 9.97217V10.2448H24.2293V9.97217H23.9602ZM23.8255 8.22711L23.5563 8.28162L23.8255 8.22711ZM18.5489 8.85421V9.12692H18.8181V8.85421H18.5489ZM16.5836 8.85421L16.3145 8.82698L16.2875 9.12692H16.5836V8.85421ZM25.9523 16.9253V17.1979H26.2215V16.9253H25.9523ZM23.9602 16.9253H23.6909V17.1979H23.9602V16.9253ZM24.2293 13.9531V11.4446H23.6909V13.9531H24.2293ZM23.9602 11.1992H22.6141V11.7445H23.9602V11.1992ZM22.6141 11.1992C21.1603 11.1992 20.0296 11.3901 19.2489 11.8263C18.8451 12.0444 18.5489 12.3172 18.3335 12.6716C18.1182 13.0261 18.0374 13.4078 18.0374 13.8441H18.5758C18.5758 13.4896 18.6566 13.1897 18.8181 12.9443C18.9797 12.6989 19.195 12.4807 19.5181 12.2899C20.1642 11.9354 21.2141 11.7173 22.6141 11.7173V11.1992ZM18.0374 13.8441C18.0374 14.4985 18.2797 15.0166 18.7912 15.3983L19.1143 14.962C18.7374 14.6894 18.5758 14.3349 18.5758 13.8441H18.0374ZM18.7643 15.3983C19.2489 15.7528 19.8681 15.9164 20.6219 15.9164V15.371C19.9489 15.371 19.4373 15.2347 19.0874 14.962L18.7643 15.3983ZM20.6219 15.8891C21.3218 15.8891 21.9949 15.7255 22.641 15.4256L22.3987 14.9348C21.8333 15.2074 21.2411 15.3437 20.6219 15.3437V15.8891ZM22.641 15.4256C23.2871 15.0984 23.7986 14.6621 24.1755 14.1168L23.7447 13.8168C23.4217 14.2804 22.991 14.6621 22.3987 14.9348L22.641 15.4256ZM23.7717 15.5892C22.8294 16.489 21.591 16.9525 20.0565 16.9525V17.4979C21.6987 17.4979 23.0717 17.0071 24.1486 15.9982L23.7717 15.5892ZM20.0565 16.9253C19.0066 16.9253 18.1451 16.6253 17.499 16.08L17.149 16.489C17.9297 17.1434 18.8989 17.4706 20.0565 17.4706V16.9253ZM17.499 16.08C16.8529 15.5347 16.5298 14.8257 16.5298 13.9259H15.9914C15.9914 14.962 16.3952 15.8346 17.149 16.489L17.499 16.08ZM16.5298 13.9531C16.5298 12.7262 17.0413 11.8263 18.0913 11.2265C19.1412 10.5993 20.7834 10.2721 23.0179 10.2721V9.72679C20.7565 9.72679 19.0066 10.054 17.822 10.7629C16.6106 11.4718 15.9914 12.5625 15.9914 13.9804H16.5298V13.9531ZM22.991 10.2448H23.9602V9.69951H22.991V10.2448ZM24.2293 9.97217C24.2293 9.15415 24.1755 8.55427 24.0948 8.14527L23.5833 8.28162C23.664 8.60884 23.6909 9.18143 23.6909 9.97217H24.2293ZM24.0948 8.17255C23.987 7.70903 23.6909 7.35453 23.2602 7.08187L22.9641 7.54539C23.314 7.76354 23.4756 8.00896 23.5563 8.28162L24.0948 8.17255ZM23.2602 7.08187C22.8025 6.80922 22.1295 6.67286 21.268 6.67286V7.21823C22.1026 7.21823 22.641 7.3273 22.9641 7.54539L23.2602 7.08187ZM21.2949 6.67286C20.3796 6.67286 19.6527 6.83645 19.1412 7.19095C18.6028 7.57267 18.3335 8.11804 18.3066 8.85421L18.8451 8.88149C18.872 8.3089 19.0874 7.92717 19.4643 7.65446C19.8681 7.38181 20.4603 7.21823 21.3218 7.21823V6.67286H21.2949ZM18.5489 8.58156H16.5836V9.12692H18.5489V8.58156ZM16.8529 8.88149C16.9337 7.79082 17.3374 7.00008 18.0643 6.482C18.7912 5.93666 19.895 5.66399 21.4026 5.66399V5.11865C19.8412 5.11865 18.6028 5.41859 17.7413 6.04573C16.8529 6.67286 16.3952 7.62724 16.3145 8.85421L16.8529 8.88149ZM21.4026 5.66399C22.8025 5.66399 23.8525 5.93666 24.5794 6.482L24.9024 6.04573C24.0409 5.41859 22.8564 5.14592 21.4026 5.14592V5.66399ZM24.5794 6.45472C25.2793 6.94552 25.6562 7.9544 25.6562 9.61772H26.1946C26.1946 7.89989 25.7908 6.67286 24.8755 6.01846L24.5794 6.45472ZM25.6831 9.61772V16.9253H26.2215V9.61772H25.6831ZM25.9523 16.6526H23.9602V17.1979H25.9254V16.6526H25.9523ZM24.2293 16.9253V15.78H23.6909V16.9525H24.2293V16.9253ZM37.5286 5.63673L37.7709 5.74579L37.9055 5.36405H37.5286V5.63673ZM33.3019 16.9253V17.1979H33.4903L33.5442 17.0343L33.3019 16.9253ZM31.5251 16.9253L31.2828 17.0343L31.3366 17.1979H31.5251V16.9253ZM27.3253 5.63673V5.36405H26.9215L27.0561 5.74579L27.3253 5.63673ZM29.4521 5.63673L29.6944 5.55492L29.6406 5.36405H29.4521V5.63673ZM32.4135 14.4712L32.1712 14.553L32.4135 15.3165L32.6558 14.553L32.4135 14.4712ZM35.3749 5.63673V5.36405H35.1864L35.1326 5.55492L35.3749 5.63673ZM37.2594 5.52766L33.0327 16.8162L33.5442 17.0071L37.7709 5.71853L37.2594 5.52766ZM33.3019 16.6526H31.5251V17.1979H33.3019V16.6526ZM31.7943 16.8434L27.5676 5.55492L27.0561 5.74579L31.2828 17.0343L31.7943 16.8434ZM27.3253 5.9094H29.479V5.36405H27.3253V5.9094ZM29.2098 5.71853L32.1712 14.553L32.6827 14.3894L29.7213 5.55492L29.2098 5.71853ZM32.6827 14.553L35.6441 5.71853L35.1326 5.55492L32.1712 14.3894L32.6827 14.553ZM35.3749 5.9094H37.5286V5.36405H35.3749V5.9094ZM39.6554 15.6437L39.4669 15.8346L39.6554 15.6437ZM39.6015 6.94552L39.4131 6.75465L39.6015 6.94552ZM47.1934 6.91829L47.005 7.10915L47.1934 6.91829ZM48.6471 11.7718V12.0444H48.9164V11.7718H48.6471ZM40.2207 11.7718V11.4991H39.9246L39.9515 11.7991L40.2207 11.7718ZM41.2976 14.6894L41.1091 14.8802L41.2976 14.6894ZM45.4973 15.0984L45.6319 15.3165L45.4973 15.0984ZM46.3858 13.5714V13.2988H46.1165V13.5714H46.3858ZM48.4318 13.5714L48.701 13.5987L48.7548 13.2988H48.4587V13.5714H48.4318ZM46.8703 16.2436L46.7088 16.0255L46.8703 16.2436ZM46.5473 10.1903V10.463H46.8703L46.8165 10.163L46.5473 10.1903ZM41.3514 7.76354L41.5399 7.9544L41.3514 7.76354ZM40.2746 10.1903L40.0054 10.163L39.9515 10.463H40.2746V10.1903ZM43.6129 16.9253C42.0245 16.9253 40.7861 16.4345 39.8438 15.4528L39.4669 15.8346C40.5169 16.9253 41.9168 17.4706 43.6129 17.4706V16.9253ZM39.8708 15.4528C38.9285 14.4712 38.4439 13.1079 38.4439 11.281H37.9055C37.9055 13.1897 38.417 14.7166 39.4669 15.8346L39.8708 15.4528ZM38.4439 11.281C38.4439 9.48137 38.9016 8.11804 39.8169 7.13638L39.4131 6.75465C38.3901 7.87261 37.9055 9.37229 37.9055 11.281H38.4439ZM39.8169 7.13638C40.7322 6.15478 41.9168 5.63673 43.3975 5.63673V5.09138C41.7822 5.09138 40.4361 5.63673 39.4131 6.75465L39.8169 7.13638ZM43.3975 5.66399C44.932 5.66399 46.1165 6.15478 47.005 7.10915L47.4088 6.72743C46.4127 5.63673 45.0666 5.09138 43.3975 5.09138V5.66399ZM47.005 7.10915C47.8934 8.06347 48.351 9.45409 48.351 11.281H48.8894C48.8894 9.34501 48.4049 7.8181 47.3819 6.72743L47.005 7.10915ZM48.378 11.281V11.7718H48.9164V11.281H48.378ZM48.6471 11.4991H40.2476V12.0444H48.6471V11.4991ZM39.9785 11.7991C40.0592 13.1352 40.4361 14.1986 41.1091 14.8802L41.486 14.4985C40.9207 13.9259 40.5707 13.0261 40.4899 11.7718L39.9785 11.7991ZM41.1091 14.8802C41.7822 15.5619 42.6437 15.9164 43.6129 15.9164V15.371C42.7514 15.371 42.0514 15.0711 41.486 14.4985L41.1091 14.8802ZM43.6129 15.8891C44.3667 15.8891 45.0397 15.6982 45.6319 15.3165L45.3358 14.8529C44.8243 15.1802 44.2589 15.3437 43.6129 15.3437V15.8891ZM45.6319 15.3165C46.2781 14.9075 46.6011 14.3076 46.628 13.5714L46.0896 13.5441C46.0627 14.1168 45.8204 14.553 45.3358 14.8529L45.6319 15.3165ZM46.3858 13.8441H48.4318V13.2988H46.3858V13.8441ZM48.1626 13.5169C48.0279 14.6076 47.5434 15.4528 46.7088 16.0255L47.005 16.4617C47.9741 15.78 48.5125 14.8257 48.6741 13.5714L48.1626 13.5169ZM46.7088 16.0255C45.8742 16.6253 44.8512 16.9253 43.6129 16.9253V17.4706C44.932 17.4706 46.0627 17.1434 47.005 16.4617L46.7088 16.0255ZM46.8165 10.163C46.655 9.04508 46.2781 8.17255 45.6589 7.57267L45.282 7.98168C45.7935 8.47248 46.1165 9.20871 46.2781 10.2721L46.8165 10.163ZM45.6589 7.54539C45.0397 6.94552 44.2859 6.67286 43.4244 6.67286V7.21823C44.1782 7.21823 44.7974 7.4636 45.3089 7.9544L45.6589 7.54539ZM43.3975 6.67286C42.536 6.67286 41.7822 6.9728 41.163 7.54539L41.5399 7.9544C42.0514 7.4636 42.6706 7.21823 43.3975 7.21823V6.67286ZM41.163 7.54539C40.5438 8.14527 40.1669 9.01785 40.0054 10.1358L40.5438 10.2176C40.7053 9.15415 41.0284 8.41797 41.5399 7.92717L41.163 7.54539ZM40.2746 10.463H46.5473V9.91766H40.2746V10.463ZM52.7931 7.21823V6.94552H52.5238V7.21823H52.7931ZM52.7931 16.9253V17.1979H53.0623V16.9253H52.7931ZM50.8278 16.9253H50.5586V17.1979H50.8278V16.9253ZM50.8278 7.21823H51.097V6.94552H50.8278V7.21823ZM49.1856 7.21823H48.9164V7.49088H49.1856V7.21823ZM49.1856 5.63673V5.36405H48.9164V5.63673H49.1856ZM50.8278 5.63673V5.9094H51.097V5.63673H50.8278ZM55.4315 1.19221H55.7008V0.974072L55.4853 0.919538L55.4315 1.19221ZM55.4315 2.9373L55.3776 3.20996L55.7008 3.2645V2.9373H55.4315ZM53.143 3.23723L52.9277 3.04636L53.143 3.23723ZM52.7931 5.63673H52.5238V5.9094H52.7931V5.63673ZM54.92 5.63673H55.1893V5.36405H54.92V5.63673ZM54.92 7.21823V7.49088H55.1893V7.21823H54.92ZM52.5238 7.21823V16.9525H53.0623V7.21823H52.5238ZM52.7931 16.6526H50.8278V17.1979H52.7931V16.6526ZM51.097 16.9253V7.21823H50.5586V16.9525H51.097V16.9253ZM50.8278 6.94552H49.1856V7.49088H50.8278V6.94552ZM49.4548 7.21823V5.63673H48.9164V7.21823H49.4548ZM49.1856 5.9094H50.8278V5.36405H49.1856V5.9094ZM51.097 5.63673V4.62785H50.5586V5.63673H51.097ZM51.097 4.62785C51.097 3.48263 51.3393 2.66462 51.797 2.11928C52.2547 1.60121 52.9546 1.32854 53.9509 1.32854V0.783203C52.8469 0.783203 51.9854 1.11041 51.4201 1.76481C50.8278 2.41922 50.5586 3.40083 50.5586 4.62785H51.097ZM53.9509 1.32854C54.5701 1.32854 55.0544 1.38308 55.3776 1.43761L55.512 0.919538C55.1355 0.837737 54.624 0.783203 53.9776 0.783203V1.32854H53.9509ZM55.1621 1.19221V2.9373H55.7008V1.19221H55.1621ZM55.4853 2.66462C55.0816 2.58282 54.6507 2.55556 54.2469 2.55556V3.10089C54.6507 3.10089 55.0277 3.12817 55.4043 3.20996L55.4853 2.66462ZM54.2197 2.55556C53.6816 2.55556 53.2507 2.71916 52.9277 3.07363L53.3315 3.4281C53.4928 3.23723 53.7893 3.10089 54.2197 3.10089V2.55556ZM52.9546 3.07363C52.6585 3.4281 52.5508 3.97344 52.5508 4.68238H53.0892C53.0892 4.02798 53.1969 3.64624 53.3584 3.45537L52.9546 3.07363ZM52.5238 4.65511V5.63673H53.0623V4.65511H52.5238ZM52.7931 5.9094H54.92V5.36405H52.7931V5.9094ZM54.6507 5.63673V7.21823H55.1893V5.63673H54.6507ZM54.92 6.94552H52.7931V7.49088H54.92V6.94552ZM64.4229 6.91829L64.2347 7.10915L64.4229 6.91829ZM64.4229 15.671L64.2347 15.4801L64.4229 15.671ZM56.8043 15.671L56.616 15.8618L56.8043 15.671ZM56.8043 6.91829L56.616 6.72743L56.8043 6.91829ZM62.9157 14.553L63.1312 14.7166L62.9157 14.553ZM62.9157 8.03625L62.7003 8.19983L62.9157 8.03625ZM58.312 8.03625L58.5275 8.19983L58.312 8.03625ZM58.312 14.553L58.0965 14.7166L58.312 14.553ZM60.6005 5.66399C62.1349 5.66399 63.3195 6.15478 64.208 7.10915L64.6117 6.72743C63.6155 5.63673 62.2693 5.09138 60.6005 5.09138V5.66399ZM64.208 7.10915C65.096 8.06347 65.5541 9.45409 65.5541 11.281H66.0923C66.0923 9.34501 65.6075 7.8181 64.5845 6.72743L64.208 7.10915ZM65.5808 11.281C65.5808 13.1079 65.1232 14.4985 64.2347 15.4528L64.6384 15.8346C65.6613 14.7439 66.1461 13.1897 66.1461 11.281H65.5808ZM64.208 15.4801C63.3195 16.4345 62.1349 16.9253 60.6005 16.9253V17.4706C62.2427 17.4706 63.5888 16.9253 64.6117 15.8346L64.208 15.4801ZM60.6005 16.9253C59.0656 16.9253 57.8811 16.4345 56.9931 15.4801L56.5888 15.8618C57.6123 16.9525 58.9579 17.4979 60.6005 17.4979V16.9253ZM56.9931 15.4801C56.1045 14.4985 55.6469 13.1352 55.6469 11.3083H55.1083C55.1083 13.217 55.5931 14.7712 56.5888 15.8618L56.9931 15.4801ZM55.6469 11.281C55.6469 9.45409 56.1045 8.06347 56.9931 7.10915L56.5888 6.72743C55.5931 7.8181 55.1083 9.34501 55.1083 11.281H55.6469ZM56.9931 7.10915C57.8811 6.15478 59.0928 5.66399 60.6005 5.66399V5.11865C58.9579 5.11865 57.6123 5.66399 56.5888 6.75465L56.9931 7.10915ZM60.6005 15.8891C61.6235 15.8891 62.4581 15.4801 63.104 14.7166L62.7003 14.3621C62.1616 15.0166 61.4619 15.3437 60.6005 15.3437V15.8891ZM63.1312 14.7166C63.7771 13.9259 64.0731 12.7534 64.0731 11.3083H63.5349C63.5349 12.6989 63.2384 13.735 62.7003 14.3894L63.1312 14.7166ZM64.0731 11.281C64.0731 9.80858 63.7771 8.66335 63.1312 7.87261L62.7269 8.22711C63.2656 8.88149 63.5616 9.89038 63.5616 11.3083H64.0731V11.281ZM63.1312 7.87261C62.4848 7.08187 61.6501 6.67286 60.6272 6.67286V7.21823C61.4885 7.21823 62.1888 7.54539 62.7269 8.22711L63.1312 7.87261ZM60.6005 6.67286C59.5771 6.67286 58.7429 7.08187 58.0965 7.87261L58.5003 8.22711C59.0389 7.57267 59.7387 7.21823 60.6005 7.21823V6.67286ZM58.0965 7.87261C57.4507 8.66335 57.1541 9.80858 57.1541 11.281H57.6928C57.6928 9.86309 57.9888 8.85421 58.5275 8.19983L58.0965 7.87261ZM57.1541 11.281C57.1541 12.7534 57.4507 13.8986 58.0965 14.6894L58.5003 14.3349C57.9621 13.6805 57.6661 12.6716 57.6661 11.2537H57.1541V11.281ZM58.0965 14.7166C58.7429 15.5074 59.5771 15.8891 60.6005 15.8891V15.3437C59.7387 15.3437 59.0389 15.0166 58.5003 14.3621L58.0965 14.7166ZM73.4688 7.4636L73.3883 7.73626L73.7381 7.84533V7.49088H73.4688V7.4636ZM69.6731 8.93606L69.4576 8.77242L69.4037 8.85421V8.93606H69.6731ZM69.6731 16.9253V17.1979H69.9419V16.9253H69.6731ZM67.6805 16.9253H67.4112V17.1979H67.6805V16.9253ZM67.6805 5.63673V5.36405H67.4112V5.63673H67.6805ZM69.6731 5.63673H69.9419V5.36405H69.6731V5.63673ZM69.6731 7.21823H69.4037V8.09076L69.888 7.38181L69.6731 7.21823ZM73.4688 5.47312H73.7381V5.25499L73.5227 5.22772L73.4688 5.47312ZM73.5493 7.21823C73.2267 7.10915 72.7957 7.08187 72.2571 7.08187V7.62724C72.7691 7.62724 73.1456 7.68175 73.3883 7.73626L73.5493 7.21823ZM72.2571 7.05459C71.1264 7.05459 70.1845 7.65446 69.4304 8.77242L69.888 9.07236C70.5883 8.06347 71.3691 7.57267 72.2571 7.57267V7.05459ZM69.4037 8.93606V16.9253H69.9419V8.93606H69.4037ZM69.6731 16.6526H67.6805V17.1979H69.6731V16.6526ZM67.9499 16.9253V5.63673H67.4112V16.9253H67.9499ZM67.6805 5.9094H69.6731V5.36405H67.6805V5.9094ZM69.4037 5.63673V7.21823H69.9419V5.63673H69.4037ZM69.888 7.35453C70.696 6.18206 71.5845 5.63673 72.5803 5.63673V5.09138C71.3691 5.09138 70.3189 5.77306 69.4576 7.02736L69.888 7.35453ZM72.5803 5.66399C72.8496 5.66399 73.1189 5.69126 73.4421 5.74579L73.5227 5.20046C73.1995 5.14592 72.8763 5.11865 72.5803 5.11865V5.66399ZM73.1995 5.47312V7.4636H73.7381V5.47312H73.1995ZM89.5408 16.9253V17.1979H89.8101V16.9253H89.5408ZM87.5755 16.9253H87.3067V17.1979H87.5755V16.9253ZM82.9989 8.85421L82.7835 8.69063L82.7296 8.77242V8.85421H82.9989ZM82.9989 16.9253V17.1979H83.2683V16.9253H82.9989ZM81.0336 16.9253H80.7643V17.1979H81.0336V16.9253ZM76.4571 8.85421L76.2416 8.69063L76.1877 8.77242V8.85421H76.4571ZM76.4571 16.9253V17.1979H76.7264V16.9253H76.4571ZM74.4651 16.9253H74.1957V17.1979H74.4651V16.9253ZM74.4651 5.63673V5.36405H74.1957V5.63673H74.4651ZM76.4571 5.63673H76.7264V5.36405H76.4571V5.63673ZM76.4571 7.08187H76.1877V7.8181L76.6725 7.24546L76.4571 7.08187ZM82.7029 7.43632L82.4608 7.51816L82.6219 7.98168L82.9184 7.59996L82.7029 7.43632ZM84.5872 5.74579L84.6949 5.99119L84.5872 5.74579ZM89.5408 16.6526H87.5488V17.1979H89.5408V16.6526ZM87.8448 16.9253V9.61772H87.3067V16.9253H87.8448ZM87.8448 9.61772C87.8448 8.66335 87.7104 7.92717 87.3872 7.4636L86.9296 7.76354C87.1451 8.09076 87.2795 8.69063 87.2795 9.61772H87.8448ZM87.3872 7.4636C87.064 6.9728 86.4987 6.75465 85.8256 6.75465V7.30002C86.3909 7.30002 86.7413 7.4636 86.9296 7.76354L87.3872 7.4636ZM85.8256 6.75465C84.7488 6.75465 83.7259 7.43632 82.7835 8.66335L83.2144 8.99057C84.1296 7.8181 84.9909 7.27274 85.8256 7.27274V6.75465ZM82.7296 8.85421V16.9525H83.2683V8.85421H82.7296ZM82.9989 16.6526H81.0336V17.1979H82.9989V16.6526ZM81.3029 16.9253V9.61772H80.7643V16.9253H81.3029ZM81.3029 9.61772C81.3029 8.66335 81.1685 7.92717 80.8453 7.4636L80.3877 7.76354C80.6032 8.09076 80.7376 8.69063 80.7376 9.61772H81.3029ZM80.8453 7.4636C80.5221 6.9728 79.9568 6.75465 79.2837 6.75465V7.30002C79.8491 7.30002 80.1989 7.49088 80.4144 7.76354L80.8453 7.4636ZM79.2837 6.75465C78.2069 6.75465 77.184 7.43632 76.2416 8.66335L76.6725 8.99057C77.5611 7.8181 78.4491 7.27274 79.2837 7.27274V6.75465ZM76.1877 8.85421V16.9525H76.7264V8.85421H76.1877ZM76.4571 16.6526H74.4651V17.1979H76.4571V16.6526ZM74.7339 16.9253V5.63673H74.1957V16.9253H74.7339ZM74.4651 5.9094H76.4571V5.36405H74.4651V5.9094ZM76.1877 5.63673V7.08187H76.7264V5.63673H76.1877ZM76.6725 7.24546C77.5877 6.15478 78.5568 5.63673 79.5797 5.63673V5.09138C78.3413 5.09138 77.2379 5.71853 76.2416 6.89101L76.6725 7.24546ZM79.5797 5.66399C80.3605 5.66399 80.9797 5.8276 81.4373 6.12755C81.8955 6.42749 82.2453 6.89101 82.4336 7.51816L82.9451 7.35453C82.7029 6.61835 82.2992 6.04573 81.7067 5.69126C81.1413 5.30952 80.4144 5.14592 79.5531 5.14592V5.66399H79.5797ZM82.9184 7.59996C83.6453 6.72743 84.2645 6.20934 84.7221 5.99119L84.5067 5.50039C83.9413 5.77306 83.2683 6.37293 82.5147 7.24546L82.9184 7.59996ZM84.7221 5.99119C85.2064 5.77306 85.6912 5.66399 86.1221 5.66399V5.11865C85.5835 5.11865 85.0448 5.25499 84.4795 5.50039L84.7221 5.99119ZM86.1221 5.66399C87.1989 5.66399 87.9797 5.99119 88.4912 6.61835C89.0027 7.24546 89.2987 8.19983 89.2987 9.56316H89.8373C89.8373 8.14527 89.5408 7.02736 88.9216 6.26385C88.2757 5.50039 87.3333 5.11865 86.1488 5.11865V5.66399H86.1221ZM89.2715 9.53588V16.9253H89.8101V9.53588H89.2715Z" fill="white"/>
</svg>
