<svg width="132" height="21" viewBox="0 0 132 21" fill="none" xmlns="http://www.w3.org/2000/svg">
<path d="M88.517 7.47266H86.0444V20.3299H97.9127V18.3519H88.517V7.47266Z" fill="white"/>
<path fill-rule="evenodd" clip-rule="evenodd" d="M107.984 0H115.198L118.804 5.24641L122.739 0H130.281L122.739 9.83702L131.265 20.3298H122.739L118.804 15.0834L115.198 20.3298H107L115.198 9.83702L107.984 0ZM121.755 11.4763L119.788 13.7716L123.723 18.3622H127.658L121.755 11.4763Z" fill="white"/>
<path d="M68.7364 7.47266H54.8901V9.4507H60.8243V20.3299H63.2968V9.4507H68.7364V7.47266Z" fill="white"/>
<path d="M51.9237 7.47266H49.4512V20.3299H51.9237V7.47266Z" fill="white"/>
<path d="M11.3737 9.4507V11.9233H13.3518V8.46168C13.3518 7.67046 12.9432 7.47266 12.7389 7.47266H0.989021C0.197804 7.47266 0 8.132 0 8.46168V19.3409C0 20.1321 0.659348 20.3299 0.989021 20.3299H12.3628C13.154 20.3299 13.3518 19.6706 13.3518 19.3409V15.8793H11.3737V17.8574C11.3737 18.253 11.0441 18.3519 10.8792 18.3519H2.47255C2.07694 18.3519 1.97804 18.0222 1.97804 17.8574V9.4507C1.97804 9.05509 2.30772 8.95619 2.47255 8.95619H10.8792C11.2748 8.95619 11.3737 9.28586 11.3737 9.4507Z" fill="white"/>
<path fill-rule="evenodd" clip-rule="evenodd" d="M15.3301 20.3299L22.7477 7.47266H24.7258L31.8962 20.3299H29.1764L27.1983 16.8684H20.0279L18.0499 20.3299H15.3301ZM20.2752 15.1369L23.4896 9.94458L26.7039 15.1369H20.2752Z" fill="white"/>
<path fill-rule="evenodd" clip-rule="evenodd" d="M67.2539 20.3299L74.6716 7.47266H76.6496L83.82 20.3299H81.1002L79.1222 16.8684H71.9518L69.9737 20.3299H67.2539ZM72.1986 15.1372L75.413 9.94484L78.6273 15.1372H72.1986Z" fill="white"/>
<path fill-rule="evenodd" clip-rule="evenodd" d="M33.627 7.47266V20.0827H36.0995V14.8903H45.4952C46.1546 14.8903 47.4733 14.5936 47.4733 13.4068V8.95619C47.4733 8.46168 47.0282 7.47266 45.248 7.47266H33.627ZM36.0993 8.95577V13.4064H44.506C45.0005 13.4064 45.9895 13.219 45.9895 12.4694V9.6585C45.9895 9.42425 45.7917 8.95577 45.0005 8.95577H36.0993Z" fill="white"/>
</svg>
