<svg width="52" height="20" viewBox="0 0 52 20" fill="none" xmlns="http://www.w3.org/2000/svg">
<path fill-rule="evenodd" clip-rule="evenodd" d="M41.0713 1.4959C40.2511 1.79628 39.416 2.20615 39.215 2.40714C37.8128 3.80932 37.0393 4.06696 36.0099 6.10873C34.9524 8.20683 34.8399 12.0322 35.7711 14.2098C37.0644 17.2334 40.1555 19.5358 43.1821 19.7301L44.8122 19.8347V18.1536C44.8122 16.5239 44.7721 16.4657 43.4997 16.2539C41.7721 15.9659 40.6171 15.2166 39.7453 13.8175C37.4342 10.1103 39.4059 5.23836 43.5301 4.46475C45.2416 4.14337 47.7334 5.12661 48.8614 6.5681L49.71 7.65221L50.967 6.60222C52.4756 5.34299 52.3481 4.392 50.4799 2.96701C47.8737 0.979158 44.0963 0.388541 41.0713 1.4959ZM18.375 2.95989V4.64737H23.0624C27.25 4.64737 27.8298 4.72724 28.4999 5.39736C29.437 6.33448 29.4689 8.08271 28.564 8.9017C28.0019 9.41057 27.022 9.52232 23.1266 9.52232H18.375V14.6054V19.6885L20.1562 19.5741L21.9375 19.4597L22.0462 16.366L22.1553 13.2723L24.1087 13.2858L26.0624 13.2996L27.9498 16.3795L29.8368 19.4597L31.7935 19.573C32.8693 19.6356 33.7498 19.5985 33.7498 19.4908C33.7498 19.3832 32.9061 17.8667 31.8749 16.1207C30.8436 14.3748 29.9999 12.7724 29.9999 12.5602C29.9999 12.3475 30.337 11.9932 30.7487 11.773C31.1605 11.5525 31.8542 10.6732 32.29 9.81856C33.2758 7.88621 33.1007 5.57811 31.8269 3.711C30.4686 1.72128 28.8891 1.27241 23.2424 1.27241H18.375V2.95989Z" fill="white"/>
<path d="M2.07748 10.0798C3.22009 8.43324 5.03395 5.78201 6.10868 4.18828L8.06241 1.29031L10.0743 1.28206L12.0861 1.27344L11.4291 2.30468C11.0676 2.87205 9.64602 4.93902 8.26979 6.89838C6.89318 8.85773 5.38607 11.0095 4.9207 11.6796L4.07395 12.8983H7.68854C11.2075 12.8983 11.3016 12.8758 11.2353 12.0546C11.0388 9.62985 11.1419 9.47235 12.8436 9.59572L14.4373 9.71085L14.542 14.6795L14.6466 19.6482H12.9482H11.2499V17.9608V16.2733H5.62494H0V14.6735C0 13.3434 0.350246 12.5694 2.07748 10.0798Z" fill="#79E7B4"/>
</svg>
