<svg width="100" height="215" viewBox="0 0 100 215" fill="none" xmlns="http://www.w3.org/2000/svg">
<line x1="52" y1="85" x2="52" y2="215" stroke="white" stroke-opacity="0.65" strokeWidth="4" stroke-dasharray="8 12"/>
<mask id="path-2-inside-1_292_2" fill="white">
<path fillRule="evenodd" clipRule="evenodd" d="M49.9992 92.8569C73.6686 92.8569 92.8564 73.6691 92.8564 49.9997C92.8564 26.3304 73.6686 7.14258 49.9992 7.14258C26.3299 7.14258 7.14209 26.3304 7.14209 49.9997C7.14209 73.6691 26.3299 92.8569 49.9992 92.8569ZM49.9978 80.9536C67.0923 80.9536 80.9502 67.0957 80.9502 50.0012C80.9502 32.9067 67.0923 19.0488 49.9978 19.0488C32.9033 19.0488 19.0454 32.9067 19.0454 50.0012C19.0454 67.0957 32.9033 80.9536 49.9978 80.9536Z"/>
</mask>
<path fillRule="evenodd" clipRule="evenodd" d="M49.9992 92.8569C73.6686 92.8569 92.8564 73.6691 92.8564 49.9997C92.8564 26.3304 73.6686 7.14258 49.9992 7.14258C26.3299 7.14258 7.14209 26.3304 7.14209 49.9997C7.14209 73.6691 26.3299 92.8569 49.9992 92.8569ZM49.9978 80.9536C67.0923 80.9536 80.9502 67.0957 80.9502 50.0012C80.9502 32.9067 67.0923 19.0488 49.9978 19.0488C32.9033 19.0488 19.0454 32.9067 19.0454 50.0012C19.0454 67.0957 32.9033 80.9536 49.9978 80.9536Z" fill="white"/>
<path d="M60.8564 49.9997C60.8564 55.996 55.9955 60.8569 49.9992 60.8569V124.857C91.3417 124.857 124.856 91.3422 124.856 49.9997H60.8564ZM49.9992 39.1426C55.9955 39.1426 60.8564 44.0035 60.8564 49.9997H124.856C124.856 8.65726 91.3417 -24.8574 49.9992 -24.8574V39.1426ZM39.1421 49.9997C39.1421 44.0035 44.003 39.1426 49.9992 39.1426V-24.8574C8.65678 -24.8574 -24.8579 8.65726 -24.8579 49.9997H39.1421ZM49.9992 60.8569C44.003 60.8569 39.1421 55.996 39.1421 49.9997H-24.8579C-24.8579 91.3422 8.65678 124.857 49.9992 124.857V60.8569ZM48.9502 50.0012C48.9502 49.9156 48.9738 49.7534 49.0456 49.5836C49.1084 49.4351 49.1855 49.332 49.257 49.2604C49.3286 49.1889 49.4317 49.1119 49.5802 49.0491C49.75 48.9772 49.9122 48.9536 49.9978 48.9536V112.954C84.7654 112.954 112.95 84.7689 112.95 50.0012H48.9502ZM49.9978 51.0488C49.9122 51.0488 49.75 51.0252 49.5802 50.9534C49.4317 50.8906 49.3286 50.8135 49.257 50.742C49.1855 50.6704 49.1084 50.5673 49.0456 50.4188C48.9738 50.249 48.9502 50.0868 48.9502 50.0012H112.95C112.95 15.2336 84.7654 -12.9512 49.9978 -12.9512V51.0488ZM51.0454 50.0012C51.0454 50.0868 51.0218 50.249 50.9499 50.4188C50.8871 50.5673 50.8101 50.6704 50.7386 50.742C50.667 50.8135 50.5639 50.8906 50.4154 50.9534C50.2456 51.0252 50.0834 51.0488 49.9978 51.0488V-12.9512C15.2302 -12.9512 -12.9546 15.2336 -12.9546 50.0012H51.0454ZM49.9978 48.9536C50.0834 48.9536 50.2456 48.9772 50.4154 49.0491C50.5639 49.1119 50.667 49.1889 50.7386 49.2604C50.8101 49.332 50.8871 49.4351 50.9499 49.5836C51.0218 49.7534 51.0454 49.9156 51.0454 50.0012H-12.9546C-12.9546 84.7689 15.2302 112.954 49.9978 112.954V48.9536Z" fill="white" mask="url(#path-2-inside-1_292_2)"/>
<path fillRule="evenodd" clipRule="evenodd" d="M58.6048 23.1752C56.0525 22.5371 46.1723 20.3684 41.7765 20.1099L41.9024 17.9707C46.5236 18.2425 56.5847 20.4614 59.1245 21.0963C62.3476 21.9021 68.9129 24.3899 69.8003 31.4887C70.1982 34.6719 70.5896 37.3985 71.1689 39.7158C71.7475 42.0303 72.4978 43.8672 73.5724 45.3C74.2285 46.1748 74.849 47.2903 75.1664 48.4591C75.482 49.6209 75.5299 50.9688 74.8322 52.1549C74.1235 53.3596 72.7937 54.1489 70.8923 54.4934C69.0004 54.8361 66.4226 54.7658 62.9816 54.1586L62.9445 54.152L62.9079 54.1429C56.934 52.6494 43.3416 50.5042 31.4165 60.3221C31.1036 60.5797 30.7775 60.8252 30.472 61.0552L30.4362 61.0822C30.1134 61.3252 29.8128 61.5524 29.5299 61.7878C28.9626 62.2598 28.5327 62.7118 28.2595 63.2276C28.0469 63.6291 27.9389 64.1344 27.9637 64.9055C27.9891 65.6941 28.1494 66.6807 28.4153 68.0102C28.5834 68.8507 28.6588 69.5407 28.6549 70.1051C28.6509 70.6581 28.5707 71.1613 28.3657 71.5777C28.1456 72.0247 27.7727 72.3779 27.2665 72.5044C26.8005 72.6209 26.3787 72.5055 26.0899 72.3611L26.787 71.4288C26.2588 71.9666 26.9145 70.3836 26.7468 70.4255C26.6583 70.4477 26.5798 70.49 26.52 70.5418C26.4639 70.5905 26.4432 70.6312 26.4432 70.6312C26.4504 70.6166 26.5093 70.4734 26.5121 70.0899C26.5147 69.7177 26.4642 69.1812 26.314 68.4304C26.0476 67.0984 25.8536 65.9576 25.822 64.9745C25.7898 63.9738 25.922 63.0627 26.3658 62.2247C26.8292 61.3498 27.5033 60.6863 28.1595 60.1404C28.4883 59.8669 28.8294 59.6096 29.1472 59.3703L29.1687 59.3542C29.4853 59.1158 29.7784 58.8951 30.0545 58.6678C42.7626 48.2052 57.2023 50.5128 63.3906 52.0548C66.6926 52.6347 68.9769 52.6626 70.5103 52.3848C72.0401 52.1077 72.6993 51.5544 72.9852 51.0684C73.2821 50.5638 73.3299 49.8729 73.0985 49.0208C72.869 48.1757 72.3954 47.3021 71.8581 46.5857C70.5458 44.836 69.7049 42.6947 69.09 40.2355C68.4759 37.779 68.0717 34.9362 67.674 31.7545C66.9701 26.1232 61.7466 23.9607 58.6048 23.1752Z" fill="white"/>
<path fillRule="evenodd" clipRule="evenodd" d="M48.6669 24.8369C44.9819 24.5534 41.2525 25.5123 39.0997 26.9475C37.0828 28.2921 32.905 30.1178 28.9458 31.7386C26.6193 32.6911 24.3921 33.5638 22.605 34.264C21.2604 34.7908 20.1649 35.22 19.4638 35.5122L18.6396 33.5341C19.3049 33.257 20.4302 32.8156 21.8064 32.2757C23.6358 31.5581 25.9086 30.6666 28.1339 29.7555C32.1512 28.1109 36.109 26.366 37.9111 25.1646C40.5321 23.4172 44.7589 22.3871 48.8313 22.7004C52.9185 23.0148 57.1065 24.7113 59.3326 28.7182C61.3845 32.4116 62.65 36.5686 62.65 40.079C62.65 43.5739 61.3522 46.7847 57.8948 47.7726L57.8531 47.7845L57.8105 47.793C56.5075 48.0536 55.1003 47.6528 53.7586 47.2455C53.5897 47.1942 53.419 47.1417 53.2461 47.0886C51.9631 46.6942 50.5574 46.2621 48.8885 46.0118C45.1746 45.4547 40.0522 45.7905 32.6929 50.0474C29.5726 51.9992 27.3038 53.9083 25.9202 55.6609C24.5237 57.4298 24.1458 58.8794 24.428 60.0081C25.1205 62.7781 24.7201 66.689 24.428 67.8576L22.3491 66.3731C22.5874 65.4201 22.9296 62.8499 22.3491 60.5278C21.8357 58.4741 22.6512 56.3434 24.2383 54.3331C25.836 52.3093 28.3358 50.2437 31.5726 48.2207L31.6033 48.2015C39.3524 43.7151 44.9667 43.2567 49.2064 43.8926C51.0444 44.1683 52.6046 44.6487 53.8826 45.0422C54.0538 45.095 54.22 45.1461 54.3811 45.195C55.7959 45.6245 56.6697 45.8212 57.3499 45.6994C59.4331 45.0815 60.5071 43.1266 60.5071 40.079C60.5071 37.0254 59.3857 33.2262 57.4594 29.7589C55.7074 26.6052 52.337 25.1192 48.6669 24.8369Z" fill="white"/>
<path fillRule="evenodd" clipRule="evenodd" d="M46.8861 31.4387C44.9944 30.5111 42.8561 30.2304 40.8598 30.734C35.1301 32.1795 29.1995 36.8812 26.5679 39.5021C24.6975 41.7597 24.3338 43.4107 24.5389 44.4366C24.7334 45.4091 25.516 46.1626 26.8312 46.4914C28.0141 46.7871 29.4842 46.3683 31.5806 45.37C32.3442 45.0064 33.1441 44.5907 34.0097 44.1409C34.3049 43.9875 34.6077 43.8301 34.9193 43.6695C36.1322 43.0443 37.4517 42.3841 38.8793 41.7723C41.6195 40.5979 43.5008 40.5022 45.177 40.4169C45.3217 40.4096 45.4648 40.4023 45.6069 40.3944C47.2888 40.301 48.9025 40.1284 51.4998 38.6443C52.7291 37.9419 53.1792 37.2495 53.3201 36.7154C53.4634 36.1723 53.3466 35.5674 52.9871 34.9283C52.6263 34.2868 52.0646 33.697 51.4978 33.2692C51.2172 33.0574 50.9552 32.9005 50.7415 32.801C50.5633 32.718 50.4659 32.6969 50.4411 32.6916C50.433 32.6898 50.4338 32.6916 50.4411 32.6916C49.7737 32.6916 49.1584 32.496 48.6018 32.2628C48.2041 32.0962 47.7725 31.8804 47.3433 31.6658C47.1901 31.5892 47.0371 31.5127 46.8861 31.4387ZM40.3357 28.6563C42.8696 28.0171 45.5263 28.3854 47.8295 29.5146C48.0229 29.6095 48.2006 29.6983 48.3667 29.7814C48.7685 29.9823 49.1029 30.1495 49.4296 30.2863C49.8744 30.4726 50.1839 30.5469 50.4401 30.5469C50.8676 30.5469 51.2956 30.6952 51.646 30.8584C52.0197 31.0324 52.4104 31.2733 52.7887 31.5587C53.5396 32.1255 54.3205 32.928 54.8548 33.8777C55.3903 34.8298 55.7211 36.0151 55.392 37.2622C55.0606 38.5183 54.1183 39.616 52.5629 40.5048C49.5908 42.2032 47.6242 42.4285 45.7258 42.534C45.5811 42.542 45.4376 42.5494 45.2947 42.5567C43.6658 42.6404 42.1068 42.7204 39.7234 43.7419C38.3663 44.3235 37.1001 44.9562 35.9011 45.5742C35.6067 45.726 35.3145 45.8778 35.0254 46.028C34.1499 46.4831 33.3022 46.9236 32.5019 47.3047C30.4213 48.2955 28.3111 49.0702 26.3115 48.5703C24.4442 48.1034 22.8399 46.8679 22.4377 44.8568C22.0473 42.9047 22.8718 40.5901 24.9526 38.093L24.9837 38.0557L25.0181 38.0213C27.7343 35.3051 34.0253 30.2482 40.3357 28.6563ZM44.3562 35.5661C43.7904 35.5193 43.0356 35.511 42.1859 35.531C40.5304 35.5699 38.437 35.9037 36.9718 36.5598C36.2321 36.8911 35.7774 37.2495 35.5627 37.5753C35.3964 37.8277 35.3245 38.1225 35.5351 38.6069C35.575 38.6074 35.6531 38.6004 35.7799 38.5581C37.1218 38.1108 37.8863 38.0912 38.7565 38.2156C38.9161 38.2384 39.0723 38.2643 39.2334 38.2911C39.8375 38.3914 40.5103 38.5031 41.688 38.5031C42.7908 38.5031 43.6894 37.8153 44.265 36.9108C44.5489 36.4646 44.7141 36.0223 44.7732 35.6931C44.7782 35.6653 44.7822 35.6393 44.7855 35.6152C44.6699 35.5971 44.5273 35.5803 44.3562 35.5661ZM45.4789 33.5683C45.7056 33.6225 46.1181 33.7376 46.4238 34.0432C46.7436 34.363 46.8691 34.7626 46.9149 35.0829C46.9619 35.4119 46.9397 35.7522 46.8824 36.0717C46.7674 36.7121 46.485 37.4135 46.0728 38.0613C45.256 39.3448 43.7678 40.646 41.688 40.646C40.3183 40.646 39.4613 40.5026 38.8479 40.3999C38.7042 40.3759 38.5739 40.3541 38.4535 40.3369C37.9313 40.2623 37.5024 40.2427 36.4575 40.591C35.8919 40.7796 35.2926 40.8201 34.7366 40.6052C34.1673 40.3852 33.7826 39.9508 33.5697 39.4609C33.0876 38.3513 33.186 37.2876 33.7734 36.3962C34.3124 35.5782 35.1948 35.0077 36.096 34.6041C37.9125 33.7906 40.316 33.4315 42.1356 33.3887C43.0134 33.3681 43.8556 33.3746 44.5328 33.4306C44.869 33.4584 45.1958 33.5007 45.4789 33.5683ZM76.2313 37.6544C77.254 36.4303 78.5871 35.693 79.5392 35.3756L80.2169 37.4085C79.5778 37.6215 78.6035 38.1573 77.8758 39.0283C77.1759 39.8661 76.696 41.0161 76.9568 42.5809C77.1148 43.5291 77.5213 44.7048 78.0096 46.1172C78.0778 46.3144 78.1476 46.5163 78.2185 46.7228C78.7778 48.3508 79.3813 50.2021 79.6458 52.0536C79.9109 53.9094 79.8509 55.8625 78.9918 57.6536C78.1216 59.4677 76.5012 60.9721 73.9251 62.0455L73.8675 62.0695L73.8074 62.0867C72.266 62.527 71.0864 62.5445 69.9663 62.2872C69.1748 62.1053 68.4036 61.7749 67.6396 61.4477C67.4062 61.3477 67.1736 61.2481 66.9413 61.153C64.9069 60.3208 61.885 59.3504 55.2766 59.7392L55.2452 59.741H55.2137C49.6195 59.741 45.0315 59.9495 41.6542 61.1691C39.9919 61.7694 38.6681 62.6006 37.6704 63.7392C36.6765 64.8736 35.9526 66.3743 35.583 68.4011C35.4388 69.2666 35.3179 70.0774 35.2068 70.823C35.0238 72.0505 34.8671 73.1012 34.6763 73.9279C34.3651 75.2765 33.8734 76.5048 32.6197 77.1316L31.6614 75.215C31.999 75.0462 32.3028 74.6833 32.5884 73.4461C32.7626 72.6909 32.8969 71.7858 33.0662 70.6446C33.1784 69.8886 33.3059 69.0291 33.4706 68.0409L33.4732 68.0254C33.8996 65.6801 34.7665 63.8018 36.0587 62.327C37.3486 60.8549 39.0084 59.8462 40.9264 59.1536C44.7026 57.79 49.6506 57.5989 55.1823 57.5981C62.0781 57.1962 65.4146 58.2133 67.7526 59.1697C68.0757 59.3019 68.362 59.4242 68.6237 59.5361C69.33 59.838 69.8576 60.0635 70.4461 60.1987C71.1543 60.3614 71.9493 60.3809 73.1589 60.0431C75.3191 59.1309 76.4682 57.96 77.0597 56.7268C77.6675 55.4598 77.7566 53.9817 77.5245 52.3566C77.2917 50.7273 76.7515 49.048 76.1919 47.4189C76.1238 47.2205 76.0548 47.0215 75.9858 46.8226C75.5086 45.4459 75.0333 44.0746 74.8431 42.9332C74.4674 40.6791 75.1809 38.9118 76.2313 37.6544ZM58.3962 65.3104C54.4427 65.3104 48.2583 65.712 43.6914 67.6148C41.951 68.34 40.8873 69.2863 40.2556 70.2914C39.6212 71.3008 39.3714 72.4511 39.3977 73.6638C39.4512 76.131 40.6486 78.7126 41.7733 80.3372L40.0115 81.5569C38.7494 79.7338 37.3212 76.7461 37.2554 73.7102C37.222 72.1713 37.5391 70.5867 38.4413 69.1512C39.3461 67.7114 40.7886 66.5029 42.8672 65.6368C47.8478 63.5616 54.3934 63.1675 58.3962 63.1675C61.8481 63.1675 64.0284 64.2637 65.8782 65.2914C65.9971 65.3575 66.114 65.4227 66.2291 65.487C67.898 66.4192 69.1987 67.1456 71.1262 67.1456H77.4912V69.2885H71.1262C68.6208 69.2885 66.8615 68.3005 65.2392 67.3894C65.1045 67.3137 64.9707 67.2386 64.8376 67.1646C63.1071 66.2032 61.3093 65.3104 58.3962 65.3104Z" fill="white"/>
<path fillRule="evenodd" clipRule="evenodd" d="M61.7251 68.7499C64.2773 68.9499 66.007 69.3038 67.0152 69.8552C67.5354 70.1397 68.0481 70.5783 68.2129 71.25C68.381 71.9348 68.1074 72.5278 67.8151 72.9296C67.2592 73.694 66.2113 74.3628 65.2182 74.8966C64.1732 75.4583 62.9879 75.9726 61.9761 76.3773C58.6957 77.6894 52.5196 79.0819 49.867 79.613C46.8135 80.3014 44.6689 79.4813 43.6546 77.8024C42.7237 76.2617 42.9414 74.2048 44.1125 73.034C44.9217 72.2252 45.4023 71.9403 45.865 71.6661C45.9131 71.6375 45.9611 71.6091 46.0092 71.5802C46.4224 71.3322 46.951 70.9907 48.0905 69.8511C48.7522 69.1895 49.452 68.6555 50.282 68.2783C51.1124 67.9008 52.0198 67.7044 53.0683 67.6492C55.1033 67.5421 57.8024 67.9665 61.7251 68.7499ZM51.1687 70.2291C50.6312 70.4734 50.1375 70.8346 49.6058 71.3664C48.3585 72.6137 47.6936 73.0683 47.1122 73.4174C47.059 73.4494 47.0079 73.4796 46.9582 73.5089C46.5567 73.7464 46.2486 73.9286 45.6275 74.5495C45.2074 74.9695 45.0273 75.9305 45.4887 76.6943C45.8653 77.3176 46.8983 78.0888 49.4069 77.5201L49.4336 77.514L49.4337 77.5144C52.0925 76.9826 58.1011 75.6194 61.1802 74.3877C62.1575 73.9968 63.2596 73.5166 64.2037 73.0091C65.1194 72.5169 65.7366 72.0758 66.0164 71.7517C66.0071 71.7464 65.9973 71.7409 65.987 71.7353C65.4125 71.4211 64.0798 71.0801 61.496 70.8814L61.4315 70.8764L61.368 70.8637C57.3687 70.0639 54.9143 69.6978 53.181 69.7891C52.3399 69.8333 51.7058 69.985 51.1687 70.2291ZM66.1788 71.8676C66.1787 71.8677 66.1775 71.8664 66.1754 71.8637L66.1788 71.8676ZM66.1305 71.5927C66.1317 71.5892 66.1326 71.5874 66.1327 71.5873L66.1305 71.5927ZM57.0201 72.3515C57.376 72.9921 57.2598 73.6858 56.9673 74.2709C56.626 74.9534 55.9706 75.362 55.403 75.6154C54.8052 75.8823 54.1119 76.0615 53.448 76.1838C52.3483 76.3863 50.9368 76.2823 49.9602 75.9571C49.707 75.8728 49.4444 75.7612 49.21 75.6108C48.988 75.4684 48.7023 75.2344 48.5339 74.8696C48.3388 74.447 48.3649 73.9866 48.5697 73.5908C48.7481 73.2462 49.0346 72.998 49.3012 72.8179C49.98 72.3597 50.8884 71.949 51.6503 71.6586C52.0387 71.5105 52.4106 71.3855 52.7235 71.2958C52.9862 71.2204 53.3402 71.1291 53.6221 71.1291C53.634 71.1291 53.6466 71.1291 53.6599 71.1291C54.0466 71.1287 54.9859 71.1279 55.751 71.383C56.1426 71.5135 56.7017 71.7783 57.0201 72.3515ZM54.3604 73.2936C54.0827 73.2723 53.8215 73.2719 53.6221 73.2719C53.6355 73.2719 53.6426 73.2719 53.6427 73.2726C53.643 73.2754 53.5466 73.2889 53.3144 73.3556C53.0696 73.4258 52.7559 73.5304 52.4136 73.6609C52.0747 73.79 51.7279 73.9369 51.4057 74.0909C51.9499 74.1631 52.568 74.1669 53.0599 74.0763C53.638 73.9699 54.1477 73.8291 54.5295 73.6587C54.7184 73.5744 54.8526 73.493 54.9416 73.4227C54.9571 73.4104 54.9705 73.3991 54.9822 73.3887C54.8143 73.3438 54.6005 73.3121 54.3604 73.2936ZM50.3529 73.7972C50.3531 73.7972 50.3555 73.7988 50.3596 73.8022C50.3548 73.799 50.3528 73.7972 50.3529 73.7972Z" fill="white"/>
</svg>
