<svg width="42" height="22" viewBox="0 0 42 22" fill="none" xmlns="http://www.w3.org/2000/svg">
<path fill-rule="evenodd" clip-rule="evenodd" d="M18.7924 0.210618C17.4945 0.863385 16.6968 1.39496 15.9944 2.07526C15.576 2.48053 15.3673 2.747 15.1454 3.1591C14.8127 3.77725 14.6972 4.36396 14.7674 5.07957C14.8511 5.93228 15.1066 6.53492 15.5973 7.03687C15.8699 7.31578 16.1428 7.50466 16.5305 7.68285C17.1659 7.97483 17.6906 8.08302 18.8562 8.16236L19.1427 8.18188L19.0124 8.35713C18.854 8.57022 18.4347 8.97366 18.1998 9.13898C17.7927 9.42554 17.4083 9.59561 17.0716 9.63813C16.9979 9.6474 16.9415 9.6649 16.9463 9.67695C16.951 9.68903 17.109 9.82224 17.2973 9.973C17.6878 10.2855 17.6443 10.2784 17.9813 10.0862C18.5768 9.74662 19.1864 9.12626 19.6399 8.39805L19.8165 8.11448H20.5858C21.425 8.11448 21.6898 8.13602 22.0915 8.23699C22.6264 8.37142 23.0343 8.62698 23.276 8.97913C23.5188 9.33272 23.6269 9.74492 23.6291 10.3252C23.6306 10.7008 23.5989 10.9098 23.4922 11.2284C23.3213 11.7386 23.1197 12.0323 22.3115 12.9476L22.2391 13.0295L21.7964 12.8397C20.0175 12.0768 18.4247 11.6938 17.1977 11.734C16.7347 11.7491 16.4684 11.8103 16.0618 11.9947C14.9831 12.4843 14.0679 13.6573 13.6309 15.1107C13.5845 15.265 13.4331 15.9024 13.4331 15.9433C13.4331 15.9657 14.0718 16.4722 14.1 16.4722C14.1167 16.4722 14.1291 16.4087 14.1291 16.3229C14.1291 15.8553 14.2581 15.2698 14.4403 14.9099C14.6005 14.5939 14.9142 14.2849 15.2183 14.1438C15.618 13.9584 15.7916 13.9281 16.4677 13.9262C16.9442 13.9248 17.1145 13.9344 17.3029 13.9732C17.9928 14.1152 18.6262 14.3529 19.7622 14.8959C20.0629 15.0397 20.3258 15.1509 20.3465 15.1432C20.3931 15.1259 21.361 14.3612 21.8688 13.9405C22.527 13.3951 23.6908 12.3629 24.0908 11.9698C24.9561 11.1193 25.3879 10.3756 25.5621 9.43555C25.636 9.03675 25.6295 8.28266 25.5494 7.9662C25.2756 6.88457 24.5144 6.23933 23.0821 5.87485C22.7546 5.79149 22.0346 5.67596 21.653 5.6455C21.5267 5.63541 21.4233 5.62131 21.4233 5.6142C21.4233 5.56518 22.3051 4.20322 22.7283 3.59861C23.6986 2.21241 24.6206 1.11506 25.1347 0.734514L25.2129 0.67663L25.0973 0.472728C25.0338 0.360599 24.9596 0.24227 24.9324 0.209809L24.8831 0.150766L24.6114 0.418834C24.3386 0.687953 24.0119 1.05189 23.8402 1.27796C23.7895 1.34466 23.7354 1.39971 23.7201 1.40028C23.7048 1.40084 23.5419 1.33961 23.3582 1.26418C22.5507 0.932565 21.5888 0.601895 20.7273 0.359736C20.247 0.224718 19.323 -0.000940666 19.2543 2.94992e-06C19.2299 0.000326476 19.0221 0.0951195 18.7924 0.210618ZM13.399 0.208326C13.2174 0.432071 12.9116 0.728475 12.7543 0.833054C12.5515 0.967992 12.4171 0.99692 11.9931 0.99692C11.0608 0.99692 10.085 0.875922 8.40785 0.552315C6.50525 0.185194 6.04149 0.126448 5.02522 0.123913C4.29569 0.12208 3.97508 0.152869 3.50488 0.269958C2.87991 0.425574 2.3814 0.688978 1.93085 1.10163C1.18709 1.78284 0.681175 2.75782 0.296307 4.25164C0.155044 4.79994 0.0150617 5.49128 0.00545675 5.68815L0 5.7995L0.166292 5.86566C0.257748 5.90205 0.345835 5.92691 0.362067 5.92087C0.378298 5.91486 0.439547 5.78418 0.498151 5.63048C0.774385 4.90638 1.16894 4.15326 1.54473 3.63293C1.79477 3.2867 2.30439 2.79413 2.61286 2.6005C3.0476 2.32763 3.50833 2.17827 4.07185 2.12748C4.37311 2.10033 5.29528 2.12416 5.83867 2.17312L6.02573 2.18997L5.64378 2.40579C4.78265 2.89238 4.20604 3.32097 3.53489 3.97344C2.51576 4.96415 1.91741 5.95331 1.6015 7.16947C1.46525 7.69398 1.42296 8.06045 1.42393 8.70761C1.42619 10.1819 1.78383 11.3987 2.54243 12.5133C3.94175 14.5693 6.59629 15.5789 9.47971 15.1517C11.1765 14.9003 12.5343 14.0964 13.5962 12.7145L13.7388 12.529L13.682 12.4314C13.6508 12.3777 13.6026 12.3049 13.575 12.2696L13.5248 12.2055L13.3189 12.3388C12.4605 12.8945 11.3287 13.2472 10.0435 13.3596L9.84164 13.3772V8.09025C9.84164 3.80089 9.8484 2.80327 9.87741 2.80327C9.8971 2.80327 10.0568 2.83012 10.2324 2.86296C10.4956 2.91216 10.6493 2.92271 11.1084 2.92298C11.6416 2.9233 11.6748 2.92017 11.8916 2.84964C12.603 2.61816 13.1486 1.95997 13.6396 0.740796C13.7112 0.562857 13.7824 0.388045 13.7978 0.352295C13.8223 0.295328 13.8111 0.272924 13.7071 0.170312C13.6419 0.105958 13.5742 0.0533038 13.5567 0.0533038C13.5391 0.0533038 13.4682 0.123077 13.399 0.208326ZM34.736 0.438919C33.1696 1.79339 32.3401 2.4581 31.2998 3.19253L31.0005 3.40382L31.0004 6.41293C31.0004 8.25832 30.9894 9.53676 30.9719 9.71863C30.9113 10.3476 30.7555 10.6962 30.364 11.0789C30.0558 11.3801 30.1088 11.4027 29.8311 10.851C29.4512 10.0964 29.2178 9.30689 29.0896 8.34365C29.0197 7.81862 29.0186 6.67199 29.0874 6.21377C29.3268 4.62105 29.9222 3.26675 30.7624 2.40431L30.9466 2.21518L30.8195 2.11438C30.6716 1.99694 30.6965 1.99171 30.2835 2.22699C29.5394 2.65092 28.716 3.40921 28.1171 4.2222C27.3046 5.32507 26.8049 6.53624 26.6444 7.79206C26.5887 8.22731 26.5891 9.0468 26.6452 9.51643C26.9048 11.6924 28.1081 13.4379 30.0349 14.434C31.5407 15.2124 33.4169 15.4385 35.3158 15.0704C36.7216 14.7979 38.1212 14.1861 39.1299 13.4031C40.299 12.4956 41.0549 11.3301 41.3038 10.0508C41.3895 9.61033 41.4084 8.79116 41.3442 8.30242C41.2043 7.23803 40.7969 6.38909 40.1033 5.71638C39.7675 5.39069 39.4362 5.16331 38.9768 4.9432C38.3701 4.65252 37.7256 4.48455 36.9727 4.4209C36.7739 4.4041 36.6066 4.38585 36.601 4.38035C36.5953 4.37485 36.7955 4.14213 37.0459 3.86319C38.5511 2.1866 39.0594 1.59167 39.5547 0.927254L39.6568 0.79016L39.5005 0.679002L39.3441 0.567871L39.1662 0.753925C38.9016 1.03078 38.8463 1.05712 38.5372 1.05346C37.8577 1.04542 36.8056 0.761393 35.2928 0.177619L35.1168 0.109678L34.736 0.438919ZM17.8497 1.50971C19.1849 1.77462 20.6529 2.3742 21.9244 3.17403C22.1005 3.28479 22.2494 3.37969 22.2552 3.38489C22.261 3.39009 22.1531 3.56164 22.0155 3.76608C21.8779 3.97055 21.5804 4.42292 21.3544 4.77139C21.1285 5.11985 20.9148 5.44858 20.8796 5.50191C20.8175 5.59608 20.8096 5.59934 20.6003 5.61649C20.0519 5.66138 18.9905 5.61619 18.4305 5.52412C18.0265 5.45772 17.5628 5.31305 17.3263 5.1797C17.0619 5.03064 16.806 4.77085 16.6685 4.51192C16.4975 4.1902 16.4378 3.92542 16.42 3.40878C16.4069 3.0285 16.4121 2.94942 16.4633 2.75331C16.5687 2.3498 16.7814 2.02142 17.108 1.75812C17.2455 1.64729 17.5355 1.45781 17.5713 1.45549C17.5734 1.45536 17.6987 1.47976 17.8497 1.50971ZM33.9724 1.8496L34.0351 1.88786V7.97049V14.0531L33.906 14.036C33.7032 14.0091 33.2147 13.8657 32.883 13.7358C32.315 13.5133 31.7201 13.141 31.2091 12.688C30.8522 12.3718 30.2361 11.6364 30.2943 11.5961C30.6893 11.323 32.546 10.1521 33.039 9.86524L33.1983 9.77255L33.1991 6.01925L33.1999 2.26595L33.4992 2.0229C33.8115 1.76926 33.8298 1.76252 33.9724 1.8496ZM34.8862 2.25182C35.4651 2.48778 36.1155 2.73366 36.7078 2.94039C36.9757 3.03395 37.1991 3.11302 37.204 3.11612C37.2245 3.12901 34.4643 6.35876 34.4388 6.35175C34.3999 6.34102 34.3861 2.07534 34.425 2.07534C34.4405 2.07534 34.6481 2.15476 34.8862 2.25182ZM6.44434 5.73522C6.44392 7.6592 6.43228 9.40926 6.4185 9.62427C6.38732 10.1107 6.32964 10.3913 6.20992 10.6388C6.06406 10.9403 5.98558 11.0098 5.15888 11.5701L5.08374 11.621L4.93042 11.4113C4.42303 10.7171 4.08917 9.79541 3.94865 8.70114C3.89175 8.25786 3.88309 7.18906 3.93343 6.82038C4.11982 5.45497 4.68075 4.20147 5.61032 3.07288C5.84841 2.78383 6.37908 2.2371 6.42157 2.2371C6.43451 2.2371 6.44476 3.81124 6.44434 5.73522ZM9.01539 2.62843C9.18655 2.66572 9.35476 2.70233 9.38923 2.70983L9.45187 2.72341V8.05083V13.3782L9.15259 13.3602C7.8923 13.2842 6.91802 13.0099 6.12492 12.508C5.8978 12.3643 5.53916 12.0861 5.41658 11.9586L5.34853 11.8878L5.41555 11.8412C5.51246 11.7738 7.50788 10.4506 8.12248 10.0461L8.6445 9.70267V6.13165C8.6445 3.60855 8.65326 2.56063 8.67434 2.56063C8.69077 2.56063 8.84422 2.59115 9.01539 2.62843ZM36.8228 6.31627C36.9704 6.3537 37.1806 6.42075 37.2901 6.46528C37.8972 6.71232 38.4349 7.21263 38.7033 7.78017C38.742 7.86216 38.7693 7.93282 38.7639 7.93722C38.7585 7.94164 38.3406 8.12432 37.8353 8.34319C37.33 8.56208 36.362 8.98231 35.6841 9.27707C35.0062 9.57183 34.4393 9.81299 34.4243 9.81299C34.4068 9.81299 34.397 9.27222 34.397 8.30598V6.79897L34.6545 6.63794C35.221 6.28376 35.4351 6.22507 36.1092 6.23903C36.4749 6.24661 36.6027 6.26044 36.8228 6.31627ZM38.9587 8.53237C39.0231 8.80335 39.1021 9.35035 39.1021 9.52594V9.64053L37.7727 10.2173C37.0415 10.5345 35.9874 10.9918 35.4302 11.2336C34.873 11.4754 34.4125 11.6733 34.407 11.6733C34.4015 11.6733 34.397 11.3352 34.397 10.922V10.1708L35.5176 9.68992C36.1339 9.42544 37.1393 8.99366 37.7517 8.7304C38.3641 8.46713 38.8732 8.26029 38.8831 8.27072C38.893 8.28118 38.927 8.39892 38.9587 8.53237ZM39.0917 10.322C39.0485 11.0635 38.8584 11.8286 38.5902 12.3411C38.4581 12.5936 38.1804 12.9659 37.9777 13.1622C37.4881 13.6363 36.8301 13.9461 36.0674 14.0617C35.7356 14.1119 34.9621 14.1406 34.6403 14.1146L34.3964 14.0948L34.4036 13.0534L34.4109 12.0119L34.8007 11.8427C36.1572 11.2537 39.0645 10.0062 39.0854 10.0041C39.0999 10.0027 39.1026 10.1363 39.0917 10.322ZM10.6597 19.3411C10.3413 19.416 10.1174 19.6252 10.064 19.8979C10.0109 20.1693 10.1011 20.399 10.3111 20.5275C10.37 20.5634 10.5263 20.6298 10.6585 20.675C11.0585 20.8117 11.0945 20.8385 11.0945 20.9996C11.0945 21.0907 11.0234 21.1569 10.8864 21.1935C10.7383 21.2331 10.5809 21.1986 10.4421 21.0959L10.3215 21.0068L10.1486 21.1938C9.95601 21.4021 9.95606 21.41 10.1502 21.5287C10.4688 21.7235 11.0245 21.7237 11.3143 21.5293C11.5467 21.3733 11.6633 21.0788 11.6031 20.8005C11.5455 20.5347 11.4106 20.4212 10.997 20.2901C10.8745 20.2513 10.7336 20.1955 10.6838 20.1661C10.6058 20.1201 10.5933 20.0977 10.5933 20.004C10.5933 19.9107 10.6061 19.8877 10.6838 19.8404C10.8078 19.765 11.0576 19.7788 11.1821 19.868L11.2697 19.9306L11.4318 19.7584C11.521 19.6637 11.5911 19.5681 11.5875 19.5461C11.5784 19.4899 11.3645 19.3813 11.18 19.3393C10.9916 19.2963 10.8481 19.2968 10.6597 19.3411ZM28.9681 19.3199C28.5359 19.401 28.2437 19.6128 28.0679 19.9722C27.9842 20.1433 27.9798 20.1686 27.9798 20.4759C27.9798 20.7179 27.9924 20.8344 28.0299 20.9384C28.1362 21.2336 28.4117 21.5027 28.7175 21.6104C28.8839 21.6689 29.3308 21.6904 29.5639 21.6511C29.6662 21.6338 29.8371 21.5884 29.9437 21.5502L30.1374 21.4806V20.8771V20.2737H29.692H29.2465V20.5163V20.7589H29.4414H29.6363V20.9356V21.1122L29.5319 21.1555C29.3686 21.2233 29.0113 21.2164 28.8664 21.1428C28.3978 20.9047 28.3669 20.1535 28.8146 19.8834C29.0451 19.7443 29.4458 19.7587 29.6349 19.9127C29.6814 19.9506 29.731 19.9776 29.7449 19.9726C29.7968 19.9541 30.0842 19.6203 30.074 19.5903C30.0559 19.5375 29.8195 19.4102 29.6614 19.3683C29.504 19.3266 29.0876 19.2975 28.9681 19.3199ZM34.6096 19.3458C34.1446 19.4548 33.8292 19.767 33.732 20.2143C33.5859 20.887 33.965 21.5021 34.6163 21.6489C34.8216 21.6951 35.2332 21.6706 35.4193 21.6009C35.7578 21.4743 36.014 21.1976 36.1097 20.8553C36.186 20.5822 36.1587 20.2015 36.0458 19.9681C35.8834 19.632 35.608 19.4183 35.24 19.3427C35.0074 19.295 34.8226 19.2959 34.6096 19.3458ZM0.348007 19.5858V19.8153H0.668173H0.98834V20.7195V21.6237L1.24587 21.616L1.50339 21.6082L1.51071 20.7118L1.51806 19.8153H1.83898H2.1599L2.1518 19.5929L2.14372 19.3705L1.24587 19.3634L0.348007 19.3562V19.5858ZM2.97816 19.3897C2.97059 19.4088 2.96766 19.9158 2.97165 20.5163L2.97894 21.6082L3.23647 21.616L3.49399 21.6237V21.1374V20.6511H3.96728H4.44057V21.1364V21.6217H4.70536H4.97015L4.96289 20.4961L4.95562 19.3705H4.70506H4.45449L4.44681 19.7816L4.43912 20.1928H3.96728H3.49544L3.48775 19.7816L3.48007 19.3705L3.23602 19.3627C3.05636 19.3569 2.98832 19.3641 2.97816 19.3897ZM6.02748 20.4893V21.6217H6.82094H7.61439V21.3925V21.1633H7.0715H6.52861V20.9342V20.705H7.01582H7.50303V20.4759V20.2467H7.01582H6.52861V20.0445V19.8423H7.04366H7.55871V19.5996V19.357H6.7931H6.02748V20.4893ZM12.57 20.4893V21.6217H12.8206H13.0711V21.1364V20.6511H13.5584H14.0456V21.1364V21.6217H14.2961H14.5467V20.4893V19.357H14.2961H14.0456V19.7749V20.1928H13.5584H13.0711V19.7749V19.357H12.8206H12.57V20.4893ZM16.3364 19.3896C16.3135 19.4174 15.4727 21.3254 15.3791 21.562L15.3547 21.6236L15.6391 21.6159L15.9234 21.6082L15.9983 21.4196C16.1195 21.1141 16.0776 21.1363 16.5306 21.1368C16.7486 21.137 16.9404 21.1461 16.9567 21.157C16.973 21.1679 17.0277 21.2769 17.0782 21.3993L17.17 21.6217H17.4583C17.7003 21.6217 17.7441 21.6153 17.7309 21.5821C17.7223 21.5604 17.5 21.0538 17.237 20.4565L16.7587 19.3705L16.5619 19.3626C16.4261 19.3572 16.3561 19.3656 16.3364 19.3896ZM18.5689 19.3897C18.5613 19.4088 18.5584 19.9158 18.5624 20.5163L18.5697 21.6082L19.2865 21.6154L20.0034 21.6226V21.393V21.1633H19.5444H19.0855L19.0781 20.2669L19.0708 19.3705L18.8267 19.3627C18.6471 19.3569 18.579 19.3641 18.5689 19.3897ZM20.8518 19.3897C20.8442 19.4088 20.8413 19.9158 20.8453 20.5163L20.8526 21.6082L21.1104 21.616L21.3682 21.6237L21.361 20.4971L21.3537 19.3705L21.1097 19.3627C20.93 19.3569 20.862 19.3641 20.8518 19.3897ZM22.3328 19.375C22.3226 19.3848 22.3142 19.488 22.3142 19.6041V19.8153H22.8571C23.1557 19.8153 23.4 19.821 23.4 19.828C23.4 19.835 23.1494 20.135 22.8432 20.4947L22.2864 21.1487V21.3856V21.6224L23.1842 21.6153L24.0821 21.6082L24.0902 21.3858L24.0983 21.1633H23.5264C23.2119 21.1633 22.9545 21.154 22.9545 21.1426C22.9545 21.1311 23.1983 20.8308 23.4962 20.4753L24.0378 19.8288L24.0391 19.5929L24.0403 19.357H23.1958C22.7313 19.357 22.343 19.3651 22.3328 19.375ZM25.0065 19.374C24.9957 19.3844 24.9869 19.8944 24.9869 20.5073V21.6217H25.2517H25.5165L25.5092 20.4961L25.502 19.3705L25.264 19.3628C25.1331 19.3585 25.0172 19.3636 25.0065 19.374ZM31.1675 20.4893V21.6217H31.4181H31.6686V21.1768V20.732H31.7878H31.907L32.1428 21.1763L32.3786 21.6206L32.6779 21.6211C32.8425 21.6214 32.9766 21.6126 32.9758 21.6015C32.9751 21.5903 32.8515 21.3811 32.7011 21.1364L32.4277 20.6915L32.514 20.6552C32.7712 20.5469 32.8929 20.3529 32.8933 20.0504C32.8937 19.845 32.8447 19.7054 32.7321 19.5904C32.5525 19.4072 32.3192 19.3583 31.6199 19.3575L31.1675 19.357V20.4893ZM37.0806 19.3952C37.0718 19.4174 37.0689 19.791 37.0742 20.2253C37.0836 21.0106 37.084 21.0159 37.156 21.1646C37.256 21.3709 37.3796 21.4984 37.5658 21.5869C37.7098 21.6554 37.7514 21.6621 38.0302 21.6621C38.3014 21.6621 38.354 21.6541 38.4897 21.5925C38.6842 21.5041 38.8136 21.3788 38.9049 21.1905C38.9767 21.0421 38.9768 21.0415 38.9849 20.1995L38.993 19.357H38.7428H38.4927L38.4842 20.1321C38.4759 20.8856 38.4739 20.91 38.412 21.0064C38.237 21.2788 37.8182 21.2712 37.6609 20.9927C37.6193 20.9191 37.6107 20.8004 37.5987 20.1389L37.5848 19.3705L37.3407 19.3627C37.1445 19.3564 37.0935 19.3628 37.0806 19.3952ZM40.0486 20.4893V21.6217H40.2992H40.5498V21.1944V20.7672L40.8769 20.751C41.5009 20.7202 41.7143 20.562 41.7413 20.11C41.7558 19.8674 41.7204 19.7415 41.6005 19.6092C41.4197 19.4099 41.1919 19.3584 40.4871 19.3575L40.0486 19.357V20.4893ZM32.1262 19.8134C32.292 19.8398 32.3647 19.9138 32.3647 20.0562C32.3647 20.1287 32.3451 20.1742 32.2938 20.2209C32.231 20.278 32.1913 20.2866 31.9458 20.2961L31.6686 20.3069V20.0656C31.6686 19.9329 31.677 19.8162 31.6872 19.8063C31.712 19.7824 31.9555 19.7863 32.1262 19.8134ZM35.2633 19.8636C35.5196 19.9933 35.6404 20.2333 35.616 20.564C35.5957 20.8389 35.4754 21.0275 35.2462 21.144C35.0843 21.2261 34.7912 21.2237 34.6103 21.1387C34.181 20.9369 34.104 20.2648 34.4741 19.9494C34.6213 19.8239 34.7095 19.7941 34.9437 19.7908C35.0798 19.7889 35.1448 19.8037 35.2633 19.8636ZM40.9471 19.8127C41.122 19.8406 41.218 19.9273 41.218 20.0576C41.218 20.1705 41.1439 20.2628 41.0293 20.2928C40.9876 20.3038 40.8658 20.313 40.7586 20.3134L40.5637 20.3141L40.5555 20.0872C40.5511 19.9624 40.5538 19.8441 40.5616 19.8243C40.5776 19.7839 40.7363 19.7791 40.9471 19.8127ZM16.6782 20.4152L16.7961 20.705H16.5347H16.2733L16.3448 20.523C16.3842 20.423 16.4425 20.2743 16.4745 20.1928C16.5085 20.1061 16.5384 20.0613 16.5464 20.0849C16.554 20.1072 16.6133 20.2558 16.6782 20.4152Z" fill="white"/>
</svg>
