<svg width="97" height="17" viewBox="0 0 97 17" fill="none" xmlns="http://www.w3.org/2000/svg">
<path d="M75.6426 9.36171H76.7018C76.7451 9.36171 76.8315 9.31795 76.9613 9.23039C77.0692 9.16473 77.1771 9.12093 77.3068 9.12093C77.4151 9.12093 77.5444 9.20849 77.7174 9.33985C77.8904 9.47117 78.0201 9.55873 78.128 9.55873C78.3009 9.55873 78.4521 9.42741 78.5818 9.18663C78.7115 8.94585 78.8413 8.81449 78.971 8.81449C79.1007 8.81449 79.1872 8.90205 79.2519 9.07717C79.2951 9.18663 79.3383 9.36171 79.3602 9.64629C79.4034 9.90898 79.4462 10.106 79.4895 10.1935C79.5546 10.3686 79.6624 10.4343 79.7922 10.4343C79.9433 10.4343 80.0516 10.2592 80.1163 9.95274C80.1595 9.75576 80.2028 9.42741 80.2246 8.92395C80.246 8.42048 80.2893 8.09214 80.3325 7.91702C80.3972 7.61058 80.5055 7.45735 80.6352 7.45735C80.7649 7.45735 80.8728 7.67624 80.9593 8.11404C81.0025 8.37672 81.0458 8.85829 81.089 9.53683C81.1323 10.2373 81.1755 10.7189 81.1969 10.9597C81.262 11.3974 81.3485 11.5945 81.4778 11.6163C81.5861 11.6163 81.694 11.3099 81.7591 10.7189C81.8023 10.3248 81.867 9.66819 81.9102 8.74883C81.9749 7.7638 82.0181 7.08525 82.0614 6.75691C82.1264 6.16588 82.2129 5.85944 82.2994 5.85944C82.4073 5.85944 82.4719 6.27535 82.537 7.06335C82.5803 7.50116 82.6235 8.37672 82.6668 9.73385C82.71 10.9815 82.7746 11.879 82.8179 12.3825C82.8825 13.1924 82.9909 13.5864 83.1206 13.5864C83.2503 13.5864 83.3364 13.0829 83.4229 12.076C83.4661 11.4193 83.5312 10.3248 83.5744 8.77073C83.6391 7.10715 83.6823 5.99076 83.7042 5.46544C83.7688 4.45853 83.8553 3.95508 83.9418 3.95508C84.0497 3.95508 84.1362 4.34909 84.2012 5.1371C84.2445 5.59676 84.3091 6.47233 84.3738 7.7638C84.4389 9.03341 84.5035 9.90898 84.5467 10.3905C84.6332 11.1785 84.7197 11.5945 84.8276 11.5945C84.9359 11.5945 85.0224 11.3755 85.0871 10.9159C85.1303 10.6532 85.1736 10.1498 85.2386 9.40551C85.3033 8.68317 85.3465 8.1797 85.3898 7.89516C85.4544 7.43545 85.5627 7.19467 85.6706 7.19467C85.865 7.19467 86.0166 7.63248 86.1245 8.52994C86.1895 9.05527 86.2328 9.36171 86.2542 9.47117C86.3188 9.77761 86.3839 9.93083 86.4486 9.95274C86.5569 9.99654 86.6648 9.90898 86.7513 9.73385C86.881 9.51497 86.9889 9.40551 87.054 9.36171H87.9831" stroke="white" stroke-width="1.05333" stroke-linecap="round" stroke-linejoin="round"/>
<path d="M12.6001 4.52506L9.89857 13.5872H8.38571L6.44064 6.91097L4.51719 13.5872H3.00436L0.28125 4.52506H2.05343L3.69594 11.4421L5.70585 4.52506H7.15385L9.18536 11.4421L10.8279 4.52506H12.6001ZM19.2349 11.2013V9.18747H18.1543C15.8419 9.18747 14.6964 9.82225 14.6964 11.0918C14.6964 11.5515 14.8693 11.9017 15.1935 12.1644C15.5393 12.4052 15.9931 12.5365 16.555 12.5365C17.0737 12.5365 17.5924 12.4271 18.0679 12.1863C18.565 11.9455 18.954 11.6172 19.2349 11.2013ZM19.2349 12.6679C18.4137 13.434 17.3763 13.8061 16.1012 13.8061C15.2151 13.8061 14.4803 13.5653 13.8968 13.0838C13.3133 12.6022 13.0323 11.9674 13.0323 11.2013C13.0323 9.07801 14.8261 8.02736 18.4353 8.02736H19.2349C19.2349 7.37067 19.1917 6.91097 19.1269 6.62643C19.062 6.31998 18.8675 6.0792 18.565 5.88218C18.2624 5.6852 17.7653 5.59764 17.0953 5.59764C15.669 5.59764 14.9558 6.1011 14.8909 7.12989H13.3133C13.4213 5.26929 14.718 4.32805 17.1818 4.32805C18.3272 4.32805 19.2349 4.56884 19.8617 5.02851C20.51 5.48818 20.8342 6.38564 20.8342 7.74277V13.6091H19.2349V12.6679ZM30.1273 4.52506L26.7343 13.5872H25.3079L21.9148 4.52506H23.6438L26.0211 11.6172L28.3984 4.52506H30.1273ZM35.0116 13.8061C33.6933 13.8061 32.6343 13.3902 31.8347 12.5584C31.035 11.7267 30.646 10.5446 30.646 9.05615C30.646 7.56765 31.035 6.40754 31.8131 5.57574C32.5911 4.72206 33.6068 4.30616 34.8604 4.30616C36.1355 4.30616 37.1512 4.72206 37.9076 5.55384C38.6641 6.38564 39.0531 7.54579 39.0531 9.05615V9.45015H32.3102C32.375 10.5008 32.6559 11.2669 33.153 11.7923C33.6501 12.2957 34.2769 12.5584 35.0116 12.5584C35.5735 12.5584 36.0706 12.4052 36.5245 12.1207C36.9783 11.8361 37.216 11.4202 37.2377 10.8948H38.8802C38.7505 11.8361 38.3399 12.5584 37.6267 13.0619C36.9135 13.5653 36.049 13.8061 35.0116 13.8061ZM37.3673 8.18058C37.2377 7.30501 36.9567 6.64833 36.5029 6.23242C36.049 5.79462 35.5087 5.57574 34.8388 5.57574C34.212 5.57574 33.6501 5.79462 33.1962 6.23242C32.7424 6.67019 32.4614 7.30501 32.3318 8.18058H37.3673ZM42.3813 5.79462V13.6091H40.8037V5.79462H39.4853V4.52506H40.8037V3.71515C40.8037 1.7889 41.6465 0.847656 43.3108 0.847656C43.8293 0.847656 44.2185 0.891435 44.4993 0.957103V2.35802C44.1752 2.29235 43.8725 2.27046 43.5266 2.27046C43.1378 2.27046 42.857 2.37991 42.6622 2.5988C42.4677 2.81769 42.3813 3.18981 42.3813 3.73704V4.52506H44.0887V5.79462H42.3813ZM48.6489 4.32805C49.924 4.32805 50.9395 4.74395 51.6961 5.57574C52.4526 6.40754 52.8414 7.56765 52.8414 9.078C52.8414 10.5884 52.4526 11.7485 51.6961 12.5803C50.9395 13.4121 49.924 13.828 48.6489 13.828C47.3735 13.828 46.3579 13.4121 45.6014 12.5803C44.8453 11.7485 44.4561 10.5884 44.4561 9.078C44.4561 7.56765 44.8453 6.40754 45.6014 5.57574C46.3579 4.72206 47.3735 4.32805 48.6489 4.32805ZM48.6489 12.5365C49.405 12.5365 50.0319 12.252 50.5075 11.6609C50.9828 11.07 51.2204 10.1944 51.2204 9.05615C51.2204 7.896 50.9828 7.02043 50.5075 6.4513C50.0319 5.86032 49.4269 5.57574 48.6489 5.57574C47.8924 5.57574 47.2656 5.86032 46.7904 6.4513C46.3147 7.04233 46.0771 7.896 46.0771 9.05615C46.0771 10.2163 46.3147 11.07 46.7904 11.6609C47.2874 12.252 47.8924 12.5365 48.6489 12.5365ZM58.9793 5.99164C58.7631 5.92598 58.439 5.88218 58.007 5.88218C57.1853 5.88218 56.4939 6.31998 55.9322 7.17365V13.5872H54.3326V4.52506H55.9322V5.79462C56.6018 4.80962 57.3801 4.32805 58.266 4.32805C58.4822 4.32805 58.7417 4.34994 59.0007 4.39372V5.99164H58.9793ZM71.8815 13.5872H70.2824V7.72087C70.2824 6.97667 70.1745 6.4294 69.9583 6.12296C69.7421 5.79462 69.3961 5.6414 68.8776 5.6414C68.0997 5.6414 67.3431 6.12296 66.6084 7.08609V13.5872H65.0521V7.72087C65.0521 6.97667 64.9442 6.4294 64.728 6.12296C64.5118 5.79462 64.1444 5.6414 63.6474 5.6414C62.8694 5.6414 62.1129 6.12296 61.3782 7.08609V13.5872H59.7791V4.52506H61.3782V5.6852C62.1347 4.78773 62.9773 4.32805 63.885 4.32805C65.2037 4.32805 66.0249 4.87529 66.3922 5.96974C66.9972 5.24739 67.4943 4.80962 67.9049 4.61261C68.3155 4.41561 68.7265 4.32805 69.1371 4.32805C70.9738 4.32805 71.8815 5.44442 71.8815 7.67711V13.5872Z" fill="white"/>
<path d="M12.5998 4.5252L12.8159 4.59087L12.9023 4.3063H12.6214V4.5252H12.5998ZM9.89825 13.5874V13.8063H10.0496L10.0928 13.653L9.89825 13.5874ZM8.38543 13.5874L8.16931 13.653L8.21255 13.8063H8.36381V13.5874H8.38543ZM6.44036 6.93304L6.65649 6.86734L6.44036 6.14499L6.22423 6.86734L6.44036 6.93304ZM4.51691 13.5874V13.8063H4.66817L4.71142 13.653L4.51691 13.5874ZM2.98245 13.5874L2.76633 13.653L2.80955 13.8063H2.96083V13.5874H2.98245ZM0.280955 4.5252V4.3063H0L0.0864476 4.59087L0.280955 4.5252ZM2.05313 4.5252L2.26925 4.48142L2.22603 4.3063H2.05313V4.5252ZM3.69564 11.4422L3.47952 11.486L3.67403 12.274L3.91176 11.486L3.69564 11.4422ZM5.72715 4.5252V4.3063H5.57589L5.53265 4.45953L5.72715 4.5252ZM7.17515 4.5252L7.39128 4.45953L7.34808 4.3063H7.19677V4.5252H7.17515ZM9.20671 11.4422L8.99058 11.5079L9.22829 12.2959L9.42279 11.5079L9.20671 11.4422ZM10.8492 4.5252V4.3063H10.6763L10.6331 4.48142L10.8492 4.5252ZM12.3836 4.45953L9.70374 13.5436L10.1144 13.6749L12.8159 4.61276L12.3836 4.45953ZM9.89825 13.3685H8.38543V13.8063H9.89825V13.3685ZM8.60156 13.5436L6.65649 6.86734L6.24585 6.9987L8.19093 13.6749L8.60156 13.5436ZM6.24585 6.86734L4.30078 13.5436L4.71142 13.6749L6.63487 6.9987L6.24585 6.86734ZM4.51691 13.3685H3.00406V13.8063H4.51691V13.3685ZM3.19857 13.5436L0.497075 4.45953L0.0864476 4.59087L2.78794 13.653L3.19857 13.5436ZM0.280955 4.74409H2.05313V4.3063H0.280955V4.74409ZM1.83702 4.56897L3.47952 11.486L3.89015 11.3765L2.24764 4.45953L1.83702 4.56897ZM3.91176 11.5079L5.92166 4.59087L5.51103 4.45953L3.50114 11.3765L3.91176 11.5079ZM5.72715 4.74409H7.17515V4.3063H5.72715V4.74409ZM6.95906 4.59087L8.99058 11.5079L9.40121 11.3765L7.36966 4.45953L6.95906 4.59087ZM9.40121 11.486L11.0437 4.56897L10.6331 4.45953L8.99058 11.3765L9.40121 11.486ZM10.8492 4.74409H12.5998V4.3063H10.8492V4.74409ZM19.2346 11.2014L19.4075 11.3328L19.4507 11.2671V11.2014H19.2346ZM19.2346 9.2095H19.4507V8.99062H19.2346V9.2095ZM15.1932 12.1864L15.0635 12.3616L15.1932 12.1864ZM19.2346 12.668H19.4507V12.1645L19.0833 12.5148L19.2346 12.668ZM13.9181 13.0839L13.7884 13.259L13.9181 13.0839ZM19.2346 8.00559V8.22447H19.4507V8.00559H19.2346ZM19.1266 6.6047L18.9104 6.64846L19.1266 6.6047ZM14.8906 7.10812V7.32704H15.1067V7.10812H14.8906ZM13.3129 7.10812L13.0969 7.08626L13.0752 7.32704H13.3129V7.10812ZM20.8339 13.5874V13.8063H21.05V13.5874H20.8339ZM19.2346 13.5874H19.0185V13.8063H19.2346V13.5874ZM19.4507 11.2014V9.1876H19.0185V11.2014H19.4507ZM19.2346 8.99062H18.154V9.42838H19.2346V8.99062ZM18.154 8.99062C16.987 8.99062 16.0793 9.14384 15.4525 9.49408C15.1284 9.66916 14.8906 9.88808 14.7177 10.1726C14.5448 10.4572 14.48 10.7637 14.48 11.1139H14.9122C14.9122 10.8293 14.9771 10.5885 15.1067 10.3915C15.2364 10.1945 15.4093 10.0194 15.6686 9.86618C16.1873 9.58164 17.0302 9.40652 18.154 9.40652V8.99062ZM14.48 11.1139C14.48 11.6392 14.6745 12.0551 15.0851 12.3616L15.3445 12.0113C15.0419 11.7924 14.9122 11.5079 14.9122 11.1139H14.48ZM15.0635 12.3616C15.4525 12.6461 15.9496 12.7775 16.5547 12.7775V12.3397C16.0145 12.3397 15.6038 12.2302 15.3229 12.0113L15.0635 12.3616ZM16.5547 12.7556C17.1166 12.7556 17.657 12.6242 18.1757 12.3835L17.9812 11.9895C17.5273 12.2083 17.0518 12.3178 16.5547 12.3178V12.7556ZM18.1757 12.3835C18.6943 12.1208 19.105 11.7705 19.4075 11.3328L19.0617 11.092C18.8024 11.4641 18.4566 11.7705 17.9812 11.9895L18.1757 12.3835ZM19.0833 12.5148C18.3269 13.2371 17.3328 13.6092 16.1009 13.6092V14.047C17.4192 14.047 18.5214 13.653 19.3859 12.8431L19.0833 12.5148ZM16.1009 13.5874C15.258 13.5874 14.5665 13.3466 14.0478 12.9088L13.7668 13.2371C14.3935 13.7625 15.1716 14.0251 16.1009 14.0251V13.5874ZM14.0478 12.9088C13.5291 12.471 13.2697 11.9019 13.2697 11.1796H12.8375C12.8375 12.0113 13.1617 12.7118 13.7668 13.2371L14.0478 12.9088ZM13.2697 11.2014C13.2697 10.2164 13.6804 9.49408 14.5232 9.01252C15.3661 8.50905 16.6844 8.24637 18.4782 8.24637V7.80861C16.6628 7.80861 15.258 8.07125 14.3071 8.64037C13.3346 9.2095 12.8375 10.0851 12.8375 11.2233H13.2697V11.2014ZM18.4566 8.22447H19.2346V7.78671H18.4566V8.22447ZM19.4507 8.00559C19.4507 7.3489 19.4075 6.86734 19.3427 6.53899L18.9321 6.64846C18.9969 6.91114 19.0185 7.3708 19.0185 8.00559H19.4507ZM19.3427 6.5609C19.2562 6.18879 19.0185 5.90421 18.6727 5.68533L18.435 6.05743C18.7159 6.23255 18.8456 6.42958 18.9104 6.64846L19.3427 6.5609ZM18.6727 5.68533C18.3053 5.46645 17.765 5.35699 17.0734 5.35699V5.79479C17.7434 5.79479 18.1757 5.88235 18.435 6.05743L18.6727 5.68533ZM17.0951 5.35699C16.3602 5.35699 15.7767 5.48831 15.3661 5.77289C14.9339 6.07933 14.7177 6.51714 14.6961 7.10812L15.1284 7.13002C15.15 6.67036 15.3229 6.36391 15.6254 6.14499C15.9496 5.92611 16.4251 5.79479 17.1166 5.79479V5.35699H17.0951ZM14.8906 6.88924H13.3129V7.32704H14.8906V6.88924ZM13.5291 7.13002C13.5939 6.25445 13.9181 5.61967 14.5016 5.20376C15.0851 4.76598 15.9712 4.54709 17.1815 4.54709V4.1093C15.928 4.1093 14.9339 4.35009 14.2423 4.85354C13.5291 5.35699 13.1617 6.12313 13.0969 7.10812L13.5291 7.13002ZM17.1815 4.54709C18.3053 4.54709 19.1482 4.76598 19.7317 5.20376L19.9911 4.85354C19.2995 4.35009 18.3486 4.13119 17.1815 4.13119V4.54709ZM19.7317 5.18186C20.2936 5.57587 20.5962 6.38577 20.5962 7.72105H21.0284C21.0284 6.34201 20.7043 5.35699 19.9694 4.83165L19.7317 5.18186ZM20.6178 7.72105V13.5874H21.05V7.72105H20.6178ZM20.8339 13.3685H19.2346V13.8063H20.8123V13.3685H20.8339ZM19.4507 13.5874V12.668H19.0185V13.6092H19.4507V13.5874ZM30.127 4.5252L30.3216 4.61276L30.4296 4.3063H30.127V4.5252ZM26.734 13.5874V13.8063H26.8852L26.9285 13.6749L26.734 13.5874ZM25.3076 13.5874L25.1131 13.6749L25.1563 13.8063H25.3076V13.5874ZM21.9361 4.5252V4.3063H21.6119L21.72 4.61276L21.9361 4.5252ZM23.6434 4.5252L23.838 4.45953L23.7948 4.3063H23.6434V4.5252ZM26.0208 11.6173L25.8263 11.683L26.0208 12.2959L26.2153 11.683L26.0208 11.6173ZM28.3981 4.5252V4.3063H28.2468L28.2036 4.45953L28.3981 4.5252ZM29.9109 4.43764L26.5179 13.4998L26.9285 13.653L30.3216 4.59087L29.9109 4.43764ZM26.734 13.3685H25.3076V13.8063H26.734V13.3685ZM25.5237 13.5217L22.1306 4.45953L21.72 4.61276L25.1131 13.6749L25.5237 13.5217ZM21.9361 4.74409H23.6651V4.3063H21.9361V4.74409ZM23.4489 4.59087L25.8263 11.683L26.2369 11.5517L23.8596 4.45953L23.4489 4.59087ZM26.2369 11.683L28.6142 4.59087L28.2036 4.45953L25.8263 11.5517L26.2369 11.683ZM28.3981 4.74409H30.127V4.3063H28.3981V4.74409ZM31.8344 12.5585L31.6831 12.7118L31.8344 12.5585ZM31.7912 5.57587L31.6399 5.42265L31.7912 5.57587ZM37.8857 5.55401L37.7345 5.70723L37.8857 5.55401ZM39.0528 9.45028V9.66916H39.2689V9.45028H39.0528ZM32.2883 9.45028V9.2314H32.0505L32.0721 9.47218L32.2883 9.45028ZM33.1527 11.7924L33.0014 11.9457L33.1527 11.7924ZM36.5242 12.1208L36.6322 12.2959L36.5242 12.1208ZM37.2374 10.895V10.6761H37.0212V10.895H37.2374ZM38.8799 10.895L39.096 10.9169L39.1392 10.6761H38.9015V10.895H38.8799ZM37.6264 13.0401L37.4967 12.865L37.6264 13.0401ZM37.3671 8.18071V8.39959H37.6264L37.5831 8.15881L37.3671 8.18071ZM33.1959 6.23255L33.3472 6.38577L33.1959 6.23255ZM32.3315 8.18071L32.1154 8.15881L32.0721 8.39959H32.3315V8.18071ZM35.0114 13.5874C33.7362 13.5874 32.7421 13.1934 31.9857 12.4053L31.6831 12.7118C32.526 13.5874 33.6498 14.0251 35.0114 14.0251V13.5874ZM32.0073 12.4053C31.2509 11.6173 30.8618 10.5229 30.8618 9.05628H30.4296C30.4296 10.5885 30.8403 11.8143 31.6831 12.7118L32.0073 12.4053ZM30.8618 9.05628C30.8618 7.61158 31.2293 6.51714 31.9641 5.72909L31.6399 5.42265C30.8186 6.32011 30.4296 7.52402 30.4296 9.05628H30.8618ZM31.9641 5.72909C32.6988 4.94108 33.6498 4.5252 34.8385 4.5252V4.08741C33.5417 4.08741 32.4611 4.5252 31.6399 5.42265L31.9641 5.72909ZM34.8385 4.54709C36.0703 4.54709 37.0212 4.94108 37.7345 5.70723L38.0587 5.40079C37.259 4.5252 36.1784 4.08741 34.8385 4.08741V4.54709ZM37.7345 5.70723C38.4477 6.47333 38.8151 7.58968 38.8151 9.05628H39.2473C39.2473 7.50212 38.8583 6.27635 38.037 5.40079L37.7345 5.70723ZM38.8367 9.05628V9.45028H39.2689V9.05628H38.8367ZM39.0528 9.2314H32.3098V9.66916H39.0528V9.2314ZM32.0937 9.47218C32.1586 10.5448 32.4611 11.3984 33.0014 11.9457L33.304 11.6392C32.8502 11.1796 32.5692 10.4572 32.5043 9.45028L32.0937 9.47218ZM33.0014 11.9457C33.5417 12.4929 34.2333 12.7775 35.0114 12.7775V12.3397C34.3198 12.3397 33.7579 12.0989 33.304 11.6392L33.0014 11.9457ZM35.0114 12.7556C35.6165 12.7556 36.1568 12.6023 36.6322 12.2959L36.3945 11.9238C35.9839 12.1864 35.53 12.3178 35.0114 12.3178V12.7556ZM36.6322 12.2959C37.1509 11.9676 37.4103 11.486 37.4319 10.895L36.9996 10.8731C36.978 11.3328 36.7835 11.683 36.3945 11.9238L36.6322 12.2959ZM37.2374 11.1139H38.8799V10.6761H37.2374V11.1139ZM38.6637 10.8512C38.5557 11.7268 38.1667 12.4053 37.4967 12.865L37.7345 13.2152C38.5125 12.668 38.9447 11.9019 39.0744 10.895L38.6637 10.8512ZM37.4967 12.865C36.8267 13.3466 36.0055 13.5874 35.0114 13.5874V14.0251C36.0703 14.0251 36.9781 13.7625 37.7345 13.2152L37.4967 12.865ZM37.5831 8.15881C37.4535 7.26134 37.1509 6.5609 36.6539 6.07933L36.3513 6.40767C36.7619 6.80168 37.0212 7.3927 37.1509 8.24637L37.5831 8.15881ZM36.6539 6.05743C36.1568 5.57587 35.5516 5.35699 34.86 5.35699V5.79479C35.4652 5.79479 35.9623 5.99177 36.3729 6.38577L36.6539 6.05743ZM34.8385 5.35699C34.1469 5.35699 33.5417 5.59777 33.0447 6.05743L33.3472 6.38577C33.7579 5.99177 34.2549 5.79479 34.8385 5.79479V5.35699ZM33.0447 6.05743C32.5476 6.53899 32.245 7.23948 32.1154 8.13695L32.5476 8.20261C32.6773 7.3489 32.9366 6.75792 33.3472 6.36391L33.0447 6.05743ZM32.3315 8.39959H37.3671V7.96183H32.3315V8.39959ZM42.381 5.79479V5.57587H42.1649V5.79479H42.381ZM42.381 13.5874V13.8063H42.5971V13.5874H42.381ZM40.8033 13.5874H40.5872V13.8063H40.8033V13.5874ZM40.8033 5.79479H41.0195V5.57587H40.8033V5.79479ZM39.485 5.79479H39.2689V6.01367H39.485V5.79479ZM39.485 4.5252V4.3063H39.2689V4.5252H39.485ZM40.8033 4.5252V4.74409H41.0195V4.5252H40.8033ZM44.4991 0.957245H44.7153V0.782131L44.5423 0.738353L44.4991 0.957245ZM44.4991 2.35816L44.4558 2.57705L44.7153 2.62083V2.35816H44.4991ZM42.662 2.59894L42.4891 2.44572L42.662 2.59894ZM42.381 4.5252H42.1649V4.74409H42.381V4.5252ZM44.0885 4.5252H44.3047V4.3063H44.0885V4.5252ZM44.0885 5.79479V6.01367H44.3047V5.79479H44.0885ZM42.1649 5.79479V13.6092H42.5971V5.79479H42.1649ZM42.381 13.3685H40.8033V13.8063H42.381V13.3685ZM41.0195 13.5874V5.79479H40.5872V13.6092H41.0195V13.5874ZM40.8033 5.57587H39.485V6.01367H40.8033V5.57587ZM39.7011 5.79479V4.5252H39.2689V5.79479H39.7011ZM39.485 4.74409H40.8033V4.3063H39.485V4.74409ZM41.0195 4.5252V3.7153H40.5872V4.5252H41.0195ZM41.0195 3.7153C41.0195 2.79594 41.214 2.13927 41.5814 1.70148C41.9488 1.28558 42.5107 1.06669 43.3105 1.06669V0.628906C42.4243 0.628906 41.7327 0.891578 41.2788 1.41692C40.8033 1.94226 40.5872 2.73028 40.5872 3.7153H41.0195ZM43.3105 1.06669C43.8076 1.06669 44.1964 1.11047 44.4558 1.15425L44.5637 0.738353C44.2614 0.672685 43.8508 0.628906 43.3319 0.628906V1.06669H43.3105ZM44.2828 0.957245V2.35816H44.7153V0.957245H44.2828ZM44.5423 2.13927C44.2182 2.0736 43.8722 2.05171 43.5481 2.05171V2.48949C43.8722 2.48949 44.1749 2.51139 44.4772 2.57705L44.5423 2.13927ZM43.5263 2.05171C43.0943 2.05171 42.7484 2.18304 42.4891 2.46761L42.8133 2.75217C42.9427 2.59894 43.1808 2.48949 43.5263 2.48949V2.05171ZM42.5107 2.46761C42.2729 2.75217 42.1865 3.18995 42.1865 3.75907H42.6188C42.6188 3.23373 42.7052 2.92728 42.8348 2.77406L42.5107 2.46761ZM42.1649 3.73718V4.5252H42.5971V3.73718H42.1649ZM42.381 4.74409H44.0885V4.3063H42.381V4.74409ZM43.8722 4.5252V5.79479H44.3047V4.5252H43.8722ZM44.0885 5.57587H42.381V6.01367H44.0885V5.57587ZM51.7172 5.55401L51.5661 5.70723L51.7172 5.55401ZM51.7172 12.5804L51.5661 12.4272L51.7172 12.5804ZM45.6011 12.5804L45.45 12.7337L45.6011 12.5804ZM45.6011 5.55401L45.45 5.40079L45.6011 5.55401ZM50.5072 11.683L50.6802 11.8143L50.5072 11.683ZM50.5072 6.45148L50.3343 6.5828L50.5072 6.45148ZM46.8115 6.45148L46.9844 6.5828L46.8115 6.45148ZM46.8115 11.683L46.6385 11.8143L46.8115 11.683ZM48.6487 4.54709C49.8804 4.54709 50.8314 4.94108 51.5446 5.70723L51.8688 5.40079C51.069 4.5252 49.9883 4.08741 48.6487 4.08741V4.54709ZM51.5446 5.70723C52.2575 6.47333 52.6253 7.58968 52.6253 9.05628H53.0573C53.0573 7.50212 52.6681 6.27635 51.8469 5.40079L51.5446 5.70723ZM52.6467 9.05628C52.6467 10.5229 52.2793 11.6392 51.5661 12.4053L51.8902 12.7118C52.7113 11.8362 53.1005 10.5885 53.1005 9.05628H52.6467ZM51.5446 12.4272C50.8314 13.1934 49.8804 13.5874 48.6487 13.5874V14.0251C49.9669 14.0251 51.0476 13.5874 51.8688 12.7118L51.5446 12.4272ZM48.6487 13.5874C47.4165 13.5874 46.4655 13.1934 45.7527 12.4272L45.4281 12.7337C46.2497 13.6092 47.33 14.047 48.6487 14.047V13.5874ZM45.7527 12.4272C45.0394 11.6392 44.672 10.5448 44.672 9.07818H44.2396C44.2396 10.6104 44.6288 11.8581 45.4281 12.7337L45.7527 12.4272ZM44.672 9.05628C44.672 7.58968 45.0394 6.47333 45.7527 5.70723L45.4281 5.40079C44.6288 6.27635 44.2396 7.50212 44.2396 9.05628H44.672ZM45.7527 5.70723C46.4655 4.94108 47.4383 4.54709 48.6487 4.54709V4.1093C47.33 4.1093 46.2497 4.54709 45.4281 5.42265L45.7527 5.70723ZM48.6487 12.7556C49.4698 12.7556 50.1399 12.4272 50.6584 11.8143L50.3343 11.5298C49.9018 12.0551 49.3401 12.3178 48.6487 12.3178V12.7556ZM50.6802 11.8143C51.1987 11.1796 51.4363 10.2383 51.4363 9.07818H51.0043C51.0043 10.1945 50.7663 11.0263 50.3343 11.5517L50.6802 11.8143ZM51.4363 9.05628C51.4363 7.87427 51.1987 6.9549 50.6802 6.32011L50.3557 6.6047C50.7881 7.13002 51.0257 7.93993 51.0257 9.07818H51.4363V9.05628ZM50.6802 6.32011C50.1613 5.68533 49.4913 5.35699 48.6701 5.35699V5.79479C49.3615 5.79479 49.9237 6.05743 50.3557 6.6047L50.6802 6.32011ZM48.6487 5.35699C47.827 5.35699 47.1574 5.68533 46.6385 6.32011L46.9626 6.6047C47.395 6.07933 47.9568 5.79479 48.6487 5.79479V5.35699ZM46.6385 6.32011C46.12 6.9549 45.882 7.87427 45.882 9.05628H46.3144C46.3144 7.91803 46.552 7.10812 46.9844 6.5828L46.6385 6.32011ZM45.882 9.05628C45.882 10.2383 46.12 11.1577 46.6385 11.7924L46.9626 11.5079C46.5306 10.9825 46.293 10.1726 46.293 9.03438H45.882V9.05628ZM46.6385 11.8143C47.1574 12.4491 47.827 12.7556 48.6487 12.7556V12.3178C47.9568 12.3178 47.395 12.0551 46.9626 11.5298L46.6385 11.8143ZM58.979 5.99177L58.9143 6.21065L59.1952 6.29821V6.01367H58.979V5.99177ZM55.9319 7.17382L55.7589 7.04246L55.7157 7.10812V7.17382H55.9319ZM55.9319 13.5874V13.8063H56.1477V13.5874H55.9319ZM54.3323 13.5874H54.1161V13.8063H54.3323V13.5874ZM54.3323 4.5252V4.3063H54.1161V4.5252H54.3323ZM55.9319 4.5252H56.1477V4.3063H55.9319V4.5252ZM55.9319 5.79479H55.7157V6.49524L56.1044 5.92611L55.9319 5.79479ZM58.979 4.39386H59.1952V4.21875L59.0222 4.19686L58.979 4.39386ZM59.0436 5.79479C58.7846 5.70723 58.4387 5.68533 58.0062 5.68533V6.12313C58.4173 6.12313 58.7195 6.16689 58.9143 6.21065L59.0436 5.79479ZM58.0062 5.66343C57.0986 5.66343 56.3425 6.14499 55.7371 7.04246L56.1044 7.28324C56.6666 6.47333 57.2934 6.07933 58.0062 6.07933V5.66343ZM55.7157 7.17382V13.5874H56.1477V7.17382H55.7157ZM55.9319 13.3685H54.3323V13.8063H55.9319V13.3685ZM54.5485 13.5874V4.5252H54.1161V13.5874H54.5485ZM54.3323 4.74409H55.9319V4.3063H54.3323V4.74409ZM55.7157 4.5252V5.79479H56.1477V4.5252H55.7157ZM56.1044 5.90421C56.7531 4.96298 57.4663 4.5252 58.2657 4.5252V4.08741C57.2934 4.08741 56.4504 4.63464 55.7589 5.64157L56.1044 5.90421ZM58.2657 4.54709C58.4819 4.54709 58.6981 4.56897 58.9576 4.61276L59.0222 4.17497C58.7628 4.13119 58.5033 4.1093 58.2657 4.1093V4.54709ZM58.7628 4.39386V5.99177H59.1952V4.39386H58.7628ZM71.8812 13.5874V13.8063H72.0974V13.5874H71.8812ZM70.3035 13.5874H70.0877V13.8063H70.3035V13.5874ZM66.6296 7.10812L66.4566 6.9768L66.4133 7.04246V7.10812H66.6296ZM66.6296 13.5874V13.8063H66.8458V13.5874H66.6296ZM65.0518 13.5874H64.8356V13.8063H65.0518V13.5874ZM61.3779 7.10812L61.2049 6.9768L61.1617 7.04246V7.10812H61.3779ZM61.3779 13.5874V13.8063H61.5941V13.5874H61.3779ZM59.7788 13.5874H59.5626V13.8063H59.7788V13.5874ZM59.7788 4.5252V4.3063H59.5626V4.5252H59.7788ZM61.3779 4.5252H61.5941V4.3063H61.3779V4.5252ZM61.3779 5.68533H61.1617V6.27635L61.5509 5.81665L61.3779 5.68533ZM66.3919 5.96987L66.1976 6.03557L66.3269 6.40767L66.5649 6.10123L66.3919 5.96987ZM67.9046 4.61276L67.9911 4.80976L67.9046 4.61276ZM71.8812 13.3685H70.2821V13.8063H71.8812V13.3685ZM70.5197 13.5874V7.72105H70.0877V13.5874H70.5197ZM70.5197 7.72105C70.5197 6.9549 70.4118 6.36392 70.1524 5.99177L69.785 6.23255C69.958 6.49524 70.0659 6.9768 70.0659 7.72105H70.5197ZM70.1524 5.99177C69.8929 5.59777 69.4391 5.42265 68.8987 5.42265V5.86045C69.3526 5.86045 69.6339 5.99177 69.785 6.23255L70.1524 5.99177ZM68.8987 5.42265C68.0343 5.42265 67.2131 5.96987 66.4566 6.9549L66.8025 7.21758C67.5372 6.27635 68.2287 5.83855 68.8987 5.83855V5.42265ZM66.4133 7.10812V13.6092H66.8458V7.10812H66.4133ZM66.6296 13.3685H65.0518V13.8063H66.6296V13.3685ZM65.268 13.5874V7.72105H64.8356V13.5874H65.268ZM65.268 7.72105C65.268 6.9549 65.1602 6.36392 64.9007 5.99177L64.5333 6.23255C64.7063 6.49524 64.8142 6.9768 64.8142 7.72105H65.268ZM64.9007 5.99177C64.6412 5.59777 64.1874 5.42265 63.6471 5.42265V5.86045C64.1009 5.86045 64.3818 6.01367 64.5547 6.23255L64.9007 5.99177ZM63.6471 5.42265C62.7827 5.42265 61.9615 5.96987 61.2049 6.9549L61.5509 7.21758C62.2642 6.27635 62.977 5.83855 63.6471 5.83855V5.42265ZM61.1617 7.10812V13.6092H61.5941V7.10812H61.1617ZM61.3779 13.3685H59.7788V13.8063H61.3779V13.3685ZM59.9946 13.5874V4.5252H59.5626V13.5874H59.9946ZM59.7788 4.74409H61.3779V4.3063H59.7788V4.74409ZM61.1617 4.5252V5.68533H61.5941V4.5252H61.1617ZM61.5509 5.81665C62.2856 4.94108 63.0635 4.5252 63.8847 4.5252V4.08741C62.8905 4.08741 62.0047 4.59087 61.2049 5.53211L61.5509 5.81665ZM63.8847 4.54709C64.5115 4.54709 65.0086 4.67842 65.3759 4.91922C65.7437 5.16001 66.0246 5.53211 66.1757 6.03557L66.5863 5.90421C66.3919 5.31323 66.0678 4.85354 65.5922 4.56897C65.1383 4.26253 64.5548 4.13119 63.8633 4.13119V4.54709H63.8847ZM66.5649 6.10123C67.1485 5.40079 67.6456 4.98488 68.0129 4.80976L67.8399 4.41575C67.3861 4.63464 66.8458 5.1162 66.2408 5.81665L66.5649 6.10123ZM68.0129 4.80976C68.4017 4.63464 68.7908 4.54709 69.1368 4.54709V4.1093C68.7044 4.1093 68.2719 4.21875 67.8181 4.41575L68.0129 4.80976ZM69.1368 4.54709C70.0012 4.54709 70.628 4.80976 71.0386 5.31323C71.4492 5.81665 71.6868 6.5828 71.6868 7.67724H72.1193C72.1193 6.53899 71.8812 5.64157 71.3841 5.02864C70.8656 4.41575 70.1091 4.1093 69.1582 4.1093V4.54709H69.1368ZM71.665 7.65534V13.5874H72.0974V7.65534H71.665Z" fill="white"/>
</svg>
