<svg width="104" height="17" viewBox="0 0 104 17" fill="none" xmlns="http://www.w3.org/2000/svg">
<path d="M72.5424 6.0957H70.5254V16.584H80.2069V14.9704H72.5424V6.0957Z" fill="white"/>
<path fill-rule="evenodd" clip-rule="evenodd" d="M84.3435 0H90.2281L93.1704 4.27974L96.3802 0H102.532L96.3802 8.02451L103.335 16.584H96.3802L93.1704 12.3043L90.2281 16.584H83.541L90.2281 8.02451L84.3435 0ZM95.5776 9.36133L93.9727 11.2337L97.1825 14.9785H100.392L95.5776 9.36133Z" fill="white"/>
<path d="M56.4064 6.0957H45.1113V7.70929H49.9521V16.584H51.9691V7.70929H56.4064V6.0957Z" fill="white"/>
<path d="M42.6908 6.0957H40.6738V16.584H42.6908V6.0957Z" fill="white"/>
<path d="M9.61208 7.70929V9.72626H11.2257V6.90249C11.2257 6.25706 10.8924 6.0957 10.7257 6.0957H1.14078C0.495343 6.0957 0.333984 6.63356 0.333984 6.90249V15.7772C0.333984 16.4226 0.871845 16.584 1.14078 16.584H10.4189C11.0643 16.584 11.2257 16.0461 11.2257 15.7772V12.9534H9.61208V14.567C9.61208 14.8897 9.34315 14.9704 9.20869 14.9704H2.35096C2.02825 14.9704 1.94757 14.7015 1.94757 14.567V7.70929C1.94757 7.38657 2.2165 7.30589 2.35096 7.30589H9.20869C9.5314 7.30589 9.61208 7.57482 9.61208 7.70929Z" fill="white"/>
<path fill-rule="evenodd" clip-rule="evenodd" d="M12.8398 16.584L18.8908 6.0957H20.5044L26.3536 16.584H24.1349L22.5213 13.7602H16.6721L15.0585 16.584H12.8398ZM16.873 12.347L19.4951 8.11133L22.1172 12.347H16.873Z" fill="white"/>
<path fill-rule="evenodd" clip-rule="evenodd" d="M55.1953 16.584L61.2462 6.0957H62.8598L68.7091 16.584H66.4904L64.8768 13.7602H59.0276L57.414 16.584H55.1953ZM59.2285 12.3489L61.8506 8.11328L64.4727 12.3489H59.2285Z" fill="white"/>
<path fill-rule="evenodd" clip-rule="evenodd" d="M27.7656 6.0957V16.3823H29.7826V12.1466H37.4471C37.985 12.1466 39.0607 11.9046 39.0607 10.9364V7.30589C39.0607 6.90249 38.6976 6.0957 37.2454 6.0957H27.7656ZM29.7832 7.30469V10.9352H36.6409C37.0443 10.9352 37.8511 10.7824 37.8511 10.1709V7.87793C37.8511 7.68685 37.6898 7.30469 37.0443 7.30469H29.7832Z" fill="white"/>
</svg>
