<svg width="70" height="21" viewBox="0 0 70 21" fill="none" xmlns="http://www.w3.org/2000/svg">
<path fill-rule="evenodd" clip-rule="evenodd" d="M25.1816 12.0245V19.0118H26.7012H28.2207V16.7086C28.2207 14.4455 28.2289 14.3944 28.6948 13.7683L29.1687 13.1311L30.6786 16.0637L32.1883 18.9964L33.9188 19.0041C34.8707 19.0084 35.6494 18.9758 35.6494 18.9316C35.6494 18.8463 32.3382 12.8059 31.6814 11.6932L31.2919 11.0329L33.1535 8.40502C34.1775 6.95954 35.1287 5.61057 35.2673 5.40703L35.5194 5.03711H33.6845H31.8494L30.0773 7.90785L28.3051 10.7787L28.259 7.90785L28.2129 5.03711H26.6973H25.1816V12.0245ZM48.8185 6.2128C48.4935 6.30059 47.9428 6.44478 47.5944 6.53323L46.9613 6.69385V7.75626V8.8185H46.3704H45.7795V10.0516V11.2846H46.3537H46.9279L46.9873 14.1207C47.0412 16.6988 47.0827 17.0282 47.4433 17.7421C47.9806 18.8058 48.4487 19.0118 50.3296 19.0118H51.8575V17.7788V16.5457H51.1918C50.1254 16.5457 50.0003 16.231 50.0003 13.5497V11.2846H51.0133H52.0264V10.0516V8.8185H51.0133H50.0003V7.42103C50.0003 5.87395 50.0155 5.8894 48.8185 6.2128ZM56.0784 6.2128C55.7534 6.30059 55.2026 6.44478 54.8543 6.53323L54.2212 6.69385V7.75626V8.8185H53.6303H53.0394V10.0516V11.2846H53.609H54.1787L54.257 14.1207C54.3441 17.2675 54.4864 17.8245 55.3931 18.5674C55.8986 18.9816 56.0438 19.0118 57.5265 19.0118H59.1174V17.7788V16.5457H58.4517C57.3853 16.5457 57.2602 16.231 57.2602 13.5497V11.2846H58.2807H59.3011L59.2515 10.0927L59.2018 8.90071L58.231 8.85139L57.2602 8.80206V7.41281C57.2602 5.87493 57.2747 5.88973 56.0784 6.2128ZM38.5971 9.04325C37.0072 9.76418 35.9786 11.4747 35.8517 13.6084C35.7169 15.8761 36.4524 17.59 37.9594 18.5207C38.7342 18.9992 38.8093 19.0118 40.8912 19.0118C42.0663 19.0118 43.267 18.9306 43.5595 18.8313C44.1539 18.6296 44.1867 18.4755 43.9057 17.2C43.7553 16.5168 43.668 16.3793 43.4415 16.4693C43.2881 16.5302 42.5127 16.6189 41.7185 16.666C40.0563 16.765 39.3719 16.5339 38.9445 15.7291C38.8037 15.4637 38.6884 15.2079 38.6884 15.1602C38.6884 15.1127 39.9991 15.0535 41.6008 15.0289L44.5132 14.9838L44.4936 13.3397C44.4718 11.503 44.2616 10.8504 43.3754 9.86743C42.2556 8.62549 40.2728 8.28336 38.5971 9.04325ZM63.6749 8.79812C61.6006 9.45986 60.3626 11.1197 60.1789 13.4854C60.0041 15.7348 61.0288 17.8712 62.6744 18.6886C63.5961 19.1466 66.2817 19.1516 67.186 18.697C68.0667 18.2542 68.9964 17.2642 69.4381 16.2991C69.975 15.1257 69.9765 12.7074 69.4413 11.5403C68.548 9.59221 67.3962 8.7894 65.384 8.7123C64.6768 8.68517 63.9076 8.72381 63.6749 8.79812ZM40.9506 10.9782C41.3205 11.1423 41.8963 12.1317 41.8963 12.6032C41.8963 12.6971 41.227 12.7643 40.2923 12.7643C38.5268 12.7643 38.4482 12.7071 38.9407 11.7797C39.4117 10.8928 40.1208 10.6101 40.9506 10.9782ZM65.6142 11.1191C66.4935 11.4444 66.9843 13.549 66.6083 15.3802C66.4551 16.1258 65.6824 16.8745 65.0661 16.8745C63.8988 16.8745 63.28 15.7945 63.3013 13.7945C63.316 12.4177 63.6879 11.4862 64.3513 11.1651C64.8657 10.9159 65.0477 10.9093 65.6142 11.1191Z" fill="white"/>
<path fill-rule="evenodd" clip-rule="evenodd" d="M15.2634 0.0968923C15.2634 0.168981 15.182 0.412674 15.0826 0.638379C14.848 1.17125 14.1145 1.91731 13.2335 2.51925C10.6349 4.29487 9.84742 4.92383 9.14918 5.78151C8.51056 6.56587 8.023 7.54789 7.87505 8.34743L7.80277 8.73818L7.40468 8.43279C6.6526 7.85594 5.94386 7.61334 5.15436 7.66245C4.54928 7.70014 4.10378 7.9071 3.62342 8.3737C3.30774 8.68031 2.91868 9.18295 2.91868 9.28404C2.91868 9.30688 3.04869 9.31448 3.20758 9.30087C3.65924 9.26229 3.92288 9.3456 4.19974 9.61446C4.51352 9.91916 4.66019 10.2202 4.86509 10.9801C6.10975 15.5967 10.948 17.5939 19.3042 16.9402C20.2817 16.8638 20.9752 16.7684 20.6614 16.7536C20.3261 16.7376 18.5887 16.3985 17.8088 16.1967C16.3055 15.8077 14.6466 15.1511 13.5635 14.5166C13.269 14.344 13.0123 14.1589 12.9931 14.105C12.9443 13.9684 13.0772 13.4381 13.2733 12.9874C13.5215 12.4167 14.406 11.5115 15.518 10.6901C16.9665 9.62014 17.5509 8.89918 17.6505 8.05928L17.687 7.7515L17.5961 8.0086C17.4778 8.34333 17.3958 8.44387 17.0821 8.63907C16.7053 8.87346 16.0897 9.05129 14.7187 9.32173C13.242 9.61295 12.5227 9.82689 11.8754 10.1674C11.2706 10.4854 11.2966 10.5314 11.3028 9.15361C11.3118 7.15728 11.78 5.98841 13.508 3.64839C14.3698 2.48143 14.7526 1.87326 15.0078 1.26598C15.1914 0.828997 15.3665 0.0765105 15.3008 0.00599477C15.2803 -0.016097 15.2635 0.0248035 15.2634 0.0968923ZM4.46796 14.6512C4.39255 14.7752 4.17779 14.9849 3.99071 15.1169C3.80356 15.2491 3.44187 15.5037 3.18702 15.6828C2.93211 15.862 2.59428 16.1475 2.43635 16.3172C2.15286 16.6219 1.83692 17.189 1.83692 17.393C1.83692 17.5332 1.7948 17.5264 1.42846 17.3266C0.944789 17.0629 0.523984 17.1143 0.166558 17.4808C-0.0516396 17.7045 -0.0552032 17.8027 0.154404 17.8158C0.396718 17.8308 0.542056 18.0114 0.68873 18.4796C1.11768 19.8485 2.21681 20.5378 4.24486 20.71C5.01787 20.7756 6.62702 20.7163 6.71776 20.6187C6.73984 20.5951 6.66908 20.5756 6.56052 20.5756C6.057 20.5756 4.82684 20.2011 4.17849 19.8504L3.75202 19.6197L3.82233 19.3966C3.94056 19.0215 4.10722 18.8245 4.70537 18.3526C5.24905 17.9237 5.52687 17.5892 5.52738 17.3629C5.52757 17.2925 5.50021 17.3044 5.43658 17.402C5.3326 17.5615 5.07489 17.6555 4.31816 17.8098C4.02577 17.8694 3.64925 17.9742 3.48145 18.0428L3.17646 18.1673L3.1379 17.9463C3.08362 17.6353 3.20452 17.0055 3.39803 16.5914C3.48833 16.3983 3.75794 15.9615 3.9972 15.6208C4.44307 14.986 4.65968 14.5945 4.62475 14.4865C4.61386 14.453 4.5433 14.5271 4.46796 14.6512Z" fill="#44C0B2"/>
</svg>
