<svg width="119" height="60" viewBox="0 0 119 60" fill="none" xmlns="http://www.w3.org/2000/svg">
    <path d="M95.8878 20.8496H0V38.7212H95.8878V20.8496Z" fill="#003F7F"/>
    <path d="M119 0H0V17.8716H119V0Z" fill="#003F7F"/>
    <path d="M61.2199 41.7012H0V59.5728H61.2199V41.7012Z" fill="#007FBF"/>
    <path d="M12.6526 49.3931V56.5941H10.0798V55.052C9.72997 56.0862 8.95964 56.7169 7.31467 56.7169C4.37497 56.7169 2.41504 54.4742 2.41504 50.4618C2.41504 46.4494 4.44478 44.2949 7.71728 44.2949C10.4297 44.2949 12.267 45.6961 12.6169 48.3418H9.43207C9.25675 47.2556 8.7145 46.905 7.71728 46.905C6.31745 46.905 5.59988 47.9038 5.59988 50.4618C5.59988 53.0027 6.24763 54.1064 7.64747 54.1064C8.74981 54.1064 9.39717 53.4758 9.55464 52.0043H7.48999V49.3935H12.6526V49.3931Z" fill="white"/>
    <path d="M19.4231 54.2631H22.8876V56.5935H14.75V54.2631H16.6401V49.9882H14.75V47.6578H19.4231V49.3047C20.0879 48.0958 21.3831 47.4473 23.8852 47.4473V50.2865C19.458 49.9882 19.4231 51.1098 19.4231 53.3874V54.2631Z" fill="white"/>
    <path d="M35.5207 52.0903C35.5207 54.9295 33.4561 56.804 30.6738 56.804C27.8908 56.804 25.8262 54.9295 25.8262 52.0903C25.8262 49.3047 27.8908 47.4473 30.6738 47.4473C33.4561 47.4473 35.5207 49.3047 35.5207 52.0903ZM28.6262 52.0903C28.6262 53.5276 29.4485 54.4736 30.656 54.4736C31.8809 54.4736 32.7036 53.5276 32.7036 52.0903C32.7036 50.7066 31.8805 49.7777 30.656 49.7777C29.4481 49.7777 28.6262 50.7066 28.6262 52.0903Z" fill="white"/>
    <path d="M46.6492 56.594H43.867V55.2624C43.3069 56.3315 42.3275 56.8045 40.9793 56.8045C38.8968 56.8045 37.7246 55.368 37.7246 53.248V47.6582H40.5068V52.5117C40.5068 53.6682 41.1197 54.3164 41.9943 54.3164C43.0618 54.3164 43.8666 53.6329 43.8666 52.1436V47.6582H46.6488V56.594H46.6492Z" fill="white"/>
    <path d="M58.688 52.161C58.688 54.9466 57.0081 56.804 54.6107 56.804C53.613 56.804 52.598 56.4887 51.9153 55.5951H51.8982V59.5721H49.1152V47.6578H51.8982V48.7968H51.9332C52.598 47.8853 53.5075 47.4473 54.6626 47.4473C56.9728 47.4473 58.688 49.3575 58.688 52.161ZM55.8701 52.1431C55.8701 50.7066 55.0648 49.7777 53.8582 49.7777C52.6329 49.7777 51.8106 50.7066 51.8106 52.1082V52.2309C51.8276 53.5796 52.6329 54.4736 53.8582 54.4736C55.0827 54.4736 55.8701 53.5447 55.8701 52.1431Z" fill="white"/>
    <path d="M6.0904 26.439V28.8397H12.1447V31.4676H6.0904V35.7425H3.02734V23.8281H12.5473V26.439H6.0904Z" fill="white"/>
    <path d="M23.9904 31.2387C23.9904 34.0779 21.9258 35.9525 19.1436 35.9525C16.3605 35.9525 14.2959 34.0779 14.2959 31.2387C14.2959 28.4532 16.3605 26.5957 19.1436 26.5957C21.9258 26.5957 23.9904 28.4532 23.9904 31.2387ZM17.096 31.2387C17.096 32.676 17.9183 33.622 19.1257 33.622C20.3506 33.622 21.1733 32.676 21.1733 31.2387C21.1733 29.8551 20.3502 28.9262 19.1257 28.9262C17.9183 28.9262 17.096 29.8551 17.096 31.2387Z" fill="white"/>
    <path d="M35.1189 35.7424H32.3367V34.4108C31.7766 35.4799 30.7973 35.9529 29.449 35.9529C27.3665 35.9529 26.1943 34.5164 26.1943 32.3965V26.8066H28.9766V31.6602C28.9766 32.8167 29.5894 33.4648 30.4641 33.4648C31.5315 33.4648 32.3363 32.7813 32.3363 31.292V26.8066H35.1185V35.7424H35.1189Z" fill="white"/>
    <path d="M46.6848 30.1529V35.742H43.9018V30.8885C43.9018 29.732 43.2889 29.0838 42.4143 29.0838C41.3468 29.0838 40.542 29.7673 40.542 31.2566V35.742H37.7598V26.8062H40.542V28.1378C41.1021 27.0691 42.0822 26.5957 43.4297 26.5957C45.5118 26.5957 46.6848 28.0326 46.6848 30.1529Z" fill="white"/>
    <path d="M48.7822 31.2393C48.7822 28.4537 50.4621 26.5962 52.8604 26.5962C53.858 26.5962 54.8722 26.9116 55.5549 27.8051H55.5728V23.8281H58.355V35.7425H55.5728V34.6035H55.5379C54.8722 35.5149 53.9627 35.953 52.8076 35.953C50.4978 35.953 48.7822 34.0427 48.7822 31.2393ZM51.6001 31.2571C51.6001 32.6936 52.4054 33.6225 53.6128 33.6225C54.8377 33.6225 55.6604 32.6936 55.6604 31.2921V31.1694C55.6426 29.8207 54.8373 28.9267 53.6128 28.9267C52.3871 28.9267 51.6001 29.8556 51.6001 31.2571Z" fill="white"/>
    <path d="M60.4873 31.2916C60.4873 28.5759 62.4123 26.5957 65.352 26.5957C68.2925 26.5957 69.9545 28.6108 69.9545 31.537V31.9572H63.4099V31.9751C63.5147 33.0962 64.2322 33.7269 65.335 33.7269C66.21 33.7269 66.7697 33.3766 67.0498 32.8857H69.8847C69.3425 34.4977 68.0474 35.9525 65.4924 35.9525C62.3945 35.9525 60.4873 34.0072 60.4873 31.2916ZM67.1374 30.3805C67.0319 29.3467 66.3849 28.6986 65.335 28.6986C64.3199 28.6986 63.6202 29.3471 63.4448 30.3805H67.1374Z" fill="white"/>
    <path d="M77.0761 33.4115H80.5409V35.742H72.4033V33.4115H74.2934V29.1366H72.4033V26.8062H77.0764V28.4532C77.7413 27.2442 79.0364 26.5957 81.5386 26.5957V29.4349C77.1114 29.1366 77.0764 30.2582 77.0764 32.5358V33.4115H77.0761Z" fill="white"/>
    <path d="M88.3623 28.5943C87.417 28.5943 86.7871 28.8755 86.7871 29.4184C86.7871 29.9093 87.3123 30.0141 88.0473 30.119L90.112 30.3823C91.5118 30.5578 92.8771 31.2762 92.8771 32.9582C92.8771 34.8148 91.1973 35.9193 88.5019 35.9193C85.5622 35.9193 83.8823 34.6226 83.7598 32.6075H86.5249C86.5947 33.4137 87.3472 33.8513 88.5368 33.8513C89.5519 33.8513 90.112 33.5539 90.112 33.063C90.112 32.7477 89.8847 32.4844 89.0969 32.3974L87.137 32.152C85.3524 31.9236 84.022 31.223 84.022 29.5232C84.022 27.6837 85.632 26.6328 88.2219 26.6328C90.9172 26.6328 92.6142 27.7714 92.7895 29.6289H90.0422C89.9017 28.8576 89.1322 28.5943 88.3623 28.5943Z" fill="white"/>
    <path d="M12.6691 11.5986C12.6691 13.6316 11.0769 14.8929 8.83695 14.8929H2.97461V2.97852H8.52199C10.7092 2.97852 12.3542 4.11793 12.3542 6.06236C12.3542 7.51671 11.4093 8.30504 9.86907 8.72522C11.5839 9.0763 12.6691 9.91666 12.6691 11.5986ZM6.03688 7.67437H7.68185C8.76674 7.67437 9.34389 7.34117 9.34389 6.55283C9.34389 5.78157 8.80164 5.43129 7.75167 5.43129H6.03688V7.67437ZM9.64178 11.1784C9.64178 10.3543 9.06384 10.0044 7.92699 10.0044H6.03688V12.4227H7.75167C8.97697 12.4227 9.64178 12.0366 9.64178 11.1784Z" fill="white"/>
    <path d="M24.2181 12.5625V14.8929H14.3125V12.5625H17.8127V5.30897H14.8024V2.97852H20.5775V12.5625H24.2181Z" fill="white"/>
    <path d="M35.5207 10.3891C35.5207 13.2283 33.4561 15.1029 30.6738 15.1029C27.8908 15.1029 25.8262 13.2283 25.8262 10.3891C25.8262 7.60355 27.8908 5.74609 30.6738 5.74609C33.4561 5.74609 35.5207 7.60355 35.5207 10.3891ZM28.6262 10.3891C28.6262 11.8264 29.4485 12.7724 30.656 12.7724C31.8809 12.7724 32.7036 11.8264 32.7036 10.3891C32.7036 9.00547 31.8805 8.07655 30.656 8.07655C29.4481 8.07655 28.6262 9.00547 28.6262 10.3891Z" fill="white"/>
    <path d="M42.3965 15.1029C39.5615 15.1029 37.4961 13.1227 37.4961 10.3891C37.4961 7.67344 39.5615 5.74609 42.3787 5.74609C44.8987 5.74609 46.9114 7.27034 46.9812 9.461H44.1641C44.0236 8.61984 43.4112 8.07655 42.3965 8.07655C41.1192 8.07655 40.314 8.9876 40.314 10.3891C40.314 11.8264 41.1192 12.7724 42.3965 12.7724C43.3763 12.7724 44.0585 12.2295 44.1811 11.2482H46.9812C46.9292 13.5258 44.9336 15.1029 42.3965 15.1029Z" fill="white"/>
    <path d="M54.0315 11.2137H52.0894V14.8929H49.3242V2.97852H52.0894V8.88329H53.9795L55.6066 5.95711H58.9315L56.3587 9.93453L59.2115 14.8929H55.8688L54.0315 11.2137Z" fill="white"/>
    <path d="M65.4571 15.1029C62.6221 15.1029 60.5566 13.1227 60.5566 10.3891C60.5566 7.67344 62.6221 5.74609 65.4392 5.74609C67.9592 5.74609 69.9719 7.27034 70.0417 9.461H67.2246C67.0842 8.61984 66.4717 8.07655 65.4571 8.07655C64.1798 8.07655 63.3746 8.9876 63.3746 10.3891C63.3746 11.8264 64.1798 12.7724 65.4571 12.7724C66.4368 12.7724 67.1191 12.2295 67.2417 11.2482H70.0417C69.989 13.5258 67.9941 15.1029 65.4571 15.1029Z" fill="white"/>
    <path d="M81.2922 9.30387V14.8929H78.51V10.0394C78.51 8.88289 77.8971 8.23475 77.0225 8.23475C75.955 8.23475 75.1502 8.91824 75.1502 10.4075V14.8929H72.3672V2.97852H75.1502V7.28874C75.7103 6.22002 76.6897 5.74663 78.0379 5.74663C80.1022 5.74663 81.2922 7.1839 81.2922 9.30387Z" fill="white"/>
    <path d="M83.373 10.3886C83.373 7.60305 85.2104 5.72852 87.6086 5.72852C88.6233 5.72852 89.6035 6.06172 90.1457 6.9549H90.1636V5.95608H92.9458V14.8919H90.1636V13.7529H90.1287C89.6205 14.6643 88.711 15.1024 87.5559 15.1024C85.2461 15.1024 83.373 13.1921 83.373 10.3886ZM86.191 10.4065C86.191 11.843 86.9962 12.7719 88.2036 12.7719C89.4286 12.7719 90.2504 11.843 90.2504 10.4415V10.3187C90.2334 8.97002 89.4282 8.07605 88.2036 8.07605C86.9779 8.07605 86.191 9.00497 86.191 10.4065Z" fill="white"/>
    <path d="M115.867 9.30333V14.8924H113.084V10.0388C113.084 8.88236 112.472 8.23422 111.597 8.23422C110.529 8.23422 109.725 8.9177 109.725 10.407V14.8924H106.942V5.95658H109.725V7.28821C110.285 6.21949 111.265 5.74609 112.612 5.74609C114.694 5.74609 115.867 7.18337 115.867 9.30333Z" fill="white"/>
    <path d="M104.826 12.5624V14.8928H95.2012V12.5624H98.6311V8.28749H95.7434V5.95703H101.414V12.5624H104.826Z" fill="white"/>
    <path d="M101.414 1.48828H98.6309V4.46688H101.414V1.48828Z" fill="white"/>
</svg>
