<svg width="194" height="41" viewBox="0 0 194 41" fill="none" xmlns="http://www.w3.org/2000/svg">
    <path d="M41.0083 7.77453V33.2206C41.0083 33.3302 41.0083 33.4398 41.0083 33.5494C41.0083 33.5724 41.0083 33.5955 41.0083 33.6167C41.0083 33.7205 40.9948 33.8224 40.9871 33.9262C40.9871 33.9358 40.9871 33.9435 40.9871 33.9493C40.9871 34.0358 40.9698 34.1223 40.9583 34.2089C40.9592 34.2178 40.9592 34.2268 40.9583 34.2358C40.9546 34.2823 40.9482 34.3285 40.9391 34.3742C40.9256 34.48 40.9064 34.5857 40.8852 34.6915C40.8641 34.7972 40.8468 34.8838 40.8237 34.9895C40.8006 35.0953 40.7756 35.1953 40.7468 35.2972C40.7405 35.3141 40.7354 35.3314 40.7314 35.3491C40.7083 35.4337 40.6833 35.5183 40.6526 35.601C40.643 35.6394 40.6295 35.6779 40.618 35.7144C40.593 35.7952 40.5622 35.874 40.5314 35.9528C40.4068 36.2876 40.2591 36.6134 40.0892 36.9277C40.0354 37.0238 39.9815 37.12 39.9239 37.2142C39.8662 37.3084 39.8066 37.4064 39.7431 37.5026C39.6797 37.5987 39.6431 37.6506 39.5912 37.7237C39.5701 37.7525 39.5489 37.7833 39.5278 37.8102C39.4778 37.8814 39.422 37.9544 39.3682 38.0237L39.3239 38.0775C39.2605 38.1582 39.197 38.2352 39.1317 38.3121C38.9106 38.5659 38.6743 38.806 38.4241 39.0312C38.3414 39.1062 38.2568 39.1792 38.1703 39.2485C38.0838 39.3177 37.9992 39.385 37.9126 39.4407L37.8972 39.4504C37.8088 39.5157 37.7184 39.5811 37.6261 39.6426C37.5338 39.7042 37.4339 39.7695 37.3416 39.8349C37.2493 39.9003 37.1493 39.9522 37.0493 40.008C36.9493 40.0637 36.8839 40.0983 36.7993 40.1406L36.7147 40.1849L36.459 40.3041H36.4379C36.334 40.3521 36.2283 40.3964 36.1225 40.4367H36.1091C36.0206 40.4694 35.9322 40.504 35.8418 40.5348C35.7091 40.5829 35.5745 40.6252 35.438 40.6636C35.338 40.6963 35.2342 40.7232 35.1304 40.7482C35.0265 40.7732 34.9035 40.8001 34.7881 40.8232C34.6727 40.8463 34.5555 40.8674 34.4401 40.8847C34.3247 40.9021 34.2171 40.9194 34.1036 40.929C34.0267 40.929 33.9536 40.9444 33.8767 40.9501H33.8344C33.7421 40.9597 33.6421 40.9636 33.5575 40.9674C33.4576 40.9674 33.3653 40.9674 33.2576 40.9674H9.14404C9.45938 35.0722 15.1373 27.781 15.1373 27.781L14.1644 26.8062L15.5757 25.4372L17.0351 26.8965L19.4213 25.9217L20.8691 27.3657L23.2341 24.7988L28.9525 18.6036H28.9621L30.8849 16.5174C32.0759 15.2503 33.096 13.8327 33.919 12.3007C34.7256 10.8175 35.3266 9.23143 35.7053 7.5861C35.7891 7.26777 35.7903 6.93334 35.7089 6.61439C35.6275 6.29545 35.4661 6.00253 35.24 5.76331L38.7298 2.27539C39.4528 2.99695 40.0263 3.85414 40.4173 4.79782C40.8083 5.74149 41.0091 6.75307 41.0083 7.77453Z" fill="#008941"/>
    <path d="M38.7301 2.27465L35.2402 5.76257C35.0015 5.5357 34.7085 5.37394 34.3893 5.2928C34.0702 5.21166 33.7355 5.21386 33.4174 5.29918C30.0693 6.08693 26.9904 7.74977 24.4957 10.1177L22.4038 12.0404L16.2086 17.7665L13.6359 20.1392L15.0837 21.5851L14.107 23.9751L15.5664 25.4364L14.1647 26.8381L13.2033 25.8767C13.2033 25.8767 5.90056 31.5566 0.00148091 31.8643V7.77572C0.00148091 7.6642 0.00148091 7.55268 0.00148091 7.44116C-0.000493638 7.41941 -0.000493637 7.39753 0.00148091 7.37578C0.00148091 7.26811 0.0130176 7.16043 0.0245542 7.0566C0.0245542 6.96815 0.0399364 6.8797 0.0533959 6.79126C0.0523323 6.78167 0.0523323 6.772 0.0533959 6.76242C0.0533959 6.72012 0.0649325 6.67974 0.0707009 6.63744C0.0860831 6.52976 0.103388 6.42593 0.124539 6.32018C0.145689 6.21442 0.164917 6.11252 0.18799 6.01253C0.211064 5.91255 0.23606 5.80487 0.266824 5.70489C0.266824 5.68566 0.276438 5.66836 0.280284 5.65105C0.309125 5.55491 0.337967 5.45877 0.368731 5.36456C0.368731 5.33764 0.386036 5.31264 0.39565 5.28572C0.422569 5.20112 0.451411 5.11652 0.486021 5.03384L0.51294 4.99346C0.545627 4.90886 0.576391 4.82618 0.612924 4.7435C0.628306 4.71081 0.639843 4.67813 0.655225 4.64736C0.689835 4.56276 0.728291 4.48008 0.768669 4.39932V4.37817C0.818661 4.27434 0.870576 4.17244 0.926337 4.07437C0.982097 3.97631 1.03593 3.8821 1.09362 3.77634C1.1513 3.67059 1.21283 3.58407 1.27436 3.48985C1.33589 3.39563 1.37434 3.33795 1.42626 3.26681C1.64373 2.96284 1.88209 2.67437 2.13961 2.40348C2.20883 2.32849 2.27997 2.25735 2.35496 2.18813C2.42995 2.11891 2.51455 2.03431 2.59723 1.96316V1.95355C2.66837 1.8901 2.74144 1.82857 2.8145 1.76127L2.89526 1.72474C2.97025 1.66129 3.04908 1.59976 3.12599 1.53246H3.14138C3.22598 1.46901 3.31058 1.40941 3.39518 1.35172L3.43171 1.3248C3.50863 1.27289 3.58554 1.22482 3.66437 1.17675C3.7432 1.12868 3.88164 1.04408 3.99124 0.984472C4.10084 0.924865 4.15468 0.894101 4.23928 0.8518L4.33542 0.80373C4.40228 0.767559 4.47095 0.734829 4.54116 0.705669C4.6296 0.665291 4.71805 0.624912 4.8065 0.590302C4.89495 0.555692 4.96609 0.524928 5.04877 0.496086C5.18721 0.442248 5.32565 0.394179 5.46986 0.349955L5.65252 0.294195L5.8448 0.244202L5.98132 0.211515C6.04477 0.196133 6.1063 0.180751 6.17359 0.169214C6.19063 0.164253 6.20797 0.1604 6.22551 0.157677C6.28896 0.146141 6.35241 0.132681 6.41779 0.123067C6.53892 0.0942258 6.65429 0.0749981 6.77927 0.0596158L6.92348 0.0403881C7.00936 0.0314151 7.09589 0.023724 7.18305 0.0173147C7.28111 0.0173147 7.37533 0.00193253 7.47916 9.75468e-06C7.57722 9.75468e-06 7.67144 9.75468e-06 7.77719 9.75468e-06H33.2271C34.2489 -0.00160991 35.261 0.198484 36.2053 0.588817C37.1496 0.97915 38.0076 1.55205 38.7301 2.27465Z" fill="#00D66B"/>
    <path d="M15.1381 27.8131C15.1381 27.8131 9.46009 35.1043 9.14476 40.9995H7.78343C5.7203 40.9985 3.74193 40.1786 2.2829 38.7199C0.823865 37.2612 0.0034815 35.2831 0.00195313 33.2199L0.00195312 31.8644C5.90103 31.5567 13.198 25.8711 13.198 25.8711L14.1594 26.8325L15.1381 27.8131Z" fill="white"/>
    <path d="M22.4036 12.0478L16.2084 17.7661L15.0586 17.1874L20.9135 11.8574L22.4036 12.0478Z" fill="url(#paint0_linear_816_120)"/>
    <path d="M20.9133 11.8569L15.0604 17.1869L9.0786 14.1623L5.42725 14.5546L10.9072 10.5879L20.9133 11.8569Z" fill="white"/>
    <path d="M29.1436 20.0878L23.8136 25.9407L23.2349 24.7948V24.7928L28.9551 18.5977L29.1436 20.0878Z" fill="url(#paint1_linear_816_120)"/>
    <path d="M29.1434 20.0898L23.8135 25.9428L26.8399 31.9245L26.4477 35.574L30.4144 30.094L29.1434 20.0898Z" fill="white"/>
    <path d="M35.7055 7.58531C35.3268 9.23064 34.7259 10.8168 33.9193 12.3C33.0932 13.8265 32.0734 15.2399 30.8851 16.5051L28.9623 18.5913L23.2344 24.798L20.8636 27.3649L19.4215 25.919L17.0315 26.8958L15.576 25.4344L14.1166 23.9751L15.0934 21.585L13.6455 20.1391L16.2086 17.7664L22.4038 12.0481L24.4977 10.1253C26.9923 7.75798 30.0702 6.09463 33.4174 5.30489C33.735 5.21181 34.0718 5.20593 34.3925 5.28786C34.7131 5.3698 35.0058 5.53652 35.2399 5.77055C35.4739 6.00457 35.6406 6.29727 35.7226 6.61793C35.8045 6.93859 35.7986 7.27539 35.7055 7.593V7.58531Z" fill="white"/>
    <path d="M28.9551 18.5977L23.2387 24.7928L23.2349 24.7948V24.7928L28.9551 18.5977Z" fill="white"/>
    <path d="M65.078 20.0566C66.0779 20.3129 66.8156 20.8135 67.2911 21.5582C67.7775 22.3422 68.0247 23.2509 68.0026 24.1732C68.0026 25.7114 67.4674 26.9664 66.397 27.938C65.3267 28.9097 63.8776 29.3974 62.0496 29.4013H54.3354V12.0078H60.5479C62.6361 12.0078 64.2627 12.3789 65.4279 13.1211C66.5932 13.8633 67.1751 15.0105 67.1738 16.5629C67.1941 17.3238 66.9937 18.0744 66.597 18.7241C66.2379 19.3123 65.708 19.7771 65.078 20.0566ZM57.6484 15.3208V18.6337H60.7614C62.8316 18.6337 63.8667 18.0812 63.8667 16.9763C63.8667 16.3353 63.6167 15.9002 63.1168 15.6707C62.6169 15.4413 61.8317 15.3246 60.7614 15.3208H57.6484ZM61.169 26.0883C63.5161 26.0883 64.6896 25.3288 64.6896 23.8098C64.7057 23.4671 64.6272 23.1265 64.4627 22.8254C64.2982 22.5242 64.0541 22.2741 63.7571 22.1024C63.1366 21.7178 62.274 21.5256 61.169 21.5256H57.6484V26.0806L61.169 26.0883Z" fill="white"/>
    <path d="M70.4863 11.1777H73.7993V29.3999H70.4863V11.1777Z" fill="white"/>
    <path d="M77.8738 18.1419C78.8296 17.1832 80.0486 16.5299 81.3762 16.265C82.7037 16 84.0801 16.1354 85.3306 16.6538C86.5812 17.1723 87.6495 18.0505 88.4002 19.1771C89.1509 20.3037 89.55 21.6278 89.547 22.9816C89.547 24.7939 88.8271 26.5321 87.5455 27.8136C86.264 29.0951 84.5259 29.8151 82.7135 29.8151C80.9011 29.8151 79.163 29.0951 77.8814 27.8136C76.5999 26.5321 75.8799 24.7939 75.8799 22.9816C75.8641 22.0814 76.0328 21.1876 76.3757 20.3553C76.7187 19.5229 77.2285 18.7696 77.8738 18.1419ZM80.2293 25.4677C80.5542 25.8005 80.9419 26.0654 81.37 26.2472C81.7981 26.429 82.258 26.524 82.7231 26.5268C83.1882 26.5296 83.6492 26.44 84.0794 26.2633C84.5096 26.0866 84.9005 25.8263 85.2293 25.4974C85.5582 25.1685 85.8185 24.7777 85.9952 24.3475C86.1719 23.9172 86.2615 23.4562 86.2587 22.9912C86.256 22.5261 86.1609 22.0662 85.9791 21.6381C85.7973 21.21 85.5324 20.8223 85.1996 20.4973C84.8747 20.1646 84.4869 19.8996 84.0589 19.7178C83.6308 19.536 83.1709 19.441 82.7058 19.4382C82.2407 19.4355 81.7797 19.525 81.3495 19.7017C80.9193 19.8784 80.5284 20.1388 80.1996 20.4676C79.8707 20.7965 79.6104 21.1874 79.4337 21.6176C79.2569 22.0478 79.1674 22.5088 79.1701 22.9739C79.1729 23.4389 79.2679 23.8989 79.4497 24.3269C79.6315 24.755 79.8965 25.1428 80.2293 25.4677Z" fill="white"/>
    <path d="M98.4477 26.5006C99.6552 26.5006 100.647 26.1122 101.424 25.3354L102.795 28.2869C101.743 29.3059 100.259 29.8148 98.3439 29.8135C96.1519 29.8135 94.4131 29.1624 93.1274 27.86C91.8417 26.5576 91.2008 24.931 91.2046 22.98C91.2046 21.0303 91.8513 19.4043 93.1447 18.1019C94.4381 16.7996 96.1692 16.1471 98.3381 16.1445C100.167 16.1445 101.651 16.6573 102.789 17.6828L101.418 20.6592C101.031 20.2675 100.568 19.9591 100.057 19.7531C99.546 19.5471 98.9984 19.4478 98.4477 19.4613C97.2569 19.4613 96.3032 19.7978 95.5866 20.4708C95.2474 20.795 94.9775 21.1846 94.7931 21.616C94.6086 22.0474 94.5136 22.5118 94.5136 22.981C94.5136 23.4502 94.6086 23.9145 94.7931 24.3459C94.9775 24.7774 95.2474 25.1669 95.5866 25.4911C96.3006 26.1641 97.2543 26.5006 98.4477 26.5006Z" fill="white"/>
    <path d="M111.486 22.774L118.112 29.3999H113.972L108.588 24.3084V29.3999H105.275V11.1777H108.588V21.4204L113.557 16.5615H117.698L111.486 22.774Z" fill="white"/>
    <path d="M123.082 19.2787C123.499 18.3263 124.23 17.5458 125.153 17.0675C126.178 16.5231 127.308 16.2081 128.466 16.1445V20.0516C127.653 19.8285 126.795 19.8285 125.982 20.0516C125.177 20.284 124.462 20.7586 123.936 21.411C123.367 22.093 123.082 22.9601 123.082 24.0125V29.3963H119.77V16.5618H123.082V19.2787Z" fill="white"/>
    <path d="M131.711 18.1419C132.667 17.1832 133.886 16.5299 135.214 16.265C136.541 16 137.917 16.1354 139.168 16.6538C140.419 17.1723 141.487 18.0505 142.238 19.1771C142.988 20.3037 143.387 21.6278 143.384 22.9816C143.384 24.7939 142.664 26.5321 141.383 27.8136C140.101 29.0951 138.363 29.8151 136.551 29.8151C134.739 29.8151 133 29.0951 131.719 27.8136C130.437 26.5321 129.717 24.7939 129.717 22.9816C129.701 22.0814 129.87 21.1876 130.213 20.3553C130.556 19.5229 131.066 18.7696 131.711 18.1419ZM134.067 25.4677C134.385 25.8275 134.773 26.1183 135.208 26.3221C135.643 26.5259 136.115 26.6384 136.595 26.6527C137.075 26.667 137.553 26.5827 138 26.4051C138.446 26.2275 138.851 25.9603 139.19 25.62C139.529 25.2797 139.795 24.8735 139.97 24.4266C140.146 23.9797 140.229 23.5014 140.213 23.0214C140.196 22.5414 140.082 22.0697 139.877 21.6356C139.671 21.2015 139.379 20.8141 139.018 20.4973C138.694 20.1587 138.306 19.8881 137.877 19.7015C137.447 19.5149 136.985 19.4161 136.516 19.4108C136.048 19.4055 135.583 19.4939 135.149 19.6707C134.716 19.8476 134.322 20.1093 133.991 20.4405C133.659 20.7718 133.398 21.1659 133.221 21.5997C133.045 22.0334 132.956 22.4981 132.962 22.9665C132.967 23.4348 133.066 23.8973 133.253 24.3269C133.44 24.7564 133.711 25.1443 134.049 25.4677H134.067Z" fill="white"/>
    <path d="M152.286 26.5006C153.493 26.5006 154.485 26.1122 155.262 25.3354L156.633 28.2869C155.581 29.3059 154.097 29.8148 152.182 29.8135C149.99 29.8135 148.251 29.1624 146.965 27.86C145.68 26.5576 145.039 24.931 145.042 22.98C145.042 21.0303 145.69 19.4043 146.984 18.1019C148.279 16.7996 150.01 16.1471 152.176 16.1445C154.005 16.1445 155.489 16.6573 156.627 17.6828L155.256 20.6592C154.869 20.2675 154.406 19.9591 153.895 19.7531C153.384 19.5471 152.836 19.4478 152.286 19.4613C151.093 19.4613 150.14 19.7978 149.425 20.4708C149.084 20.7941 148.813 21.1834 148.627 21.615C148.442 22.0465 148.346 22.5113 148.346 22.981C148.346 23.4506 148.442 23.9154 148.627 24.3469C148.813 24.7785 149.084 25.1678 149.425 25.4911C150.136 26.1641 151.09 26.5006 152.286 26.5006Z" fill="white"/>
    <path d="M165.323 22.774L171.949 29.3999H167.808L162.424 24.3084V29.3999H159.111V11.1777H162.424V21.4204L167.394 16.5615H171.536L165.323 22.774Z" fill="white"/>
    <path d="M184.996 22.982C184.996 23.2243 184.978 23.5704 184.944 24.0184H175.601C175.807 24.8481 176.274 25.5896 176.934 26.1334C177.574 26.6603 178.398 26.9237 179.404 26.9237C180.776 26.9423 182.118 26.5248 183.236 25.7316L184.198 28.6158C184.059 28.7023 183.865 28.808 183.621 28.9522C183.096 29.1857 182.55 29.3673 181.99 29.4945C181.133 29.7217 180.249 29.8348 179.362 29.8309C176.982 29.8309 175.187 29.19 173.978 27.9082C172.769 26.6263 172.166 24.9868 172.167 22.9897C172.167 20.99 172.737 19.3512 173.876 18.0732C175.016 16.7952 176.655 16.1542 178.793 16.1504C180.795 16.1504 182.333 16.7497 183.408 17.9482C184.482 19.1467 185.011 20.8247 184.996 22.982ZM175.678 21.5303H181.475C181.469 21.2083 181.397 20.8909 181.265 20.5972C181.133 20.3034 180.943 20.0394 180.706 19.821C180.193 19.3082 179.482 19.0519 178.572 19.0519C177.813 19.0459 177.083 19.3388 176.539 19.8671C175.965 20.4081 175.678 20.9625 175.678 21.5303Z" fill="white"/>
    <path d="M187.895 25.7595V19.4624H186.238V16.5629H187.895V12.0078H191.208V16.5629H193.692V19.4624H191.208V24.8462C191.208 25.7595 191.42 26.3306 191.843 26.5536C192.266 26.7767 192.881 26.7613 193.692 26.5017V29.4013C192.915 29.6918 192.09 29.8321 191.26 29.8146C190.122 29.8146 189.276 29.448 188.724 28.7148C188.171 27.9816 187.895 26.9965 187.895 25.7595Z" fill="white"/>
    <defs>
        <linearGradient id="paint0_linear_816_120" x1="15.7181" y1="14.7262" x2="37.8358" y2="15.3953" gradientUnits="userSpaceOnUse">
            <stop stop-color="white"/>
            <stop offset="1"/>
        </linearGradient>
        <linearGradient id="paint1_linear_816_120" x1="23.7829" y1="22.1894" x2="41.5243" y2="22.7278" gradientUnits="userSpaceOnUse">
            <stop stop-color="white"/>
            <stop offset="1"/>
        </linearGradient>
    </defs>
</svg>
