<svg width="128" height="48" viewBox="0 0 128 48" fill="none" xmlns="http://www.w3.org/2000/svg">
    <path d="M46.5503 18.2391H49.7816V9.11954L57.6928 18.2391H62.2613L53.2358 8.44402L61.7041 0H57.3586L49.7816 7.88109V0H46.5503V18.2391Z" fill="white"/>
    <path d="M62.4839 11.935C62.4839 15.8756 65.3809 18.5777 69.058 18.5777C72.735 18.5777 75.7435 15.8756 75.7435 11.935C75.7435 8.10708 72.735 5.51758 69.058 5.51758C65.3809 5.51758 62.4839 8.10708 62.4839 11.935ZM65.4924 11.935C65.4924 10.0211 66.7181 7.99449 69.058 7.99449C71.5093 7.99449 72.6236 10.0211 72.6236 11.935C72.6236 13.849 71.5093 15.9882 69.058 15.9882C66.7181 15.9882 65.4924 13.849 65.4924 11.935Z" fill="white"/>
    <path d="M78.6411 18.2399H81.761V11.5973C81.761 10.6966 82.2067 8.33225 84.9924 8.33225C85.3266 8.33225 85.5495 8.33225 85.8838 8.44484V5.63017C85.7723 5.51758 85.4381 5.51758 85.2152 5.51758C83.5438 5.51758 82.3182 6.53086 81.6496 7.8819H81.5382V5.85534H78.6411V18.2399Z" fill="white"/>
    <path d="M87.8887 18.2399H91.0086V11.3721C91.0086 9.79588 91.9 8.10708 93.7942 8.10708C95.7999 8.10708 96.1341 9.90847 96.1341 11.3721V18.2399H99.1426V10.4714C99.1426 7.99449 97.8055 5.51758 94.6856 5.51758C92.9028 5.51758 91.4543 6.64345 90.8972 7.8819H90.7857V5.85534H87.8887V18.2399Z" fill="white"/>
    <path d="M105.049 10.8092C105.16 9.12036 106.609 7.76932 108.392 7.76932C110.397 7.76932 111.289 9.23295 111.289 10.8092H105.049ZM114.409 12.1602C114.409 7.76932 111.846 5.51758 108.503 5.51758C104.826 5.51758 102.041 8.10708 102.041 12.0476C102.041 16.1008 104.826 18.5777 108.615 18.5777C110.843 18.5777 112.626 17.677 113.852 16.1008L111.735 14.4119C111.066 15.4252 110.063 15.9882 108.503 15.9882C106.72 15.9882 105.16 14.7497 105.049 12.9483H114.297C114.409 12.7231 114.409 12.498 114.409 12.1602Z" fill="white"/>
    <path d="M124.771 18.2399H127.557V10.6966C127.557 8.21967 126.554 5.51758 122.097 5.51758C120.314 5.51758 118.308 6.1931 116.971 7.43156L118.531 9.34553C119.311 8.55743 120.537 7.8819 121.874 7.8819C123.434 7.8819 124.66 8.67001 124.66 10.1336V10.4714C120.871 10.4714 116.303 11.0343 116.303 14.6371C116.303 17.5644 118.866 18.4651 120.871 18.4651C122.543 18.4651 123.991 17.677 124.66 16.6637H124.771V18.2399ZM124.66 12.9483C124.66 14.9749 123.545 16.2133 121.428 16.2133C120.425 16.2133 119.311 15.763 119.311 14.6371C119.311 12.8357 122.097 12.6106 123.991 12.6106H124.66V12.9483Z" fill="white"/>
    <path d="M51 41.45H57.4627C62.1425 41.45 67.3795 38.6353 67.3795 32.3305C67.3795 25.4627 62.1425 23.2109 57.4627 23.2109H51V41.45ZM54.2313 38.5228V26.0256H56.9055C60.2483 26.0256 63.9253 27.0389 63.9253 32.3305C63.9253 37.1717 60.2483 38.5228 56.9055 38.5228H54.2313Z" fill="white"/>
    <path d="M70.3876 41.4506H73.3961V29.066H70.3876V41.4506ZM69.9419 24.9003C69.9419 25.9136 70.7219 26.7017 71.8361 26.7017C72.9504 26.7017 73.8418 25.9136 73.8418 24.9003C73.8418 23.887 72.9504 22.9863 71.8361 22.9863C70.7219 22.9863 69.9419 23.887 69.9419 24.9003Z" fill="white"/>
    <path d="M86.6559 29.0663V30.8677H86.5445C85.6531 29.404 84.0931 28.7285 82.4218 28.7285C78.7447 28.7285 76.4048 31.6558 76.4048 35.146C76.4048 38.6362 78.7447 41.5634 82.4218 41.5634C84.0931 41.5634 85.5417 41.0005 86.4331 39.762H86.5445V40.6627C86.5445 43.1396 85.5417 44.941 82.6446 44.941C81.0847 44.941 79.5247 44.2655 78.4104 43.1396L76.6276 45.504C78.1876 46.855 80.6389 47.5305 82.6446 47.5305C87.4359 47.5305 89.553 44.7159 89.553 40.325V29.0663H86.6559ZM83.0903 31.2054C85.2074 31.2054 86.6559 33.0068 86.6559 35.146C86.6559 37.1725 85.3188 39.0865 82.9789 39.0865C80.8618 39.0865 79.5247 37.0599 79.5247 35.146C79.5247 33.0068 80.8618 31.2054 83.0903 31.2054Z" fill="white"/>
    <path d="M93.2299 41.4506H96.3498V29.066H93.2299V41.4506ZM92.7842 24.9003C92.7842 25.9136 93.6756 26.7017 94.7898 26.7017C95.9041 26.7017 96.6841 25.9136 96.6841 24.9003C96.6841 23.887 95.9041 22.9863 94.7898 22.9863C93.6756 22.9863 92.7842 23.887 92.7842 24.9003Z" fill="white"/>
    <path d="M100.362 31.5426V37.2845C100.362 39.6488 101.142 41.6754 104.373 41.6754C105.042 41.6754 105.822 41.5628 106.379 41.3377L106.267 38.8607C105.933 39.0859 105.376 39.1985 105.042 39.1985C103.704 39.1985 103.37 38.4104 103.37 37.2845V31.5426H106.49V29.0657H103.37V25.4629H100.362V29.0657H98.2446V31.5426H100.362Z" fill="white"/>
    <path d="M116.295 41.4508H119.081V33.9075C119.081 31.4306 117.967 28.7285 113.621 28.7285C111.838 28.7285 109.833 29.404 108.496 30.6425L110.056 32.5565C110.836 31.7684 112.061 31.0928 113.398 31.0928C114.958 31.0928 116.184 31.881 116.184 33.3446V33.6823C112.396 33.6823 107.827 34.2453 107.827 37.8481C107.827 40.7753 110.39 41.676 112.396 41.676C114.067 41.676 115.515 40.8879 116.184 39.8746H116.295V41.4508ZM116.184 36.1593C116.184 38.1858 115.07 39.4243 112.953 39.4243C111.95 39.4243 110.836 38.9739 110.836 37.8481C110.836 36.0467 113.621 35.8215 115.515 35.8215H116.184V36.1593Z" fill="white"/>
    <path d="M122.646 41.4502H125.766V21.9727H122.646V41.4502Z" fill="white"/>
    <path d="M42.8862 4.13932L0.164947 3.97266V9.63932L21.2782 9.80599L0 31.1393V38.9727L17.3194 20.806L42.5564 39.9727L42.7213 32.306L21.2782 16.806L28.041 9.80599L42.7213 9.97266L42.8862 4.13932Z" fill="white"/>
    <path fill-rule="evenodd" clip-rule="evenodd" d="M21.608 32.972C21.608 34.8053 20.1235 36.3053 18.3091 36.3053C16.3297 36.3053 14.8452 34.8053 14.8452 32.972C14.8452 31.1387 16.3297 29.6387 18.1442 29.6387C20.1235 29.6387 21.608 31.1387 21.608 32.972Z" fill="white"/>
</svg>
