<svg width="32" height="32" viewBox="0 0 32 32" fill="none" xmlns="http://www.w3.org/2000/svg">
<path d="M13.4347 14.668C14.2347 14.668 14.8827 15.268 14.868 16.0013C14.868 16.7346 14.236 17.3346 13.4347 17.3346C12.648 17.3346 12 16.7346 12 16.0013C12 15.268 12.6333 14.668 13.4347 14.668ZM18.5653 14.668C19.3667 14.668 20 15.268 20 16.0013C20 16.7346 19.3667 17.3346 18.5653 17.3346C17.7787 17.3346 17.132 16.7346 17.132 16.0013C17.132 15.268 17.764 14.668 18.5653 14.668ZM25.188 2.66797C26.7387 2.66797 28 3.95597 28 5.55197V30.668L25.052 28.008L23.392 26.44L21.636 24.7733L22.364 27.364H6.812C5.26133 27.364 4 26.076 4 24.48V5.55197C4 3.95597 5.26133 2.66797 6.812 2.66797H25.1867H25.188ZM19.8947 20.952C22.9253 20.8546 24.092 18.824 24.092 18.824C24.092 14.316 22.116 10.6613 22.116 10.6613C20.1427 9.15063 18.2627 9.19197 18.2627 9.19197L18.0707 9.41597C20.4027 10.144 21.4853 11.1946 21.4853 11.1946C20.2121 10.4773 18.8089 10.0204 17.3573 9.85064C16.4366 9.74664 15.5066 9.7556 14.588 9.8773C14.5053 9.8773 14.436 9.89197 14.3547 9.9053C13.8747 9.94797 12.708 10.1293 11.2413 10.788C10.7347 11.0253 10.432 11.1946 10.432 11.1946C10.432 11.1946 11.5707 10.088 14.0387 9.35997L13.9013 9.19197C13.9013 9.19197 12.0227 9.15063 10.048 10.6626C10.048 10.6626 8.07333 14.316 8.07333 18.824C8.07333 18.824 9.22533 20.8533 12.256 20.952C12.256 20.952 12.7627 20.3226 13.176 19.7906C11.4333 19.2573 10.776 18.1373 10.776 18.1373C10.776 18.1373 10.912 18.236 11.1587 18.376C11.172 18.3893 11.1853 18.404 11.2133 18.4173C11.2547 18.4466 11.296 18.46 11.3373 18.488C11.68 18.684 12.0227 18.8373 12.3373 18.964C12.9 19.188 13.572 19.412 14.3547 19.5666C15.5271 19.7964 16.7325 19.801 17.9067 19.58C18.5906 19.4579 19.2578 19.2561 19.8947 18.9786C20.3747 18.796 20.9093 18.5293 21.472 18.152C21.472 18.152 20.7867 19.3 18.9893 19.8186C19.4013 20.3506 19.896 20.952 19.896 20.952H19.8947Z" fill="white" fill-opacity="0.65"/>
</svg>
