<svg width="32" height="32" viewBox="0 0 32 32" fill="none" xmlns="http://www.w3.org/2000/svg">
<path fill-rule="evenodd" clip-rule="evenodd" d="M21.4958 2.74797C20.0745 2.6813 19.6225 2.66797 15.9998 2.66797C12.3772 2.66797 11.9252 2.6853 10.5038 2.74797C9.0825 2.81464 8.11717 3.0373 7.2665 3.36797C6.37641 3.70227 5.57007 4.22694 4.90384 4.9053C4.22491 5.57106 3.70015 6.37754 3.3665 7.26797C3.03584 8.11864 2.81317 9.08397 2.7465 10.5053C2.67984 11.9266 2.6665 12.3786 2.6665 16.0013C2.6665 19.624 2.68384 20.076 2.7465 21.4973C2.81317 22.9173 3.03584 23.8853 3.3665 24.7346C3.70108 25.6246 4.22571 26.4309 4.90384 27.0973C5.56987 27.7759 6.37627 28.3006 7.2665 28.6346C8.11717 28.964 9.08384 29.188 10.5038 29.2546C11.9252 29.3213 12.3772 29.3346 15.9998 29.3346C19.6225 29.3346 20.0745 29.3173 21.4958 29.2546C22.9158 29.188 23.8838 28.964 24.7332 28.6346C25.6229 28.2996 26.4291 27.7751 27.0958 27.0973C27.7747 26.4315 28.2994 25.625 28.6332 24.7346C28.9625 23.884 29.1865 22.9173 29.2532 21.4973C29.3198 20.076 29.3332 19.624 29.3332 16.0013C29.3332 12.3786 29.3158 11.9266 29.2532 10.5053C29.1865 9.0853 28.9625 8.1173 28.6332 7.26797C28.2984 6.37809 27.7738 5.57183 27.0958 4.9053C26.3545 4.1653 25.6132 3.70664 24.7332 3.36797C23.8825 3.0373 22.9158 2.81464 21.4958 2.74797ZM9.33325 16.0007C9.33325 12.3188 12.318 9.33398 15.9999 9.33398C19.6818 9.33398 22.6666 12.3188 22.6666 16.0007C22.6666 19.6825 19.6818 22.6673 15.9999 22.6673C12.318 22.6673 9.33325 19.6825 9.33325 16.0007ZM24.6666 9.00065C24.6666 8.08018 23.9204 7.33398 22.9999 7.33398C22.0794 7.33398 21.3333 8.08018 21.3333 9.00065C21.3333 9.92113 22.0794 10.6673 22.9999 10.6673C23.9204 10.6673 24.6666 9.92113 24.6666 9.00065ZM20 16.001C20 13.7918 18.2091 12.001 16 12.001C13.7909 12.001 12 13.7918 12 16.001C12 18.2101 13.7909 20.001 16 20.001C18.2091 20.001 20 18.2101 20 16.001Z" fill="white" fill-opacity="0.65"/>
</svg>
