<svg width="32" height="32" viewBox="0 0 32 32" fill="none" xmlns="http://www.w3.org/2000/svg">
<path fill-rule="evenodd" clip-rule="evenodd" d="M5.772 4H26.2213C27.2 4 28 4.77333 28 5.72933V26.2707C28 27.2267 27.2 28 26.2213 28H5.77067C4.792 28 4 27.2267 4 26.2707V5.72933C4 4.77333 4.79067 4 5.772 4ZM7.87672 10.8294C8.26383 11.2168 8.78916 11.4342 9.33677 11.4337L9.33611 11.4337H9.33744L9.33677 11.4337C10.4764 11.434 11.4007 10.5107 11.4014 9.371C11.4022 8.23108 10.4787 7.3064 9.33877 7.30566C8.19886 7.30493 7.27418 8.22842 7.27344 9.36833C7.27238 9.91618 7.48945 10.4419 7.87672 10.8294ZM20.8933 24.4523H24.4466H24.4479V18.1656C24.4479 15.0816 23.7813 12.7109 20.1813 12.7109C18.4479 12.7109 17.2879 13.6616 16.8106 14.5603H16.7639V13.0003H13.3506V24.4523H16.9053V18.7856C16.9053 17.2909 17.1879 15.8456 19.0399 15.8456C20.8666 15.8456 20.8933 17.5549 20.8933 18.8829V24.4523ZM7.55469 24.452V13H11.12V24.452H11.1187H7.55469Z" fill="white" fill-opacity="0.65"/>
</svg>
