<svg width="32" height="32" viewBox="0 0 32 32" fill="none" xmlns="http://www.w3.org/2000/svg">
<path fill-rule="evenodd" clip-rule="evenodd" d="M2.6665 16.0013C2.6665 23.3653 8.63584 29.3346 15.9998 29.3346C23.3638 29.3346 29.3332 23.3653 29.3332 16.0013C29.3332 8.6373 23.3638 2.66797 15.9998 2.66797C8.63584 2.66797 2.6665 8.6373 2.6665 16.0013ZM11.8706 17.5513L11.8532 17.5607V17.562L8.52389 16.522C7.80389 16.302 7.79855 15.806 8.68389 15.4513L21.6612 10.438C22.4146 10.1287 22.8412 10.518 22.5972 11.4887L20.3879 21.918C20.2332 22.6593 19.7866 22.8367 19.1652 22.494L15.7652 19.9767L14.1812 21.5073C14.1753 21.513 14.1694 21.5187 14.1635 21.5243C14.0075 21.6743 13.8761 21.8006 13.6346 21.8327C13.3852 21.8673 13.1799 21.7927 13.0306 21.378L11.8706 17.5513Z" fill="white" fill-opacity="0.65"/>
</svg>
