<svg width="32" height="32" viewBox="0 0 32 32" fill="none" xmlns="http://www.w3.org/2000/svg">
<path d="M29.5494 7.54142C28.5315 7.99168 27.452 8.28739 26.3467 8.41876C27.5117 7.722 28.3837 6.62544 28.8001 5.33342C27.7067 5.98409 26.5081 6.44009 25.2587 6.68676C23.5332 4.84052 20.7818 4.38554 18.5538 5.57803C16.3257 6.77051 15.1782 9.31228 15.7574 11.7721C11.2734 11.5473 7.09573 9.42942 4.26407 5.94542C3.76846 6.79669 3.50801 7.76439 3.5094 8.74942C3.5094 10.6828 4.4934 12.3908 5.9894 13.3908C5.10408 13.3629 4.23825 13.1238 3.46407 12.6934V12.7628C3.46462 15.4175 5.33542 17.7043 7.9374 18.2308C7.11556 18.4535 6.25381 18.4863 5.4174 18.3268C6.14691 20.599 8.24067 22.1558 10.6267 22.2001C8.29066 24.0348 5.32106 24.8656 2.37207 24.5094C4.921 26.1487 7.8882 27.0189 10.9187 27.0161C21.1761 27.0161 26.7854 18.5188 26.7854 11.1494C26.7854 10.9094 26.7787 10.6668 26.7681 10.4294C27.8599 9.64031 28.8022 8.66278 29.5507 7.54276L29.5494 7.54142Z" fill="white" fill-opacity="0.65"/>
</svg>
