<svg width="32" height="32" viewBox="0 0 32 32" fill="none" xmlns="http://www.w3.org/2000/svg">
<path fill-rule="evenodd" clip-rule="evenodd" d="M29.3332 15.9987C29.3332 15.9987 29.3332 11.0387 28.7238 8.6627C28.3892 7.35336 27.3998 6.32136 26.1398 5.9667C23.8612 5.33203 15.9998 5.33203 15.9998 5.33203C15.9998 5.33203 8.1425 5.33203 5.85984 5.9667C4.60517 6.31603 3.6145 7.34936 3.27584 8.6627C2.6665 11.0387 2.6665 15.9987 2.6665 15.9987C2.6665 15.9987 2.6665 20.9587 3.27584 23.3347C3.6105 24.644 4.59984 25.676 5.85984 26.0307C8.1425 26.6654 15.9998 26.6654 15.9998 26.6654C15.9998 26.6654 23.8612 26.6654 26.1398 26.0307C27.3945 25.6814 28.3852 24.648 28.7238 23.3347C29.3332 20.9587 29.3332 15.9987 29.3332 15.9987ZM21.3333 15.9987L13.3333 20.6654V11.332L21.3333 15.9987Z" fill="white" fill-opacity="0.65"/>
</svg>
