<svg width="431" height="160" viewBox="0 0 431 160" fill="none" xmlns="http://www.w3.org/2000/svg">
    <path d="M69.5083 160H105.837V125.924H127.887V94.1044H105.837V0H60.0585L0 89.1396V125.924H69.5083V160ZM30.4492 94.1044V93.4274L68.6683 36.3329H69.2983V94.1044H30.4492Z" fill="url(#paint0_linear_1059_577)"/>
    <path fill-rule="evenodd" clip-rule="evenodd" d="M217.733 25.3256C212.101 23.6741 206.166 22.1608 202.103 21.9238L202.266 19.1877C206.69 19.4458 212.913 21.054 218.516 22.6974C221.133 23.4647 223.601 24.2349 225.736 24.9012C228.274 25.6932 230.342 26.3385 231.629 26.6576C237.672 28.1558 249.633 32.7041 251.249 45.5239C251.998 51.4655 252.738 56.5893 253.839 60.9558C254.939 65.3187 256.378 68.837 258.471 71.6046C259.671 73.1912 260.796 75.2023 261.367 77.289C261.936 79.3667 261.998 81.6897 260.803 83.7035C259.595 85.7411 257.29 87.1452 253.821 87.7684C250.364 88.3894 245.596 88.2702 239.154 87.1429L239.106 87.1345L239.059 87.1228C227.58 84.2772 201.103 80.1327 178.165 99.6644C177.678 100.079 177.139 100.503 176.627 100.906C176.324 101.144 176.031 101.375 175.763 101.592C174.998 102.213 174.316 102.818 173.744 103.491C172.924 104.457 172.537 105.536 172.49 107.101C172.441 108.736 172.765 110.821 173.354 113.743C173.665 115.285 173.8 116.528 173.793 117.525C173.786 118.508 173.641 119.341 173.314 120.001C172.967 120.699 172.402 121.214 171.661 121.398C170.971 121.569 170.335 121.402 169.884 121.178L171.118 118.729C171.095 118.726 171.052 118.724 170.99 118.739C170.864 118.77 170.812 118.835 170.811 118.834C170.81 118.834 170.819 118.822 170.834 118.79C170.906 118.645 171.024 118.272 171.029 117.506C171.035 116.755 170.932 115.708 170.644 114.28C170.058 111.375 169.668 109.006 169.728 107.019C169.789 104.962 170.334 103.252 171.63 101.726C172.366 100.859 173.202 100.128 174.014 99.4701C174.355 99.1931 174.676 98.941 174.987 98.6967C175.457 98.3278 175.904 97.9768 176.364 97.585C200.32 77.1867 227.923 81.5436 239.681 84.4521C245.944 85.5446 250.334 85.6094 253.329 85.0715C256.318 84.5344 257.758 83.4322 258.421 82.3139C259.099 81.1716 259.161 79.6889 258.7 78.0074C258.242 76.3347 257.307 74.6329 256.26 73.2491C253.861 70.0761 252.304 66.1685 251.158 61.6205C250.012 57.076 249.255 51.8036 248.506 45.8638C247.127 34.921 236.897 30.7887 230.959 29.3165C229.62 28.9846 227.403 28.2938 224.758 27.4695C222.617 26.8025 220.196 26.0481 217.733 25.3256ZM171.138 118.734C171.138 118.734 171.136 118.734 171.132 118.732L171.138 118.734Z" fill="url(#paint1_linear_1059_577)"/>
    <path fill-rule="evenodd" clip-rule="evenodd" d="M212.144 32.4013C205.092 31.8634 197.925 33.6743 193.734 36.445C189.96 38.9395 184.377 40.963 179.127 42.6498C177.315 43.2321 175.548 43.7728 173.89 44.2802C170.638 45.2758 167.805 46.1431 165.865 46.9444L164.802 44.4145C166.863 43.5628 169.919 42.6271 173.267 41.6015C174.894 41.1032 176.59 40.5838 178.275 40.0424C183.547 38.3488 188.785 36.4226 192.201 34.1645C196.996 30.9946 204.805 29.0926 212.355 29.6686C219.926 30.246 227.567 33.351 231.617 40.5799C235.442 47.4077 237.781 55.0624 237.781 61.4809C237.781 67.8796 235.4 73.5059 229.291 75.2369L229.237 75.2521L229.182 75.263C226.912 75.7132 224.419 75.0252 221.864 74.2559C221.548 74.1609 221.228 74.0633 220.903 73.9642C218.489 73.2283 215.798 72.4076 212.606 71.9328C205.459 70.8696 195.669 71.5329 181.698 79.5491C175.788 83.2144 171.447 86.825 168.779 90.177C166.094 93.5499 165.253 96.4559 165.852 98.8347C167.123 103.874 166.386 109.263 165.852 111.381L163.171 110.716C163.635 108.874 164.297 103.965 163.171 99.4994C162.273 95.9376 163.678 92.1603 166.609 88.4787C169.554 84.7799 174.193 80.969 180.253 77.2126L180.293 77.1881L180.293 77.1888C194.767 68.8791 205.19 68.0583 213.016 69.2224C216.426 69.7295 219.317 70.612 221.724 71.3468C222.047 71.4454 222.361 71.5413 222.667 71.6333C225.321 72.4323 227.122 72.8576 228.587 72.5856C232.923 71.328 235.017 67.31 235.017 61.4809C235.017 55.6467 232.864 48.4496 229.201 41.9109C225.762 35.7734 219.176 32.9377 212.144 32.4013Z" fill="url(#paint2_linear_1059_577)"/>
    <path fill-rule="evenodd" clip-rule="evenodd" d="M207.193 43.9477C204.668 42.8655 201.877 42.5228 199.192 43.0091C193.452 44.0487 187.473 46.9742 182.224 50.3465C177.018 53.6912 172.627 57.4126 170.028 59.9827C166.436 64.274 165.614 67.5543 166.055 69.7421C166.483 71.8626 168.2 73.4108 170.839 74.0651C173.307 74.6771 176.264 73.7908 180.206 71.9296C181.654 71.2457 183.174 70.4625 184.807 69.6211C185.36 69.3357 185.927 69.0436 186.509 68.7464C188.787 67.5815 191.256 66.3572 193.922 65.224C198.974 63.0768 202.42 62.9027 205.561 62.744C205.833 62.7303 206.103 62.7167 206.371 62.7019C209.601 62.524 212.743 62.1864 217.743 59.3531C220.154 57.9871 221.147 56.5755 221.469 55.3665C221.793 54.1459 221.51 52.8462 220.781 51.5612C220.051 50.2732 218.929 49.1096 217.807 48.2702C217.25 47.8533 216.719 47.5357 216.269 47.3281C215.789 47.1066 215.513 47.0616 215.434 47.0616C214.022 47.0616 212.699 46.5533 211.435 45.9679C210.903 45.7213 210.397 45.47 209.879 45.2127C209.063 44.8073 208.218 44.3871 207.193 43.9477ZM198.695 40.3129C201.938 39.7255 205.283 40.1432 208.289 41.4319C209.351 41.8871 210.374 42.393 211.26 42.8314C211.757 43.0774 212.211 43.3021 212.605 43.4848C213.81 44.0429 214.666 44.3209 215.434 44.3209C216.103 44.3209 216.81 44.5544 217.436 44.8434C218.092 45.1464 218.789 45.5713 219.472 46.0826C220.831 47.0997 222.236 48.5352 223.19 50.2175C224.146 51.9028 224.705 53.9448 224.141 56.0658C223.574 58.1983 221.946 60.1284 219.114 61.7327C213.631 64.8401 210.034 65.2451 206.524 65.4385C206.253 65.4534 205.983 65.4672 205.713 65.4809C202.633 65.6375 199.603 65.7916 195.011 67.7432C192.435 68.8377 190.036 70.0268 187.775 71.1825C187.216 71.4684 186.663 71.7535 186.117 72.0349C184.471 72.8828 182.89 73.6979 181.394 74.4041C177.473 76.2558 173.691 77.5972 170.169 76.7241C166.817 75.8932 164.041 73.7285 163.345 70.2796C162.665 66.9061 164.082 62.7768 167.944 58.1805L167.985 58.1327L168.029 58.0887C170.753 55.3875 175.315 51.5197 180.722 48.0462C186.115 44.5812 192.447 41.4447 198.695 40.3129ZM202.921 52.3704C201.205 52.3097 199.016 52.3692 196.808 52.4866C194.608 52.6036 192.331 52.8837 190.474 53.5921C188.64 54.2921 187.382 55.3395 186.872 56.923C186.516 58.0257 186.659 58.794 186.861 59.1152C186.944 59.2457 187.032 59.3063 187.145 59.3383C187.277 59.3756 187.557 59.4021 188.038 59.2429C190.476 58.4369 191.816 58.4119 193.351 58.6294C193.639 58.6702 193.925 58.7174 194.224 58.7666C195.366 58.9549 196.686 59.1725 198.959 59.1725C201.324 59.1725 203.19 57.7083 204.345 55.9086C204.918 55.0165 205.263 54.1147 205.391 53.4087C205.454 53.0605 205.456 52.8043 205.434 52.643C205.33 52.613 205.186 52.58 204.996 52.5477C204.486 52.4605 203.783 52.4008 202.921 52.3704ZM205.599 52.7012L205.593 52.6981L205.599 52.7012ZM206.453 50.0899C206.734 50.1884 207.115 50.3556 207.424 50.6629C207.896 51.1304 208.095 51.7291 208.169 52.2474C208.245 52.7769 208.211 53.3419 208.112 53.8929C207.912 54.9969 207.415 56.2301 206.677 57.3801C205.211 59.6646 202.584 61.9133 198.959 61.9133C196.438 61.9133 194.881 61.6552 193.727 61.4639C193.451 61.4182 193.198 61.3762 192.96 61.3426C191.874 61.1888 190.967 61.1637 188.912 61.843C188.051 62.1278 187.187 62.2001 186.388 61.9741C185.569 61.7427 184.936 61.2311 184.519 60.5696C183.722 59.3068 183.748 57.6123 184.239 56.0882C185.094 53.437 187.187 51.9097 189.482 51.0342C191.754 50.1672 194.383 49.8709 196.66 49.7498C198.898 49.6307 201.182 49.5664 203.019 49.6313C203.934 49.6637 204.778 49.7292 205.465 49.8467C205.809 49.9053 206.148 49.9825 206.453 50.0899ZM264.469 57.3623C266.307 55.181 266.404 55.0612 268.103 54.4994L268.977 57.0996C267.682 57.5279 268.048 57.3899 266.59 59.1195C265.169 60.8066 264.196 63.1347 264.721 66.2583C265.028 68.0847 265.814 70.3364 266.729 72.9609C266.858 73.3302 266.989 73.7069 267.122 74.0908C268.175 77.1301 269.292 80.5352 269.781 83.9261C270.27 87.3225 270.149 90.8287 268.606 94.0181C267.049 97.2369 264.134 99.9501 259.397 101.907L259.322 101.938L259.245 101.96C256.432 102.757 254.321 102.779 252.331 102.326C250.902 102.001 249.525 101.416 248.098 100.81C247.65 100.62 247.197 100.427 246.735 100.24C242.815 98.6495 237.031 96.824 224.5 97.5549L224.46 97.5573H224.419C213.904 97.5573 205.157 97.9409 198.68 100.261C195.475 101.408 192.883 103.012 190.919 105.235C188.959 107.453 187.554 110.366 186.841 114.244C186.564 115.896 186.334 117.425 186.124 118.821C185.784 121.088 185.496 123.006 185.142 124.528C184.563 127.012 183.693 129.051 181.605 130.086L180.369 127.635C181.276 127.185 181.904 126.254 182.449 123.911C182.781 122.481 183.041 120.75 183.364 118.593C183.575 117.183 183.813 115.592 184.117 113.784L184.12 113.764C184.906 109.478 186.496 106.082 188.84 103.429C191.181 100.779 194.206 98.9484 197.741 97.6827C204.733 95.1788 213.944 94.8175 224.379 94.8165C237.28 94.0687 243.47 95.9539 247.782 97.7033C248.36 97.9377 248.882 98.1592 249.367 98.3648C250.72 98.9384 251.783 99.389 252.95 99.6549C254.408 99.987 256.022 100.012 258.408 99.3465C262.61 97.5949 264.917 95.308 266.114 92.8328C267.332 90.3136 267.492 87.415 267.045 84.3137C266.597 81.207 265.562 78.0217 264.508 74.9812C264.379 74.6077 264.249 74.2348 264.119 73.8635C263.218 71.2844 262.344 68.7825 261.995 66.7089C261.322 62.7037 262.596 59.5861 264.469 57.3623ZM230.41 107.953C222.953 107.953 211.205 108.701 202.486 112.304C199.11 113.699 196.995 115.542 195.725 117.546C194.451 119.555 193.961 121.83 194.013 124.19C194.117 128.962 196.44 133.901 198.597 136.992L196.325 138.552C193.99 135.207 191.37 129.749 191.25 124.249C191.189 121.472 191.766 118.642 193.385 116.088C195.007 113.528 197.61 111.349 201.423 109.774C210.675 105.95 222.89 105.213 230.41 105.213C236.748 105.213 240.739 107.199 244.185 109.098C244.416 109.225 244.644 109.351 244.868 109.476C247.989 111.206 250.574 112.639 254.372 112.639L262.068 113.742V116.483L254.372 115.379C249.828 115.379 246.653 113.612 243.59 111.908C243.341 111.769 243.092 111.631 242.843 111.494C239.55 109.68 236.053 107.953 230.41 107.953Z" fill="url(#paint3_linear_1059_577)"/>
    <path fill-rule="evenodd" clip-rule="evenodd" d="M236.589 115.624C241.411 115.997 244.556 116.654 246.329 117.615C247.236 118.107 248.022 118.809 248.272 119.817C248.525 120.841 248.121 121.757 247.626 122.431C246.673 123.731 244.821 124.922 242.95 125.919C241.013 126.951 238.807 127.901 236.912 128.653C230.795 131.079 219.215 133.671 214.222 134.662C208.634 135.913 204.925 134.397 203.204 131.572C201.591 128.924 201.989 125.407 203.971 123.442C205.439 121.987 206.292 121.486 207.146 120.984C207.237 120.931 207.328 120.877 207.419 120.823C208.247 120.33 209.282 119.659 211.459 117.5C212.666 116.304 213.923 115.358 215.398 114.692C216.874 114.027 218.502 113.674 220.414 113.574C224.159 113.378 229.172 114.155 236.589 115.624ZM216.542 117.188C215.443 117.683 214.453 118.408 213.414 119.438C211.098 121.735 209.887 122.551 208.842 123.172C208.744 123.231 208.649 123.287 208.556 123.341C207.78 123.796 207.15 124.166 205.925 125.38C204.912 126.385 204.562 128.501 205.569 130.155C206.468 131.629 208.743 133.083 213.629 131.985L213.663 131.977L213.663 131.977C218.664 130.986 230.028 128.432 235.886 126.108C237.736 125.374 239.835 124.468 241.642 123.505C243.516 122.506 244.846 121.562 245.391 120.819C245.537 120.62 245.573 120.508 245.582 120.464C245.551 120.413 245.426 120.249 245.003 120.02C243.79 119.362 241.158 118.722 236.293 118.351L236.21 118.344L236.128 118.328C228.612 116.837 223.914 116.136 220.559 116.311C218.914 116.397 217.64 116.693 216.542 117.188ZM245.584 120.442C245.584 120.442 245.585 120.445 245.584 120.451C245.583 120.445 245.584 120.442 245.584 120.442ZM227.264 122.028C227.797 122.979 227.647 124.042 227.152 125.024C226.491 126.335 225.04 127.088 223.733 127.55C222.348 128.041 220.727 128.34 219.236 128.517C217.961 128.669 216.013 128.739 214.494 128.476C213.793 128.354 212.88 128.116 212.259 127.529C211.902 127.191 211.614 126.709 211.584 126.1C211.556 125.525 211.768 125.02 212.029 124.62C212.502 123.895 213.331 123.291 214.106 122.822C214.928 122.323 215.888 121.86 216.816 121.467C217.748 121.072 218.678 120.734 219.452 120.493C219.838 120.373 220.197 120.272 220.507 120.201C220.783 120.137 221.123 120.07 221.423 120.07C221.441 120.07 221.459 120.07 221.478 120.07C222.211 120.07 223.89 120.069 225.23 120.512C225.911 120.737 226.78 121.164 227.264 122.028ZM224.356 123.112C223.483 122.824 222.221 122.811 221.423 122.811C221.43 122.811 221.434 122.811 221.434 122.811C221.434 122.813 221.347 122.821 221.135 122.87C220.912 122.921 220.622 123.001 220.28 123.108C219.597 123.321 218.753 123.626 217.903 123.987C217.049 124.349 216.218 124.754 215.547 125.16C215.191 125.376 214.922 125.568 214.727 125.728C214.799 125.744 214.88 125.76 214.97 125.776C216.121 125.976 217.773 125.931 218.907 125.796C220.296 125.631 221.691 125.363 222.805 124.969C223.997 124.547 224.529 124.098 224.68 123.798C224.805 123.549 224.832 123.411 224.835 123.349C224.795 123.313 224.67 123.216 224.356 123.112ZM224.831 123.308C224.832 123.307 224.834 123.315 224.835 123.331C224.83 123.317 224.829 123.308 224.831 123.308ZM214.32 126.16C214.32 126.16 214.32 126.159 214.321 126.157L214.32 126.16Z" fill="url(#paint4_linear_1059_577)"/>
    <path d="M295.285 80C295.285 124.183 259.166 160 214.612 160C170.057 160 133.939 124.183 133.939 80C133.939 35.8172 170.057 0 214.612 0C259.166 0 295.285 35.8172 295.285 80ZM156.438 80C156.438 111.861 182.483 137.689 214.612 137.689C246.74 137.689 272.786 111.861 272.786 80C272.786 48.1395 246.74 22.3114 214.612 22.3114C182.483 22.3114 156.438 48.1395 156.438 80Z" fill="url(#paint5_linear_1059_577)"/>
    <path d="M372.622 160H408.951V125.924H431V94.1044H408.951V0H363.172L303.113 89.1396V125.924H372.622V160ZM333.563 94.1044V93.4274L371.782 36.3329H372.412V94.1044H333.563Z" fill="url(#paint6_linear_1059_577)"/>
    <defs>
        <linearGradient id="paint0_linear_1059_577" x1="-2.54364" y1="92.2994" x2="79.2151" y2="92.2993" gradientUnits="userSpaceOnUse">
            <stop stop-color="#D299FF"/>
            <stop offset="1" stop-color="#58C3FF"/>
        </linearGradient>
        <linearGradient id="paint1_linear_1059_577" x1="165.777" y1="78.7326" x2="227.655" y2="78.7325" gradientUnits="userSpaceOnUse">
            <stop stop-color="#D299FF"/>
            <stop offset="1" stop-color="#58C3FF"/>
        </linearGradient>
        <linearGradient id="paint2_linear_1059_577" x1="159.693" y1="77.1964" x2="210.035" y2="77.1964" gradientUnits="userSpaceOnUse">
            <stop stop-color="#D299FF"/>
            <stop offset="1" stop-color="#58C3FF"/>
        </linearGradient>
        <linearGradient id="paint3_linear_1059_577" x1="158.602" y1="97.3959" x2="230.441" y2="97.3957" gradientUnits="userSpaceOnUse">
            <stop stop-color="#D299FF"/>
            <stop offset="1" stop-color="#58C3FF"/>
        </linearGradient>
        <linearGradient id="paint4_linear_1059_577" x1="200.226" y1="126.096" x2="231.25" y2="126.096" gradientUnits="userSpaceOnUse">
            <stop stop-color="#D299FF"/>
            <stop offset="1" stop-color="#58C3FF"/>
        </linearGradient>
        <linearGradient id="paint5_linear_1059_577" x1="127.024" y1="93.1477" x2="235.498" y2="93.1476" gradientUnits="userSpaceOnUse">
            <stop stop-color="#D299FF"/>
            <stop offset="1" stop-color="#58C3FF"/>
        </linearGradient>
        <linearGradient id="paint6_linear_1059_577" x1="300.57" y1="92.2994" x2="382.328" y2="92.2993" gradientUnits="userSpaceOnUse">
            <stop stop-color="#D299FF"/>
            <stop offset="1" stop-color="#58C3FF"/>
        </linearGradient>
    </defs>
</svg>
