<svg width="471" height="160" viewBox="0 0 471 160" fill="none" xmlns="http://www.w3.org/2000/svg">
    <path d="M58.7975 159.788C114.229 159.788 119.166 123.513 119.166 106.822C119.166 73.8852 100.539 49.6277 67.9986 49.6277C53.187 49.6277 43.9859 54.7462 36.8045 60.5324L36.1313 60.0873L39.4975 28.4858H111.536V0H11.4453L1.57092 92.1339L34.5603 94.8045C38.151 85.235 44.2103 78.5586 58.573 78.5586C76.9753 78.5586 81.9125 89.4633 81.9125 105.042C81.9125 125.738 73.609 131.747 57.6754 131.747C39.0487 131.747 34.3359 123.735 34.1115 111.05H0C0 129.744 8.30345 159.788 58.7975 159.788Z" fill="url(#paint0_linear_1059_578)"/>
    <path fill-rule="evenodd" clip-rule="evenodd" d="M216.733 25.3256C211.101 23.6741 205.166 22.1608 201.103 21.9238L201.266 19.1877C205.69 19.4458 211.913 21.054 217.516 22.6974C220.133 23.4647 222.601 24.2349 224.736 24.9012C227.274 25.6932 229.342 26.3385 230.629 26.6576C236.672 28.1558 248.633 32.7041 250.249 45.5239C250.998 51.4655 251.738 56.5893 252.839 60.9558C253.939 65.3187 255.378 68.837 257.471 71.6046C258.671 73.1912 259.796 75.2023 260.367 77.289C260.936 79.3667 260.998 81.6897 259.803 83.7035C258.595 85.7411 256.29 87.1452 252.821 87.7684C249.364 88.3894 244.596 88.2702 238.154 87.1429L238.106 87.1345L238.059 87.1228C226.58 84.2772 200.103 80.1327 177.165 99.6644C176.678 100.079 176.139 100.503 175.627 100.906C175.324 101.144 175.031 101.375 174.763 101.592C173.998 102.213 173.316 102.818 172.744 103.491C171.924 104.457 171.537 105.536 171.49 107.101C171.441 108.736 171.765 110.821 172.354 113.743C172.665 115.285 172.8 116.528 172.793 117.525C172.786 118.508 172.641 119.341 172.314 120.001C171.967 120.699 171.402 121.214 170.661 121.398C169.971 121.569 169.335 121.402 168.884 121.178L170.118 118.729C170.095 118.726 170.052 118.724 169.99 118.739C169.864 118.77 169.812 118.835 169.811 118.834C169.81 118.834 169.819 118.822 169.834 118.79C169.906 118.645 170.024 118.272 170.029 117.506C170.035 116.755 169.932 115.708 169.644 114.28C169.058 111.375 168.668 109.006 168.728 107.019C168.789 104.962 169.334 103.252 170.63 101.726C171.366 100.859 172.202 100.128 173.014 99.4701C173.355 99.1931 173.676 98.941 173.987 98.6967C174.457 98.3278 174.904 97.9768 175.364 97.585C199.32 77.1867 226.923 81.5436 238.681 84.4521C244.944 85.5446 249.334 85.6094 252.329 85.0715C255.318 84.5344 256.758 83.4322 257.421 82.3139C258.099 81.1716 258.161 79.6889 257.7 78.0074C257.242 76.3347 256.307 74.6329 255.26 73.2491C252.861 70.0761 251.304 66.1685 250.158 61.6205C249.012 57.076 248.255 51.8036 247.506 45.8638C246.127 34.921 235.897 30.7887 229.959 29.3165C228.62 28.9846 226.403 28.2938 223.758 27.4695C221.617 26.8025 219.196 26.0481 216.733 25.3256ZM170.138 118.734C170.138 118.734 170.136 118.734 170.132 118.732L170.138 118.734Z" fill="url(#paint1_linear_1059_578)"/>
    <path fill-rule="evenodd" clip-rule="evenodd" d="M211.144 32.4013C204.092 31.8634 196.925 33.6743 192.734 36.445C188.96 38.9395 183.377 40.963 178.127 42.6498C176.315 43.2321 174.548 43.7728 172.89 44.2802C169.638 45.2758 166.805 46.1431 164.865 46.9444L163.802 44.4145C165.863 43.5628 168.919 42.6271 172.267 41.6015C173.894 41.1032 175.59 40.5838 177.275 40.0424C182.547 38.3488 187.785 36.4226 191.201 34.1645C195.996 30.9946 203.805 29.0926 211.355 29.6686C218.926 30.246 226.567 33.351 230.617 40.5799C234.442 47.4077 236.781 55.0624 236.781 61.4809C236.781 67.8796 234.4 73.5059 228.291 75.2369L228.237 75.2521L228.182 75.263C225.912 75.7132 223.419 75.0252 220.864 74.2559C220.548 74.1609 220.228 74.0633 219.903 73.9642C217.489 73.2283 214.798 72.4076 211.606 71.9328C204.459 70.8696 194.669 71.5329 180.698 79.5491C174.788 83.2144 170.447 86.825 167.779 90.177C165.094 93.5499 164.253 96.4559 164.852 98.8347C166.123 103.874 165.386 109.263 164.852 111.381L162.171 110.716C162.635 108.874 163.297 103.965 162.171 99.4994C161.273 95.9376 162.678 92.1603 165.609 88.4787C168.554 84.7799 173.193 80.969 179.253 77.2126L179.293 77.1881L179.293 77.1888C193.767 68.8791 204.19 68.0583 212.016 69.2224C215.426 69.7295 218.317 70.612 220.724 71.3468C221.047 71.4454 221.361 71.5413 221.667 71.6333C224.321 72.4323 226.122 72.8576 227.587 72.5856C231.923 71.328 234.017 67.31 234.017 61.4809C234.017 55.6467 231.864 48.4496 228.201 41.9109C224.762 35.7734 218.176 32.9377 211.144 32.4013Z" fill="url(#paint2_linear_1059_578)"/>
    <path fill-rule="evenodd" clip-rule="evenodd" d="M206.193 43.9477C203.668 42.8655 200.877 42.5228 198.192 43.0091C192.452 44.0487 186.473 46.9742 181.224 50.3465C176.018 53.6912 171.627 57.4126 169.028 59.9827C165.436 64.274 164.614 67.5543 165.055 69.7421C165.483 71.8626 167.2 73.4108 169.839 74.0651C172.307 74.6771 175.264 73.7908 179.206 71.9296C180.654 71.2457 182.174 70.4625 183.807 69.6211C184.36 69.3357 184.927 69.0436 185.509 68.7464C187.787 67.5815 190.256 66.3572 192.922 65.224C197.974 63.0768 201.42 62.9027 204.561 62.744C204.833 62.7303 205.103 62.7167 205.371 62.7019C208.601 62.524 211.743 62.1864 216.743 59.3531C219.154 57.9871 220.147 56.5755 220.469 55.3665C220.793 54.1459 220.51 52.8462 219.781 51.5612C219.051 50.2732 217.929 49.1096 216.807 48.2702C216.25 47.8533 215.719 47.5357 215.269 47.3281C214.789 47.1066 214.513 47.0616 214.434 47.0616C213.022 47.0616 211.699 46.5533 210.435 45.9679C209.903 45.7213 209.397 45.47 208.879 45.2127C208.063 44.8073 207.218 44.3871 206.193 43.9477ZM197.695 40.3129C200.938 39.7255 204.283 40.1432 207.289 41.4319C208.351 41.8871 209.374 42.393 210.26 42.8314C210.757 43.0774 211.211 43.3021 211.605 43.4848C212.81 44.0429 213.666 44.3209 214.434 44.3209C215.103 44.3209 215.81 44.5544 216.436 44.8434C217.092 45.1464 217.789 45.5713 218.472 46.0826C219.831 47.0997 221.236 48.5352 222.19 50.2175C223.146 51.9028 223.705 53.9448 223.141 56.0658C222.574 58.1983 220.946 60.1284 218.114 61.7327C212.631 64.8401 209.034 65.2451 205.524 65.4385C205.253 65.4534 204.983 65.4672 204.713 65.4809C201.633 65.6375 198.603 65.7916 194.011 67.7432C191.435 68.8377 189.036 70.0268 186.775 71.1825C186.216 71.4684 185.663 71.7535 185.117 72.0349C183.471 72.8828 181.89 73.6979 180.394 74.4041C176.473 76.2558 172.691 77.5972 169.169 76.7241C165.817 75.8932 163.041 73.7285 162.345 70.2796C161.665 66.9061 163.082 62.7768 166.944 58.1805L166.985 58.1327L167.029 58.0887C169.753 55.3875 174.315 51.5197 179.722 48.0462C185.115 44.5812 191.447 41.4447 197.695 40.3129ZM201.921 52.3704C200.205 52.3097 198.016 52.3692 195.808 52.4866C193.608 52.6036 191.331 52.8837 189.474 53.5921C187.64 54.2921 186.382 55.3395 185.872 56.923C185.516 58.0257 185.659 58.794 185.861 59.1152C185.944 59.2457 186.032 59.3063 186.145 59.3383C186.277 59.3756 186.557 59.4021 187.038 59.2429C189.476 58.4369 190.816 58.4119 192.351 58.6294C192.639 58.6702 192.925 58.7174 193.224 58.7666C194.366 58.9549 195.686 59.1725 197.959 59.1725C200.324 59.1725 202.19 57.7083 203.345 55.9086C203.918 55.0165 204.263 54.1147 204.391 53.4087C204.454 53.0605 204.456 52.8043 204.434 52.643C204.33 52.613 204.186 52.58 203.996 52.5477C203.486 52.4605 202.783 52.4008 201.921 52.3704ZM204.599 52.7012L204.593 52.6981L204.599 52.7012ZM205.453 50.0899C205.734 50.1884 206.115 50.3556 206.424 50.6629C206.896 51.1304 207.095 51.7291 207.169 52.2474C207.245 52.7769 207.211 53.3419 207.112 53.8929C206.912 54.9969 206.415 56.2301 205.677 57.3801C204.211 59.6646 201.584 61.9133 197.959 61.9133C195.438 61.9133 193.881 61.6552 192.727 61.4639C192.451 61.4182 192.198 61.3762 191.96 61.3426C190.874 61.1888 189.967 61.1637 187.912 61.843C187.051 62.1278 186.187 62.2001 185.388 61.9741C184.569 61.7427 183.936 61.2311 183.519 60.5696C182.722 59.3068 182.748 57.6123 183.239 56.0882C184.094 53.437 186.187 51.9097 188.482 51.0342C190.754 50.1672 193.383 49.8709 195.66 49.7498C197.898 49.6307 200.182 49.5664 202.019 49.6313C202.934 49.6637 203.778 49.7292 204.465 49.8467C204.809 49.9053 205.148 49.9825 205.453 50.0899ZM263.469 57.3623C265.307 55.181 265.404 55.0612 267.103 54.4994L267.977 57.0996C266.682 57.5279 267.048 57.3899 265.59 59.1195C264.169 60.8066 263.196 63.1347 263.721 66.2583C264.028 68.0847 264.814 70.3364 265.729 72.9609C265.858 73.3302 265.989 73.7069 266.122 74.0908C267.175 77.1301 268.292 80.5352 268.781 83.9261C269.27 87.3225 269.149 90.8287 267.606 94.0181C266.049 97.2369 263.134 99.9501 258.397 101.907L258.322 101.938L258.245 101.96C255.432 102.757 253.321 102.779 251.331 102.326C249.902 102.001 248.525 101.416 247.098 100.81C246.65 100.62 246.197 100.427 245.735 100.24C241.815 98.6495 236.031 96.824 223.5 97.5549L223.46 97.5573H223.419C212.904 97.5573 204.157 97.9409 197.68 100.261C194.475 101.408 191.883 103.012 189.919 105.235C187.959 107.453 186.554 110.366 185.841 114.244C185.564 115.896 185.334 117.425 185.124 118.821C184.784 121.088 184.496 123.006 184.142 124.528C183.563 127.012 182.693 129.051 180.605 130.086L179.369 127.635C180.276 127.185 180.904 126.254 181.449 123.911C181.781 122.481 182.041 120.75 182.364 118.593C182.575 117.183 182.813 115.592 183.117 113.784L183.12 113.764C183.906 109.478 185.496 106.082 187.84 103.429C190.181 100.779 193.206 98.9484 196.741 97.6827C203.733 95.1788 212.944 94.8175 223.379 94.8165C236.28 94.0687 242.47 95.9539 246.782 97.7033C247.36 97.9377 247.882 98.1592 248.367 98.3648C249.72 98.9384 250.783 99.389 251.95 99.6549C253.408 99.987 255.022 100.012 257.408 99.3465C261.61 97.5949 263.917 95.308 265.114 92.8328C266.332 90.3136 266.492 87.415 266.045 84.3137C265.597 81.207 264.562 78.0217 263.508 74.9812C263.379 74.6077 263.249 74.2348 263.119 73.8635C262.218 71.2844 261.344 68.7825 260.995 66.7089C260.322 62.7037 261.596 59.5861 263.469 57.3623ZM229.41 107.953C221.953 107.953 210.205 108.701 201.486 112.304C198.11 113.699 195.995 115.542 194.725 117.546C193.451 119.555 192.961 121.83 193.013 124.19C193.117 128.962 195.44 133.901 197.597 136.992L195.325 138.552C192.99 135.207 190.37 129.749 190.25 124.249C190.189 121.472 190.766 118.642 192.385 116.088C194.007 113.528 196.61 111.349 200.423 109.774C209.675 105.95 221.89 105.213 229.41 105.213C235.748 105.213 239.739 107.199 243.185 109.098C243.416 109.225 243.644 109.351 243.868 109.476C246.989 111.206 249.574 112.639 253.372 112.639L261.068 113.742V116.483L253.372 115.379C248.828 115.379 245.653 113.612 242.59 111.908C242.341 111.769 242.092 111.631 241.843 111.494C238.55 109.68 235.053 107.953 229.41 107.953Z" fill="url(#paint3_linear_1059_578)"/>
    <path fill-rule="evenodd" clip-rule="evenodd" d="M235.589 115.624C240.411 115.997 243.556 116.654 245.329 117.615C246.236 118.107 247.022 118.809 247.272 119.817C247.525 120.841 247.121 121.757 246.626 122.431C245.673 123.731 243.821 124.922 241.95 125.919C240.013 126.951 237.807 127.901 235.912 128.653C229.795 131.079 218.215 133.671 213.222 134.662C207.634 135.913 203.925 134.397 202.204 131.572C200.591 128.924 200.989 125.407 202.971 123.442C204.439 121.987 205.292 121.486 206.146 120.984C206.237 120.931 206.328 120.877 206.419 120.823C207.247 120.33 208.282 119.659 210.459 117.5C211.666 116.304 212.923 115.358 214.398 114.692C215.874 114.027 217.502 113.674 219.414 113.574C223.159 113.378 228.172 114.155 235.589 115.624ZM215.542 117.188C214.443 117.683 213.453 118.408 212.414 119.438C210.098 121.735 208.887 122.551 207.842 123.172C207.744 123.231 207.649 123.287 207.556 123.341C206.78 123.796 206.15 124.166 204.925 125.38C203.912 126.385 203.562 128.501 204.569 130.155C205.468 131.629 207.743 133.083 212.629 131.985L212.663 131.977L212.663 131.977C217.664 130.986 229.028 128.432 234.886 126.108C236.736 125.374 238.835 124.468 240.642 123.505C242.516 122.506 243.846 121.562 244.391 120.819C244.537 120.62 244.573 120.508 244.582 120.464C244.551 120.413 244.426 120.249 244.003 120.02C242.79 119.362 240.158 118.722 235.293 118.351L235.21 118.344L235.128 118.328C227.612 116.837 222.914 116.136 219.559 116.311C217.914 116.397 216.64 116.693 215.542 117.188ZM244.584 120.442C244.584 120.442 244.585 120.445 244.584 120.451C244.583 120.445 244.584 120.442 244.584 120.442ZM226.264 122.028C226.797 122.979 226.647 124.042 226.152 125.024C225.491 126.335 224.04 127.088 222.733 127.55C221.348 128.041 219.727 128.34 218.236 128.517C216.961 128.669 215.013 128.739 213.494 128.476C212.793 128.354 211.88 128.116 211.259 127.529C210.902 127.191 210.614 126.709 210.584 126.1C210.556 125.525 210.768 125.02 211.029 124.62C211.502 123.895 212.331 123.291 213.106 122.822C213.928 122.323 214.888 121.86 215.816 121.467C216.748 121.072 217.678 120.734 218.452 120.493C218.838 120.373 219.197 120.272 219.507 120.201C219.783 120.137 220.123 120.07 220.423 120.07C220.441 120.07 220.459 120.07 220.478 120.07C221.211 120.07 222.89 120.069 224.23 120.512C224.911 120.737 225.78 121.164 226.264 122.028ZM223.356 123.112C222.483 122.824 221.221 122.811 220.423 122.811C220.43 122.811 220.434 122.811 220.434 122.811C220.434 122.813 220.347 122.821 220.135 122.87C219.912 122.921 219.622 123.001 219.28 123.108C218.597 123.321 217.753 123.626 216.903 123.987C216.049 124.349 215.218 124.754 214.547 125.16C214.191 125.376 213.922 125.568 213.727 125.728C213.799 125.744 213.88 125.76 213.97 125.776C215.121 125.976 216.773 125.931 217.907 125.796C219.296 125.631 220.691 125.363 221.805 124.969C222.997 124.547 223.529 124.098 223.68 123.798C223.805 123.549 223.832 123.411 223.835 123.349C223.795 123.313 223.67 123.216 223.356 123.112ZM223.831 123.308C223.832 123.307 223.834 123.315 223.835 123.331C223.83 123.317 223.829 123.308 223.831 123.308ZM213.32 126.16C213.32 126.16 213.32 126.159 213.321 126.157L213.32 126.16Z" fill="url(#paint4_linear_1059_578)"/>
    <path d="M294.285 80C294.285 124.183 258.166 160 213.612 160C169.057 160 132.939 124.183 132.939 80C132.939 35.8172 169.057 0 213.612 0C258.166 0 294.285 35.8172 294.285 80ZM155.438 80C155.438 111.861 181.483 137.689 213.612 137.689C245.74 137.689 271.786 111.861 271.786 80C271.786 48.1395 245.74 22.3114 213.612 22.3114C181.483 22.3114 155.438 48.1395 155.438 80Z" fill="url(#paint5_linear_1059_578)"/>
    <path fill-rule="evenodd" clip-rule="evenodd" d="M392.794 25.3256C387.162 23.6741 381.227 22.1608 377.165 21.9238L377.327 19.1877C381.751 19.4458 387.974 21.054 393.578 22.6974C396.194 23.4647 398.662 24.2349 400.797 24.9012C403.335 25.6932 405.403 26.3385 406.69 26.6576C412.733 28.1558 424.694 32.7041 426.31 45.5239C427.059 51.4655 427.799 56.5893 428.9 60.9558C430 65.3187 431.439 68.837 433.532 71.6046C434.732 73.1912 435.857 75.2023 436.428 77.289C436.997 79.3667 437.059 81.6897 435.865 83.7035C434.656 85.7411 432.351 87.1452 428.882 87.7684C425.425 88.3894 420.657 88.2702 414.215 87.1429L414.167 87.1345L414.12 87.1228C402.641 84.2772 376.164 80.1327 353.226 99.6644C352.739 100.079 352.2 100.503 351.688 100.906C351.385 101.144 351.092 101.375 350.824 101.592C350.059 102.213 349.377 102.818 348.805 103.491C347.985 104.457 347.598 105.536 347.551 107.101C347.502 108.736 347.826 110.821 348.415 113.743C348.726 115.285 348.861 116.528 348.854 117.525C348.847 118.508 348.702 119.341 348.375 120.001C348.028 120.699 347.463 121.214 346.722 121.398C346.032 121.569 345.396 121.402 344.945 121.178L346.179 118.729C346.156 118.726 346.113 118.724 346.051 118.739C345.925 118.77 345.873 118.835 345.872 118.834C345.871 118.834 345.88 118.822 345.895 118.79C345.968 118.645 346.085 118.272 346.09 117.506C346.096 116.755 345.993 115.708 345.705 114.28C345.119 111.375 344.729 109.006 344.789 107.019C344.85 104.962 345.395 103.252 346.691 101.726C347.427 100.859 348.263 100.128 349.075 99.4701C349.416 99.1931 349.737 98.941 350.048 98.6967C350.518 98.3278 350.965 97.9768 351.425 97.585C375.381 77.1867 402.984 81.5436 414.743 84.4521C421.005 85.5446 425.395 85.6094 428.39 85.0715C431.379 84.5344 432.819 83.4322 433.482 82.3139C434.16 81.1716 434.222 79.6889 433.761 78.0074C433.303 76.3347 432.368 74.6329 431.321 73.2491C428.922 70.0761 427.365 66.1685 426.219 61.6205C425.073 57.076 424.316 51.8036 423.567 45.8638C422.188 34.921 411.958 30.7887 406.02 29.3165C404.681 28.9846 402.464 28.2938 399.819 27.4695C397.678 26.8025 395.257 26.0481 392.794 25.3256ZM346.199 118.734C346.199 118.734 346.197 118.734 346.193 118.732L346.199 118.734Z" fill="url(#paint6_linear_1059_578)"/>
    <path fill-rule="evenodd" clip-rule="evenodd" d="M387.205 32.4013C380.153 31.8634 372.986 33.6743 368.795 36.445C365.021 38.9395 359.438 40.963 354.188 42.6498C352.376 43.2321 350.609 43.7728 348.951 44.2802C345.699 45.2758 342.866 46.1431 340.926 46.9444L339.863 44.4145C341.925 43.5628 344.98 42.6271 348.328 41.6015C349.955 41.1032 351.651 40.5838 353.336 40.0424C358.608 38.3488 363.846 36.4226 367.262 34.1645C372.057 30.9946 379.866 29.0926 387.417 29.6686C394.987 30.246 402.628 33.351 406.678 40.5799C410.503 47.4077 412.842 55.0624 412.842 61.4809C412.842 67.8796 410.461 73.5059 404.352 75.2369L404.298 75.2521L404.243 75.263C401.973 75.7132 399.48 75.0252 396.925 74.2559C396.609 74.1609 396.289 74.0633 395.964 73.9642C393.55 73.2283 390.859 72.4076 387.667 71.9328C380.52 70.8696 370.73 71.5329 356.759 79.5491C350.849 83.2144 346.508 86.825 343.84 90.177C341.155 93.5499 340.314 96.4559 340.913 98.8347C342.184 103.874 341.447 109.263 340.913 111.381L338.232 110.716C338.696 108.874 339.358 103.965 338.232 99.4994C337.334 95.9376 338.74 92.1603 341.671 88.4787C344.615 84.7799 349.254 80.969 355.314 77.2126L355.354 77.1881L355.355 77.1888C369.828 68.8791 380.251 68.0583 388.077 69.2224C391.487 69.7295 394.378 70.612 396.785 71.3468C397.108 71.4454 397.422 71.5413 397.728 71.6333C400.382 72.4323 402.183 72.8576 403.648 72.5856C407.984 71.328 410.078 67.31 410.078 61.4809C410.078 55.6467 407.925 48.4496 404.262 41.9109C400.823 35.7734 394.237 32.9377 387.205 32.4013Z" fill="url(#paint7_linear_1059_578)"/>
    <path fill-rule="evenodd" clip-rule="evenodd" d="M382.254 43.9477C379.729 42.8655 376.938 42.5228 374.253 43.0091C368.513 44.0487 362.535 46.9742 357.286 50.3465C352.079 53.6912 347.688 57.4126 345.089 59.9827C341.497 64.274 340.675 67.5543 341.116 69.7421C341.544 71.8626 343.261 73.4108 345.9 74.0651C348.368 74.6771 351.326 73.7908 355.267 71.9296C356.715 71.2457 358.235 70.4625 359.868 69.6211C360.421 69.3357 360.988 69.0436 361.57 68.7464C363.849 67.5815 366.317 66.3572 368.983 65.224C374.035 63.0768 377.481 62.9027 380.622 62.744C380.894 62.7303 381.164 62.7167 381.432 62.7019C384.662 62.524 387.804 62.1864 392.804 59.3531C395.215 57.9871 396.208 56.5755 396.53 55.3665C396.855 54.1459 396.571 52.8462 395.842 51.5612C395.112 50.2732 393.99 49.1096 392.868 48.2702C392.311 47.8533 391.78 47.5357 391.33 47.3281C390.85 47.1066 390.574 47.0616 390.495 47.0616C389.083 47.0616 387.76 46.5533 386.496 45.9679C385.964 45.7213 385.458 45.47 384.941 45.2127C384.125 44.8073 383.279 44.3871 382.254 43.9477ZM373.756 40.3129C376.999 39.7255 380.344 40.1432 383.351 41.4319C384.413 41.8871 385.435 42.393 386.321 42.8314C386.818 43.0774 387.272 43.3021 387.666 43.4848C388.871 44.0429 389.727 44.3209 390.495 44.3209C391.164 44.3209 391.871 44.5544 392.497 44.8434C393.153 45.1464 393.85 45.5713 394.533 46.0826C395.892 47.0997 397.297 48.5352 398.251 50.2175C399.207 51.9028 399.766 53.9448 399.202 56.0658C398.635 58.1983 397.007 60.1284 394.176 61.7327C388.692 64.8401 385.095 65.2451 381.585 65.4385C381.314 65.4534 381.044 65.4672 380.774 65.4809C377.694 65.6375 374.664 65.7916 370.072 67.7432C367.496 68.8377 365.097 70.0268 362.836 71.1825C362.277 71.4684 361.724 71.7535 361.178 72.0349C359.532 72.8828 357.951 73.6979 356.455 74.4041C352.534 76.2558 348.752 77.5972 345.23 76.7241C341.878 75.8932 339.102 73.7285 338.406 70.2796C337.726 66.9061 339.143 62.7768 343.005 58.1805L343.046 58.1327L343.09 58.0887C345.814 55.3875 350.376 51.5197 355.783 48.0462C361.176 44.5812 367.508 41.4447 373.756 40.3129ZM377.982 52.3704C376.266 52.3097 374.077 52.3692 371.869 52.4866C369.669 52.6036 367.392 52.8837 365.535 53.5921C363.701 54.2921 362.443 55.3395 361.933 56.923C361.577 58.0257 361.72 58.794 361.922 59.1152C362.005 59.2457 362.093 59.3063 362.206 59.3383C362.338 59.3756 362.618 59.4021 363.099 59.2429C365.537 58.4369 366.877 58.4119 368.412 58.6294C368.7 58.6702 368.986 58.7174 369.285 58.7666C370.427 58.9549 371.747 59.1725 374.02 59.1725C376.385 59.1725 378.251 57.7083 379.406 55.9086C379.979 55.0165 380.325 54.1147 380.452 53.4087C380.515 53.0605 380.517 52.8043 380.495 52.643C380.391 52.613 380.247 52.58 380.057 52.5477C379.547 52.4605 378.844 52.4008 377.982 52.3704ZM380.66 52.7012L380.654 52.6981L380.66 52.7012ZM381.514 50.0899C381.795 50.1884 382.176 50.3556 382.485 50.6629C382.957 51.1304 383.156 51.7291 383.23 52.2474C383.307 52.7769 383.272 53.3419 383.173 53.8929C382.973 54.9969 382.476 56.2301 381.738 57.3801C380.272 59.6646 377.645 61.9133 374.02 61.9133C371.499 61.9133 369.942 61.6552 368.788 61.4639C368.512 61.4182 368.259 61.3762 368.021 61.3426C366.935 61.1888 366.028 61.1637 363.973 61.843C363.112 62.1278 362.248 62.2001 361.449 61.9741C360.63 61.7427 359.998 61.2311 359.58 60.5696C358.783 59.3068 358.809 57.6123 359.3 56.0882C360.155 53.437 362.248 51.9097 364.543 51.0342C366.815 50.1672 369.445 49.8709 371.721 49.7498C373.959 49.6307 376.243 49.5664 378.08 49.6313C378.995 49.6637 379.839 49.7292 380.526 49.8467C380.87 49.9053 381.209 49.9825 381.514 50.0899ZM439.53 57.3623C441.368 55.181 441.465 55.0612 443.164 54.4994L444.038 57.0996C442.743 57.5279 443.109 57.3899 441.651 59.1195C440.23 60.8066 439.257 63.1347 439.782 66.2583C440.089 68.0847 440.875 70.3364 441.79 72.9609C441.919 73.3302 442.05 73.7069 442.183 74.0908C443.236 77.1301 444.353 80.5352 444.842 83.9261C445.331 87.3225 445.21 90.8287 443.667 94.0181C442.11 97.2369 439.195 99.9501 434.458 101.907L434.383 101.938L434.306 101.96C431.493 102.757 429.382 102.779 427.392 102.326C425.963 102.001 424.586 101.416 423.159 100.81C422.711 100.62 422.258 100.427 421.796 100.24C417.876 98.6495 412.092 96.824 399.561 97.5549L399.521 97.5573H399.48C388.965 97.5573 380.218 97.9409 373.741 100.261C370.536 101.408 367.944 103.012 365.98 105.235C364.02 107.453 362.615 110.366 361.902 114.244C361.625 115.896 361.395 117.425 361.185 118.821C360.845 121.088 360.557 123.006 360.203 124.528C359.625 127.012 358.755 129.051 356.666 130.086L355.43 127.635C356.337 127.185 356.965 126.254 357.51 123.911C357.843 122.481 358.102 120.75 358.425 118.593C358.636 117.183 358.874 115.592 359.178 113.784L359.181 113.764C359.967 109.478 361.557 106.082 363.901 103.429C366.242 100.779 369.267 98.9484 372.802 97.6827C379.794 95.1788 389.005 94.8175 399.44 94.8165C412.341 94.0687 418.531 95.9539 422.843 97.7033C423.421 97.9377 423.943 98.1592 424.428 98.3648C425.781 98.9384 426.844 99.389 428.011 99.6549C429.469 99.987 431.083 100.012 433.469 99.3465C437.671 97.5949 439.978 95.308 441.175 92.8328C442.393 90.3136 442.553 87.415 442.106 84.3137C441.658 81.207 440.623 78.0217 439.57 74.9812C439.44 74.6077 439.31 74.2348 439.18 73.8635C438.279 71.2844 437.405 68.7825 437.056 66.7089C436.383 62.7037 437.657 59.5861 439.53 57.3623ZM405.471 107.953C398.014 107.953 386.266 108.701 377.547 112.304C374.171 113.699 372.056 115.542 370.786 117.546C369.513 119.555 369.022 121.83 369.074 124.19C369.178 128.962 371.501 133.901 373.659 136.992L371.386 138.552C369.051 135.207 366.431 129.749 366.311 124.249C366.25 121.472 366.827 118.642 368.446 116.088C370.068 113.528 372.671 111.349 376.484 109.774C385.737 105.95 397.951 105.213 405.471 105.213C411.809 105.213 415.8 107.199 419.246 109.098C419.477 109.225 419.705 109.351 419.929 109.476C423.051 111.206 425.635 112.639 429.433 112.639L437.129 113.742V116.483L429.433 115.379C424.89 115.379 421.714 113.612 418.651 111.908C418.402 111.769 418.153 111.631 417.904 111.494C414.611 109.68 411.114 107.953 405.471 107.953Z" fill="url(#paint8_linear_1059_578)"/>
    <path fill-rule="evenodd" clip-rule="evenodd" d="M411.65 115.624C416.472 115.997 419.617 116.654 421.39 117.615C422.297 118.107 423.083 118.809 423.333 119.817C423.586 120.841 423.182 121.757 422.687 122.431C421.734 123.731 419.882 124.922 418.011 125.919C416.074 126.951 413.868 127.901 411.973 128.653C405.856 131.079 394.276 133.671 389.283 134.662C383.695 135.913 379.986 134.397 378.265 131.572C376.652 128.924 377.05 125.407 379.032 123.442C380.5 121.987 381.353 121.486 382.207 120.984C382.298 120.931 382.389 120.877 382.48 120.823C383.308 120.33 384.343 119.659 386.52 117.5C387.727 116.304 388.984 115.358 390.459 114.692C391.935 114.027 393.563 113.674 395.475 113.574C399.22 113.378 404.233 114.155 411.65 115.624ZM391.603 117.188C390.504 117.683 389.514 118.408 388.475 119.438C386.159 121.735 384.948 122.551 383.903 123.172C383.805 123.231 383.71 123.287 383.617 123.341C382.842 123.796 382.211 124.166 380.986 125.38C379.973 126.385 379.623 128.501 380.63 130.155C381.529 131.629 383.804 133.083 388.69 131.985L388.724 131.977L388.724 131.977C393.725 130.986 405.09 128.432 410.947 126.108C412.797 125.374 414.896 124.468 416.703 123.505C418.577 122.506 419.907 121.562 420.452 120.819C420.598 120.62 420.634 120.508 420.643 120.464C420.612 120.413 420.487 120.249 420.064 120.02C418.851 119.362 416.219 118.722 411.354 118.351L411.271 118.344L411.189 118.328C403.673 116.837 398.975 116.136 395.62 116.311C393.975 116.397 392.701 116.693 391.603 117.188ZM420.645 120.442C420.645 120.442 420.646 120.445 420.645 120.451C420.644 120.445 420.645 120.442 420.645 120.442ZM402.325 122.028C402.858 122.979 402.708 124.042 402.213 125.024C401.552 126.335 400.102 127.088 398.794 127.55C397.409 128.041 395.788 128.34 394.297 128.517C393.022 128.669 391.074 128.739 389.555 128.476C388.855 128.354 387.941 128.116 387.32 127.529C386.963 127.191 386.675 126.709 386.645 126.1C386.617 125.525 386.829 125.02 387.09 124.62C387.563 123.895 388.392 123.291 389.167 122.822C389.989 122.323 390.949 121.86 391.877 121.467C392.809 121.072 393.739 120.734 394.513 120.493C394.899 120.373 395.258 120.272 395.568 120.201C395.844 120.137 396.184 120.07 396.484 120.07C396.502 120.07 396.52 120.07 396.539 120.07C397.272 120.07 398.951 120.069 400.291 120.512C400.972 120.737 401.841 121.164 402.325 122.028ZM399.417 123.112C398.544 122.824 397.282 122.811 396.484 122.811C396.491 122.811 396.495 122.811 396.495 122.811C396.495 122.813 396.408 122.821 396.196 122.87C395.973 122.921 395.683 123.001 395.341 123.108C394.658 123.321 393.814 123.626 392.964 123.987C392.11 124.349 391.279 124.754 390.608 125.16C390.252 125.376 389.983 125.568 389.788 125.728C389.86 125.744 389.941 125.76 390.031 125.776C391.182 125.976 392.834 125.931 393.968 125.796C395.357 125.631 396.752 125.363 397.866 124.969C399.058 124.547 399.59 124.098 399.741 123.798C399.866 123.549 399.893 123.411 399.896 123.349C399.856 123.313 399.732 123.216 399.417 123.112ZM399.892 123.308C399.893 123.307 399.895 123.315 399.896 123.331C399.891 123.317 399.891 123.308 399.892 123.308ZM389.381 126.16C389.381 126.16 389.381 126.159 389.382 126.157L389.381 126.16Z" fill="url(#paint9_linear_1059_578)"/>
    <path d="M470.346 80C470.346 124.183 434.227 160 389.673 160C345.119 160 309 124.183 309 80C309 35.8172 345.119 0 389.673 0C434.227 0 470.346 35.8172 470.346 80ZM331.499 80C331.499 111.861 357.544 137.689 389.673 137.689C421.802 137.689 447.847 111.861 447.847 80C447.847 48.1395 421.802 22.3114 389.673 22.3114C357.544 22.3114 331.499 48.1395 331.499 80Z" fill="url(#paint10_linear_1059_578)"/>
    <defs>
        <linearGradient id="paint0_linear_1059_578" x1="-5.12268" y1="90.7986" x2="74.3229" y2="90.7985" gradientUnits="userSpaceOnUse">
            <stop stop-color="#D299FF"/>
            <stop offset="1" stop-color="#58C3FF"/>
        </linearGradient>
        <linearGradient id="paint1_linear_1059_578" x1="164.777" y1="78.7326" x2="226.655" y2="78.7325" gradientUnits="userSpaceOnUse">
            <stop stop-color="#D299FF"/>
            <stop offset="1" stop-color="#58C3FF"/>
        </linearGradient>
        <linearGradient id="paint2_linear_1059_578" x1="158.693" y1="77.1964" x2="209.035" y2="77.1964" gradientUnits="userSpaceOnUse">
            <stop stop-color="#D299FF"/>
            <stop offset="1" stop-color="#58C3FF"/>
        </linearGradient>
        <linearGradient id="paint3_linear_1059_578" x1="157.602" y1="97.3959" x2="229.441" y2="97.3957" gradientUnits="userSpaceOnUse">
            <stop stop-color="#D299FF"/>
            <stop offset="1" stop-color="#58C3FF"/>
        </linearGradient>
        <linearGradient id="paint4_linear_1059_578" x1="199.226" y1="126.096" x2="230.25" y2="126.096" gradientUnits="userSpaceOnUse">
            <stop stop-color="#D299FF"/>
            <stop offset="1" stop-color="#58C3FF"/>
        </linearGradient>
        <linearGradient id="paint5_linear_1059_578" x1="126.024" y1="93.1477" x2="234.498" y2="93.1476" gradientUnits="userSpaceOnUse">
            <stop stop-color="#D299FF"/>
            <stop offset="1" stop-color="#58C3FF"/>
        </linearGradient>
        <linearGradient id="paint6_linear_1059_578" x1="340.838" y1="78.7326" x2="402.716" y2="78.7325" gradientUnits="userSpaceOnUse">
            <stop stop-color="#D299FF"/>
            <stop offset="1" stop-color="#58C3FF"/>
        </linearGradient>
        <linearGradient id="paint7_linear_1059_578" x1="334.754" y1="77.1964" x2="385.096" y2="77.1964" gradientUnits="userSpaceOnUse">
            <stop stop-color="#D299FF"/>
            <stop offset="1" stop-color="#58C3FF"/>
        </linearGradient>
        <linearGradient id="paint8_linear_1059_578" x1="333.663" y1="97.3959" x2="405.502" y2="97.3957" gradientUnits="userSpaceOnUse">
            <stop stop-color="#D299FF"/>
            <stop offset="1" stop-color="#58C3FF"/>
        </linearGradient>
        <linearGradient id="paint9_linear_1059_578" x1="375.287" y1="126.096" x2="406.311" y2="126.096" gradientUnits="userSpaceOnUse">
            <stop stop-color="#D299FF"/>
            <stop offset="1" stop-color="#58C3FF"/>
        </linearGradient>
        <linearGradient id="paint10_linear_1059_578" x1="302.085" y1="93.1477" x2="410.559" y2="93.1476" gradientUnits="userSpaceOnUse">
            <stop stop-color="#D299FF"/>
            <stop offset="1" stop-color="#58C3FF"/>
        </linearGradient>
    </defs>
</svg>
